<svg width="132" height="132" viewBox="0 0 132 132" fill="none" xmlns="http://www.w3.org/2000/svg">
<path d="M59.4767 25.4334C62.6207 20.8556 69.3785 20.8555 72.5224 25.4334L116.595 99.6054C120.202 104.857 116.442 112 110.072 112H21.9269C15.5569 112 11.7975 104.857 15.404 99.6054L59.4767 25.4334Z" fill="#EE643D"/>
<path fill-rule="evenodd" clip-rule="evenodd" d="M76.4153 32.0371L117.781 99.9609C120.993 105.234 117.197 111.99 111.023 111.99H34.3457L34.3457 111.99C54.5246 111.594 75.7256 107.539 85.2875 105.066C95.1791 102.508 100.125 91.2176 95.1791 80.8314L76.4153 32.0371Z" fill="#D34E33"/>
<path d="M19.0147 102.102L28.9063 86.2539C26.5322 97.7282 32.2035 106.059 35.336 107.543H21.4874C19.0152 107.543 17.5311 104.08 19.0147 102.102Z" fill="#FB9682"/>
<path d="M61.0537 52.6426H70.9453L68.967 85.7794H63.032L61.0537 52.6426Z" fill="white"/>
<path d="M65.9995 99.1331C68.1847 99.1331 69.9562 97.3616 69.9562 95.1765C69.9562 92.9913 68.1847 91.2198 65.9995 91.2198C63.8143 91.2198 62.0429 92.9913 62.0429 95.1765C62.0429 97.3616 63.8143 99.1331 65.9995 99.1331Z" fill="white"/>
</svg>
