<svg width="132" height="132" viewBox="0 0 132 132" fill="none" xmlns="http://www.w3.org/2000/svg">
<g clip-path="url(#clip0_7767_34763)">
<path d="M90.3058 34.1225V52.5883H80.4539V34.1225C80.4539 29.2257 78.5346 24.621 75.0492 21.1581C71.5638 17.6952 66.9292 15.7883 62.0005 15.7883C57.0719 15.7883 52.4373 17.6952 48.9519 21.1581C45.4665 24.621 43.5472 29.2257 43.5472 34.1225V52.5883H33.6953V34.1225C33.6953 30.3279 34.4439 26.6446 35.9216 23.1742C37.3476 19.8248 39.3876 16.8177 41.9855 14.2366C44.5834 11.6555 47.6099 9.62875 50.9811 8.21192C54.4751 6.74373 58.1813 6 62.0005 6C65.8198 6 69.5271 6.74373 73.02 8.21192C76.3912 9.62875 79.4178 11.6555 82.0156 14.2366C84.6135 16.8177 86.6535 19.8248 88.0795 23.1742C89.5572 26.6446 90.3058 30.3279 90.3058 34.1225Z" fill="#FFD769"/>
<path d="M90.3073 34.1225V52.5883H80.4554V47.3437C80.479 47.3437 80.5027 47.3437 80.5264 47.3437C84.3877 47.3512 87.522 44.2447 87.522 40.4083V34.1225C87.522 30.3279 86.7734 26.6446 85.2957 23.1742C83.8696 19.8248 81.8297 16.8177 79.2307 14.2366C76.6339 11.6555 73.6063 9.62875 70.2362 8.21192C67.1698 6.92244 63.9375 6.19155 60.6094 6.03317C61.0725 6.0107 61.5356 6 62.002 6C65.8213 6 69.5285 6.74373 73.0215 8.21192C76.3927 9.62875 79.4192 11.6555 82.0171 14.2366C84.615 16.8177 86.6549 19.8248 88.081 23.1742C89.5587 26.6446 90.3073 30.3279 90.3073 34.1225Z" fill="#FAC440"/>
<path d="M97.2846 49.543H26.7154C24.1111 49.543 22 51.6405 22 54.2279V113.315C22 115.903 24.1111 118 26.7154 118H97.2846C99.8888 118 102 115.903 102 113.315V54.2279C102 51.6405 99.8888 49.543 97.2846 49.543Z" fill="#06B05F"/>
<path d="M71.2157 77.0191C71.2157 80.8405 68.8591 84.1151 65.5115 85.4869V92.1912C65.5115 94.1174 63.9401 95.6787 62.0014 95.6787C60.0627 95.6787 58.4912 94.1174 58.4912 92.1912V85.4869C55.1426 84.1151 52.7871 80.8416 52.7871 77.0191C52.7871 71.9629 56.9133 67.8633 62.0025 67.8633C67.0916 67.8633 71.2178 71.9629 71.2178 77.0191H71.2157Z" fill="#04923F"/>
<path d="M102.001 58.8008V113.316C102.001 115.904 99.8899 118.001 97.2855 118.001H65.832C68.0605 117.526 70.2652 116.953 72.4344 116.246C80.1591 113.73 87.5036 109.33 92.0208 102.688C96.6177 95.9293 97.8833 87.5782 99.0347 79.5331C100.023 72.6223 101.012 65.7116 102.001 58.8008Z" fill="#04923F"/>
<path opacity="0.5" d="M26.0011 74.6165V55.0859C26.0011 54.2095 26.7162 53.5 27.5973 53.5H47.2903C48.879 53.5 49.4918 55.5514 48.1617 56.415C42.9691 59.7901 34.8039 66.1102 28.9533 75.4512C28.1046 76.807 26 76.2131 26 74.6154L26.0011 74.6165Z" fill="#83D9B0"/>
</g>
<g filter="url(#filter0_d_7767_34763)">
<circle cx="102" cy="97" r="21" fill="url(#paint0_linear_7767_34763)"/>
<circle cx="102" cy="97" r="19.6" stroke="white" stroke-width="2.8"/>
</g>
<path d="M102.339 103.358C101.429 104.265 99.9564 104.265 99.0471 103.357L94.362 98.6794C93.6098 97.9284 93.6089 96.7098 94.36 95.9577C95.1105 95.2062 96.328 95.2049 97.0802 95.9547L100.693 99.5556L107.92 92.3563C108.672 91.607 109.889 91.6086 110.639 92.3599C111.391 93.1123 111.39 94.3313 110.637 95.0821L102.339 103.358Z" fill="white"/>
<defs>
<filter id="filter0_d_7767_34763" x="74" y="74.25" width="56" height="56" filterUnits="userSpaceOnUse" color-interpolation-filters="sRGB">
<feFlood flood-opacity="0" result="BackgroundImageFix"/>
<feColorMatrix in="SourceAlpha" type="matrix" values="0 0 0 0 0 0 0 0 0 0 0 0 0 0 0 0 0 0 127 0" result="hardAlpha"/>
<feOffset dy="5.25"/>
<feGaussianBlur stdDeviation="3.5"/>
<feComposite in2="hardAlpha" operator="out"/>
<feColorMatrix type="matrix" values="0 0 0 0 0 0 0 0 0 0 0 0 0 0 0 0 0 0 0.11 0"/>
<feBlend mode="normal" in2="BackgroundImageFix" result="effect1_dropShadow_7767_34763"/>
<feBlend mode="normal" in="SourceGraphic" in2="effect1_dropShadow_7767_34763" result="shape"/>
</filter>
<linearGradient id="paint0_linear_7767_34763" x1="93.1154" y1="80.0385" x2="115.731" y2="113.962" gradientUnits="userSpaceOnUse">
<stop stop-color="#9CD054"/>
<stop offset="1" stop-color="#5DBC54"/>
</linearGradient>
<clipPath id="clip0_7767_34763">
<rect width="80" height="112" fill="white" transform="translate(22 6)"/>
</clipPath>
</defs>
</svg>
