<svg width="25" height="24" viewBox="0 0 25 24" fill="none" xmlns="http://www.w3.org/2000/svg">
<g id="20px icon">
<g id="Vector">
<path d="M12.0201 12.5996L9.23609 9.81561L8.02409 11.0396L12.0201 15.0356L18.0921 8.95161L16.8801 7.73961L12.0201 12.5996Z" fill="#2B2B2B"/>
<path d="M20.5401 2.38761L12.5001 0.599609L4.46009 2.38761C4.06409 2.47161 3.78809 2.81961 3.78809 3.22761V13.0316C3.78809 14.9636 4.74809 16.7636 6.35609 17.8316L12.5001 21.9356L18.6441 17.8316C20.2521 16.7636 21.2121 14.9636 21.2121 13.0316V3.22761C21.2121 2.81961 20.9361 2.47161 20.5401 2.38761ZM19.4961 13.0316C19.4961 14.3876 18.8241 15.6476 17.6961 16.4036L12.5001 19.8596L7.30409 16.4036C6.17609 15.6476 5.50409 14.3996 5.50409 13.0316V3.92361L12.5001 2.36361H12.5241L19.4961 3.92361V13.0316Z" fill="#2B2B2B"/>
</g>
</g>
</svg>
