<svg width="20" height="20" viewBox="0 0 20 20" fill="none" xmlns="http://www.w3.org/2000/svg">
  <path fill-rule="evenodd" clip-rule="evenodd" d="M11.4569 3.40658C10.8219 2.26356 9.17803 2.26356 8.54302 3.40658L1.62595 15.8573C1.0088 16.9682 1.81208 18.3334 3.08288 18.3334H16.917C18.1878 18.3334 18.9911 16.9682 18.374 15.8573L11.4569 3.40658Z" fill="#FF3E49" />
  <path fill-rule="evenodd" clip-rule="evenodd" d="M9.24231 14.4697C9.24231 14.0513 9.58149 13.7122 9.99989 13.7122H10.0075C10.4259 13.7122 10.765 14.0513 10.765 14.4697C10.765 14.8881 10.4259 15.2273 10.0075 15.2273H9.99989C9.58149 15.2273 9.24231 14.8881 9.24231 14.4697Z" fill="white" />
  <path fill-rule="evenodd" clip-rule="evenodd" d="M9.99989 7.5C10.4183 7.5 10.7575 7.83918 10.7575 8.25758V11.2879C10.7575 11.7063 10.4183 12.0455 9.99989 12.0455C9.58149 12.0455 9.24231 11.7063 9.24231 11.2879V8.25758C9.24231 7.83918 9.58149 7.5 9.99989 7.5Z" fill="white" />
</svg>
