<svg width="16" height="16" viewBox="0 0 16 16" fill="none" xmlns="http://www.w3.org/2000/svg">
<g id="Plan">
<g id="Vector">
<path d="M4.76669 7.90002V6.76668H5.90003V7.90002H4.76669Z" fill="#2B2B2B"/>
<path d="M4.76669 9.90002V8.76668H5.90003V9.90002H4.76669Z" fill="#2B2B2B"/>
<path d="M4.76669 11.9V10.7667H5.90003V11.9H4.76669Z" fill="#2B2B2B"/>
<path fill-rule="evenodd" clip-rule="evenodd" d="M4.76669 2.76668V2.43335C4.76669 1.88106 5.21441 1.43335 5.76669 1.43335H10.2334C10.7856 1.43335 11.2334 1.88107 11.2334 2.43335V2.76668H13.3378C13.6483 2.76668 13.9 3.01854 13.9 3.32895V14.0044C13.9 14.3149 13.6482 14.5667 13.3378 14.5667H2.66229C2.35177 14.5667 2.10003 14.3149 2.10003 14.0044V3.32895C2.10003 3.01843 2.35187 2.76668 2.66229 2.76668H4.76669ZM10.1 2.56668H5.90003V4.10002H10.1V2.56668ZM4.76669 3.90002H3.23336V13.4334H12.7667V3.90002H11.2334V5.23335H4.76669V3.90002Z" fill="#2B2B2B"/>
</g>
</g>
</svg>
