<svg width="24" height="24" viewBox="0 0 24 24" fill="none" xmlns="http://www.w3.org/2000/svg">
  <path fill-rule="evenodd" clip-rule="evenodd" d="M21.2267 11.7459C21.2267 11.7459 21.2263 11.7475 21.2253 11.7508C21.2262 11.7476 21.2266 11.746 21.2267 11.7459ZM21.1254 12C21.0399 11.8124 20.909 11.5616 20.7275 11.2631C20.3125 10.5803 19.6811 9.7267 18.8522 8.89779C17.1832 7.22883 14.8642 5.8 12 5.8C9.1358 5.8 6.81675 7.22883 5.14779 8.89779C4.31888 9.7267 3.68755 10.5803 3.27251 11.2631C3.09104 11.5616 2.96012 11.8124 2.87462 12C2.96012 12.1876 3.09104 12.4384 3.27251 12.7369C3.68755 13.4197 4.31888 14.2733 5.14779 15.1022C6.81675 16.7712 9.1358 18.2 12 18.2C14.8642 18.2 17.1832 16.7712 18.8522 15.1022C19.6811 14.2733 20.3125 13.4197 20.7275 12.7369C20.909 12.4384 21.0399 12.1876 21.1254 12ZM2.77332 11.7459C2.77336 11.746 2.77384 11.7476 2.77466 11.7508C2.77369 11.7475 2.77328 11.7459 2.77332 11.7459ZM2.77332 12.2541C2.77328 12.2541 2.77369 12.2525 2.77466 12.2492C2.77384 12.2524 2.77336 12.254 2.77332 12.2541ZM21.2253 12.2492C21.2263 12.2525 21.2267 12.2541 21.2267 12.2541C21.2266 12.254 21.2262 12.2524 21.2253 12.2492ZM12 20C19 20 23 13 23 12C23 11 19 4 12 4C5 4 1 11 1 12C1 13 5 20 12 20Z" fill="#6B6B6B" />
  <path fill-rule="evenodd" clip-rule="evenodd" d="M11.9999 10.2222C11.0181 10.2222 10.2221 11.0182 10.2221 12C10.2221 12.9819 11.0181 13.7778 11.9999 13.7778C12.9817 13.7778 13.7777 12.9819 13.7777 12C13.7777 11.0182 12.9817 10.2222 11.9999 10.2222ZM8.44434 12C8.44434 10.0363 10.0362 8.44446 11.9999 8.44446C13.9636 8.44446 15.5554 10.0363 15.5554 12C15.5554 13.9637 13.9636 15.5556 11.9999 15.5556C10.0362 15.5556 8.44434 13.9637 8.44434 12Z" fill="#6B6B6B" />
</svg>