<svg width="16" height="16" viewBox="0 0 16 16" fill="none" xmlns="http://www.w3.org/2000/svg">
<g id="Class Content">
<g id="Vector">
<path d="M1.8808 5.07208L8.7608 7.58408C8.8248 7.60808 8.8888 7.61608 8.9528 7.61608C9.1848 7.61608 9.3928 7.47208 9.4808 7.24808C9.5848 6.96008 9.4408 6.64008 9.1448 6.52808L6.8808 5.69608C6.9448 5.55208 7.0168 5.40808 7.1128 5.27208C7.4568 4.80808 7.9768 4.48008 8.5528 4.36808C9.1368 4.26408 9.7048 4.38408 10.1528 4.71208L10.6248 5.05608L11.5048 3.74408L11.3368 3.41608C11.3048 3.30408 11.2888 3.19208 11.2888 3.07208C11.2888 2.40008 11.8328 1.85608 12.5048 1.85608C13.1768 1.85608 13.7208 2.40008 13.7208 3.07208C13.7208 3.67208 13.2808 4.18408 12.6888 4.27208C12.3848 4.32008 12.1768 4.60808 12.2168 4.91208C12.2648 5.21608 12.5528 5.42408 12.8568 5.38408C13.9848 5.20808 14.8408 4.21608 14.8408 3.07208C14.8408 1.78408 13.7928 0.736084 12.5048 0.736084C11.2168 0.736084 10.1688 1.78408 10.1688 3.07208C10.1688 3.20808 10.1768 3.33608 10.2008 3.47208C8.8408 2.89608 7.1288 3.33608 6.1928 4.61608C6.0328 4.83208 5.9128 5.07208 5.8168 5.32008L2.2488 4.01608C1.9608 3.91208 1.6408 4.05608 1.5288 4.35208C1.4248 4.64008 1.5688 4.96008 1.8648 5.07208H1.8808Z" fill="#2B2B2B"/>
<path d="M13.8728 13.3681L13.4248 13.7361C12.9448 14.1361 12.2728 14.2481 11.6888 14.0241L10.3608 13.5201L12.2088 11.0801C12.7368 10.3841 12.6488 9.41608 12.0088 8.82408L11.2568 8.13608L11.5448 7.68008C11.6168 7.79208 11.6968 7.90408 11.8008 8.00808C12.4808 8.76008 13.5048 9.08008 14.5528 8.86409C14.8568 8.80009 15.0488 8.50408 14.9848 8.20008C14.9208 7.89608 14.6248 7.70408 14.3208 7.76809C13.6808 7.90408 13.0408 7.71208 12.6248 7.25608C12.2488 6.84008 12.2808 6.40808 12.2808 6.40008C12.3128 6.13608 12.1608 5.89608 11.9128 5.80808C11.6648 5.72008 11.3928 5.81608 11.2488 6.04008L10.0568 7.94408C9.9128 8.17608 9.9528 8.47208 10.1528 8.65608L11.2488 9.66408C11.4648 9.86409 11.4888 10.1841 11.3128 10.4161L9.2888 13.0801C9.2888 13.0801 9.2808 13.1041 9.2728 13.1121L8.2648 12.7281L9.7768 10.6161C9.9448 10.3761 9.9048 10.0401 9.6728 9.85608C9.6648 9.84808 8.4888 8.88808 8.1208 8.53608C7.9368 8.36008 7.8808 8.24008 7.8648 8.20008C7.9048 7.94408 7.7688 7.68008 7.5128 7.58408C7.2248 7.47208 6.8968 7.61608 6.7928 7.90408C6.7288 8.05608 6.5928 8.62408 7.3448 9.34408C7.6008 9.59208 8.1688 10.0641 8.5608 10.3921L7.2088 12.2801C7.2088 12.2801 7.2008 12.3041 7.1928 12.3201L1.7608 10.2561C1.4728 10.1441 1.1448 10.2881 1.0408 10.5841C0.928802 10.8721 1.0728 11.2001 1.3688 11.3041L11.3048 15.0801C11.6328 15.2081 11.9768 15.2641 12.3208 15.2641C12.9848 15.2641 13.6328 15.0321 14.1528 14.6001L14.6008 14.2321C14.8408 14.0321 14.8728 13.6801 14.6728 13.4401C14.4728 13.2001 14.1208 13.1681 13.8808 13.3681H13.8728Z" fill="#2B2B2B"/>
</g>
</g>
</svg>
