<svg width="166" height="34" viewBox="0 0 166 34" fill="none" xmlns="http://www.w3.org/2000/svg">
<path d="M32.1369 5.9864C32.1369 7.04473 32.1452 7.90306 32.1369 8.7614C32.1286 9.3614 32.1619 9.99473 31.3036 10.0781C30.6036 10.1447 30.2702 9.79473 29.9702 9.16973C27.5869 4.19473 24.3786 2.36973 18.7119 2.71973C13.3202 3.04473 9.60358 5.82806 8.06192 10.9947C6.31192 16.8697 6.59525 22.5114 11.0702 27.2447C16.1702 32.6364 23.9952 32.4197 28.9952 26.9364C29.6619 26.2114 30.2119 24.6781 31.3536 25.2197C32.7536 25.8864 31.4452 27.1781 31.3952 28.2031C31.2536 31.1864 29.3286 32.2781 26.6869 32.8614C21.7453 33.9531 16.8369 34.3614 11.9536 32.6531C5.67858 30.4531 1.62858 26.2864 0.686916 19.6281C-0.229751 13.1531 2.25358 7.9364 7.51192 4.1864C14.8036 -1.00527 22.7119 -0.963603 30.8286 2.10306C33.0536 2.94473 31.7452 4.81973 32.1369 6.00306V5.9864Z" fill="white"/>
<path d="M109.77 27.5114C110.004 26.4281 109.145 24.3281 110.27 24.0614C111.82 23.6947 111.587 25.9364 112.187 26.9864C114.287 30.6031 118.52 32.1947 122.479 30.6531C126.412 29.1197 127.187 25.1614 124.095 22.3114C122.612 20.9447 120.795 20.1281 118.879 19.5281C117.287 19.0364 115.762 18.4031 114.379 17.4697C109.295 14.0364 108.895 7.1614 113.637 3.2614C117.97 -0.305269 122.987 -0.446936 128.17 0.778064C129.504 1.09473 130.129 2.0364 129.804 3.47806C129.595 4.44473 129.42 5.41973 129.345 6.40306C129.254 7.65306 128.604 8.10306 127.412 8.1364C126.212 8.16973 126.045 7.4364 125.887 6.5114C125.537 4.4864 124.37 3.1864 122.254 2.86973C119.595 2.47806 117.187 2.90306 115.495 5.2114C114.295 6.84473 114.537 8.55306 115.504 10.2197C116.129 11.2947 117.12 11.9531 118.22 12.4531C120.27 13.3697 122.354 14.2364 124.42 15.1281C129.112 17.1614 131.304 21.1447 130.37 25.9364C129.537 30.2447 125.504 33.5697 120.82 33.7947C118.479 33.9114 116.179 33.6447 113.92 33.0114C109.77 31.8531 109.762 31.8697 109.762 27.5281L109.77 27.5114Z" fill="white"/>
<path d="M140.304 20.0697C142.395 17.8031 144.47 15.5197 146.579 13.2697C147.279 12.5197 146.995 12.1614 146.154 11.9031C145.495 11.7031 144.829 11.3781 145.004 10.5614C145.187 9.7114 146.004 9.82806 146.645 9.81973C148.704 9.80306 150.77 9.8114 152.829 9.84473C153.27 9.84473 153.812 9.90306 153.937 10.4781C154.07 11.0781 153.787 11.5781 153.212 11.7031C150.179 12.3614 148.629 14.9364 146.495 16.7614C145.745 17.4114 145.095 18.1697 144.37 18.8447C142.412 20.6781 142.404 20.6864 144.312 22.4031C146.77 24.6197 149.237 26.8197 151.704 29.0197C152.095 29.3697 152.637 29.6197 152.904 30.0364C153.404 30.8364 155.695 30.3114 154.695 32.0281C153.854 33.4781 150.412 33.9281 149.395 32.9864C146.62 30.4364 143.879 27.8447 141.12 25.2781C140.745 24.9281 140.337 24.6114 139.62 23.9947C139.62 26.2031 139.587 28.0697 139.637 29.9281C139.654 30.7281 140.087 31.2614 140.97 31.3864C141.645 31.4864 142.362 31.7364 142.287 32.5781C142.195 33.5114 141.362 33.3447 140.729 33.3531C138.537 33.3697 136.337 33.3531 134.145 33.3531C133.554 33.3531 132.829 33.4781 132.67 32.7114C132.504 31.9114 133.079 31.4697 133.812 31.4114C135.104 31.3114 135.22 30.5114 135.212 29.4864C135.187 24.2781 135.179 19.0781 135.212 13.8697C135.22 12.7447 135.037 11.9364 133.729 11.7614C133.079 11.6781 132.545 11.2781 132.604 10.5947C132.67 9.81973 133.404 9.80306 133.987 9.79473C136.312 9.76973 138.645 9.76973 140.97 9.79473C141.487 9.79473 142.12 9.8364 142.262 10.4697C142.42 11.1864 141.912 11.6281 141.287 11.7197C139.654 11.9531 139.562 13.0614 139.587 14.3364C139.629 16.0447 139.595 17.7614 139.595 19.4781L140.279 20.0447L140.304 20.0697Z" fill="white"/>
<path d="M84.0369 19.6947C85.4119 17.5197 86.5869 15.6197 87.8286 13.7531C88.4202 12.8614 88.6286 12.2281 87.2869 11.9531C86.5369 11.7947 85.8036 11.5031 85.9619 10.5531C86.1119 9.62806 86.9702 9.8364 87.5702 9.81973C89.6952 9.77806 91.8286 9.77806 93.9536 9.81973C94.5119 9.82806 95.2786 9.81973 95.3286 10.6281C95.3702 11.2864 94.8952 11.7614 94.2452 11.8531C92.3202 12.1281 90.9167 14.1667 90.3786 14.9364C89.9167 15.6667 89.4167 16.1667 88.4167 17.6667C85.6865 21.7619 84.8952 24.5614 85.4119 29.2781C85.5369 30.4197 85.5786 31.3614 87.0536 31.4781C87.6786 31.5281 88.1786 31.9447 88.0452 32.6947C87.9202 33.3947 87.3286 33.3781 86.7952 33.3781C84.4036 33.3781 82.0119 33.3781 79.6119 33.3781C79.0786 33.3781 78.4869 33.4114 78.3786 32.6947C78.2702 31.9614 78.7369 31.5281 79.3702 31.4697C80.7286 31.3364 80.9619 30.5114 80.8702 29.4031C80.8702 29.3364 80.8619 29.2697 80.8702 29.2031C81.4786 24.7364 79.9167 19.0636 77.4167 16.1667C75.7038 14.1819 74.9202 12.2947 71.6786 11.6697C71.1536 11.5697 70.9952 11.0531 71.0536 10.5697C71.1286 9.99473 71.6286 9.84473 72.0952 9.84473C75.1536 9.82806 78.2119 9.81973 81.2619 9.84473C81.7036 9.84473 82.2536 9.94473 82.3202 10.5364C82.4036 11.2781 81.9202 11.6447 81.2619 11.7197C79.1119 11.9531 79.6119 12.9281 80.4619 14.1697C81.6452 15.8947 82.7369 17.6781 84.0369 19.6864V19.6947Z" fill="white"/>
<path d="M59.9786 21.7031C59.9786 24.1447 60.0036 26.5864 59.9703 29.0281C59.9536 30.2197 59.9619 31.2947 61.5703 31.4447C62.2119 31.5031 62.6786 31.9864 62.5953 32.6864C62.5119 33.3614 61.9369 33.3947 61.3703 33.3947C58.9702 33.3947 56.5786 33.3947 54.1786 33.3947C53.6119 33.3947 53.0369 33.3281 52.9036 32.7197C52.7536 32.0281 53.2286 31.5197 53.8703 31.4614C55.4453 31.3197 55.5703 30.3197 55.5619 29.0864C55.5369 24.2031 55.4953 19.3197 55.5786 14.4447C55.6119 12.6947 54.9619 12.1114 53.2369 12.2031C50.8786 12.3281 48.3202 11.7531 47.1202 14.6781C46.9702 15.0447 46.5619 15.2364 46.1119 14.9947C45.7036 14.7781 45.5536 14.4031 45.6452 13.9947C45.9619 12.5197 46.2619 11.0281 46.6786 9.5864C46.9119 8.80306 47.5536 8.5614 48.2119 9.17806C48.9869 9.90306 49.9119 9.8114 50.8369 9.8114C55.8953 9.8114 60.9536 9.8114 66.0202 9.8114C66.9536 9.8114 67.8536 9.79473 68.7286 9.3364C70.0452 8.64473 70.5036 9.39473 70.3036 10.5531C70.0703 11.9114 69.6202 13.2281 69.3036 14.5781C69.1452 15.2364 68.8702 15.6781 68.1119 15.6364C67.3286 15.5947 67.4119 15.0281 67.3702 14.4947C67.2369 12.8781 66.2869 12.2031 64.7036 12.2281C59.1869 12.3031 60.0452 11.5614 59.9786 16.7697C59.9536 18.4197 59.9786 20.0697 59.9786 21.7197V21.7031Z" fill="white"/>
<path d="M40.2702 33.3781C39.0702 33.3781 37.8702 33.3781 36.6786 33.3781C36.1202 33.3781 35.5452 33.3197 35.4036 32.7031C35.2702 32.1031 35.6952 31.5781 36.2202 31.5197C38.1202 31.3114 38.0786 30.0364 38.0702 28.6364C38.0369 23.8197 38.0452 19.0114 38.0702 14.1947C38.0702 12.9781 37.9786 11.9614 36.4286 11.7697C35.8036 11.6947 35.2786 11.2281 35.4036 10.5447C35.5119 9.92806 36.1369 9.82806 36.6786 9.82806C39.0702 9.81973 41.4702 9.8114 43.8619 9.84473C44.3786 9.84473 45.0202 9.9364 45.0452 10.6364C45.0619 11.1947 44.7202 11.6781 44.1036 11.7447C42.4286 11.9281 42.4369 13.0614 42.4452 14.3281C42.4786 19.2697 42.4786 24.2197 42.4452 29.1614C42.4369 30.3281 42.5286 31.2614 43.9786 31.4364C44.6202 31.5114 45.1369 31.9281 45.0536 32.6281C44.9536 33.4114 44.2702 33.3781 43.6619 33.3781C42.5286 33.3781 41.3952 33.3781 40.2702 33.3781Z" fill="white"/>
<path d="M158.72 21.5031C158.72 19.0614 158.687 16.6281 158.737 14.1947C158.762 12.9614 158.629 11.9697 157.104 11.7614C156.47 11.6781 155.945 11.2447 156.079 10.5531C156.195 9.9614 156.804 9.8364 157.362 9.82806C159.687 9.81973 162.012 9.8114 164.345 9.82806C164.945 9.82806 165.704 9.90306 165.787 10.6031C165.862 11.2114 165.345 11.6947 164.679 11.7864C163.304 11.9781 163.104 12.8614 163.112 14.0531C163.154 19.0614 163.154 24.0697 163.112 29.0697C163.104 30.3114 163.22 31.2864 164.779 31.4447C165.42 31.5114 165.87 32.0531 165.745 32.7197C165.629 33.3447 165.02 33.3781 164.47 33.3781C162.079 33.3781 159.687 33.3781 157.287 33.3781C156.72 33.3781 156.162 33.2614 156.07 32.6364C155.987 32.0614 156.404 31.5281 156.945 31.4864C158.77 31.3447 158.754 30.1364 158.729 28.8031C158.687 26.3697 158.72 23.9281 158.72 21.4947V21.5031Z" fill="white"/>
</svg>
