<svg width="132" height="132" viewBox="0 0 132 132" fill="none" xmlns="http://www.w3.org/2000/svg">
<path fillRule="evenodd" clipRule="evenodd" d="M116 109.111C116 112.223 116 113.778 115.394 114.967C114.862 116.012 114.012 116.862 112.967 117.394C111.778 118 110.223 118 107.111 118H24.8889C21.7775 118 20.2218 118 19.0334 117.394C17.988 116.862 17.1381 116.012 16.6055 114.967C16 113.778 16 112.223 16 109.111V56.0905C16 54.3512 16 53.4816 16.2397 52.6922C16.452 51.9934 16.7999 51.3432 17.2636 50.779C17.7875 50.1417 18.511 49.6593 19.9582 48.6945L38.7607 36.1595C39.593 35.6047 40.0092 35.3272 40.4594 35.1307C40.8591 34.9562 41.2779 34.8294 41.7072 34.7529C42.1908 34.6667 42.691 34.6667 43.6913 34.6667H88.3087C89.309 34.6667 89.8092 34.6667 90.2928 34.7529C90.7221 34.8294 91.1409 34.9562 91.5406 35.1307C91.9908 35.3272 92.407 35.6047 93.2393 36.1595L112.042 48.6945C113.489 49.6593 114.213 50.1417 114.736 50.779C115.2 51.3432 115.548 51.9934 115.76 52.6922C116 53.4816 116 54.3512 116 56.0905V109.111Z" fill="#566076"/>
<path d="M26 26.8C26 22.3196 26 20.0794 26.8719 18.3681C27.6389 16.8628 28.8628 15.6389 30.3681 14.8719C32.0794 14 34.3196 14 38.8 14L93.2 14C97.6804 14 99.9206 14 101.632 14.8719C103.137 15.6389 104.361 16.8628 105.128 18.3681C106 20.0794 106 22.3196 106 26.8V86.2C106 90.6804 106 92.9206 105.128 94.6319C104.361 96.1372 103.137 97.3611 101.632 98.1281C99.9206 99 97.6804 99 93.2 99H38.8C34.3196 99 32.0794 99 30.3681 98.1281C28.8628 97.3611 27.6389 96.1372 26.8719 94.6319C26 92.9206 26 90.6804 26 86.2L26 26.8Z" fill="#F7F7F8"/>
<rect x="35" y="29" width="31" height="5" rx="2.5" fill="#E8E8EC"/>
<rect x="35" y="41" width="31" height="5" rx="2.5" fill="#E8E8EC"/>
<rect x="35" y="53" width="60" height="5" rx="2.5" fill="#E8E8EC"/>
<mask id="mask0_7716_4926" style="mask-type:alpha" maskUnits="userSpaceOnUse" x="16" y="19" width="100" height="99">
<path d="M16 56.0905C16 54.3512 16 53.4816 16.2397 52.6922C16.452 51.9934 16.7999 51.3433 17.2636 50.779C17.7875 50.1417 18.511 49.6593 19.9582 48.6945L61.0693 21.2871C62.8513 20.0991 63.7423 19.5051 64.7053 19.2743C65.5564 19.0704 66.4436 19.0704 67.2947 19.2743C68.2577 19.5051 69.1487 20.0991 70.9307 21.2871L112.042 48.6945C113.489 49.6593 114.213 50.1417 114.736 50.779C115.2 51.3433 115.548 51.9934 115.76 52.6922C116 53.4816 116 54.3512 116 56.0905V109.111C116 112.223 116 113.778 115.394 114.967C114.862 116.012 114.012 116.862 112.967 117.394C111.778 118 110.223 118 107.111 118H24.8889C21.7775 118 20.2218 118 19.0334 117.394C17.988 116.862 17.1381 116.012 16.6055 114.967C16 113.778 16 112.223 16 109.111V56.0905Z" fill="black"/>
</mask>
<g mask="url(#mask0_7716_4926)">
<path d="M16 51.332L16 117.999L49.9769 91.694C53.0684 89.3006 54.6142 88.1038 55.1704 86.6474C55.6578 85.371 55.6578 83.9597 55.1704 82.6834C54.6142 81.2269 53.0684 80.0302 49.9769 77.6367L16 51.332Z" fill="#EEF0F1"/>
<path d="M116 51.332L116 117.999L82.0231 91.694C78.9316 89.3006 77.3858 88.1038 76.8296 86.6474C76.3422 85.371 76.3422 83.9597 76.8296 82.6834C77.3858 81.2269 78.9316 80.0302 82.0231 77.6367L116 51.332Z" fill="#EEF0F1"/>
<path d="M16 118L116 118L71.8002 79.9389C69.7424 78.1669 68.7134 77.2808 67.5586 76.9433C66.5408 76.6458 65.4592 76.6458 64.4414 76.9433C63.2866 77.2808 62.2576 78.1669 60.1998 79.9389L16 118Z" fill="url(#paint0_linear_7716_4926)"/>
</g>
<g filter="url(#filter0_d_7716_4926)">
<circle cx="97" cy="23" r="21" fill="url(#paint1_linear_7716_4926)"/>
<circle cx="97" cy="23" r="19.6" stroke="white" stroke-width="2.8"/>
</g>
<path d="M97.339 29.3579C96.4292 30.2654 94.9564 30.265 94.0471 29.3571L89.362 24.6794C88.6098 23.9284 88.6089 22.7098 89.36 21.9577C90.1105 21.2062 91.328 21.2049 92.0802 21.9547L95.6926 25.5556L102.92 18.3563C103.672 17.607 104.889 17.6086 105.639 18.3599C106.391 19.1123 106.39 20.3313 105.637 21.0821L97.339 29.3579Z" fill="white"/>
<defs>
<filter id="filter0_d_7716_4926" x="69" y="0.25" width="56" height="56" filterUnits="userSpaceOnUse" color-interpolation-filters="sRGB">
<feFlood flood-opacity="0" result="BackgroundImageFix"/>
<feColorMatrix in="SourceAlpha" type="matrix" values="0 0 0 0 0 0 0 0 0 0 0 0 0 0 0 0 0 0 127 0" result="hardAlpha"/>
<feOffset dy="5.25"/>
<feGaussianBlur stdDeviation="3.5"/>
<feComposite in2="hardAlpha" operator="out"/>
<feColorMatrix type="matrix" values="0 0 0 0 0 0 0 0 0 0 0 0 0 0 0 0 0 0 0.11 0"/>
<feBlend mode="normal" in2="BackgroundImageFix" result="effect1_dropShadow_7716_4926"/>
<feBlend mode="normal" in="SourceGraphic" in2="effect1_dropShadow_7716_4926" result="shape"/>
</filter>
<linearGradient id="paint0_linear_7716_4926" x1="66" y1="74.9443" x2="66" y2="118" gradientUnits="userSpaceOnUse">
<stop stop-color="#EAEBEE"/>
<stop offset="1" stop-color="#DFE0E2"/>
</linearGradient>
<linearGradient id="paint1_linear_7716_4926" x1="88.1154" y1="6.03846" x2="110.731" y2="39.9615" gradientUnits="userSpaceOnUse">
<stop stop-color="#9CD054"/>
<stop offset="1" stop-color="#5DBC54"/>
</linearGradient>
</defs>
</svg>
