<svg width="18" height="14" viewBox="0 0 18 14" fill="none" xmlns="http://www.w3.org/2000/svg">
<g id="Gmail_icon_(2020) 1" clip-path="url(#clip0_7716_4959)">
<path id="Vector" d="M1.80238 13.2491H4.45389V6.80966L0.666016 3.96875V12.1127C0.666016 12.7415 1.17549 13.2491 1.80238 13.2491Z" fill="#4285F4"/>
<path id="Vector_2" d="M13.5449 13.2491H16.1964C16.8252 13.2491 17.3328 12.7396 17.3328 12.1127V3.96875L13.5449 6.80966" fill="#34A853"/>
<path id="Vector_3" d="M13.5449 1.88568V6.80992L17.3328 3.96901V2.45386C17.3328 1.04856 15.7286 0.247423 14.6055 1.09023" fill="#FBBC04"/>
<path id="Vector_4" d="M4.45312 6.81096V1.88672L8.99858 5.29581L13.544 1.88672V6.81096L8.99858 10.2201" fill="#EA4335"/>
<path id="Vector_5" d="M0.666016 2.45386V3.96901L4.45389 6.80992V1.88568L3.39329 1.09023C2.26829 0.247423 0.666016 1.04856 0.666016 2.45386Z" fill="#C5221F"/>
</g>
<defs>
<clipPath id="clip0_7716_4959">
<rect width="16.6667" height="12.5" fill="white" transform="translate(0.666016 0.75)"/>
</clipPath>
</defs>
</svg>
