<svg width="17" height="16" viewBox="0 0 17 16" fill="none" xmlns="http://www.w3.org/2000/svg">
<g id="Microsoft_Office_Outlook_(2018&#226;&#128;&#147;present) 1" clip-path="url(#clip0_7716_4970)">
<path id="Vector" d="M16.5005 8.37372C16.5013 8.24763 16.4367 8.13028 16.33 8.06435H16.3282L16.3215 8.06059L10.7773 4.7531C10.7533 4.7368 10.7285 4.7219 10.7029 4.70848C10.4888 4.59717 10.2345 4.59717 10.0204 4.70848C9.99481 4.72191 9.96997 4.7368 9.94602 4.7531L4.40186 8.06059L4.39517 8.06435C4.22572 8.17054 4.17377 8.39507 4.27914 8.56585C4.31019 8.61616 4.35295 8.65808 4.40372 8.68797L9.9479 11.9955C9.97192 12.0116 9.99677 12.0265 10.0223 12.0401C10.2364 12.1514 10.4907 12.1514 10.7047 12.0401C10.7303 12.0265 10.7551 12.0116 10.7792 11.9955L16.3233 8.68797C16.4341 8.62289 16.5017 8.50293 16.5005 8.37372Z" fill="#0A2767"/>
<path id="Vector_2" d="M5.04763 6.16662H8.68595V9.52774H5.04763V6.16662ZM15.7557 2.75V1.2125C15.7645 0.828086 15.4625 0.509211 15.0811 0.5H5.63964C5.25821 0.509211 4.95629 0.828086 4.96503 1.2125V2.75L10.5464 4.24999L15.7557 2.75Z" fill="#0364B8"/>
<path id="Vector_3" d="M4.96484 2.75H8.68577V6.125H4.96484V2.75Z" fill="#0078D4"/>
<path id="Vector_4" d="M12.4065 2.75H8.68555V6.125L12.4065 9.49999H15.7553V6.125L12.4065 2.75Z" fill="#28A8EA"/>
<path id="Vector_5" d="M8.68555 6.125H12.4065V9.5H8.68555V6.125Z" fill="#0078D4"/>
<path id="Vector_6" d="M8.68555 9.5H12.4065V12.875H8.68555V9.5Z" fill="#0364B8"/>
<path id="Vector_7" d="M5.04688 9.52734H8.6852V12.5828H5.04688V9.52734Z" fill="#14447D"/>
<path id="Vector_8" d="M12.4062 9.5H15.7551V12.875H12.4062V9.5Z" fill="#0078D4"/>
<path id="Vector_9" d="M16.3293 8.66863L16.3223 8.67238L10.7781 11.8149C10.7539 11.8299 10.7294 11.8441 10.7037 11.8569C10.6095 11.9021 10.5072 11.9276 10.403 11.9319L10.1001 11.7534C10.0745 11.7404 10.0497 11.726 10.0257 11.7102L4.40712 8.4785H4.40452L4.2207 8.375V14.7365C4.22357 15.1609 4.56719 15.5027 4.98833 15.5H15.744C15.7504 15.5 15.7559 15.497 15.7626 15.497C15.8516 15.4913 15.9393 15.4728 16.0231 15.4422C16.0593 15.4268 16.0943 15.4085 16.1277 15.3875C16.1526 15.3733 16.1954 15.3421 16.1954 15.3421C16.386 15.2 16.4988 14.9755 16.4998 14.7365V8.375C16.4996 8.49668 16.4345 8.60887 16.3293 8.66863Z" fill="url(#paint0_linear_7716_4970)"/>
<path id="Vector_10" opacity="0.5" d="M16.2031 8.35063V8.74063L10.4059 12.7633L4.40403 8.48188C4.40403 8.47981 4.40236 8.47813 4.4003 8.47813L3.84961 8.14438V7.86313L4.07659 7.85938L4.55658 8.13688L4.56774 8.14063L4.60867 8.16688C4.60867 8.16688 10.2496 11.4106 10.2645 11.4181L10.4803 11.5456C10.4989 11.5381 10.5175 11.5306 10.5398 11.5231C10.551 11.5156 16.1398 8.34687 16.1398 8.34687L16.2031 8.35063Z" fill="#0A2767"/>
<path id="Vector_11" d="M16.3293 8.66863L16.3223 8.67275L10.7781 11.8152C10.7539 11.8302 10.7293 11.8445 10.7037 11.8572C10.4883 11.9632 10.2366 11.9632 10.0212 11.8572C9.99574 11.8445 9.97091 11.8305 9.94682 11.8152L4.40265 8.67275L4.39596 8.66863C4.28892 8.61014 4.22181 8.49771 4.2207 8.375V14.7365C4.22337 15.1609 4.56687 15.5027 4.98792 15.5C4.98792 15.5 4.98794 15.5 4.98796 15.5H15.7325C16.1536 15.5027 16.4971 15.1609 16.4998 14.7365C16.4998 14.7365 16.4998 14.7365 16.4998 14.7365V8.375C16.4996 8.49668 16.4345 8.60887 16.3293 8.66863Z" fill="#1490DF"/>
<path id="Vector_12" opacity="0.1" d="M10.8581 11.7695L10.7751 11.8164C10.751 11.8318 10.7262 11.846 10.7007 11.8588C10.6092 11.904 10.5098 11.9305 10.4082 11.9368L12.5176 14.4508L16.1972 15.3444C16.2981 15.2676 16.3783 15.1667 16.4305 15.0508L10.8581 11.7695Z" fill="black"/>
<path id="Vector_13" opacity="0.05" d="M11.2339 11.5547L10.7751 11.8146C10.751 11.83 10.7262 11.8441 10.7007 11.8569C10.6092 11.9022 10.5098 11.9287 10.4082 11.9349L11.3965 14.6811L16.1983 15.3414C16.3875 15.1983 16.4989 14.9738 16.499 14.7354V14.6533L11.2339 11.5547Z" fill="black"/>
<path id="Vector_14" d="M4.99838 15.5H15.7314C15.8965 15.5008 16.0576 15.4483 16.1909 15.35L10.0998 11.7541C10.0742 11.7412 10.0493 11.7268 10.0253 11.711L4.40674 8.47925H4.40414L4.2207 8.375V14.7147C4.22028 15.148 4.56846 15.4996 4.99838 15.5Z" fill="#28A8EA"/>
<path id="Vector_15" opacity="0.1" d="M9.43 4.18737V12.1861C9.42934 12.4666 9.26014 12.7186 9.0021 12.8236C8.92216 12.8582 8.83607 12.8761 8.74907 12.8761H4.2207V3.875H4.96489V3.5H8.74908C9.12498 3.50144 9.42919 3.80853 9.43 4.18737Z" fill="black"/>
<path id="Vector_16" opacity="0.2" d="M9.05791 4.5624V12.5611C9.05885 12.6517 9.03979 12.7414 9.0021 12.8236C8.89876 13.0803 8.65185 13.2487 8.37698 13.25H4.2207V3.87503H8.37698C8.48495 3.87394 8.59135 3.90108 8.68582 3.95379C8.91391 4.0696 9.05783 4.30501 9.05791 4.5624Z" fill="black"/>
<path id="Vector_17" opacity="0.2" d="M9.05791 4.5624V11.8111C9.0561 12.1898 8.75271 12.4967 8.37699 12.5H4.2207V3.87503H8.37698C8.48495 3.87394 8.59135 3.90108 8.68582 3.95379C8.91391 4.0696 9.05783 4.30501 9.05791 4.5624Z" fill="black"/>
<path id="Vector_18" opacity="0.2" d="M8.68582 4.56237V11.8111C8.68541 12.1904 8.3812 12.4981 8.00489 12.5H4.2207V3.875H8.00488C8.38116 3.8752 8.68602 4.18279 8.68581 4.562C8.68581 4.56213 8.68582 4.56225 8.68582 4.56237Z" fill="black"/>
<path id="Vector_19" d="M1.18204 3.875H8.00399C8.38068 3.875 8.68604 4.18275 8.68604 4.56237V11.4376C8.68604 11.8172 8.38068 12.125 8.00399 12.125H1.18204C0.805358 12.125 0.5 11.8172 0.5 11.4376V4.56237C0.5 4.18275 0.805366 3.875 1.18204 3.875Z" fill="url(#paint1_linear_7716_4970)"/>
<path id="Vector_20" d="M2.63219 6.75923C2.80029 6.39828 3.07162 6.09622 3.41135 5.89186C3.78759 5.67478 4.21596 5.56656 4.64931 5.5791C5.05095 5.57032 5.44727 5.67294 5.79498 5.87573C6.1219 6.07221 6.38521 6.36011 6.55293 6.70447C6.73559 7.08394 6.82662 7.50155 6.81861 7.92322C6.82746 8.36392 6.7338 8.80057 6.54512 9.19822C6.3734 9.5549 6.10175 9.85305 5.76372 10.0558C5.40261 10.2649 4.99158 10.3702 4.57526 10.3603C4.16504 10.3703 3.75998 10.2666 3.40428 10.0603C3.07453 9.8636 2.80793 9.57538 2.63629 9.23009C2.45254 8.85611 2.36043 8.44321 2.36764 8.02597C2.35998 7.58903 2.45042 7.156 2.63219 6.75923ZM3.4627 8.79547C3.55232 9.02366 3.70431 9.22157 3.90102 9.36623C4.10138 9.50735 4.3413 9.58016 4.58567 9.57397C4.84591 9.58435 5.10243 9.50905 5.31646 9.35947C5.51068 9.21527 5.65868 9.01683 5.74213 8.78872C5.83543 8.53397 5.88147 8.26411 5.87795 7.9926C5.88083 7.71849 5.83755 7.44587 5.74995 7.18635C5.67257 6.95204 5.52935 6.74543 5.33767 6.5916C5.12901 6.43494 4.87318 6.35548 4.6132 6.3666C4.36354 6.36009 4.11825 6.43347 3.91256 6.57623C3.71252 6.7215 3.55765 6.92115 3.46604 7.15185C3.26284 7.68066 3.26179 8.26668 3.46307 8.79622L3.4627 8.79547Z" fill="white"/>
<path id="Vector_21" d="M12.4062 2.75H15.7551V6.125H12.4062V2.75Z" fill="#50D9FF"/>
</g>
<defs>
<linearGradient id="paint0_linear_7716_4970" x1="10.3602" y1="8.375" x2="10.3602" y2="15.5" gradientUnits="userSpaceOnUse">
<stop stop-color="#35B8F1"/>
<stop offset="1" stop-color="#28A8EA"/>
</linearGradient>
<linearGradient id="paint1_linear_7716_4970" x1="1.92208" y1="3.3379" x2="7.32656" y2="12.6257" gradientUnits="userSpaceOnUse">
<stop stop-color="#1784D9"/>
<stop offset="0.5" stop-color="#107AD5"/>
<stop offset="1" stop-color="#0A63C9"/>
</linearGradient>
<clipPath id="clip0_7716_4970">
<rect width="16" height="15" fill="white" transform="translate(0.5 0.5)"/>
</clipPath>
</defs>
</svg>
