<svg width="105" height="90" viewBox="0 0 105 90" fill="none" xmlns="http://www.w3.org/2000/svg">
<g id="Frame 1171276237">
<path id="Polygon 1" d="M45.4767 3.43337C48.6207 -1.14445 55.3785 -1.14446 58.5224 3.43336L102.595 77.6054C106.202 82.8566 102.442 90 96.0723 90H7.92688C1.55686 90 -2.20246 82.8567 1.40401 77.6054L45.4767 3.43337Z" fill="#ECD334"/>
<path id="Intersect" fill-rule="evenodd" clip-rule="evenodd" d="M62.4153 10.0381L103.781 77.9619C106.993 83.2352 103.197 89.9912 97.0226 89.9912H20.3457L20.3457 89.9909C40.5246 89.5953 61.7256 85.5397 71.2875 83.0668C81.1791 80.5086 86.1249 69.2185 81.1791 58.8324L62.4153 10.0381Z" fill="#EAB926"/>
<path id="Vector 27" d="M5.01471 80.1021L14.9063 64.2539C12.5322 75.7282 18.2035 84.0588 21.336 85.5425H7.48744C5.01518 85.5425 3.53108 82.0805 5.01471 80.1021Z" fill="#F1E960"/>
<g id="Union">
<path d="M47.0537 30.6426H56.9453L54.967 63.7794H49.032L47.0537 30.6426Z" fill="white"/>
<path d="M51.9995 77.1331C54.1847 77.1331 55.9562 75.3616 55.9562 73.1765C55.9562 70.9913 54.1847 69.2198 51.9995 69.2198C49.8143 69.2198 48.0429 70.9913 48.0429 73.1765C48.0429 75.3616 49.8143 77.1331 51.9995 77.1331Z" fill="white"/>
</g>
</g>
</svg>
