<svg width="25" height="24" viewBox="0 0 25 24" fill="none" xmlns="http://www.w3.org/2000/svg">
<g id="Line_White">
<path id="Vector" d="M12.5 2.44998C18.0228 2.44998 22.5 6.07725 22.5 10.5518C22.5 12.3975 21.7382 14.0991 20.4554 15.4614C18.2955 17.809 12.1718 21.9508 11.6411 21.538C11.0684 21.0926 11.9396 20.4664 11.8637 19.0247C11.8479 18.7246 11.664 18.6374 11.5548 18.6179C6.47526 18.232 2.5 14.768 2.5 10.5518C2.5 6.07725 6.97716 2.44998 12.5 2.44998ZM9.99742 7.98535C9.71042 7.98535 9.47779 8.21798 9.47779 8.50498V12.4075C9.47779 12.6945 9.71042 12.9271 9.99742 12.9271C10.2844 12.9271 10.5171 12.6945 10.5171 12.4075V8.50498C10.5171 8.21798 10.2844 7.98535 9.99742 7.98535ZM6.51905 7.98551C6.23211 7.98551 5.99947 8.21814 5.99947 8.50509V12.4076C5.99947 12.6946 6.23211 12.9272 6.51905 12.9272L8.47037 12.9271C8.75732 12.9271 8.98995 12.6945 8.98995 12.4076C8.98995 12.1206 8.75732 11.8879 8.47037 11.8879H7.03868V8.50509C7.03868 8.21814 6.80605 7.98551 6.51905 7.98551ZM11.7789 7.9854C11.4919 7.9854 11.2593 8.21803 11.2593 8.50503V12.4075C11.2593 12.6945 11.4919 12.9271 11.7789 12.9271C12.0659 12.9271 12.2985 12.6945 12.2985 12.4075V9.97972L14.322 12.7283C14.4933 12.9556 14.8153 13.0025 15.0441 12.8347C15.1793 12.7409 15.2677 12.5846 15.2677 12.4076V8.50509C15.2677 8.21809 15.0351 7.98546 14.7482 7.98546C14.4612 7.98546 14.2285 8.21809 14.2285 8.50509V10.9411L12.2137 8.20398L12.0516 8.06267C11.9724 8.01367 11.8789 7.9854 11.7789 7.9854ZM16.4873 7.98546C16.321 7.98546 16.1729 8.06361 16.0778 8.18519C16.0088 8.2734 15.9676 8.38446 15.9676 8.50514L15.9677 8.51119V12.4014L15.9676 12.4076C15.9676 12.6945 16.2003 12.9272 16.4873 12.9272H18.4597C18.7467 12.9272 18.9793 12.6945 18.9793 12.4076C18.9793 12.1206 18.7467 11.8879 18.4597 11.8879H17.0069V10.9759H18.4597C18.7467 10.9759 18.9793 10.7433 18.9793 10.4564C18.9793 10.1694 18.7467 9.93672 18.4597 9.93672H17.0069V9.02472H18.4597C18.7467 9.02472 18.9793 8.79209 18.9793 8.50514C18.9793 8.21814 18.7467 7.98551 18.4597 7.98551H16.4941L16.4873 7.98546Z" fill="white"/>
</g>
</svg>
