<svg width="60" height="48" viewBox="0 0 60 48" fill="none" xmlns="http://www.w3.org/2000/svg">
<g clip-path="url(#clip0_5199_81476)">
<path d="M40.8575 35.6345C42.3987 35.6345 43.6556 36.8914 43.6556 38.4326C43.6556 39.9738 42.3987 41.2307 40.8575 41.2307C39.3164 41.2307 38.0594 39.9738 38.0594 38.4326C38.0594 36.8914 39.3164 35.6345 40.8575 35.6345ZM40.8575 33.7396C38.2679 33.7396 36.1646 35.8429 36.1646 38.4326C36.1646 41.0223 38.2679 43.1256 40.8575 43.1256C43.4472 43.1256 45.5505 41.0223 45.5505 38.4326C45.5505 35.8429 43.4472 33.7396 40.8575 33.7396Z" fill="url(#paint0_linear_5199_81476)"/>
<path d="M17.4554 35.6345C18.9966 35.6345 20.2535 36.8914 20.2535 38.4326C20.2535 39.9738 18.9966 41.2307 17.4554 41.2307C15.9143 41.2307 14.6573 39.9738 14.6573 38.4326C14.6573 36.8914 15.9143 35.6345 17.4554 35.6345ZM17.4554 33.7396C14.8658 33.7396 12.7625 35.8429 12.7625 38.4326C12.7625 41.0223 14.8658 43.1256 17.4554 43.1256C20.0451 43.1256 22.1484 41.0223 22.1484 38.4326C22.1484 35.8429 20.0451 33.7396 17.4554 33.7396Z" fill="url(#paint1_linear_5199_81476)"/>
<path d="M51.2792 41.2434H47.1989C46.9968 41.2434 46.8009 41.1423 46.6873 40.9781C46.5672 40.8139 46.5357 40.5991 46.6051 40.4033C46.8262 39.7591 46.9399 39.0958 46.9399 38.4326C46.9399 35.085 44.2176 32.3564 40.8637 32.3564C37.5097 32.3564 34.7874 35.0787 34.7874 38.4326C34.7874 39.0958 34.9011 39.7591 35.1222 40.4033C35.1854 40.5928 35.1601 40.8076 35.0401 40.9781C34.9201 41.1423 34.7306 41.2434 34.5285 41.2434H23.8035C23.6014 41.2434 23.4055 41.1423 23.2919 40.9781C23.1718 40.8139 23.1403 40.5991 23.2097 40.4033C23.4308 39.7591 23.5445 39.0958 23.5445 38.4326C23.5445 35.085 20.8222 32.3564 17.4683 32.3564C14.1143 32.3564 11.392 35.0787 11.392 38.4326C11.392 39.0958 11.5057 39.7591 11.7268 40.4033C11.7963 40.5991 11.7647 40.8076 11.6447 40.9781C11.5247 41.1423 11.3352 41.2434 11.1331 41.2434H8.71394C5.68846 41.2434 3.95781 39.2538 3.8757 37.82V37.7315C3.71779 35.2303 3.6041 33.2533 4.44416 30.7584C4.87998 29.4636 6.33272 28.7435 7.39385 28.2193C7.69703 28.0677 7.98758 27.9224 8.1897 27.7961C8.87817 27.3666 10.1162 25.9644 11.5878 23.9432C13.7606 20.9682 16.3313 19.086 19.0158 18.5112C21.7254 17.9301 26.3237 17.6459 31.1114 18.5933C34.9769 19.3576 38.2551 21.4735 41.7416 25.4464C41.9122 25.6422 42.0827 25.8443 42.2532 26.0402C42.948 26.8549 43.9018 27.9603 44.3629 27.9603C48.6958 27.9603 52.0813 29.1351 53.4267 31.0995C54.7531 33.0449 55.1826 35.483 54.6584 38.1547C54.3741 39.6138 52.8709 41.2371 51.2918 41.2371L51.2792 41.2434ZM48.0263 39.9801H51.2792C52.2077 39.9801 53.2246 38.8432 53.4077 37.9147C53.8688 35.5524 53.5214 33.4996 52.3719 31.8132C51.5192 30.5626 48.9611 29.2235 44.3566 29.2235C43.3081 29.2235 42.3733 28.1245 41.2869 26.8549C41.1226 26.6591 40.9521 26.4633 40.7879 26.2739C37.4971 22.522 34.4337 20.5324 30.8587 19.825C26.2605 18.9154 21.8581 19.187 19.2747 19.7428C16.8935 20.2545 14.5881 21.9662 12.5984 24.6885C11.4741 26.2296 9.91403 28.2003 8.8529 28.8698C8.60025 29.0277 8.28444 29.1856 7.94968 29.3499C7.04014 29.7983 5.90321 30.3605 5.63793 31.1626C4.87366 33.4302 4.98104 35.205 5.13263 37.6621V37.7505C5.17684 38.4074 6.26324 39.9864 8.72026 39.9864H10.3056C10.1919 39.4748 10.1351 38.9569 10.1351 38.439C10.1351 34.3902 13.4259 31.0995 17.4746 31.0995C21.5233 31.0995 24.8141 34.3902 24.8141 38.439C24.8141 38.9569 24.7572 39.4748 24.6435 39.9864H33.7074C33.5937 39.4748 33.5368 38.9569 33.5368 38.439C33.5368 34.3902 36.8276 31.0995 40.8763 31.0995C44.925 31.0995 48.2158 34.3902 48.2158 38.439C48.2158 38.9569 48.1589 39.4748 48.0452 39.9864L48.0263 39.9801ZM36.2907 29.2299H26.7405C26.3931 29.2299 26.1089 28.9456 26.1089 28.5982V21.8588C26.1089 21.6883 26.1784 21.524 26.3047 21.404C26.431 21.284 26.5953 21.2209 26.7721 21.2272C27.1195 21.2461 27.4606 21.2651 27.789 21.2903C30.865 21.5746 32.5262 22.2062 34.6295 23.8989C37.5919 26.2802 37.6424 27.7519 37.4087 28.4151C37.2381 28.9077 36.796 29.2235 36.2907 29.2235V29.2299ZM27.3722 27.9666H36.2275C36.2844 27.7076 36.0317 26.6528 33.84 24.8843C31.9388 23.3557 30.4987 22.8062 27.6753 22.5536C27.5743 22.5473 27.4732 22.5346 27.3722 22.5283V27.9666ZM22.616 29.2299H16.3187C15.8324 29.2299 15.4092 29.0404 15.1313 28.6867C14.7839 28.2445 14.6891 27.6066 14.8597 26.8739C15.0934 25.9012 15.8892 24.7453 16.3566 24.2779C18.1188 22.4967 19.9632 21.5114 21.8454 21.3409C22.0602 21.3219 22.3128 21.303 22.5781 21.284C22.755 21.284 22.9255 21.3345 23.0518 21.4546C23.1782 21.5746 23.254 21.7388 23.254 21.9156V28.5982C23.254 28.9456 22.9697 29.2299 22.6223 29.2299H22.616ZM21.9844 22.5915C21.9844 22.5915 21.9654 22.5915 21.9591 22.5915C20.3864 22.7304 18.801 23.5958 17.2598 25.1559C16.8809 25.5412 16.2492 26.4886 16.0913 27.1581C16.0029 27.5245 16.0471 27.7961 16.1229 27.8971C16.1355 27.9161 16.1734 27.9603 16.3187 27.9603H21.9844V22.5915Z" fill="#2B2B2B"/>
</g>
<path d="M52.7701 20.25H43.2284C41.3062 20.25 39.7493 18.6931 39.7493 16.7708V7.22918C39.7493 5.30693 41.3062 3.75 43.2284 3.75H52.7701C54.6923 3.75 56.2493 5.30693 56.2493 7.22918V16.7708C56.2493 18.6931 54.6923 20.25 52.7701 20.25ZM43.2284 5.48959C42.2717 5.48959 41.4889 6.2724 41.4889 7.22918V16.7708C41.4889 17.7276 42.2717 18.5104 43.2284 18.5104H52.7701C53.7269 18.5104 54.5097 17.7276 54.5097 16.7708V7.22918C54.5097 6.2724 53.7269 5.48959 52.7701 5.48959H43.2284Z" fill="#2B2B2B"/>
<path d="M51.1961 11.9785C50.9786 12.3786 50.6481 12.7004 50.1871 12.944C49.7261 13.1875 49.152 13.3093 48.4562 13.3093H47.0298V16.571H45.325V8.07312H48.4562C49.1173 8.07312 49.6739 8.18619 50.1349 8.41234C50.5959 8.63849 50.9438 8.95161 51.1787 9.35172C51.4135 9.75182 51.5266 10.2041 51.5266 10.6999C51.5266 11.1522 51.4222 11.5784 51.2048 11.9785H51.1961ZM49.4304 11.6132C49.6565 11.3957 49.7696 11.1 49.7696 10.7086C49.7696 9.88229 49.3086 9.46479 48.3779 9.46479H47.0298V11.935H48.3779C48.8476 11.935 49.1955 11.8306 49.4217 11.6132H49.4304Z" fill="#2B2B2B"/>
<defs>
<linearGradient id="paint0_linear_5199_81476" x1="36.1646" y1="33.7396" x2="46.7347" y2="35.3494" gradientUnits="userSpaceOnUse">
<stop stop-color="#FE696C"/>
<stop offset="1" stop-color="#FD8E4B"/>
</linearGradient>
<linearGradient id="paint1_linear_5199_81476" x1="12.7625" y1="33.7396" x2="23.3326" y2="35.3494" gradientUnits="userSpaceOnUse">
<stop stop-color="#FE696C"/>
<stop offset="1" stop-color="#FD8E4B"/>
</linearGradient>
<clipPath id="clip0_5199_81476">
<rect width="51.75" height="25.5556" fill="white" transform="translate(3.74976 17.9724)"/>
</clipPath>
</defs>
</svg>
