<svg width="60" height="48" viewBox="0 0 60 48" fill="none" xmlns="http://www.w3.org/2000/svg">
<g clip-path="url(#clip0_5209_80024)">
<path d="M32.434 22.2974C31.7815 22.2974 31.339 22.7774 31.309 23.3174C31.2565 24.2549 31.834 24.5249 32.4865 24.5249C33.139 24.5249 33.5215 24.0149 33.5215 23.3624C33.5215 22.7099 33.0865 22.2974 32.434 22.2974Z" fill="#2B2B2B"/>
<path d="M32.434 25.2373C31.7815 25.2373 31.339 25.7173 31.309 26.2573C31.2565 27.1948 31.834 27.4648 32.4865 27.4648C33.139 27.4648 33.5215 26.9548 33.5215 26.3023C33.5215 25.6498 33.0865 25.2373 32.434 25.2373Z" fill="#2B2B2B"/>
<path d="M39.5062 27.735C41.4937 27.6525 46.3537 23.2725 46.3537 21.075C46.3537 19.98 45.7912 19.5 45.4612 19.3125C44.7562 18.915 43.7512 19.0275 42.7687 19.62C42.3787 19.8525 41.8537 20.2275 41.3062 20.625C40.6912 21.0675 39.7162 21.765 39.2887 21.975L35.7412 20.3325C35.6662 20.295 35.5912 20.2875 35.5162 20.28C35.3362 19.9425 35.1412 19.62 34.9387 19.3125C37.1662 17.9175 38.3437 14.4825 38.3437 11.9475C38.3437 11.775 38.3287 11.61 38.3212 11.4375C39.3637 10.9275 40.1062 10.4175 39.9787 10.1775C39.8587 9.96 39.0937 9.8175 38.0512 9.75C37.0687 6.0825 33.7387 3.375 29.7712 3.375C25.0387 3.375 20.8162 7.08 20.8162 12.3375C20.8162 15.105 21.8062 16.8975 23.2312 18.3375C21.3937 18.6675 18.3862 19.2375 17.5687 19.5675C15.1387 20.5275 13.1137 26.6475 13.7812 28.545C14.1712 29.6475 14.8987 29.9325 15.3037 30.0075C15.4087 30.0225 15.5137 30.0375 15.6187 30.0375C16.3912 30.0375 17.2387 29.565 17.9287 28.725C18.3112 28.26 18.6112 27.6975 18.8962 27.15C19.1662 26.6325 19.4512 26.1 19.7887 25.68C19.8937 25.5525 20.0437 25.47 20.2087 25.455L21.4912 25.2975C21.0862 26.3625 20.6962 27.5025 20.3437 28.6875C19.9912 29.8875 20.1412 31.0275 20.6212 32.145L20.3587 32.5275C19.8712 33.2325 19.1962 34.1925 18.7462 34.905C18.0937 35.925 17.6962 36.885 17.4337 37.5225C17.3587 37.71 17.2912 37.8675 17.2312 38.0025C16.7812 38.9775 17.2687 39.6675 18.3937 40.6725C19.5262 41.685 20.5762 42.4575 21.6937 43.095C23.9437 44.385 26.2387 44.625 26.3287 44.64C26.3512 44.64 26.3812 44.64 26.4037 44.64C26.4337 44.64 26.4712 44.64 26.5012 44.64C27.3412 44.5275 27.6937 44.115 27.8512 43.785C28.2487 42.915 27.6037 41.925 27.2212 41.3325L27.1387 41.205C26.8837 40.8075 26.2837 40.26 25.7812 39.8475L26.4937 39.2925C26.5687 39.2325 26.6212 39.165 26.6662 39.09C27.1387 39.5325 27.6037 39.975 28.0462 40.41C30.1612 42.525 32.0437 43.71 33.0187 43.815L33.1237 42.87L33.1387 42.975L33.0787 43.8225C33.0787 43.8225 33.1012 43.8225 33.1162 43.8225C33.1612 43.8225 33.2062 43.8225 33.2587 43.8075C34.6087 43.6125 39.5887 41.01 40.3162 39.255C40.4437 38.955 40.4437 38.6775 40.2712 38.4375C39.2512 37.02 37.1512 36.6675 35.2762 37.5375C35.1262 37.11 34.8562 36.3825 34.5262 35.6325C35.8837 34.7025 36.9787 32.85 37.2487 31.0575C37.4137 29.9775 37.4587 28.68 37.3687 27.3C38.0587 27.5475 38.8087 27.75 39.4012 27.75C39.4312 27.75 39.4687 27.75 39.4987 27.75L39.5062 27.735ZM25.9612 42.1275C26.2687 42.5925 26.4337 42.9225 26.4712 43.095C26.4487 43.095 26.4262 43.11 26.3887 43.1175C25.9687 43.0575 24.1687 42.765 22.4362 41.775C21.4162 41.19 20.4487 40.4775 19.3912 39.54C18.6412 38.865 18.5587 38.685 18.5587 38.7C18.5587 38.67 18.5812 38.6475 18.5887 38.6175C18.6562 38.4675 18.7312 38.2875 18.8137 38.085C19.0687 37.4625 19.4287 36.615 20.0062 35.7C20.3962 35.085 20.9812 34.245 21.4237 33.6C22.4662 35.1375 24.0112 36.6075 25.5937 38.07C25.5862 38.07 25.5787 38.07 25.5637 38.085L23.7262 39.51C23.3962 39.765 23.3362 40.2375 23.5912 40.56C23.7412 40.7475 23.9587 40.8525 24.1837 40.8525C24.3037 40.8525 24.4162 40.815 24.5287 40.755C25.1137 41.2275 25.7062 41.76 25.8487 41.9925L25.9387 42.135L25.9612 42.1275ZM35.7712 30.825C35.5687 32.1525 34.7812 33.54 33.8662 34.26C33.8362 34.2075 33.8137 34.1625 33.7837 34.11C33.5737 33.75 33.1162 33.6375 32.7562 33.8475C32.3962 34.0575 32.2837 34.515 32.4937 34.875C33.2512 36.1575 33.9862 38.355 33.9937 38.3775C34.0537 38.55 34.1737 38.685 34.3162 38.775C34.3387 38.835 34.3462 38.895 34.3837 38.9475C34.6087 39.2925 35.0737 39.39 35.4262 39.1575C36.5437 38.4225 37.9312 38.3775 38.7337 38.97C37.7812 40.095 34.2487 42.06 33.1312 42.285C32.6662 42.1875 31.1812 41.385 29.1112 39.3225C28.4212 38.6325 27.6787 37.9425 26.9587 37.275C23.8987 34.44 21.0037 31.7625 21.7912 29.1C22.1662 27.84 22.6237 26.52 23.1937 25.08L23.6437 25.0275C24.0562 24.975 24.3487 24.6 24.2962 24.195C24.2437 23.7825 23.8762 23.4825 23.4637 23.5425L20.0437 23.9625C19.4887 24.03 18.9937 24.3 18.6487 24.735C18.2137 25.2675 17.8987 25.8675 17.5912 26.445C17.3287 26.9475 17.0737 27.42 16.7887 27.765C16.3237 28.3275 15.8362 28.5675 15.5812 28.53C15.3937 28.5 15.2737 28.215 15.2137 28.05C14.7937 26.8575 16.5787 21.585 18.1387 20.9625C18.8887 20.6625 22.6012 19.965 24.9112 19.5675C25.3162 19.5 25.5937 19.11 25.5262 18.705C25.4962 18.54 25.4062 18.405 25.2937 18.3C25.2487 18.1875 25.1887 18.09 25.0912 18.0075C23.6587 16.815 22.3312 15.3 22.3312 12.345C22.3312 7.6725 26.1262 4.8825 29.7862 4.8825C32.8987 4.8825 35.5462 6.9075 36.4837 9.7125C36.1087 9.7125 35.7337 9.7275 35.3512 9.7425C35.3812 9.66 35.4112 9.57 35.4262 9.4725C35.4937 8.9025 35.2387 8.3325 34.6762 8.265C34.1137 8.1975 33.8062 8.64 33.7387 9.21C33.7087 9.4575 33.7387 9.675 33.8212 9.8625C33.4312 9.9075 33.0562 9.96 32.7262 10.02C32.2237 10.1175 31.6987 10.6875 32.0062 11.94C32.2312 12.87 33.2737 12.8775 33.7687 12.87C34.5412 12.87 35.7187 12.525 36.8512 12.09C36.8062 14.3775 35.6887 17.3175 33.8962 18.195C33.6937 18.2925 33.5587 18.48 33.5062 18.6825C33.2062 18.9375 33.1462 19.38 33.3862 19.695C35.6212 22.68 36.2812 27.555 35.7862 30.825H35.7712ZM36.3787 22.29L38.9062 23.46C39.0262 23.52 39.1612 23.535 39.2962 23.5275C39.8587 23.4675 40.6387 22.95 42.1687 21.855C42.6937 21.48 43.1962 21.12 43.5337 20.9175C44.0962 20.58 44.5687 20.5425 44.7187 20.6325C44.8387 20.7 44.8462 21 44.8462 21.09C44.8462 22.0575 41.0812 26.1825 39.4387 26.25C39.0112 26.2725 38.1712 26.0325 37.1887 25.6275C37.0237 24.51 36.7537 23.385 36.3712 22.2975L36.3787 22.29Z" fill="#2B2B2B"/>
<path d="M30.6563 10.3124C31.3763 10.3949 31.8188 9.95237 31.9013 9.23987C31.9838 8.52737 31.6688 7.79987 30.9563 7.71737C30.2363 7.63487 29.8538 8.18987 29.7713 8.90237C29.6888 9.62237 29.9438 10.2299 30.6563 10.3049V10.3124Z" fill="#2B2B2B"/>
<path d="M32.8088 15.825C33.9713 15.825 35.2463 15.225 35.9288 14.6025C36.2363 14.325 36.2513 13.845 35.9738 13.545C35.6963 13.2375 35.2238 13.2225 34.9163 13.5C34.3613 14.01 33.2888 14.3925 32.6213 14.3175C31.0538 14.1375 30.4913 12.8175 30.4613 12.75C30.3113 12.3675 29.8763 12.18 29.4938 12.33C29.1113 12.48 28.9163 12.915 29.0663 13.305C29.1038 13.395 29.9588 15.525 32.4488 15.81C32.5688 15.825 32.6888 15.8325 32.8088 15.8325V15.825Z" fill="#2B2B2B"/>
<path d="M28.7365 21.24C32.044 21.615 35.5765 20.4225 35.5765 20.4225C35.554 20.025 35.3365 18.615 34.744 17.7825C34.0315 18.2625 31.579 19.0425 29.269 18.6975C26.464 18.285 23.8465 16.8525 23.8465 16.8525C23.374 17.19 22.399 18 22.3315 18.5625C22.2865 18.9075 25.5115 20.8725 28.744 21.24H28.7365Z" fill="url(#paint0_linear_5209_80024)"/>
<path d="M21.911 24.8175C21.881 24.0525 23.7035 19.02 24.671 17.1975L27.1535 18.21C26.186 19.8375 24.371 26.1975 24.371 26.1975C23.336 26.1975 22.0385 25.215 21.911 24.8175Z" fill="url(#paint1_linear_5209_80024)"/>
</g>
<defs>
<linearGradient id="paint0_linear_5209_80024" x1="22.3311" y1="16.8525" x2="35.0023" y2="22.5828" gradientUnits="userSpaceOnUse">
<stop stop-color="#FE696C"/>
<stop offset="1" stop-color="#FD8E4B"/>
</linearGradient>
<linearGradient id="paint1_linear_5209_80024" x1="21.9106" y1="17.1975" x2="27.9048" y2="17.7293" gradientUnits="userSpaceOnUse">
<stop stop-color="#FE696C"/>
<stop offset="1" stop-color="#FD8E4B"/>
</linearGradient>
<clipPath id="clip0_5209_80024">
<rect width="32.6925" height="41.25" fill="white" transform="translate(13.6538 3.375)"/>
</clipPath>
</defs>
</svg>
