<svg width="24" height="24" viewBox="0 0 24 24" fill="none" xmlns="http://www.w3.org/2000/svg">
<g id="Property 1=Class">
<path id="Vector" fill-rule="evenodd" clip-rule="evenodd" d="M22.3533 20.3905C22.2833 20.1901 22.1333 20.0298 21.9233 19.9496C21.6133 19.8394 21.2533 19.9496 21.0533 20.2402C20.5033 21.0218 19.4833 21.3325 18.5933 21.0118L14.9133 19.6691L17.8433 15.771L17.9233 15.6608C18.4933 14.779 18.3333 13.6266 17.5533 12.9251L16.1133 11.6325L16.9333 10.3999C17.5133 11.8229 18.8233 12.6245 20.8233 12.7849C21.0033 12.7949 21.2033 12.7348 21.3433 12.6045C21.4833 12.4742 21.5733 12.2838 21.5733 12.0834C21.5733 11.7126 21.2833 11.392 20.9033 11.3619C20.1533 11.3018 19.5633 11.1415 19.1133 10.8709C18.5833 10.5502 18.2533 10.0793 18.1133 9.43795L18.0633 8.95696L19.3633 7.01295C20.0233 6.80252 20.5833 6.36161 20.9433 5.76037C21.7533 4.4176 21.3133 2.66398 19.9733 1.8523C18.6333 1.04063 16.8833 1.48154 16.0733 2.82431C15.7333 3.39549 15.6033 4.06687 15.7033 4.71822C13.6933 3.8364 11.3133 4.39755 9.90327 6.08103C9.75327 6.2614 9.62327 6.45179 9.49327 6.64218L8.78327 7.77452L3.22327 5.6802C2.85327 5.53991 2.44327 5.7303 2.31327 6.10107C2.17327 6.47183 2.36327 6.88268 2.73327 7.01295L9.38327 9.52814L9.70327 9.64838L13.4533 11.0613L12.9533 12.394L9.97327 11.2717L10.0033 11.3619L10.0333 11.903C10.0633 12.4341 10.3133 12.9452 10.7133 13.2859L12.8433 15.0896L10.5533 18.0858L2.57327 15.1698C2.39327 15.1096 2.20327 15.1096 2.03327 15.1898C1.86327 15.27 1.73327 15.4103 1.66327 15.5906C1.59327 15.771 1.60327 15.9614 1.68327 16.1318C1.76327 16.3021 1.90327 16.4324 2.08327 16.5025L18.1033 22.3446L18.2533 22.3947C18.6033 22.5049 18.9533 22.555 19.3033 22.555C20.4733 22.555 21.6033 21.9738 22.2733 20.9717C22.3833 20.8014 22.4133 20.591 22.3533 20.3905Z" fill="#2B2B2B"/>
</g>
</svg>
