<svg width="25" height="24" viewBox="0 0 25 24" fill="none" xmlns="http://www.w3.org/2000/svg">
<g id="Tab_Icon_Default">
<g id="Union">
<path d="M13.9232 11.0427L3.22318 7.03275L3.23318 7.04275C2.86318 6.91275 2.67318 6.50275 2.81318 6.13275C2.94318 5.76275 3.35318 5.57275 3.72318 5.71275L9.26318 7.76275L9.97318 6.63275C10.1032 6.44275 10.2332 6.25275 10.3832 6.07275C11.7932 4.39275 14.1732 3.83275 16.1832 4.71275C16.0832 4.06275 16.2132 3.39275 16.5532 2.82275C17.3632 1.48275 19.1132 1.04275 20.4532 1.85275C21.7932 2.66275 22.2332 4.41275 21.4232 5.75275C21.0632 6.35275 20.5032 6.79275 19.8432 7.00275L19.3132 7.75275L18.1332 6.96275L18.9632 5.72275L19.1332 5.70275C19.5832 5.66275 19.9832 5.40275 20.2132 5.02275C20.4032 4.70275 20.4632 4.32275 20.3732 3.95275C20.2732 3.59275 20.0532 3.28275 19.7232 3.08275C19.4032 2.89275 19.0232 2.83275 18.6532 2.92275C18.2932 3.02275 17.9832 3.24275 17.7832 3.57275C17.5532 3.96275 17.5132 4.42275 17.6832 4.84275L17.7532 5.00275L16.7132 6.74275L16.3932 6.49275C14.8832 5.30275 12.7232 5.52275 11.4832 7.00275C11.4132 7.08275 11.3432 7.17275 11.2832 7.26275L10.7232 8.15275L10.6732 8.30275L14.4232 9.71274L13.9232 11.0427Z" fill="#565656"/>
<path d="M22.4233 19.9527C22.6333 20.0327 22.7833 20.1927 22.8533 20.3927C22.9133 20.5927 22.8833 20.8027 22.7733 20.9727C22.1033 21.9727 20.9733 22.5527 19.8033 22.5527C19.4533 22.5527 19.1033 22.5027 18.7533 22.3927L18.6033 22.3427L2.58327 16.5127C2.40327 16.4427 2.26327 16.3127 2.18327 16.1427C2.10327 15.9727 2.09327 15.7827 2.16327 15.6027C2.23327 15.4227 2.36327 15.2827 2.53327 15.2027C2.70327 15.1227 2.89327 15.1227 3.07327 15.1827L11.0433 18.1027L13.3333 15.1127L11.2033 13.3127C10.8033 12.9727 10.5533 12.4627 10.5233 11.9327L10.4933 11.3927L11.9233 11.9327L11.9833 12.0527C12.0133 12.1027 12.0633 12.1727 12.0633 12.1727L12.1333 12.2327L14.7733 14.4627C15.0333 14.6827 15.0933 15.0527 14.9333 15.3527L14.8833 15.4327L12.3833 18.5927L14.1033 19.2227L14.0633 19.1927L17.1933 14.9627C17.3933 14.6927 17.3733 14.3227 17.1633 14.0727L17.1033 14.0127L15.2033 12.3027C14.9733 12.0927 14.9033 11.7527 15.0333 11.4727L15.0833 11.3827L17.2633 8.11275L18.5633 8.98275L18.6133 9.46275C18.7533 10.1027 19.0833 10.5727 19.6133 10.8927C20.0633 11.1627 20.6533 11.3227 21.4033 11.3827C21.7833 11.4127 22.0733 11.7327 22.0733 12.1027C22.0733 12.3027 21.9833 12.4927 21.8433 12.6227C21.7033 12.7527 21.5033 12.8127 21.3233 12.8027C19.3233 12.6427 18.0133 11.8427 17.4333 10.4227L16.6133 11.6527L18.0533 12.9427C18.8333 13.6427 18.9933 14.7927 18.4233 15.6727L18.3433 15.7827L15.4133 19.6727L19.0933 21.0127C19.9833 21.3327 21.0033 21.0227 21.5533 20.2427C21.7533 19.9527 22.1133 19.8427 22.4233 19.9527Z" fill="#565656"/>
</g>
</g>
</svg>
