<svg width="25" height="24" viewBox="0 0 25 24" fill="none" xmlns="http://www.w3.org/2000/svg">
<g id="Tab_Icon_Default">
<g id="Subtract">
<path fill-rule="evenodd" clip-rule="evenodd" d="M7.75517 7.5C7.75517 4.87761 9.88278 2.75 12.5052 2.75C15.1176 2.75 17.2552 4.87768 17.2552 7.5C17.2552 10.1224 15.1276 12.25 12.5052 12.25C9.88278 12.25 7.75517 10.1224 7.75517 7.5ZM12.5052 4.25C10.7075 4.25 9.25517 5.71249 9.25517 7.5C9.25517 9.28761 10.7176 10.75 12.5052 10.75C14.2928 10.75 15.7552 9.28761 15.7552 7.5C15.7552 5.71249 14.3029 4.25 12.5052 4.25Z" fill="#565656"/>
<path d="M5.53323 21.25C5.1083 21.25 4.76397 20.8975 4.81929 20.4762C5.04025 18.7932 5.80441 17.2386 7.0106 16.0153C8.48128 14.5546 10.4186 13.75 12.4952 13.75C14.572 13.75 16.5192 14.5548 17.9798 16.0154C19.1945 17.2387 19.9599 18.7932 20.181 20.4762C20.2364 20.8975 19.892 21.25 19.4671 21.25C19.0629 21.25 18.7358 20.9295 18.6738 20.5301C18.4719 19.2297 17.8658 18.0299 16.9205 17.0846C15.7412 15.9054 14.1786 15.25 12.5052 15.25H12.4952C10.8315 15.25 9.2089 15.9556 8.07981 17.0846C7.13453 18.0299 6.52838 19.2297 6.32656 20.5301C6.26457 20.9295 5.93742 21.25 5.53323 21.25Z" fill="#565656"/>
</g>
</g>
</svg>
