<svg width="24" height="24" viewBox="0 0 24 24" fill="none" xmlns="http://www.w3.org/2000/svg">
<g id="Property 1=Purchase">
<path id="Subtract" fill-rule="evenodd" clip-rule="evenodd" d="M3.525 20.975C3.875 21.325 4.3 21.5 4.8 21.5H18.2C18.7 21.5 19.125 21.325 19.475 20.975C19.825 20.625 20 20.2 20 19.7V8.3C20 7.8 19.825 7.375 19.475 7.025C19.125 6.675 18.7 6.5 18.2 6.5H16C16 5.25 15.5627 4.18733 14.688 3.312C13.8127 2.43733 12.75 2 11.5 2C10.25 2 9.18733 2.43733 8.312 3.312C7.43733 4.18733 7 5.25 7 6.5H4.8C4.3 6.5 3.875 6.675 3.525 7.025C3.175 7.375 3 7.8 3 8.3V19.7C3 20.2 3.175 20.625 3.525 20.975ZM13.625 4.375C14.2083 4.95833 14.5 5.66667 14.5 6.5H8.5C8.5 5.66667 8.79167 4.95833 9.375 4.375C9.95833 3.79167 10.6667 3.5 11.5 3.5C12.3333 3.5 13.0417 3.79167 13.625 4.375ZM14.55 12.35C13.65 13.1167 12.6333 13.5 11.5 13.5C10.3667 13.5 9.35433 13.1167 8.463 12.35C7.571 11.5833 7.125 10.7167 7.125 9.75C7.125 9.53333 7.2 9.354 7.35 9.212C7.5 9.07067 7.675 9 7.875 9C8.05833 9 8.21267 9.05833 8.338 9.175C8.46267 9.29167 8.55833 9.46667 8.625 9.7C8.75833 10.3667 9.1 10.9167 9.65 11.35C10.2 11.7833 10.8167 12 11.5 12C12.1833 12 12.8 11.7833 13.35 11.35C13.9 10.9167 14.2417 10.3667 14.375 9.7C14.4417 9.48333 14.5417 9.31267 14.675 9.188C14.8083 9.06267 14.9667 9 15.15 9C15.3667 9 15.5417 9.07067 15.675 9.212C15.8083 9.354 15.875 9.53333 15.875 9.75C15.8917 10.7167 15.45 11.5833 14.55 12.35Z" fill="#2B2B2B"/>
</g>
</svg>
