<svg width="25" height="24" viewBox="0 0 25 24" fill="none" xmlns="http://www.w3.org/2000/svg">
<g id="Tab_Icon_Default">
<g id="Vector">
<path d="M20.4311 8.71876C19.9511 9.02876 19.5311 9.28876 19.1111 9.54876C20.5811 10.5188 21.5811 12.0688 21.8611 13.8188L21.8811 13.9388H19.2911V13.8488C19.1911 12.4388 18.9111 11.0888 18.4711 9.93876C18.3911 9.98876 18.3211 10.0288 18.2411 10.0788L18.0211 10.2188C17.8111 10.3488 17.6111 10.4688 17.4111 10.5888C17.6811 11.5088 17.8611 12.6488 17.9111 13.8188V13.9188H13.6911V13.8088C13.7211 13.3888 13.7611 13.0188 13.8011 12.6788C13.3311 12.9388 12.8811 13.1888 12.4511 13.4188C12.4511 13.4788 12.4511 13.5388 12.4311 13.5988C12.4311 13.6788 12.4211 13.7488 12.4111 13.8288V13.9188H11.5011C10.4311 14.4788 9.35108 15.0288 8.28108 15.5388C8.45108 17.4488 9.30108 19.2288 10.6811 20.5388C12.0811 21.8588 13.9011 22.5888 15.8011 22.5888H15.9311C15.9811 22.5888 16.0311 22.5888 16.0611 22.5888H16.1211C18.0611 22.5088 19.8811 21.6788 21.2411 20.2388C22.6111 18.7888 23.3711 16.8688 23.3711 14.8388C23.3711 12.4688 22.2611 10.1888 20.4211 8.72876L20.4311 8.71876ZM13.3811 20.6388C11.2711 19.7088 9.85108 17.6688 9.69108 15.3288V15.2188H12.3811V15.3188C12.4311 17.2788 12.8311 19.1288 13.5211 20.5088L13.6411 20.7588L13.3911 20.6488L13.3811 20.6388ZM17.9211 15.3188C17.8811 16.7888 17.6611 18.2288 17.3211 19.2788C17.1411 19.8488 16.9211 20.2988 16.6911 20.6088C16.4211 20.9588 16.1211 21.1388 15.8011 21.1388C15.4811 21.1388 15.1811 20.9588 14.9111 20.6088C14.6711 20.2988 14.4611 19.8488 14.2711 19.2788C13.9311 18.2188 13.7111 16.7788 13.6611 15.3188V15.2188H17.9111V15.3188H17.9211ZM18.4411 20.5388L18.1911 20.6588L18.3011 20.4088C18.9211 19.0388 19.2711 17.2288 19.3111 15.3088V15.2088H21.9211V15.3188C21.7711 17.5588 20.4311 19.5588 18.4411 20.5388Z" fill="#565656"/>
<path d="M22.2111 3.36876C21.9611 2.82876 21.5211 2.44876 20.9411 2.28876C19.5011 1.86876 17.0811 2.74876 13.5011 5.00876L7.27108 1.61876C6.83108 1.38876 6.33108 1.34876 5.86108 1.50876C5.39108 1.66876 5.01108 1.99876 4.79108 2.43876C4.64108 2.72876 4.59108 3.04876 4.62108 3.43876V3.55876L7.88108 9.00876C7.42108 9.36876 6.99108 9.70876 6.59108 10.0188L6.08108 9.76876L3.69108 8.82876C3.34108 8.68876 2.96108 8.67876 2.61108 8.80876C2.14108 8.97876 1.78108 9.36876 1.67108 9.85876C1.55108 10.3488 1.69108 10.8588 2.04108 11.2188L4.11108 13.3788C4.43108 13.7088 4.87108 13.8988 5.32108 13.8988H7.50108C7.76108 13.8988 8.03108 13.8388 8.26108 13.7188C10.8311 12.4088 13.2811 11.0388 15.5411 9.63876C21.1111 6.18876 22.9911 5.02876 22.2111 3.36876ZM7.64108 12.4888C7.64108 12.4888 7.55108 12.5188 7.50108 12.5188H5.32108C5.23108 12.5188 5.15108 12.4788 5.09108 12.4188L3.02108 10.2588C3.02108 10.2588 2.98108 10.1988 2.99108 10.1588C3.00108 10.1188 3.02108 10.0988 3.06108 10.0788C3.08108 10.0788 3.10108 10.0688 3.12108 10.0688C3.14108 10.0688 3.17108 10.0688 3.19108 10.0788L5.52108 10.9988L6.75108 11.6188L7.44108 11.0688C7.96108 10.6588 8.55108 10.1888 9.19108 9.69876L9.68108 9.32876L5.98108 3.26876L5.96108 3.22876C5.96108 3.15876 5.97108 3.09876 6.00108 3.05876C6.06108 2.93876 6.16108 2.84876 6.28108 2.80876C6.40108 2.76876 6.53108 2.77876 6.63108 2.82876L12.8811 6.21876C13.3211 6.42876 13.8611 6.38876 14.2911 6.11876C18.3911 3.52876 19.9811 3.42876 20.5611 3.58876C20.7711 3.64876 20.8911 3.75876 20.9811 3.93876C21.2411 4.49876 17.9811 6.51876 14.8211 8.46876C12.6011 9.83876 10.1811 11.1988 7.64108 12.4888Z" fill="#565656"/>
</g>
</g>
</svg>
