<svg width="24" height="24" viewBox="0 0 24 24" fill="none" xmlns="http://www.w3.org/2000/svg">
<g id="Property 1=Oversea">
<g id="Vector">
<path d="M19.7855 8.56961C19.3055 8.87961 18.8855 9.13961 18.4655 9.39961C19.9355 10.3696 20.9355 11.9196 21.2155 13.6696L21.2355 13.7896H18.6455V13.6996C18.5455 12.2896 18.2655 10.9396 17.8255 9.78961C17.7455 9.83961 17.6755 9.87961 17.5955 9.92961L17.3755 10.0696C17.1655 10.1996 16.9655 10.3196 16.7655 10.4396C17.0355 11.3596 17.2155 12.4996 17.2655 13.6696V13.7696H13.0455V13.6596C13.0755 13.2396 13.1155 12.8696 13.1555 12.5296C12.6855 12.7896 12.2355 13.0396 11.8055 13.2696C11.8055 13.3296 11.8055 13.3896 11.7855 13.4496C11.7855 13.5296 11.7755 13.5996 11.7655 13.6796V13.7696H10.8555C9.78551 14.3296 8.70551 14.8796 7.63551 15.3896C7.80551 17.2996 8.65551 19.0796 10.0355 20.3896C11.4355 21.7096 13.2555 22.4396 15.1555 22.4396H15.2855C15.3355 22.4396 15.3855 22.4396 15.4155 22.4396H15.4755C17.4155 22.3596 19.2355 21.5296 20.5955 20.0896C21.9655 18.6396 22.7255 16.7196 22.7255 14.6896C22.7255 12.3196 21.6155 10.0396 19.7755 8.57961L19.7855 8.56961ZM12.7355 20.4796C10.6255 19.5496 9.2055 17.5096 9.04551 15.1696V15.0596H11.7355V15.1596C11.7855 17.1196 12.1855 18.9696 12.8755 20.3496L12.9955 20.5996L12.7455 20.4896L12.7355 20.4796ZM17.2755 15.1596C17.2355 16.6296 17.0155 18.0696 16.6755 19.1196C16.4955 19.6896 16.2755 20.1396 16.0455 20.4496C15.7755 20.7996 15.4755 20.9796 15.1555 20.9796C14.8355 20.9796 14.5355 20.7996 14.2655 20.4496C14.0255 20.1396 13.8155 19.6896 13.6255 19.1196C13.2855 18.0596 13.0655 16.6196 13.0155 15.1596V15.0596H17.2655V15.1596H17.2755ZM17.7955 20.3796L17.5455 20.4996L17.6555 20.2496C18.2755 18.8796 18.6255 17.0696 18.6655 15.1496V15.0496H21.2755V15.1596C21.1255 17.3996 19.7855 19.3996 17.7955 20.3796Z" fill="#2B2B2B"/>
<path d="M21.2855 3.32961C21.0655 2.86961 20.6955 2.54961 20.2055 2.40961C18.8555 2.01961 16.4355 2.92961 13.0155 5.09961L12.8655 5.18961L6.4755 1.72961C6.1155 1.53961 5.69551 1.50961 5.29551 1.63961C4.8955 1.76961 4.5855 2.04961 4.3955 2.41961C4.2755 2.65961 4.2255 2.93961 4.2555 3.25961V3.30961L7.61551 8.92961L7.40551 9.08961C6.98551 9.41961 6.58551 9.72961 6.2255 10.0196L5.9755 10.2196L5.29551 9.87961L2.9255 8.94961C2.7755 8.88961 2.6255 8.85961 2.46551 8.85961C2.32551 8.85961 2.1855 8.87961 2.0555 8.92961C1.6755 9.05961 1.3955 9.36961 1.3055 9.75961C1.2155 10.1496 1.3255 10.5496 1.5955 10.8396L3.8255 13.1696C3.9855 13.3296 4.2055 13.4296 4.4255 13.4296H6.9755C7.1055 13.4296 7.23551 13.3996 7.3555 13.3396C9.9755 12.0096 12.4555 10.6196 14.7255 9.21961C20.1255 5.87961 21.9455 4.74961 21.2855 3.32961Z" fill="#2B2B2B"/>
</g>
</g>
</svg>
