<svg width="266" height="132" viewBox="0 0 266 132" fill="none" xmlns="http://www.w3.org/2000/svg">
<path d="M80 66L186 66" stroke="#C1C1C1" stroke-width="1.5" stroke-dasharray="4 4"/>
<rect x="0.5" y="26.5" width="79" height="79" rx="39.5" fill="white"/>
<rect x="0.5" y="26.5" width="79" height="79" rx="39.5" stroke="#D7D7D7"/>
<path d="M32.887 50.7472C32.887 51.2329 32.8907 51.6268 32.887 52.0207C32.8832 52.296 32.8982 52.5867 32.5113 52.6249C32.1957 52.6555 32.0455 52.4949 31.9102 52.2081C30.8358 49.925 29.3895 49.0875 26.835 49.2481C24.4044 49.3972 22.7289 50.6745 22.0339 53.0456C21.245 55.7416 21.3727 58.3306 23.3901 60.5028C25.6892 62.9771 29.2167 62.8777 31.4707 60.3613C31.7712 60.0286 32.0192 59.3249 32.5338 59.5735C33.165 59.8795 32.5752 60.4722 32.5526 60.9426C32.4888 62.3117 31.621 62.8126 30.4301 63.0803C28.2024 63.5813 25.9897 63.7687 23.7883 62.9847C20.9595 61.9751 19.1338 60.063 18.7093 57.0075C18.296 54.036 19.4155 51.6421 21.786 49.9212C25.0731 47.5387 28.6382 47.5578 32.2972 48.9651C33.3002 49.3514 32.7104 50.2118 32.887 50.7548V50.7472Z" fill="#161616"/>
<path d="M56.2836 57.0381C56.9034 56.0399 57.4331 55.168 57.9928 54.3114C58.2596 53.9022 58.3535 53.6115 57.7487 53.4853C57.4106 53.4127 57.08 53.2788 57.1513 52.8429C57.219 52.4184 57.6059 52.514 57.8764 52.5063C58.8343 52.4872 59.796 52.4872 60.754 52.5063C61.0057 52.5102 61.3513 52.5063 61.3739 52.8773C61.3926 53.1794 61.1785 53.3974 60.8855 53.4395C60.0177 53.5657 59.385 54.5012 59.1424 54.8544C58.9342 55.1895 58.7088 55.419 58.258 56.1074C57.0272 57.9867 56.6705 59.2714 56.9034 61.4359C56.9598 61.9598 56.9785 62.392 57.6435 62.4455C57.9252 62.4685 58.1506 62.6597 58.0905 63.0038C58.0342 63.3251 57.7674 63.3174 57.527 63.3174C56.4488 63.3174 55.3707 63.3174 54.2888 63.3174C54.0483 63.3174 53.7816 63.3327 53.7328 63.0038C53.6839 62.6673 53.8943 62.4685 54.1798 62.4417C54.7922 62.3805 54.8973 62.0019 54.856 61.4933C54.856 61.4627 54.8523 61.4321 54.856 61.4015C55.1302 59.3517 54.4261 56.7484 53.2991 55.419C52.527 54.5082 52.1737 53.6421 50.7124 53.3553C50.4757 53.3094 50.4044 53.0723 50.4306 52.8505C50.4645 52.5867 50.6899 52.5178 50.9002 52.5178C52.2789 52.5102 53.6576 52.5063 55.0326 52.5178C55.2317 52.5178 55.4796 52.5637 55.5097 52.8352C55.5472 53.1756 55.3294 53.3439 55.0326 53.3783C54.0634 53.4853 54.2888 53.9328 54.6719 54.5026C55.2054 55.2942 55.6975 56.1126 56.2836 57.0342V57.0381Z" fill="#161616"/>
<path d="M45.438 57.9597C45.438 59.0802 45.4493 60.2007 45.4343 61.3212C45.4268 61.8681 45.4305 62.3614 46.1556 62.4302C46.4448 62.457 46.6552 62.6788 46.6176 63C46.5801 63.3098 46.3208 63.3251 46.0654 63.3251C44.9835 63.3251 43.9053 63.3251 42.8234 63.3251C42.5679 63.3251 42.3087 63.2945 42.2486 63.0153C42.181 62.6979 42.3951 62.4646 42.6844 62.4379C43.3944 62.3729 43.4507 61.9139 43.447 61.348C43.4357 59.107 43.4169 56.866 43.4545 54.6288C43.4695 53.8257 43.1765 53.558 42.3989 53.6001C41.3357 53.6574 40.1824 53.3936 39.6415 54.7359C39.5739 54.9041 39.3898 54.9921 39.1869 54.8812C39.0028 54.7818 38.9352 54.6097 38.9765 54.4223C39.1193 53.7454 39.2545 53.0609 39.4424 52.3993C39.5476 52.0398 39.8368 51.9289 40.1336 52.2119C40.483 52.5446 40.9 52.5025 41.317 52.5025C43.5973 52.5025 45.8776 52.5025 48.1616 52.5025C48.5824 52.5025 48.9881 52.4949 49.3825 52.2845C49.9761 51.9671 50.1827 52.3113 50.0926 52.8429C49.9874 53.4662 49.7845 54.0705 49.6417 54.69C49.5704 54.9921 49.4464 55.1948 49.1045 55.1757C48.7514 55.1565 48.789 54.8965 48.7702 54.6517C48.7101 53.9098 48.2818 53.6001 47.5681 53.6115C45.0811 53.646 45.4681 53.3056 45.438 55.6958C45.4268 56.4529 45.438 57.2101 45.438 57.9673V57.9597Z" fill="#161616"/>
<path d="M36.5535 63.3174C36.0125 63.3174 35.4716 63.3174 34.9344 63.3174C34.6827 63.3174 34.4234 63.2907 34.3596 63.0077C34.2995 62.7323 34.4911 62.4914 34.7277 62.4646C35.5843 62.369 35.5655 61.7839 35.5617 61.1415C35.5467 58.931 35.5504 56.7245 35.5617 54.5141C35.5617 53.9557 35.5204 53.4892 34.8217 53.4012C34.5399 53.3668 34.3032 53.1526 34.3596 52.8391C34.4084 52.5561 34.6902 52.5102 34.9344 52.5102C36.0125 52.5063 37.0944 52.5025 38.1726 52.5178C38.4055 52.5178 38.6948 52.5599 38.7061 52.8811C38.7136 53.1373 38.5595 53.3591 38.2816 53.3897C37.5265 53.4739 37.5302 53.994 37.534 54.5753C37.549 56.843 37.549 59.1146 37.534 61.3824C37.5302 61.9178 37.5715 62.3461 38.2252 62.4264C38.5145 62.4608 38.7474 62.652 38.7098 62.9733C38.6647 63.3327 38.3567 63.3174 38.0824 63.3174C37.5715 63.3174 37.0606 63.3174 36.5535 63.3174Z" fill="#161616"/>
<path d="M27.4149 81.1043C27.5201 80.6071 27.1331 79.6434 27.6403 79.5211C28.339 79.3528 28.2338 80.3815 28.5043 80.8634C29.451 82.5231 31.3594 83.2535 33.1438 82.546C34.917 81.8424 35.2663 80.0258 33.8726 78.718C33.2039 78.0908 32.385 77.716 31.5209 77.4407C30.8034 77.215 30.1159 76.9244 29.4923 76.4961C27.2007 74.9205 27.0204 71.7655 29.158 69.9758C31.1114 68.339 33.373 68.274 35.7096 68.8362C36.3107 68.9815 36.5924 69.4136 36.4459 70.0752C36.352 70.5188 36.2731 70.9663 36.2393 71.4175C36.198 71.9911 35.905 72.1977 35.3678 72.213C34.8268 72.2283 34.7517 71.8917 34.6803 71.4672C34.5225 70.5379 33.9966 69.9414 33.0424 69.796C31.844 69.6163 30.7583 69.8113 29.9957 70.8707C29.4548 71.6202 29.5637 72.4042 29.9995 73.169C30.2812 73.6623 30.7283 73.9645 31.2242 74.1939C32.1483 74.6146 33.0875 75.0123 34.0191 75.4215C36.1341 76.3546 37.1221 78.1826 36.7014 80.3815C36.3257 82.3586 34.5075 83.8845 32.3962 83.9878C31.3406 84.0413 30.3038 83.9189 29.2857 83.6283C27.4149 83.0967 27.4111 83.1044 27.4111 81.1119L27.4149 81.1043Z" fill="#161616"/>
<path d="M41.1793 77.6892C42.1223 76.6491 43.0577 75.6012 44.0081 74.5687C44.3237 74.2245 44.196 74.0601 43.8165 73.9415C43.5198 73.8497 43.2192 73.7006 43.2981 73.3258C43.3808 72.9357 43.7489 72.9893 44.0382 72.9854C44.9661 72.9778 45.8977 72.9816 46.8256 72.9969C47.0247 72.9969 47.2689 73.0237 47.3253 73.2876C47.3854 73.5629 47.2576 73.7924 46.9984 73.8497C45.631 74.1518 44.9323 75.3335 43.9706 76.171C43.6325 76.4693 43.3394 76.8173 43.0126 77.1271C42.1298 77.9684 42.126 77.9722 42.9863 78.76C44.0945 79.7773 45.2065 80.7869 46.3185 81.7965C46.495 81.9571 46.7392 82.0718 46.8594 82.263C47.0848 82.6301 48.1179 82.3892 47.6671 83.177C47.2877 83.8424 45.7362 84.0489 45.2779 83.6168C44.0269 82.4466 42.791 81.2573 41.5475 80.0794C41.3784 79.9188 41.1944 79.7735 40.8713 79.4905C40.8713 80.5039 40.8563 81.3605 40.8788 82.2133C40.8863 82.5804 41.0817 82.8252 41.4799 82.8825C41.7842 82.9284 42.1072 83.0432 42.0734 83.4294C42.0321 83.8577 41.6564 83.7812 41.3709 83.7851C40.3829 83.7927 39.3912 83.7851 38.4032 83.7851C38.1364 83.7851 37.8096 83.8424 37.7382 83.4906C37.6631 83.1235 37.9223 82.9208 38.2529 82.894C38.8352 82.8481 38.8878 82.481 38.884 82.0106C38.8727 79.6205 38.869 77.2342 38.884 74.844C38.8878 74.3278 38.8051 73.9568 38.2153 73.8765C37.9223 73.8383 37.6819 73.6547 37.7082 73.3411C37.7382 72.9854 38.0688 72.9778 38.3318 72.974C39.3799 72.9625 40.4318 72.9625 41.4799 72.974C41.7128 72.974 41.9983 72.9931 42.0622 73.2837C42.1335 73.6126 41.9044 73.8153 41.6226 73.8574C40.8863 73.9645 40.845 74.4731 40.8563 75.0582C40.8751 75.8421 40.86 76.6299 40.86 77.4177L41.1681 77.6778L41.1793 77.6892Z" fill="#161616"/>
<path d="M49.4816 78.347C49.4816 77.2265 49.4666 76.1098 49.4891 74.9932C49.5004 74.4272 49.4403 73.9721 48.7528 73.8765C48.4673 73.8383 48.2306 73.6394 48.2907 73.322C48.3433 73.0505 48.6176 72.9931 48.8693 72.9893C49.9174 72.9854 50.9655 72.9816 52.0174 72.9893C52.2878 72.9893 52.6297 73.0237 52.6673 73.3449C52.7011 73.6241 52.4682 73.8459 52.1676 73.888C51.5478 73.9759 51.4576 74.3813 51.4614 74.9282C51.4802 77.2265 51.4802 79.5249 51.4614 81.8194C51.4576 82.3892 51.5102 82.8367 52.2127 82.9093C52.502 82.9399 52.7048 83.1885 52.6485 83.4944C52.5959 83.7812 52.3217 83.7965 52.0737 83.7965C50.9955 83.7965 49.9174 83.7965 48.8354 83.7965C48.58 83.7965 48.3283 83.743 48.287 83.4562C48.2494 83.1923 48.4373 82.9476 48.6814 82.9284C49.5041 82.8634 49.4966 82.3089 49.4854 81.697C49.4666 80.5804 49.4816 79.4599 49.4816 78.3432V78.347Z" fill="#161616"/>
<g clip-path="url(#clip0_7569_28681)">
<circle cx="133" cy="66" r="20.25" fill="url(#paint0_linear_7569_28681)" stroke="white" stroke-width="3.5"/>
<path d="M133 58C135.749 58 138.175 59.3863 139.616 61.5H137V63.5H143V57.5H141V59.9994C139.176 57.5717 136.272 56 133 56C127.477 56 123 60.4771 123 66H125C125 61.5817 128.582 58 133 58ZM141 66C141 70.4183 137.418 74 133 74C130.251 74 127.825 72.6137 126.384 70.5H129V68.5H123V74.5H125V72.0006C126.824 74.4283 129.728 76 133 76C138.523 76 143 71.5228 143 66H141Z" fill="white"/>
</g>
<rect x="111.5" y="44.5" width="43" height="43" rx="21.5" stroke="#D7D7D7"/>
<rect x="186.5" y="26.5" width="79" height="79" rx="39.5" fill="white"/>
<rect x="186.5" y="26.5" width="79" height="79" rx="39.5" stroke="#D7D7D7"/>
<path d="M225.998 49C236.391 49 244.816 55.8308 244.816 64.2571C244.816 67.7329 243.382 70.9374 240.968 73.5027C236.904 77.9236 225.38 85.7233 224.381 84.946C223.304 84.1073 224.943 82.9279 224.801 80.2131C224.771 79.6479 224.425 79.4837 224.219 79.4469C214.66 78.7203 207.18 72.197 207.18 64.2571C207.18 55.8308 215.605 49 225.998 49ZM221.288 59.4241C220.748 59.4241 220.311 59.8621 220.311 60.4026V67.7516C220.311 68.2921 220.748 68.7302 221.288 68.7302C221.829 68.7302 222.266 68.2921 222.266 67.7516V60.4026C222.266 59.8621 221.829 59.4241 221.288 59.4241ZM214.743 59.4243C214.203 59.4243 213.765 59.8624 213.765 60.4028V67.7518C213.765 68.2923 214.203 68.7304 214.743 68.7304L218.415 68.7303C218.955 68.7303 219.393 68.2922 219.393 67.7518C219.393 67.2114 218.955 66.7733 218.415 66.7733H215.721V60.4028C215.721 59.8624 215.283 59.4243 214.743 59.4243ZM224.641 59.4242C224.101 59.4242 223.663 59.8622 223.663 60.4027V67.7517C223.663 68.2922 224.101 68.7303 224.641 68.7303C225.181 68.7303 225.619 68.2922 225.619 67.7517V63.1798L229.427 68.3558C229.749 68.7839 230.355 68.8722 230.785 68.5561C231.04 68.3795 231.206 68.0852 231.206 67.7518V60.4028C231.206 59.8623 230.768 59.4243 230.228 59.4243C229.688 59.4243 229.251 59.8623 229.251 60.4028V64.9903L225.459 59.8358L225.154 59.5697C225.005 59.4774 224.829 59.4242 224.641 59.4242ZM233.501 59.4243C233.188 59.4243 232.91 59.5714 232.731 59.8004C232.601 59.9665 232.523 60.1756 232.523 60.4029L232.523 60.4143V67.7401L232.523 67.7518C232.523 68.2922 232.961 68.7304 233.501 68.7304H237.213C237.753 68.7304 238.191 68.2922 238.191 67.7518C238.191 67.2114 237.753 66.7733 237.213 66.7733H234.479V65.0558H237.213C237.753 65.0558 238.191 64.6177 238.191 64.0774C238.191 63.5369 237.753 63.0988 237.213 63.0988H234.479V61.3814H237.213C237.753 61.3814 238.191 60.9433 238.191 60.4029C238.191 59.8624 237.753 59.4243 237.213 59.4243H233.514L233.501 59.4243Z" fill="#1AC460"/>
<defs>
<linearGradient id="paint0_linear_7569_28681" x1="123.692" y1="48.2308" x2="147.385" y2="83.7692" gradientUnits="userSpaceOnUse">
<stop stop-color="#9CD054"/>
<stop offset="1" stop-color="#5DBC54"/>
</linearGradient>
<clipPath id="clip0_7569_28681">
<rect x="111" y="44" width="44" height="44" rx="22" fill="white"/>
</clipPath>
</defs>
</svg>
