<svg width="20" height="20" viewBox="0 0 20 20" fill="none" xmlns="http://www.w3.org/2000/svg">
<g id="Line_White">
<path id="Vector" d="M10.0001 2.04163C14.6024 2.04163 18.3334 5.06435 18.3334 8.79312C18.3334 10.3312 17.6985 11.7493 16.6296 12.8845C14.8297 14.8408 9.72657 18.2923 9.28429 17.9483C8.8071 17.5772 9.53306 17.0553 9.46986 15.8539C9.4567 15.6038 9.30341 15.5311 9.21245 15.5149C4.97947 15.1933 1.66675 12.3067 1.66675 8.79312C1.66675 5.06435 5.39771 2.04163 10.0001 2.04163ZM7.9146 6.65443C7.67543 6.65443 7.48157 6.84829 7.48157 7.08746V10.3395C7.48157 10.5787 7.67543 10.7725 7.9146 10.7725C8.15376 10.7725 8.34762 10.5787 8.34762 10.3395V7.08746C8.34762 6.84829 8.15376 6.65443 7.9146 6.65443ZM5.01596 6.65456C4.77684 6.65456 4.58298 6.84842 4.58298 7.08755V10.3396C4.58298 10.5788 4.77684 10.7726 5.01596 10.7726L6.64206 10.7726C6.88118 10.7726 7.07504 10.5787 7.07504 10.3396C7.07504 10.1004 6.88118 9.90658 6.64206 9.90658H5.44899V7.08755C5.44899 6.84842 5.25513 6.65456 5.01596 6.65456ZM9.3992 6.65448C9.16004 6.65448 8.96618 6.84834 8.96618 7.0875V10.3396C8.96618 10.5787 9.16004 10.7726 9.3992 10.7726C9.63833 10.7726 9.83219 10.5787 9.83219 10.3396V8.31641L11.5184 10.6069C11.6612 10.7963 11.9295 10.8354 12.1202 10.6955C12.2328 10.6174 12.3065 10.4871 12.3065 10.3396V7.08755C12.3065 6.84838 12.1127 6.65452 11.8735 6.65452C11.6344 6.65452 11.4405 6.84838 11.4405 7.08755V9.11759L9.76149 6.83663L9.62644 6.71886C9.56039 6.67803 9.48254 6.65448 9.3992 6.65448ZM13.3228 6.65452C13.1842 6.65452 13.0608 6.71965 12.9816 6.82097C12.9241 6.89448 12.8898 6.98702 12.8898 7.08759L12.8898 7.09264V10.3344L12.8898 10.3396C12.8898 10.5787 13.0837 10.7726 13.3228 10.7726H14.9665C15.2057 10.7726 15.3995 10.5787 15.3995 10.3396C15.3995 10.1004 15.2057 9.90658 14.9665 9.90658H13.7558V9.14658H14.9665C15.2057 9.14658 15.3995 8.95272 15.3995 8.7136C15.3995 8.47443 15.2057 8.28057 14.9665 8.28057H13.7558V7.52057H14.9665C15.2057 7.52057 15.3995 7.32671 15.3995 7.08759C15.3995 6.84842 15.2057 6.65456 14.9665 6.65456H13.3285L13.3228 6.65452Z" fill="white"/>
</g>
</svg>
