<svg width="20" height="20" viewBox="0 0 20 20" fill="none" xmlns="http://www.w3.org/2000/svg">
<g id="20px icon">
<path id="vector" d="M5.333 17.917C4.889 17.917 4.514 17.7607 4.208 17.448C3.90267 17.1353 3.75 16.7567 3.75 16.312V8.66699C3.75 8.22233 3.90267 7.84733 4.208 7.54199C4.514 7.23599 4.889 7.08299 5.333 7.08299H12.458V5.45799C12.458 4.77799 12.2187 4.19833 11.74 3.71899C11.2607 3.23966 10.6807 2.99999 10 2.99999C9.43067 2.99999 8.92733 3.17699 8.49 3.53099C8.052 3.88499 7.76367 4.32599 7.625 4.85399C7.583 5.03466 7.49267 5.18066 7.354 5.29199C7.21533 5.40266 7.06967 5.45799 6.917 5.45799C6.70833 5.45799 6.54167 5.38533 6.417 5.23999C6.29167 5.09399 6.243 4.93066 6.271 4.74999C6.45167 3.84733 6.88567 3.10766 7.573 2.53099C8.26033 1.95499 9.06933 1.66699 10 1.66699C11.0693 1.66699 11.9687 2.03133 12.698 2.75999C13.4273 3.48933 13.792 4.38866 13.792 5.45799V7.08299H14.667C15.111 7.08299 15.486 7.23599 15.792 7.54199C16.0973 7.84733 16.25 8.22233 16.25 8.66699V16.312C16.25 16.7567 16.0973 17.1353 15.792 17.448C15.486 17.7607 15.111 17.917 14.667 17.917H5.333ZM5.333 16.583H14.667C14.7363 16.583 14.7953 16.5587 14.844 16.51C14.8927 16.462 14.917 16.403 14.917 16.333V8.66699C14.917 8.59699 14.8927 8.53799 14.844 8.48999C14.7953 8.44133 14.7363 8.41699 14.667 8.41699H5.333C5.26367 8.41699 5.20467 8.44133 5.156 8.48999C5.10733 8.53799 5.083 8.59699 5.083 8.66699V16.333C5.083 16.403 5.10733 16.462 5.156 16.51C5.20467 16.5587 5.26367 16.583 5.333 16.583ZM10 13.979C10.4167 13.979 10.7673 13.8367 11.052 13.552C11.3367 13.2673 11.479 12.9167 11.479 12.5C11.479 12.0833 11.3367 11.7327 11.052 11.448C10.7673 11.1633 10.4167 11.021 10 11.021C9.58333 11.021 9.23267 11.1633 8.948 11.448C8.66333 11.7327 8.521 12.0833 8.521 12.5C8.521 12.9167 8.66333 13.2673 8.948 13.552C9.23267 13.8367 9.58333 13.979 10 13.979Z" fill="#818181"/>
</g>
</svg>
