<svg width="20" height="20" viewBox="0 0 20 20" fill="none" xmlns="http://www.w3.org/2000/svg">
<g id="20px icon">
<g id="vector">
<path d="M15.1999 10.5083H9V9.19631H15.1999V7L18.0522 9.85229L15.1999 12.7046V10.5083Z" fill="#818181"/>
<path d="M3 4.2C3 3.26112 3.76112 2.5 4.7 2.5H14.3C15.2389 2.5 16 3.26112 16 4.2V5.5H14.6V4.80002C14.6 4.30297 14.1971 3.90002 13.7 3.90002H5.30002C4.80297 3.90002 4.40002 4.30297 4.40002 4.80002V15.2C4.40002 15.6971 4.80297 16.1 5.30002 16.1H13.7C14.1971 16.1 14.6 15.6971 14.6 15.2V14.5H16V15.8C16 16.7389 15.2389 17.5 14.3 17.5H4.7C3.76112 17.5 3 16.7389 3 15.8V4.2Z" fill="#818181"/>
</g>
</g>
</svg>
