<svg width="20" height="20" viewBox="0 0 20 20" fill="none" xmlns="http://www.w3.org/2000/svg">
<g id="20px icon">
<g id="vector">
<path d="M3.71463 5.28546C5.14819 3.37732 7.42985 2.14355 9.99971 2.14355C14.3385 2.14355 17.8559 5.66088 17.8559 9.99971C17.8559 14.3385 14.3385 17.8559 9.99971 17.8559C5.93512 17.8559 2.59147 14.7691 2.18503 10.8119C2.14747 10.4462 2.44639 10.1437 2.81397 10.1437C3.1714 10.1437 3.45978 10.4303 3.50223 10.7852C3.89026 14.0291 6.65131 16.5438 9.99971 16.5438C13.614 16.5438 16.5438 13.614 16.5438 9.99971C16.5438 6.38549 13.614 3.45558 9.99971 3.45558C7.75022 3.45558 5.76589 4.59071 4.58822 6.31874L4.43479 6.54386L5.99961 6.54372C6.36192 6.54368 6.65565 6.83739 6.65565 7.19969C6.65565 7.56198 6.36196 7.85567 5.99967 7.85567H3.14355C2.59127 7.85567 2.14355 7.40796 2.14355 6.85567V3.99958C2.14355 3.63728 2.43725 3.34358 2.79955 3.34358C3.16186 3.34358 3.45556 3.6373 3.45555 3.9996L3.45547 5.6304L3.71463 5.28546Z" fill="#818181"/>
<path d="M9.34354 10.2705L9.34367 6.79962C9.34369 6.43733 9.63739 6.14364 9.99968 6.14364C10.362 6.14364 10.6557 6.43736 10.6557 6.79968L10.6556 9.72735L12.7265 11.7986C12.9826 12.0548 12.9826 12.4701 12.7264 12.7263C12.4702 12.9825 12.0548 12.9825 11.7986 12.7262L9.34354 10.2705Z" fill="#818181"/>
</g>
</g>
</svg>
