<svg width="20" height="20" viewBox="0 0 20 20" fill="none" xmlns="http://www.w3.org/2000/svg">
<g id="20px icon">
<path id="vector" d="M15.5834 17.9167H4.41675C4.00008 17.9167 3.64591 17.7709 3.35425 17.4792C3.06258 17.1876 2.91675 16.8334 2.91675 16.4167V6.91675C2.91675 6.50008 3.06258 6.14591 3.35425 5.85425C3.64591 5.56258 4.00008 5.41675 4.41675 5.41675H6.25008C6.25008 4.37508 6.61453 3.48953 7.34342 2.76008C8.07286 2.03119 8.95842 1.66675 10.0001 1.66675C11.0417 1.66675 11.9273 2.03119 12.6567 2.76008C13.3856 3.48953 13.7501 4.37508 13.7501 5.41675H15.5834C16.0001 5.41675 16.3542 5.56258 16.6459 5.85425C16.9376 6.14591 17.0834 6.50008 17.0834 6.91675V16.4167C17.0834 16.8334 16.9376 17.1876 16.6459 17.4792C16.3542 17.7709 16.0001 17.9167 15.5834 17.9167ZM7.50008 5.41675H12.5001C12.5001 4.7223 12.257 4.13203 11.7709 3.64591C11.2848 3.1598 10.6945 2.91675 10.0001 2.91675C9.30564 2.91675 8.71536 3.1598 8.22925 3.64591C7.74314 4.13203 7.50008 4.7223 7.50008 5.41675ZM15.5834 16.6667C15.6529 16.6667 15.712 16.6426 15.7609 16.5942C15.8092 16.5454 15.8334 16.4862 15.8334 16.4167V6.91675C15.8334 6.8473 15.8092 6.78814 15.7609 6.73925C15.712 6.69091 15.6529 6.66675 15.5834 6.66675H4.41675C4.3473 6.66675 4.28841 6.69091 4.24008 6.73925C4.19119 6.78814 4.16675 6.8473 4.16675 6.91675V16.4167C4.16675 16.4862 4.19119 16.5454 4.24008 16.5942C4.28841 16.6426 4.3473 16.6667 4.41675 16.6667H15.5834ZM10.0001 11.2501C10.9445 11.2501 11.7917 10.9306 12.5417 10.2917C13.2917 9.65286 13.6598 8.93064 13.6459 8.12508C13.6459 7.94453 13.5904 7.79508 13.4792 7.67675C13.3681 7.55897 13.2223 7.50008 13.0417 7.50008C12.889 7.50008 12.757 7.5523 12.6459 7.65675C12.5348 7.76064 12.4515 7.90286 12.3959 8.08341C12.2848 8.63897 12.0001 9.0973 11.5417 9.45842C11.0834 9.81953 10.5695 10.0001 10.0001 10.0001C9.43064 10.0001 8.91675 9.81953 8.45841 9.45842C8.00008 9.0973 7.71536 8.63897 7.60425 8.08341C7.54869 7.88897 7.46897 7.74314 7.36508 7.64591C7.26064 7.54869 7.13203 7.50008 6.97925 7.50008C6.81258 7.50008 6.66675 7.55897 6.54175 7.67675C6.41675 7.79508 6.35425 7.94453 6.35425 8.12508C6.35425 8.93064 6.72592 9.65286 7.46925 10.2917C8.21203 10.9306 9.05564 11.2501 10.0001 11.2501Z" fill="#818181"/>
</g>
</svg>
