<svg width="20" height="20" viewBox="0 0 20 20" fill="none" xmlns="http://www.w3.org/2000/svg">
<g id="20px icon">
<g id="vector">
<path fill-rule="evenodd" clip-rule="evenodd" d="M5.98314 6.66681C5.98314 4.44847 7.78146 2.65015 9.99981 2.65015C12.2181 2.65015 14.0165 4.44847 14.0165 6.66681C14.0165 8.88516 12.2181 10.6835 9.99981 10.6835C7.78146 10.6835 5.98314 8.88516 5.98314 6.66681ZM9.99981 4.01681C8.53625 4.01681 7.34981 5.20326 7.34981 6.66681C7.34981 8.13037 8.53625 9.31681 9.99981 9.31681C11.4634 9.31681 12.6498 8.13037 12.6498 6.66681C12.6498 5.20326 11.4634 4.01681 9.99981 4.01681Z" fill="#818181"/>
<path d="M5.39183 13.7255C6.61394 12.5034 8.27148 11.8168 9.99981 11.8168C11.7281 11.8168 13.3857 12.5034 14.6078 13.7255C15.628 14.7457 16.275 16.0695 16.461 17.4845C16.5111 17.8659 16.1981 18.1835 15.8134 18.1835C15.4426 18.1835 15.1438 17.8872 15.0853 17.5211C14.9152 16.4562 14.4136 15.4641 13.6414 14.6919C12.6756 13.7261 11.3657 13.1835 9.99981 13.1835C8.63394 13.1835 7.32402 13.7261 6.35821 14.6919C5.58602 15.4641 5.08437 16.4562 4.91427 17.5211C4.85578 17.8872 4.55701 18.1835 4.18623 18.1835C3.80151 18.1835 3.48854 17.8659 3.53866 17.4845C3.72456 16.0695 4.37158 14.7457 5.39183 13.7255Z" fill="#818181"/>
</g>
</g>
</svg>
