<svg width="20" height="20" viewBox="0 0 20 20" fill="none" xmlns="http://www.w3.org/2000/svg">
<g id="20px icon">
<g id="vector">
<path fill-rule="evenodd" clip-rule="evenodd" d="M2.94434 3.79347C2.94434 3.00012 3.59504 2.14404 4.59912 2.14404H13.1405L17.0558 6.05961L17.056 16.1937C17.056 17.0001 16.3539 17.8557 15.4053 17.8557H4.59504C3.81842 17.8557 2.94434 17.0001 2.94434 16.2063V3.79347ZM12.5441 3.45602H5.25631C4.70402 3.45602 4.25631 3.90373 4.25631 4.45602V15.5437C4.25631 16.096 4.70402 16.5437 5.25631 16.5437H14.7441C15.2964 16.5437 15.7441 16.096 15.7441 15.5437V6.65595H12.5441V3.45602Z" fill="#818181"/>
<path d="M9.72251 13.4879C9.56264 13.6581 9.29311 13.6607 9.12994 13.4936L6.56305 10.8653C6.32657 10.6231 6.32082 10.2383 6.54995 9.9892C6.79525 9.72252 7.21331 9.71397 7.46932 9.97038L9.42925 11.9335L12.675 8.49438C12.9272 8.22725 13.3529 8.22998 13.6016 8.50034C13.8262 8.74453 13.8242 9.12067 13.5971 9.36249L9.72251 13.4879Z" fill="#818181"/>
</g>
</g>
</svg>
