<svg width="16" height="16" viewBox="0 0 16 16" fill="none" xmlns="http://www.w3.org/2000/svg">
    <path fill-rule="evenodd" clip-rule="evenodd" d="M14 8C14 11.3137 11.3137 14 8 14C4.68629 14 2 11.3137 2 8C2 4.68629 4.68629 2 8 2C11.3137 2 14 4.68629 14 8ZM5.58183 5.58179C5.75757 5.40606 6.04249 5.40606 6.21823 5.58179L8 7.36356L9.78177 5.58179C9.95751 5.40606 10.2424 5.40606 10.4182 5.58179C10.5939 5.75753 10.5939 6.04245 10.4182 6.21819L8.6364 7.99996L10.4182 9.78179C10.594 9.95753 10.594 10.2425 10.4182 10.4182C10.2425 10.5939 9.95757 10.5939 9.78184 10.4182L8 8.63635L6.21816 10.4182C6.04243 10.5939 5.7575 10.5939 5.58177 10.4182C5.40603 10.2425 5.40603 9.95753 5.58177 9.78179L7.3636 7.99996L5.58183 6.21819C5.4061 6.04245 5.4061 5.75753 5.58183 5.58179Z" fill="#374957" />
</svg>