<svg width="24" height="24" viewBox="0 0 24 24" fill="none" xmlns="http://www.w3.org/2000/svg">
  <path fill-rule="evenodd" clip-rule="evenodd" d="M14.5141 14.5141L13.257 13.257C12.9353 13.5788 12.4908 13.7778 11.9999 13.7778C11.0181 13.7778 10.2221 12.9818 10.2221 12C10.2221 11.509 10.4211 11.0646 10.7429 10.7429L9.4858 9.48578C8.84233 10.1292 8.44434 11.0181 8.44434 12C8.44434 13.9637 10.0362 15.5556 11.9999 15.5556C12.9818 15.5556 13.8707 15.1576 14.5141 14.5141Z" fill="#6B6B6B" />
  <rect x="4.3501" y="2.94" width="23.6238" height="2" rx="1" transform="rotate(45 4.3501 2.94)" fill="#6B6B6B" />
  <path fill-rule="evenodd" clip-rule="evenodd" d="M5.10712 6.52553C2.44112 8.63785 1 11.3998 1 12C1 13 5 20 12 20C13.9795 20 15.7191 19.4402 17.1962 18.6146L15.8638 17.2822C14.72 17.845 13.4277 18.2 12 18.2C9.1358 18.2 6.81675 16.7712 5.14779 15.1022C4.31888 14.2733 3.68755 13.4197 3.27251 12.7369C3.09104 12.4384 2.96012 12.1876 2.87462 12C2.96012 11.8124 3.09104 11.5616 3.27251 11.2631C3.68755 10.5803 4.31888 9.7267 5.14779 8.89779C5.52829 8.51729 5.94258 8.14927 6.38942 7.80782L5.10712 6.52553ZM18.702 15.25C18.7526 15.201 18.8027 15.1517 18.8522 15.1022C19.6811 14.2733 20.3125 13.4197 20.7275 12.7369C20.909 12.4384 21.0399 12.1876 21.1254 12C21.0399 11.8124 20.909 11.5616 20.7275 11.2631C20.3125 10.5803 19.6811 9.7267 18.8522 8.89779C17.1832 7.22883 14.8642 5.8 12 5.8C11.1505 5.8 10.3489 5.9257 9.59805 6.14607L8.18232 4.73034C9.3306 4.27769 10.6058 4 12 4C19 4 23 11 23 12C23 12.5132 21.9466 14.6065 19.9749 16.523L18.702 15.25ZM21.2262 11.7476C21.2266 11.7465 21.2267 11.7459 21.2267 11.7459L21.2253 11.7508C21.2257 11.7495 21.226 11.7484 21.2262 11.7476ZM2.77332 11.7459L2.77466 11.7508C2.77369 11.7475 2.77328 11.7459 2.77332 11.7459ZM2.77332 12.2541C2.77328 12.2541 2.77369 12.2525 2.77466 12.2492L2.77332 12.2541ZM21.2253 12.2492C21.2263 12.2525 21.2267 12.2541 21.2267 12.2541L21.2253 12.2492Z" fill="#6B6B6B" />
</svg>