<svg width="16" height="16" viewBox="0 0 16 16" fill="none" xmlns="http://www.w3.org/2000/svg">
<g id="Learners">
<g id="Vector">
<path d="M8.00001 8.06C9.84001 8.06 11.336 6.564 11.336 4.724C11.336 2.884 9.84001 1.396 8.00001 1.396C6.16001 1.396 4.66401 2.892 4.66401 4.732C4.66401 6.572 6.16001 8.068 8.00001 8.068V8.06ZM8.00001 2.516C9.22401 2.516 10.216 3.508 10.216 4.732C10.216 5.956 9.22401 6.948 8.00001 6.948C6.77601 6.948 5.78401 5.956 5.78401 4.732C5.78401 3.508 6.77601 2.516 8.00001 2.516Z" fill="#2B2B2B"/>
<path d="M8.00001 8.412C4.89601 8.412 2.36801 10.94 2.36801 14.044C2.36801 14.356 2.61601 14.604 2.92801 14.604C3.24001 14.604 3.48801 14.356 3.48801 14.044C3.48801 11.556 5.51201 9.532 8.00001 9.532C10.488 9.532 12.512 11.556 12.512 14.044C12.512 14.356 12.76 14.604 13.072 14.604C13.384 14.604 13.632 14.356 13.632 14.044C13.632 10.94 11.104 8.412 8.00001 8.412Z" fill="#2B2B2B"/>
</g>
</g>
</svg>
