<svg width="192" height="50" viewBox="0 0 192 50" fill="none" xmlns="http://www.w3.org/2000/svg">
<g filter="url(#filter0_d_6490_46304)">
<mask id="path-1-outside-1_6490_46304" maskUnits="userSpaceOnUse" x="0" y="0" width="190" height="48" fill="black">
<rect fill="white" width="190" height="48"/>
<path d="M19.224 25.056H23.88V46.08H19.224V25.056ZM12.744 18.768V22.704H29.256V18.768H12.744ZM8.376 15.456H33.864V26.016H8.376V15.456ZM3.96 29.52H36.168V33.6H8.52V43.92H3.96V29.52ZM33.96 29.52H38.616V39.504C38.616 41.712 38.184 42.912 36.504 43.584C34.776 44.256 32.28 44.256 28.68 44.256C28.44 43.056 27.768 41.328 27.144 40.128C29.736 40.224 32.28 40.224 33 40.224C33.768 40.176 33.96 40.032 33.96 39.456V29.52ZM18.792 1.44H23.448V10.272H18.792V1.44ZM0.792 8.544H41.448V19.44H36.936V12.528H5.16V19.44H0.792V8.544ZM4.68 3.504L8.808 1.872C10.296 3.504 11.832 5.76 12.6 7.296L8.28 9.264C7.608 7.68 6.072 5.232 4.68 3.504ZM33 1.872L37.848 3.408C36.168 5.472 34.392 7.536 33 8.928L29.208 7.488C30.504 5.952 32.136 3.504 33 1.872ZM58.056 14.928V19.008H79.944V14.928H58.056ZM58.056 22.8V26.928H79.944V22.8H58.056ZM58.056 7.104V11.184H79.944V7.104H58.056ZM53.64 3.12H84.552V30.912H53.64V3.12ZM71.688 27.936H76.296V39.696C76.296 41.136 76.68 41.376 78.6 41.376C79.512 41.376 83.64 41.376 84.84 41.376C86.664 41.376 86.952 40.56 87.192 34.704C88.152 35.52 90.12 36.24 91.368 36.576C90.84 43.824 89.592 45.696 85.224 45.696C84.12 45.696 79.08 45.696 78.072 45.696C72.984 45.696 71.688 44.304 71.688 39.696V27.936ZM60.072 29.376H64.92C64.008 37.968 61.416 43.392 49.224 46.176C48.84 44.976 47.592 43.104 46.68 42.144C57.48 40.032 59.304 36.096 60.072 29.376ZM109.608 24.72H125.976V39.264H109.608V35.52H121.704V28.512H109.608V24.72ZM107.64 24.72H111.864V42.096H107.64V24.72ZM99.336 10.416H112.104V13.632H99.336V10.416ZM121.512 10.416H134.472V13.632H121.512V10.416ZM132.504 3.456H137.112V40.32C137.112 43.104 136.488 44.448 134.76 45.216C132.936 45.984 130.056 46.032 125.736 46.032C125.592 44.784 124.824 42.624 124.152 41.424C127.176 41.568 130.392 41.52 131.304 41.472C132.216 41.472 132.504 41.184 132.504 40.272V3.456ZM99.672 3.456H114.984V20.832H99.672V17.28H110.712V7.008H99.672V3.456ZM134.952 3.456V7.008H123.144V17.376H134.952V20.88H118.824V3.456H134.952ZM97.128 3.456H101.64V46.08H97.128V3.456ZM149.736 12.672V15.696H157.992V12.672H149.736ZM149.736 6.624V9.648H157.992V6.624H149.736ZM145.704 3.456H162.216V18.912H145.704V3.456ZM143.112 22.128H164.76V25.536H143.112V22.128ZM164.52 3.696H186.504V7.008H164.52V3.696ZM152.424 23.184H156.264V41.904L152.424 39.648V23.184ZM154.44 30.144H163.896V33.504H154.44V30.144ZM173.928 4.512L178.104 5.376C177.096 7.968 175.992 10.752 175.08 12.576L171.768 11.76C172.584 9.696 173.448 6.672 173.928 4.512ZM170.28 19.44V22.464H180.552V19.44H170.28ZM170.28 25.488V28.56H180.552V25.488H170.28ZM170.28 13.392V16.416H180.552V13.392H170.28ZM166.2 10.224H184.776V31.776H166.2V10.224ZM170.136 32.4L173.928 33.552C171.864 36.24 168.408 38.976 165.432 40.608C164.76 39.936 163.32 38.544 162.456 37.92C165.384 36.576 168.408 34.512 170.136 32.4ZM145.944 27.84H149.688C149.4 34.944 148.536 42.048 145.032 46.272C144.456 45.312 143.208 43.92 142.296 43.248C145.128 39.792 145.752 33.696 145.944 27.84ZM148.872 32.256C151.992 40.416 158.856 41.376 169.176 41.376C171.864 41.376 184.296 41.376 187.608 41.28C186.984 42.144 186.312 43.92 186.072 45.072H169.176C157.128 45.072 149.88 43.488 146.136 33.168L148.872 32.256ZM176.904 33.888L180.024 32.208C182.712 33.888 185.784 36.528 187.32 38.352L184.056 40.368C182.52 38.448 179.4 35.664 176.904 33.888Z"/>
</mask>
<path d="M19.224 25.056H23.88V46.08H19.224V25.056ZM12.744 18.768V22.704H29.256V18.768H12.744ZM8.376 15.456H33.864V26.016H8.376V15.456ZM3.96 29.52H36.168V33.6H8.52V43.92H3.96V29.52ZM33.96 29.52H38.616V39.504C38.616 41.712 38.184 42.912 36.504 43.584C34.776 44.256 32.28 44.256 28.68 44.256C28.44 43.056 27.768 41.328 27.144 40.128C29.736 40.224 32.28 40.224 33 40.224C33.768 40.176 33.96 40.032 33.96 39.456V29.52ZM18.792 1.44H23.448V10.272H18.792V1.44ZM0.792 8.544H41.448V19.44H36.936V12.528H5.16V19.44H0.792V8.544ZM4.68 3.504L8.808 1.872C10.296 3.504 11.832 5.76 12.6 7.296L8.28 9.264C7.608 7.68 6.072 5.232 4.68 3.504ZM33 1.872L37.848 3.408C36.168 5.472 34.392 7.536 33 8.928L29.208 7.488C30.504 5.952 32.136 3.504 33 1.872ZM58.056 14.928V19.008H79.944V14.928H58.056ZM58.056 22.8V26.928H79.944V22.8H58.056ZM58.056 7.104V11.184H79.944V7.104H58.056ZM53.64 3.12H84.552V30.912H53.64V3.12ZM71.688 27.936H76.296V39.696C76.296 41.136 76.68 41.376 78.6 41.376C79.512 41.376 83.64 41.376 84.84 41.376C86.664 41.376 86.952 40.56 87.192 34.704C88.152 35.52 90.12 36.24 91.368 36.576C90.84 43.824 89.592 45.696 85.224 45.696C84.12 45.696 79.08 45.696 78.072 45.696C72.984 45.696 71.688 44.304 71.688 39.696V27.936ZM60.072 29.376H64.92C64.008 37.968 61.416 43.392 49.224 46.176C48.84 44.976 47.592 43.104 46.68 42.144C57.48 40.032 59.304 36.096 60.072 29.376ZM109.608 24.72H125.976V39.264H109.608V35.52H121.704V28.512H109.608V24.72ZM107.64 24.72H111.864V42.096H107.64V24.72ZM99.336 10.416H112.104V13.632H99.336V10.416ZM121.512 10.416H134.472V13.632H121.512V10.416ZM132.504 3.456H137.112V40.32C137.112 43.104 136.488 44.448 134.76 45.216C132.936 45.984 130.056 46.032 125.736 46.032C125.592 44.784 124.824 42.624 124.152 41.424C127.176 41.568 130.392 41.52 131.304 41.472C132.216 41.472 132.504 41.184 132.504 40.272V3.456ZM99.672 3.456H114.984V20.832H99.672V17.28H110.712V7.008H99.672V3.456ZM134.952 3.456V7.008H123.144V17.376H134.952V20.88H118.824V3.456H134.952ZM97.128 3.456H101.64V46.08H97.128V3.456ZM149.736 12.672V15.696H157.992V12.672H149.736ZM149.736 6.624V9.648H157.992V6.624H149.736ZM145.704 3.456H162.216V18.912H145.704V3.456ZM143.112 22.128H164.76V25.536H143.112V22.128ZM164.52 3.696H186.504V7.008H164.52V3.696ZM152.424 23.184H156.264V41.904L152.424 39.648V23.184ZM154.44 30.144H163.896V33.504H154.44V30.144ZM173.928 4.512L178.104 5.376C177.096 7.968 175.992 10.752 175.08 12.576L171.768 11.76C172.584 9.696 173.448 6.672 173.928 4.512ZM170.28 19.44V22.464H180.552V19.44H170.28ZM170.28 25.488V28.56H180.552V25.488H170.28ZM170.28 13.392V16.416H180.552V13.392H170.28ZM166.2 10.224H184.776V31.776H166.2V10.224ZM170.136 32.4L173.928 33.552C171.864 36.24 168.408 38.976 165.432 40.608C164.76 39.936 163.32 38.544 162.456 37.92C165.384 36.576 168.408 34.512 170.136 32.4ZM145.944 27.84H149.688C149.4 34.944 148.536 42.048 145.032 46.272C144.456 45.312 143.208 43.92 142.296 43.248C145.128 39.792 145.752 33.696 145.944 27.84ZM148.872 32.256C151.992 40.416 158.856 41.376 169.176 41.376C171.864 41.376 184.296 41.376 187.608 41.28C186.984 42.144 186.312 43.92 186.072 45.072H169.176C157.128 45.072 149.88 43.488 146.136 33.168L148.872 32.256ZM176.904 33.888L180.024 32.208C182.712 33.888 185.784 36.528 187.32 38.352L184.056 40.368C182.52 38.448 179.4 35.664 176.904 33.888Z" fill="white"/>
<path d="M12.792 18.768V17.768H11.792V18.768H12.792ZM12.792 22.704H11.792V23.704H12.792V22.704ZM29.208 22.704V23.704H30.208V22.704H29.208ZM29.208 18.768H30.208V17.768H29.208V18.768ZM38.472 29.472H39.472V28.472H38.472V29.472ZM36.36 43.344L36.7082 44.2814L36.7246 44.2753L36.7408 44.2687L36.36 43.344ZM28.632 44.016L27.6514 44.2121L27.8122 45.016H28.632V44.016ZM27.144 39.936L27.1817 38.9367L25.4945 38.873L26.2496 40.3832L27.144 39.936ZM32.904 40.032V41.032H32.9352L32.9664 41.0301L32.904 40.032ZM33.864 33.504H34.864V32.504H33.864V33.504ZM23.88 33.504V32.504H22.88V33.504H23.88ZM23.88 45.792V46.792H24.88V45.792H23.88ZM19.272 45.792H18.272V46.792H19.272V45.792ZM19.272 33.504H20.272V32.504H19.272V33.504ZM8.664 33.504V32.504H7.664V33.504H8.664ZM8.664 43.632V44.632H9.664V43.632H8.664ZM4.152 43.632H3.152V44.632H4.152V43.632ZM4.152 29.472V28.472H3.152V29.472H4.152ZM19.272 29.472V30.472H20.272V29.472H19.272ZM19.272 25.968H20.272V24.968H19.272V25.968ZM8.52 25.968H7.52V26.968H8.52V25.968ZM8.52 15.504V14.504H7.52V15.504H8.52ZM33.768 15.504H34.768V14.504H33.768V15.504ZM33.768 25.968V26.968H34.768V25.968H33.768ZM23.88 25.968V24.968H22.88V25.968H23.88ZM23.88 29.472H22.88V30.472H23.88V29.472ZM33.24 8.784L32.5329 8.07689L30.8258 9.784H33.24V8.784ZM41.208 8.784H42.208V7.784H41.208V8.784ZM41.208 19.44V20.44H42.208V19.44H41.208ZM36.792 19.44H35.792V20.44H36.792V19.44ZM36.792 12.624H37.792V11.624H36.792V12.624ZM5.352 12.624V11.624H4.352V12.624H5.352ZM5.352 19.44V20.44H6.352V19.44H5.352ZM1.08 19.44H0.0799999V20.44H1.08V19.44ZM1.08 8.784V7.784H0.0799999V8.784H1.08ZM8.184 8.784V9.784H9.82547L9.07262 8.32536L8.184 8.784ZM4.92 3.744L4.55435 2.81325L3.28643 3.31136L4.14159 4.37175L4.92 3.744ZM8.952 2.16L9.68085 1.47532L9.21696 0.981506L8.58635 1.22925L8.952 2.16ZM12.744 7.536L13.1473 8.45108L14.1079 8.02775L13.6384 7.08878L12.744 7.536ZM9.912 8.784L9.50874 7.86891L9.912 9.784V8.784ZM18.84 8.784V9.784H19.84V8.784H18.84ZM18.84 1.728V0.727998H17.84V1.728H18.84ZM23.448 1.728H24.448V0.727998H23.448V1.728ZM23.448 8.784H22.448V9.784H23.448V8.784ZM32.04 8.784V9.784L32.3979 7.85025L32.04 8.784ZM29.16 7.68L28.3839 7.04941L27.514 8.12L28.8021 8.61374L29.16 7.68ZM32.904 2.112L33.2116 1.16047L32.3939 0.89617L32.0096 1.66478L32.904 2.112ZM37.656 3.648L38.4388 4.27024L39.3369 3.14038L37.9636 2.69647L37.656 3.648ZM11.792 18.768V22.704H13.792V18.768H11.792ZM12.792 23.704H29.208V21.704H12.792V23.704ZM30.208 22.704V18.768H28.208V22.704H30.208ZM29.208 17.768H12.792V19.768H29.208V17.768ZM37.472 29.472V39.312H39.472V29.472H37.472ZM37.472 39.312C37.472 40.3415 37.353 40.9958 37.1319 41.4421C36.9343 41.841 36.613 42.1584 35.9793 42.4193L36.7408 44.2687C37.739 43.8576 38.4737 43.239 38.9241 42.3299C39.351 41.4682 39.472 40.4425 39.472 39.312H37.472ZM36.0118 42.4066C35.3028 42.6699 34.3807 42.8291 33.1454 42.9165C31.9138 43.0036 30.4358 43.016 28.632 43.016V45.016C30.4282 45.016 31.9742 45.0044 33.2866 44.9115C34.5953 44.8189 35.7372 44.6421 36.7082 44.2814L36.0118 42.4066ZM29.6126 43.8199C29.3491 42.5023 28.6374 40.6866 28.0384 39.4888L26.2496 40.3832C26.8026 41.4894 27.4349 43.1297 27.6514 44.2121L29.6126 43.8199ZM27.1063 40.9353C29.6707 41.0321 32.231 41.032 32.904 41.032V39.032C32.233 39.032 29.7053 39.0319 27.1817 38.9367L27.1063 40.9353ZM32.9664 41.0301C33.1781 41.0168 33.3982 40.9946 33.6041 40.9468C33.8102 40.899 34.0625 40.8123 34.2927 40.63C34.8193 40.2132 34.864 39.6106 34.864 39.264H32.864C32.864 39.3097 32.862 39.3355 32.8607 39.347C32.8594 39.3585 32.8597 39.3466 32.8682 39.3198C32.8772 39.2914 32.8951 39.2466 32.9288 39.1957C32.9633 39.1434 33.0057 39.098 33.0513 39.062C33.1375 38.9937 33.1978 38.988 33.1519 38.9987C33.1321 39.0032 33.0979 39.0097 33.044 39.0163C32.9906 39.0228 32.9243 39.0288 32.8416 39.0339L32.9664 41.0301ZM34.864 39.264V33.504H32.864V39.264H34.864ZM33.864 32.504H23.88V34.504H33.864V32.504ZM22.88 33.504V45.792H24.88V33.504H22.88ZM23.88 44.792H19.272V46.792H23.88V44.792ZM20.272 45.792V33.504H18.272V45.792H20.272ZM19.272 32.504H8.664V34.504H19.272V32.504ZM7.664 33.504V43.632H9.664V33.504H7.664ZM8.664 42.632H4.152V44.632H8.664V42.632ZM5.152 43.632V29.472H3.152V43.632H5.152ZM4.152 30.472H19.272V28.472H4.152V30.472ZM20.272 29.472V25.968H18.272V29.472H20.272ZM19.272 24.968H8.52V26.968H19.272V24.968ZM9.52 25.968V15.504H7.52V25.968H9.52ZM8.52 16.504H33.768V14.504H8.52V16.504ZM32.768 15.504V25.968H34.768V15.504H32.768ZM33.768 24.968H23.88V26.968H33.768V24.968ZM22.88 25.968V29.472H24.88V25.968H22.88ZM23.88 30.472H38.472V28.472H23.88V30.472ZM33.24 9.784H41.208V7.784H33.24V9.784ZM40.208 8.784V19.44H42.208V8.784H40.208ZM41.208 18.44H36.792V20.44H41.208V18.44ZM37.792 19.44V12.624H35.792V19.44H37.792ZM36.792 11.624H5.352V13.624H36.792V11.624ZM4.352 12.624V19.44H6.352V12.624H4.352ZM5.352 18.44H1.08V20.44H5.352V18.44ZM2.08 19.44V8.784H0.0799999V19.44H2.08ZM1.08 9.784H8.184V7.784H1.08V9.784ZM9.07262 8.32536C8.27808 6.78592 6.94637 4.66372 5.69841 3.11625L4.14159 4.37175C5.29363 5.80028 6.55393 7.80607 7.29538 9.24264L9.07262 8.32536ZM5.28565 4.67475L9.31765 3.09075L8.58635 1.22925L4.55435 2.81325L5.28565 4.67475ZM8.22315 2.84467C9.64525 4.35852 11.1253 6.53465 11.8496 7.98321L13.6384 7.08878C12.8267 5.46535 11.2348 3.12948 9.68085 1.47532L8.22315 2.84467ZM12.3407 6.62091L9.50874 7.86891L10.3153 9.69908L13.1473 8.45108L12.3407 6.62091ZM9.912 9.784H18.84V7.784H9.912V9.784ZM19.84 8.784V1.728H17.84V8.784H19.84ZM18.84 2.728H23.448V0.727998H18.84V2.728ZM22.448 1.728V8.784H24.448V1.728H22.448ZM23.448 9.784H32.04V7.784H23.448V9.784ZM32.3979 7.85025L29.5179 6.74625L28.8021 8.61374L31.6821 9.71774L32.3979 7.85025ZM29.9361 8.31059C31.2069 6.74655 32.9367 4.28276 33.7984 2.55921L32.0096 1.66478C31.2393 3.20524 29.6091 5.54144 28.3839 7.04941L29.9361 8.31059ZM32.5964 3.06353L37.3484 4.59953L37.9636 2.69647L33.2116 1.16047L32.5964 3.06353ZM36.8732 3.02575C35.3849 4.89815 33.8323 6.7775 32.5329 8.07689L33.9471 9.49111C35.3357 8.10249 36.9511 6.14185 38.4388 4.27024L36.8732 3.02575ZM58.152 22.752V21.752H57.152V22.752H58.152ZM58.152 26.88H57.152V27.88H58.152V26.88ZM79.848 26.88V27.88H80.848V26.88H79.848ZM79.848 22.752H80.848V21.752H79.848V22.752ZM58.152 14.976V13.976H57.152V14.976H58.152ZM58.152 19.056H57.152V20.056H58.152V19.056ZM79.848 19.056V20.056H80.848V19.056H79.848ZM79.848 14.976H80.848V13.976H79.848V14.976ZM58.152 7.296V6.296H57.152V7.296H58.152ZM58.152 11.328H57.152V12.328H58.152V11.328ZM79.848 11.328V12.328H80.848V11.328H79.848ZM79.848 7.296H80.848V6.296H79.848V7.296ZM87 34.56L87.6477 33.7981L86.069 32.4562L86.0005 34.527L87 34.56ZM91.176 36.384L92.1733 36.4571L92.2337 35.6332L91.436 35.4184L91.176 36.384ZM71.688 30.816H72.688V29.816H71.688V30.816ZM64.776 30.816V29.816H63.9102L63.7863 30.6728L64.776 30.816ZM49.464 45.888L48.5277 46.2391L48.834 47.056L49.6849 46.8633L49.464 45.888ZM46.92 41.952L46.7285 40.9705L44.8842 41.3304L46.2129 42.6591L46.92 41.952ZM60.024 30.816L61.0115 30.9737L61.1963 29.816H60.024V30.816ZM53.832 30.816H52.832V31.816H53.832V30.816ZM53.832 3.312V2.312H52.832V3.312H53.832ZM84.36 3.312H85.36V2.312H84.36V3.312ZM84.36 30.816V31.816H85.36V30.816H84.36ZM76.248 30.816V29.816H75.248V30.816H76.248ZM57.152 22.752V26.88H59.152V22.752H57.152ZM58.152 27.88H79.848V25.88H58.152V27.88ZM80.848 26.88V22.752H78.848V26.88H80.848ZM79.848 21.752H58.152V23.752H79.848V21.752ZM57.152 14.976V19.056H59.152V14.976H57.152ZM58.152 20.056H79.848V18.056H58.152V20.056ZM80.848 19.056V14.976H78.848V19.056H80.848ZM79.848 13.976H58.152V15.976H79.848V13.976ZM57.152 7.296V11.328H59.152V7.296H57.152ZM58.152 12.328H79.848V10.328H58.152V12.328ZM80.848 11.328V7.296H78.848V11.328H80.848ZM79.848 6.296H58.152V8.296H79.848V6.296ZM78.504 42.136H84.648V40.136H78.504V42.136ZM84.648 42.136C85.1543 42.136 85.7384 42.091 86.2635 41.7996C86.8324 41.4839 87.1767 40.9717 87.3951 40.3643C87.6041 39.7827 87.7253 39.0394 87.8104 38.131C87.8967 37.2099 87.9514 36.047 87.9995 34.593L86.0005 34.527C85.9526 35.977 85.8993 37.0881 85.8191 37.9445C85.7377 38.8136 85.6339 39.3513 85.513 39.6877C85.4013 39.9983 85.3106 40.0411 85.293 40.0509C85.2316 40.085 85.0777 40.136 84.648 40.136V42.136ZM86.3524 35.3219C86.957 35.8359 87.8096 36.2559 88.6036 36.5785C89.4183 36.9094 90.2627 37.1737 90.916 37.3496L91.436 35.4184C90.8413 35.2583 90.0777 35.0186 89.3564 34.7255C88.6144 34.4241 88.003 34.1001 87.6477 33.7981L86.3524 35.3219ZM90.1787 36.3109C89.9128 39.937 89.4703 41.9158 88.7242 43.008C88.0841 43.9452 87.1143 44.36 85.08 44.36V46.36C87.3657 46.36 89.1799 45.8868 90.3758 44.136C91.4658 42.5402 91.9112 40.031 92.1733 36.4571L90.1787 36.3109ZM85.08 44.36H77.976V46.36H85.08V44.36ZM77.976 44.36C75.463 44.36 74.2641 44.0041 73.6328 43.401C73.0189 42.8144 72.688 41.7459 72.688 39.504H70.688C70.688 41.7741 70.9811 43.6336 72.2512 44.847C73.5039 46.0439 75.4491 46.36 77.976 46.36V44.36ZM72.688 39.504V30.816H70.688V39.504H72.688ZM71.688 29.816H64.776V31.816H71.688V29.816ZM63.7863 30.6728C63.2469 34.402 62.2707 37.3025 60.1806 39.5846C58.0857 41.8719 54.7551 43.6643 49.2431 44.9127L49.6849 46.8633C55.4049 45.5677 59.1783 43.6401 61.6554 40.9354C64.1373 38.2255 65.2011 34.862 65.7657 30.9592L63.7863 30.6728ZM50.4003 45.5369C50.1492 44.8673 49.6997 44.044 49.2125 43.2882C48.7248 42.5316 48.153 41.7708 47.6271 41.2449L46.2129 42.6591C46.599 43.0452 47.0832 43.6764 47.5315 44.3718C47.9803 45.068 48.3468 45.7567 48.5277 46.2391L50.4003 45.5369ZM47.1115 42.9335C52.1047 41.9592 55.3731 40.5539 57.5077 38.532C59.6693 36.4845 60.5399 33.9275 61.0115 30.9737L59.0365 30.6583C58.5961 33.4165 57.8347 35.4675 56.1323 37.08C54.4029 38.7181 51.5753 40.0248 46.7285 40.9705L47.1115 42.9335ZM60.024 29.816H53.832V31.816H60.024V29.816ZM54.832 30.816V3.312H52.832V30.816H54.832ZM53.832 4.312H84.36V2.312H53.832V4.312ZM83.36 3.312V30.816H85.36V3.312H83.36ZM84.36 29.816H76.248V31.816H84.36V29.816ZM75.248 30.816V39.504H77.248V30.816H75.248ZM75.248 39.504C75.248 40.1793 75.2885 41.1205 76.0805 41.6778C76.4343 41.9268 76.8419 42.0254 77.2084 42.0746C77.5809 42.1246 78.0191 42.136 78.504 42.136V40.136C78.0289 40.136 77.7051 40.1234 77.4746 40.0924C77.2381 40.0606 77.2017 40.0212 77.2315 40.0422C77.2965 40.088 77.3071 40.1458 77.2937 40.0978C77.2704 40.0142 77.248 39.8451 77.248 39.504H75.248ZM110.808 7.2H111.808V6.2H110.808V7.2ZM101.784 7.2V6.2H100.784V7.2H101.784ZM101.784 10.56H100.784V11.56H101.784V10.56ZM110.808 10.56V11.56H111.808V10.56H110.808ZM101.784 17.328H100.784V18.328H101.784V17.328ZM110.808 17.328V18.328H111.808V17.328H110.808ZM110.808 13.728H111.808V12.728H110.808V13.728ZM101.784 13.728V12.728H100.784V13.728H101.784ZM115.032 20.832V21.832H116.032V20.832H115.032ZM101.784 20.832V19.832H100.784V20.832H101.784ZM101.784 45.792V46.792H102.784V45.792H101.784ZM97.368 45.792H96.368V46.792H97.368V45.792ZM97.368 3.648V2.648H96.368V3.648H97.368ZM115.032 3.648H116.032V2.648H115.032V3.648ZM121.704 28.416H122.704V27.416H121.704V28.416ZM111.912 28.416V27.416H110.912V28.416H111.912ZM111.912 35.376H110.912V36.376H111.912V35.376ZM121.704 35.376V36.376H122.704V35.376H121.704ZM125.88 39.072V40.072H126.88V39.072H125.88ZM111.912 39.072V38.072H110.912V39.072H111.912ZM111.912 41.856V42.856H112.912V41.856H111.912ZM107.784 41.856H106.784V42.856H107.784V41.856ZM107.784 24.672V23.672H106.784V24.672H107.784ZM125.88 24.672H126.88V23.672H125.88V24.672ZM123.096 17.376H122.096V18.376H123.096V17.376ZM132.36 17.376V18.376H133.36V17.376H132.36ZM132.36 13.728H133.36V12.728H132.36V13.728ZM123.096 13.728V12.728H122.096V13.728H123.096ZM132.36 7.152H133.36V6.152H132.36V7.152ZM123.096 7.152V6.152H122.096V7.152H123.096ZM123.096 10.56H122.096V11.56H123.096V10.56ZM132.36 10.56V11.56H133.36V10.56H132.36ZM136.92 3.648H137.92V2.648H136.92V3.648ZM134.568 44.976L134.944 45.9027L134.959 45.8965L134.974 45.8898L134.568 44.976ZM125.64 45.744L124.647 45.8586L124.749 46.744H125.64V45.744ZM124.104 41.184L124.152 40.1851L122.385 40.101L123.224 41.6581L124.104 41.184ZM131.208 41.28V42.28H131.234L131.261 42.2786L131.208 41.28ZM132.36 20.88H133.36V19.88H132.36V20.88ZM118.824 20.88H117.824V21.88H118.824V20.88ZM118.824 3.648V2.648H117.824V3.648H118.824ZM110.808 6.2H101.784V8.2H110.808V6.2ZM100.784 7.2V10.56H102.784V7.2H100.784ZM101.784 11.56H110.808V9.56H101.784V11.56ZM111.808 10.56V7.2H109.808V10.56H111.808ZM101.784 18.328H110.808V16.328H101.784V18.328ZM111.808 17.328V13.728H109.808V17.328H111.808ZM110.808 12.728H101.784V14.728H110.808V12.728ZM100.784 13.728V17.328H102.784V13.728H100.784ZM115.032 19.832H101.784V21.832H115.032V19.832ZM100.784 20.832V45.792H102.784V20.832H100.784ZM101.784 44.792H97.368V46.792H101.784V44.792ZM98.368 45.792V3.648H96.368V45.792H98.368ZM97.368 4.648H115.032V2.648H97.368V4.648ZM114.032 3.648V20.832H116.032V3.648H114.032ZM121.704 27.416H111.912V29.416H121.704V27.416ZM110.912 28.416V35.376H112.912V28.416H110.912ZM111.912 36.376H121.704V34.376H111.912V36.376ZM122.704 35.376V28.416H120.704V35.376H122.704ZM125.88 38.072H111.912V40.072H125.88V38.072ZM110.912 39.072V41.856H112.912V39.072H110.912ZM111.912 40.856H107.784V42.856H111.912V40.856ZM108.784 41.856V24.672H106.784V41.856H108.784ZM107.784 25.672H125.88V23.672H107.784V25.672ZM124.88 24.672V39.072H126.88V24.672H124.88ZM123.096 18.376H132.36V16.376H123.096V18.376ZM133.36 17.376V13.728H131.36V17.376H133.36ZM132.36 12.728H123.096V14.728H132.36V12.728ZM122.096 13.728V17.376H124.096V13.728H122.096ZM132.36 6.152H123.096V8.152H132.36V6.152ZM122.096 7.152V10.56H124.096V7.152H122.096ZM123.096 11.56H132.36V9.56H123.096V11.56ZM133.36 10.56V7.152H131.36V10.56H133.36ZM135.92 3.648V40.128H137.92V3.648H135.92ZM135.92 40.128C135.92 41.4154 135.767 42.2599 135.489 42.8415C135.233 43.3782 134.838 43.7615 134.162 44.0622L134.974 45.8898C136.026 45.4225 136.807 44.7258 137.295 43.7025C137.761 42.7241 137.92 41.5286 137.92 40.128H135.92ZM134.192 44.0493C133.453 44.3491 132.427 44.5326 130.989 44.6324C129.559 44.7316 127.805 44.744 125.64 44.744V46.744C127.795 46.744 129.617 46.7324 131.127 46.6276C132.629 46.5234 133.907 46.3229 134.944 45.9027L134.192 44.0493ZM126.633 45.6294C126.471 44.2253 125.7 42.0392 124.984 40.7099L123.224 41.6581C123.852 42.8248 124.521 44.7667 124.647 45.8586L126.633 45.6294ZM124.056 42.1829C127.112 42.3283 130.268 42.28 131.208 42.28V40.28C130.228 40.28 127.144 40.3277 124.152 40.1851L124.056 42.1829ZM131.261 42.2786C131.755 42.2526 132.398 42.1594 132.856 41.6692C133.313 41.1814 133.36 40.5405 133.36 40.08H131.36C131.36 40.2589 131.347 40.3484 131.337 40.3862C131.331 40.4135 131.338 40.3644 131.396 40.3028C131.454 40.2411 131.502 40.2307 131.474 40.2395C131.435 40.2516 131.342 40.2716 131.155 40.2814L131.261 42.2786ZM133.36 40.08V20.88H131.36V40.08H133.36ZM132.36 19.88H118.824V21.88H132.36V19.88ZM119.824 20.88V3.648H117.824V20.88H119.824ZM118.824 4.648H136.92V2.648H118.824V4.648ZM180.408 16.464V17.464H181.408V16.464H180.408ZM180.408 13.488H181.408V12.488H180.408V13.488ZM170.232 13.488V12.488H169.232V13.488H170.232ZM170.232 16.464H169.232V17.464H170.232V16.464ZM180.408 22.416V23.416H181.408V22.416H180.408ZM180.408 19.44H181.408V18.44H180.408V19.44ZM170.232 19.44V18.44H169.232V19.44H170.232ZM170.232 22.416H169.232V23.416H170.232V22.416ZM180.408 28.464V29.464H181.408V28.464H180.408ZM180.408 25.44H181.408V24.44H180.408V25.44ZM170.232 25.44V24.44H169.232V25.44H170.232ZM170.232 28.464H169.232V29.464H170.232V28.464ZM166.2 10.32V9.32H165.2V10.32H166.2ZM172.296 10.32V11.32H173.017L173.245 10.6362L172.296 10.32ZM173.208 7.2L174.173 7.46312L174.517 6.2H173.208V7.2ZM164.52 7.2H163.52V8.2H164.52V7.2ZM164.52 3.888V2.888H163.52V3.888H164.52ZM186.312 3.888H187.312V2.888H186.312V3.888ZM186.312 7.2V8.2H187.312V7.2H186.312ZM177.336 7.2V6.2H176.665L176.41 6.82137L177.336 7.2ZM176.04 10.32L175.128 9.90963L174.493 11.32H176.04V10.32ZM184.584 10.32H185.584V9.32H184.584V10.32ZM184.584 31.632V32.632H185.584V31.632H184.584ZM166.2 31.632H165.2V32.632H166.2V31.632ZM176.76 33.744L176.286 32.8635L174.855 33.6339L176.188 34.564L176.76 33.744ZM179.88 32.064L180.417 31.2203L179.922 30.9055L179.406 31.1835L179.88 32.064ZM187.128 38.16L187.659 39.0073L188.649 38.3866L187.883 37.5043L187.128 38.16ZM183.912 40.176L183.131 40.8007L183.688 41.4967L184.443 41.0233L183.912 40.176ZM170.136 32.256L170.434 31.3013L169.789 31.1005L169.362 31.6228L170.136 32.256ZM173.832 33.408L174.62 34.0239L175.511 32.8839L174.13 32.4533L173.832 33.408ZM165.432 40.416L164.701 41.0983L165.231 41.6666L165.913 41.2928L165.432 40.416ZM162.504 37.728L162.087 36.8192L160.459 37.5664L161.949 38.5601L162.504 37.728ZM158.136 9.792V10.792H159.136V9.792H158.136ZM158.136 6.768H159.136V5.768H158.136V6.768ZM149.88 6.768V5.768H148.88V6.768H149.88ZM149.88 9.792H148.88V10.792H149.88V9.792ZM158.136 15.792V16.792H159.136V15.792H158.136ZM158.136 12.72H159.136V11.72H158.136V12.72ZM149.88 12.72V11.72H148.88V12.72H149.88ZM149.88 15.792H148.88V16.792H149.88V15.792ZM162.264 3.648H163.264V2.648H162.264V3.648ZM162.264 18.912V19.912H163.264V18.912H162.264ZM145.944 18.912H144.944V19.912H145.944V18.912ZM145.944 3.648V2.648H144.944V3.648H145.944ZM156.408 33.36V32.36H155.408V33.36H156.408ZM156.408 39.648H155.408V40.3433L156.06 40.5854L156.408 39.648ZM187.368 41.04L188.213 41.574L189.217 39.9852L187.339 40.0404L187.368 41.04ZM185.88 44.784V45.784H186.727L186.866 44.9484L185.88 44.784ZM148.824 37.824L149.647 37.2555L148.322 35.3383L147.845 37.6195L148.824 37.824ZM145.272 45.984L144.407 46.485L145.12 47.718L146.037 46.6276L145.272 45.984ZM142.584 42.96L141.814 42.322L141.139 43.1371L141.991 43.7651L142.584 42.96ZM146.184 27.744V26.744H145.208L145.184 27.7192L146.184 27.744ZM149.832 27.744L150.832 27.7703L150.859 26.744H149.832V27.744ZM149.496 33.12L148.502 33.0125L148.472 33.2868L148.587 33.5375L149.496 33.12ZM152.568 37.392L151.905 38.141L153.568 39.6117V37.392H152.568ZM152.568 25.488H153.568V24.488H152.568V25.488ZM143.4 25.488H142.4V26.488H143.4V25.488ZM143.4 22.08V21.08H142.4V22.08H143.4ZM164.808 22.08H165.808V21.08H164.808V22.08ZM164.808 25.488V26.488H165.808V25.488H164.808ZM156.408 25.488V24.488H155.408V25.488H156.408ZM156.408 30H155.408V31H156.408V30ZM163.944 30H164.944V29H163.944V30ZM163.944 33.36V34.36H164.944V33.36H163.944ZM181.408 16.464V13.488H179.408V16.464H181.408ZM180.408 12.488H170.232V14.488H180.408V12.488ZM169.232 13.488V16.464H171.232V13.488H169.232ZM170.232 17.464H180.408V15.464H170.232V17.464ZM181.408 22.416V19.44H179.408V22.416H181.408ZM180.408 18.44H170.232V20.44H180.408V18.44ZM169.232 19.44V22.416H171.232V19.44H169.232ZM170.232 23.416H180.408V21.416H170.232V23.416ZM181.408 28.464V25.44H179.408V28.464H181.408ZM180.408 24.44H170.232V26.44H180.408V24.44ZM169.232 25.44V28.464H171.232V25.44H169.232ZM170.232 29.464H180.408V27.464H170.232V29.464ZM166.2 11.32H172.296V9.32H166.2V11.32ZM173.245 10.6362C173.591 9.59731 173.886 8.51405 174.173 7.46312L172.243 6.93688C171.954 7.99795 171.673 9.02668 171.347 10.0038L173.245 10.6362ZM173.208 6.2H164.52V8.2H173.208V6.2ZM165.52 7.2V3.888H163.52V7.2H165.52ZM164.52 4.888H186.312V2.888H164.52V4.888ZM185.312 3.888V7.2H187.312V3.888H185.312ZM186.312 6.2H177.336V8.2H186.312V6.2ZM176.41 6.82137C175.97 7.89868 175.551 8.97063 175.128 9.90963L176.952 10.7304C177.393 9.74937 177.838 8.61332 178.262 7.57863L176.41 6.82137ZM176.04 11.32H184.584V9.32H176.04V11.32ZM183.584 10.32V31.632H185.584V10.32H183.584ZM184.584 30.632H166.2V32.632H184.584V30.632ZM167.2 31.632V10.32H165.2V31.632H167.2ZM177.234 34.6245L180.354 32.9445L179.406 31.1835L176.286 32.8635L177.234 34.6245ZM179.343 32.9077C181.912 34.5427 184.86 37.0736 186.373 38.8157L187.883 37.5043C186.228 35.5984 183.128 32.9453 180.417 31.2203L179.343 32.9077ZM186.597 37.3127L183.381 39.3287L184.443 41.0233L187.659 39.0073L186.597 37.3127ZM184.693 39.5513C183.08 37.5354 179.929 34.7368 177.332 32.924L176.188 34.564C178.679 36.3032 181.672 38.9766 183.131 40.8007L184.693 39.5513ZM169.838 33.2107L173.534 34.3627L174.13 32.4533L170.434 31.3013L169.838 33.2107ZM173.044 32.7921C171.074 35.3122 167.824 37.964 164.951 39.5392L165.913 41.2928C168.992 39.604 172.462 36.7838 174.62 34.0239L173.044 32.7921ZM166.163 39.7337C165.498 39.0208 164.033 37.5453 163.059 36.896L161.949 38.5601C162.703 39.0627 164.022 40.3712 164.701 41.0983L166.163 39.7337ZM162.921 38.6368C165.929 37.2562 169.052 35.1604 170.91 32.8892L169.362 31.6228C167.764 33.5756 164.935 35.5118 162.087 36.8192L162.921 38.6368ZM159.136 9.792V6.768H157.136V9.792H159.136ZM158.136 5.768H149.88V7.768H158.136V5.768ZM148.88 6.768V9.792H150.88V6.768H148.88ZM149.88 10.792H158.136V8.792H149.88V10.792ZM159.136 15.792V12.72H157.136V15.792H159.136ZM158.136 11.72H149.88V13.72H158.136V11.72ZM148.88 12.72V15.792H150.88V12.72H148.88ZM149.88 16.792H158.136V14.792H149.88V16.792ZM161.264 3.648V18.912H163.264V3.648H161.264ZM162.264 17.912H145.944V19.912H162.264V17.912ZM146.944 18.912V3.648H144.944V18.912H146.944ZM145.944 4.648H162.264V2.648H145.944V4.648ZM155.408 33.36V39.648H157.408V33.36H155.408ZM156.06 40.5854C159.608 41.9033 164.047 42.136 169.176 42.136V40.136C164.033 40.136 159.928 39.8887 156.756 38.7106L156.06 40.5854ZM169.176 42.136C171.804 42.136 184.114 42.1361 187.397 42.0396L187.339 40.0404C184.094 40.1359 171.828 40.136 169.176 40.136V42.136ZM186.523 40.506C185.893 41.5035 185.112 43.3079 184.894 44.6196L186.866 44.9484C187.032 43.9561 187.691 42.4005 188.213 41.574L186.523 40.506ZM185.88 43.784H169.176V45.784H185.88V43.784ZM169.176 43.784C159.418 43.784 153.406 42.6954 149.647 37.2555L148.001 38.3925C152.402 44.7606 159.446 45.784 169.176 45.784V43.784ZM147.845 37.6195C147.191 40.7508 146.135 43.4039 144.507 45.3404L146.037 46.6276C147.961 44.3401 149.113 41.3292 149.803 38.0285L147.845 37.6195ZM146.137 45.483C145.828 44.9488 145.338 44.3057 144.822 43.7206C144.307 43.1364 143.714 42.5502 143.177 42.1549L141.991 43.7651C142.366 44.0418 142.853 44.5116 143.322 45.0434C143.79 45.5743 144.188 46.1072 144.407 46.485L146.137 45.483ZM143.354 43.598C144.899 41.7339 145.806 39.1949 146.354 36.467C146.905 33.7256 147.111 30.6949 147.184 27.7688L145.184 27.7192C145.113 30.6011 144.911 33.4984 144.394 36.073C143.874 38.6611 143.053 40.8261 141.814 42.322L143.354 43.598ZM146.184 28.744H149.832V26.744H146.184V28.744ZM148.832 27.7177C148.785 29.5242 148.69 31.2716 148.502 33.0125L150.49 33.2275C150.686 31.4164 150.783 29.6118 150.832 27.7703L148.832 27.7177ZM148.587 33.5375C149.453 35.4215 150.539 36.9323 151.905 38.141L153.231 36.643C152.101 35.6437 151.171 34.3705 150.405 32.7025L148.587 33.5375ZM153.568 37.392V25.488H151.568V37.392H153.568ZM152.568 24.488H143.4V26.488H152.568V24.488ZM144.4 25.488V22.08H142.4V25.488H144.4ZM143.4 23.08H164.808V21.08H143.4V23.08ZM163.808 22.08V25.488H165.808V22.08H163.808ZM164.808 24.488H156.408V26.488H164.808V24.488ZM155.408 25.488V30H157.408V25.488H155.408ZM156.408 31H163.944V29H156.408V31ZM162.944 30V33.36H164.944V30H162.944ZM163.944 32.36H156.408V34.36H163.944V32.36Z" fill="#B38607" mask="url(#path-1-outside-1_6490_46304)"/>
</g>
<defs>
<filter id="filter0_d_6490_46304" x="0.078125" y="0.728027" width="191.141" height="48.9902" filterUnits="userSpaceOnUse" color-interpolation-filters="sRGB">
<feFlood flood-opacity="0" result="BackgroundImageFix"/>
<feColorMatrix in="SourceAlpha" type="matrix" values="0 0 0 0 0 0 0 0 0 0 0 0 0 0 0 0 0 0 127 0" result="hardAlpha"/>
<feOffset dx="2" dy="2"/>
<feComposite in2="hardAlpha" operator="out"/>
<feColorMatrix type="matrix" values="0 0 0 0 0.701961 0 0 0 0 0.52549 0 0 0 0 0.027451 0 0 0 1 0"/>
<feBlend mode="normal" in2="BackgroundImageFix" result="effect1_dropShadow_6490_46304"/>
<feBlend mode="normal" in="SourceGraphic" in2="effect1_dropShadow_6490_46304" result="shape"/>
</filter>
</defs>
</svg>
