<svg width="192" height="51" viewBox="0 0 192 51" fill="none" xmlns="http://www.w3.org/2000/svg">
<g filter="url(#filter0_d_6461_11945)">
<mask id="path-1-outside-1_6461_11945" maskUnits="userSpaceOnUse" x="0" y="0" width="190" height="49" fill="black">
<rect fill="white" width="190" height="49"/>
<path d="M30.192 16.792V11.512H20.64V7.48H30.192V2.68H34.608V7.48H44.64V11.512H34.608V16.792H43.152V20.92H22.512V16.792H30.192ZM19.008 25.912L19.44 30.04L14.592 31.336V46.792H10.32V32.44C7.872 33.112 5.568 33.688 3.504 34.168L2.304 29.656C4.512 29.224 7.296 28.648 10.32 27.928V16.552H6.72C6.24 19.24 5.52 21.64 4.752 23.608C4.032 23.176 2.4 22.552 1.488 22.264C3.264 18.28 4.224 12.136 4.752 6.28L8.208 6.808C8.016 8.632 7.776 10.504 7.536 12.28H10.32V2.728H14.592V12.28H19.104V16.552H14.592V26.968L19.008 25.912ZM22.896 33.112L26.256 31.096C28.416 33.352 31.008 36.424 32.208 38.536L28.656 40.792C27.552 38.68 25.008 35.464 22.896 33.112ZM45.696 26.104V30.232H40.608V41.56C40.608 43.96 40.128 45.208 38.448 45.88C36.864 46.6 34.32 46.648 30.96 46.648C30.72 45.4 30.096 43.48 29.472 42.232C31.968 42.328 34.464 42.328 35.232 42.328C36 42.28 36.192 42.136 36.192 41.464V30.232H20.256V26.104H36.192V22.072H40.608V26.104H45.696ZM75.984 10.696H64.272C62.88 12.52 61.344 14.296 59.664 15.928H71.472C73.056 14.44 74.688 12.52 75.984 10.696ZM84.912 27.208V20.056H74.688V27.208H84.912ZM60.24 20.056V27.208H70.32V20.056H60.24ZM66.384 41.896H83.904C88.512 41.896 89.28 40.648 89.856 34.552C90.96 35.272 92.88 35.896 94.08 36.136C93.168 43.768 91.536 45.976 84 45.976H66.528C58.416 45.976 55.92 44.488 55.92 38.392V19.336C54.72 20.344 53.52 21.256 52.32 22.072C51.888 21.112 50.64 18.856 49.92 17.848C55.632 14.392 61.392 8.728 64.656 2.536L68.736 4.024C68.256 4.936 67.68 5.8 67.104 6.712H79.008L79.92 6.472L82.848 8.536C81.168 10.984 79.056 13.624 76.848 15.928H89.328V33.352H84.912V31.48H60.24V38.392C60.24 41.272 61.152 41.896 66.384 41.896ZM109.008 27.592V21.88H113.664V27.688C113.664 34.024 112.608 41.608 103.104 46.888C102.336 45.832 100.608 44.296 99.408 43.528C108.048 38.968 109.008 32.824 109.008 27.592ZM126.816 46.888V21.832H131.52V46.888H126.816ZM119.856 2.296L123.456 4.84C123.216 5.272 122.928 5.656 122.64 6.04C126.912 11.608 134.88 16.6 142.896 18.76C141.84 19.768 140.4 21.688 139.728 22.936C132.096 20.44 124.944 15.4 120 9.448C114.864 15.4 107.472 20.68 100.128 23.608C99.552 22.312 98.448 20.44 97.392 19.336C106.416 16.456 115.488 9.544 119.856 2.296ZM147.984 33.592L151.68 34.264C151.248 38.392 150.432 42.904 149.376 45.832C148.608 45.448 146.784 44.824 145.824 44.536C146.928 41.704 147.6 37.432 147.984 33.592ZM153.456 34.12L156.912 33.448C157.488 36.76 158.064 40.936 158.256 43.672L154.656 44.44C154.56 41.704 154.032 37.336 153.456 34.12ZM158.64 33.16L161.952 32.152C162.96 34.84 164.112 38.44 164.592 40.744L161.088 41.944C160.656 39.544 159.6 35.944 158.64 33.16ZM158.16 21.784L161.52 20.824C162.816 23.992 164.16 28.216 164.688 30.712L161.04 31.96C160.896 31.192 160.704 30.328 160.464 29.368C150.048 30.904 148.416 31.24 147.408 31.816C147.168 30.904 146.496 28.792 146.016 27.688C147.12 27.448 148.224 26.296 149.712 24.568C150.432 23.8 151.824 22.072 153.456 19.864C148.848 20.392 147.792 20.632 147.072 20.968C146.832 20.104 146.208 18.088 145.728 17.032C146.544 16.84 147.456 15.832 148.464 14.44C149.472 13 152.832 7.672 154.752 2.488L158.832 4.216C156.768 8.488 154.176 12.856 151.536 16.408L156 16.024C157.248 14.056 158.496 11.944 159.552 9.832L163.392 12.232C160.32 17.416 156.576 22.648 152.688 26.872L159.6 25.96C159.12 24.52 158.64 23.08 158.16 21.784ZM182.784 31.144H170.592V40.696H182.784V31.144ZM166.224 46.792V27.208H187.344V46.552H182.784V44.632H170.592V46.792H166.224ZM164.976 5.128H188.688C188.688 5.128 188.688 6.28 188.64 6.904C188.112 16.984 187.584 21.064 186.384 22.456C185.52 23.464 184.656 23.848 183.264 23.992C182.112 24.136 180.048 24.136 177.936 24.04C177.84 22.84 177.36 21.064 176.688 19.96C178.608 20.152 180.48 20.152 181.248 20.152C181.968 20.152 182.4 20.056 182.784 19.624C183.456 18.856 183.888 16.072 184.32 9.064H177.12C176.256 15.976 174.144 21.88 167.232 25.48C166.704 24.424 165.456 22.888 164.496 22.12C170.304 19.288 171.984 14.536 172.704 9.064H164.976V5.128Z"/>
</mask>
<path d="M30.192 16.792V11.512H20.64V7.48H30.192V2.68H34.608V7.48H44.64V11.512H34.608V16.792H43.152V20.92H22.512V16.792H30.192ZM19.008 25.912L19.44 30.04L14.592 31.336V46.792H10.32V32.44C7.872 33.112 5.568 33.688 3.504 34.168L2.304 29.656C4.512 29.224 7.296 28.648 10.32 27.928V16.552H6.72C6.24 19.24 5.52 21.64 4.752 23.608C4.032 23.176 2.4 22.552 1.488 22.264C3.264 18.28 4.224 12.136 4.752 6.28L8.208 6.808C8.016 8.632 7.776 10.504 7.536 12.28H10.32V2.728H14.592V12.28H19.104V16.552H14.592V26.968L19.008 25.912ZM22.896 33.112L26.256 31.096C28.416 33.352 31.008 36.424 32.208 38.536L28.656 40.792C27.552 38.68 25.008 35.464 22.896 33.112ZM45.696 26.104V30.232H40.608V41.56C40.608 43.96 40.128 45.208 38.448 45.88C36.864 46.6 34.32 46.648 30.96 46.648C30.72 45.4 30.096 43.48 29.472 42.232C31.968 42.328 34.464 42.328 35.232 42.328C36 42.28 36.192 42.136 36.192 41.464V30.232H20.256V26.104H36.192V22.072H40.608V26.104H45.696ZM75.984 10.696H64.272C62.88 12.52 61.344 14.296 59.664 15.928H71.472C73.056 14.44 74.688 12.52 75.984 10.696ZM84.912 27.208V20.056H74.688V27.208H84.912ZM60.24 20.056V27.208H70.32V20.056H60.24ZM66.384 41.896H83.904C88.512 41.896 89.28 40.648 89.856 34.552C90.96 35.272 92.88 35.896 94.08 36.136C93.168 43.768 91.536 45.976 84 45.976H66.528C58.416 45.976 55.92 44.488 55.92 38.392V19.336C54.72 20.344 53.52 21.256 52.32 22.072C51.888 21.112 50.64 18.856 49.92 17.848C55.632 14.392 61.392 8.728 64.656 2.536L68.736 4.024C68.256 4.936 67.68 5.8 67.104 6.712H79.008L79.92 6.472L82.848 8.536C81.168 10.984 79.056 13.624 76.848 15.928H89.328V33.352H84.912V31.48H60.24V38.392C60.24 41.272 61.152 41.896 66.384 41.896ZM109.008 27.592V21.88H113.664V27.688C113.664 34.024 112.608 41.608 103.104 46.888C102.336 45.832 100.608 44.296 99.408 43.528C108.048 38.968 109.008 32.824 109.008 27.592ZM126.816 46.888V21.832H131.52V46.888H126.816ZM119.856 2.296L123.456 4.84C123.216 5.272 122.928 5.656 122.64 6.04C126.912 11.608 134.88 16.6 142.896 18.76C141.84 19.768 140.4 21.688 139.728 22.936C132.096 20.44 124.944 15.4 120 9.448C114.864 15.4 107.472 20.68 100.128 23.608C99.552 22.312 98.448 20.44 97.392 19.336C106.416 16.456 115.488 9.544 119.856 2.296ZM147.984 33.592L151.68 34.264C151.248 38.392 150.432 42.904 149.376 45.832C148.608 45.448 146.784 44.824 145.824 44.536C146.928 41.704 147.6 37.432 147.984 33.592ZM153.456 34.12L156.912 33.448C157.488 36.76 158.064 40.936 158.256 43.672L154.656 44.44C154.56 41.704 154.032 37.336 153.456 34.12ZM158.64 33.16L161.952 32.152C162.96 34.84 164.112 38.44 164.592 40.744L161.088 41.944C160.656 39.544 159.6 35.944 158.64 33.16ZM158.16 21.784L161.52 20.824C162.816 23.992 164.16 28.216 164.688 30.712L161.04 31.96C160.896 31.192 160.704 30.328 160.464 29.368C150.048 30.904 148.416 31.24 147.408 31.816C147.168 30.904 146.496 28.792 146.016 27.688C147.12 27.448 148.224 26.296 149.712 24.568C150.432 23.8 151.824 22.072 153.456 19.864C148.848 20.392 147.792 20.632 147.072 20.968C146.832 20.104 146.208 18.088 145.728 17.032C146.544 16.84 147.456 15.832 148.464 14.44C149.472 13 152.832 7.672 154.752 2.488L158.832 4.216C156.768 8.488 154.176 12.856 151.536 16.408L156 16.024C157.248 14.056 158.496 11.944 159.552 9.832L163.392 12.232C160.32 17.416 156.576 22.648 152.688 26.872L159.6 25.96C159.12 24.52 158.64 23.08 158.16 21.784ZM182.784 31.144H170.592V40.696H182.784V31.144ZM166.224 46.792V27.208H187.344V46.552H182.784V44.632H170.592V46.792H166.224ZM164.976 5.128H188.688C188.688 5.128 188.688 6.28 188.64 6.904C188.112 16.984 187.584 21.064 186.384 22.456C185.52 23.464 184.656 23.848 183.264 23.992C182.112 24.136 180.048 24.136 177.936 24.04C177.84 22.84 177.36 21.064 176.688 19.96C178.608 20.152 180.48 20.152 181.248 20.152C181.968 20.152 182.4 20.056 182.784 19.624C183.456 18.856 183.888 16.072 184.32 9.064H177.12C176.256 15.976 174.144 21.88 167.232 25.48C166.704 24.424 165.456 22.888 164.496 22.12C170.304 19.288 171.984 14.536 172.704 9.064H164.976V5.128Z" fill="white"/>
<path d="M30.192 16.792V17.792H31.192V16.792H30.192ZM30.192 11.512H31.192V10.512H30.192V11.512ZM20.64 11.512H19.64V12.512H20.64V11.512ZM20.64 7.48V6.48H19.64V7.48H20.64ZM30.192 7.48V8.48H31.192V7.48H30.192ZM30.192 2.68V1.68H29.192V2.68H30.192ZM34.608 2.68H35.608V1.68H34.608V2.68ZM34.608 7.48H33.608V8.48H34.608V7.48ZM44.64 7.48H45.64V6.48H44.64V7.48ZM44.64 11.512V12.512H45.64V11.512H44.64ZM34.608 11.512V10.512H33.608V11.512H34.608ZM34.608 16.792H33.608V17.792H34.608V16.792ZM43.152 16.792H44.152V15.792H43.152V16.792ZM43.152 20.92V21.92H44.152V20.92H43.152ZM22.512 20.92H21.512V21.92H22.512V20.92ZM22.512 16.792V15.792H21.512V16.792H22.512ZM19.008 25.912L20.0026 25.8079L19.8839 24.6743L18.7754 24.9394L19.008 25.912ZM19.44 30.04L19.6983 31.0061L20.5235 30.7855L20.4346 29.9359L19.44 30.04ZM14.592 31.336L14.3337 30.3699L13.592 30.5682V31.336H14.592ZM14.592 46.792V47.792H15.592V46.792H14.592ZM10.32 46.792H9.32V47.792H10.32V46.792ZM10.32 32.44H11.32V31.1285L10.0553 31.4757L10.32 32.44ZM3.504 34.168L2.5376 34.425L2.78666 35.3615L3.73051 35.142L3.504 34.168ZM2.304 29.656L2.11199 28.6746L1.06282 28.8799L1.33759 29.913L2.304 29.656ZM10.32 27.928L10.5516 28.9008L11.32 28.7179V27.928H10.32ZM10.32 16.552H11.32V15.552H10.32V16.552ZM6.72 16.552V15.552H5.88275L5.73557 16.3762L6.72 16.552ZM4.752 23.608L4.2375 24.4655L5.25303 25.0748L5.68358 23.9715L4.752 23.608ZM1.488 22.264L0.574643 21.8568L0.118452 22.8802L1.18687 23.2176L1.488 22.264ZM4.752 6.28L4.90303 5.29147L3.85156 5.13083L3.75604 6.1902L4.752 6.28ZM8.208 6.808L9.20251 6.91268L9.30241 5.9636L8.35903 5.81947L8.208 6.808ZM7.536 12.28L6.54501 12.1461L6.39178 13.28H7.536V12.28ZM10.32 12.28V13.28H11.32V12.28H10.32ZM10.32 2.728V1.728H9.32V2.728H10.32ZM14.592 2.728H15.592V1.728H14.592V2.728ZM14.592 12.28H13.592V13.28H14.592V12.28ZM19.104 12.28H20.104V11.28H19.104V12.28ZM19.104 16.552V17.552H20.104V16.552H19.104ZM14.592 16.552V15.552H13.592V16.552H14.592ZM14.592 26.968H13.592V28.2353L14.8246 27.9406L14.592 26.968ZM22.896 33.112L22.3815 32.2545L21.342 32.8782L22.152 33.7801L22.896 33.112ZM26.256 31.096L26.9783 30.4044L26.4261 29.8277L25.7415 30.2385L26.256 31.096ZM32.208 38.536L32.7441 39.3801L33.5478 38.8697L33.0775 38.042L32.208 38.536ZM28.656 40.792L27.7698 41.2553L28.2738 42.2194L29.1921 41.6361L28.656 40.792ZM45.696 26.104H46.696V25.104H45.696V26.104ZM45.696 30.232V31.232H46.696V30.232H45.696ZM40.608 30.232V29.232H39.608V30.232H40.608ZM38.448 45.88L38.0766 44.9515L38.0552 44.9601L38.0342 44.9696L38.448 45.88ZM30.96 46.648L29.978 46.8368L30.134 47.648H30.96V46.648ZM29.472 42.232L29.5104 41.2327L27.8219 41.1678L28.5776 42.6792L29.472 42.232ZM35.232 42.328V43.328H35.2632L35.2944 43.3261L35.232 42.328ZM36.192 30.232H37.192V29.232H36.192V30.232ZM20.256 30.232H19.256V31.232H20.256V30.232ZM20.256 26.104V25.104H19.256V26.104H20.256ZM36.192 26.104V27.104H37.192V26.104H36.192ZM36.192 22.072V21.072H35.192V22.072H36.192ZM40.608 22.072H41.608V21.072H40.608V22.072ZM40.608 26.104H39.608V27.104H40.608V26.104ZM31.192 16.792V11.512H29.192V16.792H31.192ZM30.192 10.512H20.64V12.512H30.192V10.512ZM21.64 11.512V7.48H19.64V11.512H21.64ZM20.64 8.48H30.192V6.48H20.64V8.48ZM31.192 7.48V2.68H29.192V7.48H31.192ZM30.192 3.68H34.608V1.68H30.192V3.68ZM33.608 2.68V7.48H35.608V2.68H33.608ZM34.608 8.48H44.64V6.48H34.608V8.48ZM43.64 7.48V11.512H45.64V7.48H43.64ZM44.64 10.512H34.608V12.512H44.64V10.512ZM33.608 11.512V16.792H35.608V11.512H33.608ZM34.608 17.792H43.152V15.792H34.608V17.792ZM42.152 16.792V20.92H44.152V16.792H42.152ZM43.152 19.92H22.512V21.92H43.152V19.92ZM23.512 20.92V16.792H21.512V20.92H23.512ZM22.512 17.792H30.192V15.792H22.512V17.792ZM18.0134 26.0161L18.4454 30.1441L20.4346 29.9359L20.0026 25.8079L18.0134 26.0161ZM19.1817 29.0739L14.3337 30.3699L14.8503 32.3021L19.6983 31.0061L19.1817 29.0739ZM13.592 31.336V46.792H15.592V31.336H13.592ZM14.592 45.792H10.32V47.792H14.592V45.792ZM11.32 46.792V32.44H9.32V46.792H11.32ZM10.0553 31.4757C7.6209 32.1439 5.32968 32.7167 3.27749 33.194L3.73051 35.142C5.80632 34.6593 8.1231 34.0801 10.5847 33.4043L10.0553 31.4757ZM4.47041 33.911L3.27041 29.399L1.33759 29.913L2.5376 34.425L4.47041 33.911ZM2.49601 30.6374C4.71261 30.2037 7.51055 29.6249 10.5516 28.9008L10.0884 26.9552C7.08145 27.6711 4.31139 28.2443 2.11199 28.6746L2.49601 30.6374ZM11.32 27.928V16.552H9.32V27.928H11.32ZM10.32 15.552H6.72V17.552H10.32V15.552ZM5.73557 16.3762C5.26763 18.9967 4.566 21.3339 3.82042 23.2445L5.68358 23.9715C6.474 21.9461 7.21237 19.4833 7.70443 16.7278L5.73557 16.3762ZM5.2665 22.7505C4.44044 22.2549 2.71424 21.6026 1.78913 21.3104L1.18687 23.2176C2.08576 23.5014 3.62356 24.0971 4.2375 24.4655L5.2665 22.7505ZM2.40136 22.6712C4.25126 18.5214 5.21967 12.229 5.74796 6.3698L3.75604 6.1902C3.22833 12.043 2.27674 18.0386 0.574643 21.8568L2.40136 22.6712ZM4.60097 7.26853L8.05697 7.79653L8.35903 5.81947L4.90303 5.29147L4.60097 7.26853ZM7.21349 6.70332C7.023 8.51302 6.78449 10.3739 6.54501 12.1461L8.52699 12.4139C8.76751 10.6341 9.009 8.75098 9.20251 6.91268L7.21349 6.70332ZM7.536 13.28H10.32V11.28H7.536V13.28ZM11.32 12.28V2.728H9.32V12.28H11.32ZM10.32 3.728H14.592V1.728H10.32V3.728ZM13.592 2.728V12.28H15.592V2.728H13.592ZM14.592 13.28H19.104V11.28H14.592V13.28ZM18.104 12.28V16.552H20.104V12.28H18.104ZM19.104 15.552H14.592V17.552H19.104V15.552ZM13.592 16.552V26.968H15.592V16.552H13.592ZM14.8246 27.9406L19.2406 26.8846L18.7754 24.9394L14.3594 25.9954L14.8246 27.9406ZM23.4105 33.9695L26.7705 31.9535L25.7415 30.2385L22.3815 32.2545L23.4105 33.9695ZM25.5337 31.7876C27.6827 34.0321 30.2026 37.0307 31.3385 39.03L33.0775 38.042C31.8134 35.8173 29.1493 32.6719 26.9783 30.4044L25.5337 31.7876ZM31.6719 37.6919L28.1199 39.9479L29.1921 41.6361L32.7441 39.3801L31.6719 37.6919ZM29.5422 40.3287C28.3768 38.0992 25.7607 34.8056 23.6401 32.4439L22.152 33.7801C24.2553 36.1224 26.7272 39.2608 27.7698 41.2553L29.5422 40.3287ZM44.696 26.104V30.232H46.696V26.104H44.696ZM45.696 29.232H40.608V31.232H45.696V29.232ZM39.608 30.232V41.56H41.608V30.232H39.608ZM39.608 41.56C39.608 42.7211 39.4866 43.4498 39.2544 43.9396C39.0499 44.3709 38.7234 44.6928 38.0766 44.9515L38.8194 46.8085C39.8526 46.3952 40.6061 45.7571 41.0616 44.7964C41.4894 43.8942 41.608 42.7989 41.608 41.56H39.608ZM38.0342 44.9696C37.4008 45.2575 36.5065 45.4383 35.2889 45.5373C34.0814 45.6355 32.6446 45.648 30.96 45.648V47.648C32.6354 47.648 34.1506 47.6365 35.4511 47.5307C36.7415 47.4257 37.9112 47.2225 38.8618 46.7904L38.0342 44.9696ZM31.942 46.4592C31.6861 45.1283 31.0343 43.1205 30.3664 41.7848L28.5776 42.6792C29.1577 43.8395 29.7539 45.6717 29.978 46.8368L31.942 46.4592ZM29.4336 43.2313C31.9505 43.3281 34.4633 43.328 35.232 43.328V41.328C34.4647 41.328 31.9855 41.3279 29.5104 41.2327L29.4336 43.2313ZM35.2944 43.3261C35.5045 43.3129 35.7304 43.2906 35.9431 43.2387C36.1594 43.1859 36.4234 43.0883 36.6585 42.8826C37.1618 42.4422 37.192 41.8201 37.192 41.464H35.192C35.192 41.5256 35.1897 41.5671 35.1871 41.5938C35.1844 41.6207 35.1823 41.6234 35.186 41.6098C35.1901 41.595 35.2017 41.5591 35.2287 41.5132C35.2569 41.4652 35.295 41.4181 35.3415 41.3774C35.4326 41.2977 35.5046 41.2871 35.4689 41.2958C35.4531 41.2996 35.4221 41.3058 35.3697 41.3124C35.3177 41.3189 35.2525 41.3248 35.1696 41.3299L35.2944 43.3261ZM37.192 41.464V30.232H35.192V41.464H37.192ZM36.192 29.232H20.256V31.232H36.192V29.232ZM21.256 30.232V26.104H19.256V30.232H21.256ZM20.256 27.104H36.192V25.104H20.256V27.104ZM37.192 26.104V22.072H35.192V26.104H37.192ZM36.192 23.072H40.608V21.072H36.192V23.072ZM39.608 22.072V26.104H41.608V22.072H39.608ZM40.608 27.104H45.696V25.104H40.608V27.104ZM75.984 10.696L76.7992 11.2752L77.9212 9.696H75.984V10.696ZM64.272 10.696V9.696H63.7772L63.4771 10.0893L64.272 10.696ZM59.664 15.928L58.9672 15.2107L57.1994 16.928H59.664V15.928ZM71.472 15.928V16.928H71.868L72.1567 16.6568L71.472 15.928ZM84.912 27.208V28.208H85.912V27.208H84.912ZM84.912 20.056H85.912V19.056H84.912V20.056ZM74.688 20.056V19.056H73.688V20.056H74.688ZM74.688 27.208H73.688V28.208H74.688V27.208ZM60.24 20.056V19.056H59.24V20.056H60.24ZM60.24 27.208H59.24V28.208H60.24V27.208ZM70.32 27.208V28.208H71.32V27.208H70.32ZM70.32 20.056H71.32V19.056H70.32V20.056ZM89.856 34.552L90.4023 33.7144L89.0161 32.8104L88.8604 34.4579L89.856 34.552ZM94.08 36.136L95.0729 36.2547L95.1826 35.3367L94.2761 35.1554L94.08 36.136ZM55.92 19.336H56.92V17.19L55.2768 18.5703L55.92 19.336ZM52.32 22.072L51.4081 22.4824L51.897 23.5689L52.8823 22.8989L52.32 22.072ZM49.92 17.848L49.4023 16.9924L48.479 17.5511L49.1063 18.4292L49.92 17.848ZM64.656 2.536L64.9986 1.59653L64.1785 1.29741L63.7714 2.06969L64.656 2.536ZM68.736 4.024L69.6209 4.48974L70.1541 3.47675L69.0786 3.08453L68.736 4.024ZM67.104 6.712L66.2585 6.17801L65.2897 7.712H67.104V6.712ZM79.008 6.712V7.712H79.1374L79.2625 7.67907L79.008 6.712ZM79.92 6.472L80.4962 5.65466L80.1157 5.38646L79.6655 5.50492L79.92 6.472ZM82.848 8.536L83.6725 9.10184L84.2313 8.28762L83.4242 7.71866L82.848 8.536ZM76.848 15.928L76.126 15.2361L74.5046 16.928H76.848V15.928ZM89.328 15.928H90.328V14.928H89.328V15.928ZM89.328 33.352V34.352H90.328V33.352H89.328ZM84.912 33.352H83.912V34.352H84.912V33.352ZM84.912 31.48H85.912V30.48H84.912V31.48ZM60.24 31.48V30.48H59.24V31.48H60.24ZM75.984 9.696H64.272V11.696H75.984V9.696ZM63.4771 10.0893C62.1099 11.8808 60.6062 13.6185 58.9672 15.2107L60.3608 16.6453C62.0818 14.9734 63.6501 13.1592 65.067 11.3027L63.4771 10.0893ZM59.664 16.928H71.472V14.928H59.664V16.928ZM72.1567 16.6568C73.7961 15.1168 75.4708 13.1448 76.7992 11.2752L75.1688 10.1168C73.9052 11.8952 72.3159 13.7632 70.7873 15.1992L72.1567 16.6568ZM85.912 27.208V20.056H83.912V27.208H85.912ZM84.912 19.056H74.688V21.056H84.912V19.056ZM73.688 20.056V27.208H75.688V20.056H73.688ZM74.688 28.208H84.912V26.208H74.688V28.208ZM59.24 20.056V27.208H61.24V20.056H59.24ZM60.24 28.208H70.32V26.208H60.24V28.208ZM71.32 27.208V20.056H69.32V27.208H71.32ZM70.32 19.056H60.24V21.056H70.32V19.056ZM66.384 42.896H83.904V40.896H66.384V42.896ZM83.904 42.896C86.2204 42.896 88.0225 42.6057 89.1797 41.1261C89.728 40.4251 90.0651 39.5366 90.3054 38.4963C90.5462 37.4536 90.7069 36.1772 90.8516 34.6461L88.8604 34.4579C88.7171 35.9748 88.5658 37.1404 88.3567 38.0462C88.1469 38.9544 87.896 39.5209 87.6043 39.8939C87.0815 40.5623 86.1956 40.896 83.904 40.896V42.896ZM89.3097 35.3896C90.5634 36.2072 92.6222 36.8642 93.8839 37.1166L94.2761 35.1554C93.1378 34.9278 91.3566 34.3368 90.4023 33.7144L89.3097 35.3896ZM93.0871 36.0173C92.6283 39.8568 92.0078 41.9856 90.807 43.221C89.6486 44.4126 87.7332 44.976 84 44.976V46.976C87.8028 46.976 90.4714 46.4354 92.241 44.615C93.9682 42.8384 94.6197 40.0472 95.0729 36.2547L93.0871 36.0173ZM84 44.976H66.528V46.976H84V44.976ZM66.528 44.976C62.4494 44.976 60.1017 44.5828 58.7512 43.6478C57.5284 42.8013 56.92 41.3413 56.92 38.392H54.92C54.92 41.5387 55.5596 43.8707 57.6128 45.2922C59.5383 46.6252 62.4946 46.976 66.528 46.976V44.976ZM56.92 38.392V19.336H54.92V38.392H56.92ZM55.2768 18.5703C54.1007 19.5582 52.9276 20.4495 51.7577 21.2451L52.8823 22.8989C54.1124 22.0625 55.3393 21.1298 56.5632 20.1017L55.2768 18.5703ZM53.2319 21.6616C52.778 20.6528 51.4986 18.3375 50.7337 17.2668L49.1063 18.4292C49.7814 19.3745 50.998 21.5712 51.4081 22.4824L53.2319 21.6616ZM50.4377 18.7036C56.2832 15.1668 62.1807 9.37622 65.5406 3.00231L63.7714 2.06969C60.6033 8.07978 54.9808 13.6172 49.4023 16.9924L50.4377 18.7036ZM64.3134 3.47547L68.3934 4.96347L69.0786 3.08453L64.9986 1.59653L64.3134 3.47547ZM67.8511 3.55825C67.3952 4.42448 66.8529 5.23694 66.2585 6.17801L67.9495 7.24599C68.5071 6.36306 69.1168 5.44751 69.6209 4.48974L67.8511 3.55825ZM67.104 7.712H79.008V5.712H67.104V7.712ZM79.2625 7.67907L80.1745 7.43907L79.6655 5.50492L78.7535 5.74492L79.2625 7.67907ZM79.3438 7.28934L82.2718 9.35334L83.4242 7.71866L80.4962 5.65466L79.3438 7.28934ZM82.0235 7.97016C80.372 10.3766 78.2939 12.9739 76.126 15.2361L77.57 16.6199C79.8181 14.2741 81.964 11.5914 83.6725 9.10184L82.0235 7.97016ZM76.848 16.928H89.328V14.928H76.848V16.928ZM88.328 15.928V33.352H90.328V15.928H88.328ZM89.328 32.352H84.912V34.352H89.328V32.352ZM85.912 33.352V31.48H83.912V33.352H85.912ZM84.912 30.48H60.24V32.48H84.912V30.48ZM59.24 31.48V38.392H61.24V31.48H59.24ZM59.24 38.392C59.24 39.1441 59.2962 39.8638 59.5236 40.4939C59.7671 41.1686 60.1939 41.7062 60.845 42.0871C61.4562 42.4447 62.216 42.6353 63.0917 42.7457C63.9763 42.8571 65.0644 42.896 66.384 42.896V40.896C65.0876 40.896 64.0997 40.8569 63.3418 40.7613C62.5751 40.6647 62.1258 40.5193 61.855 40.3609C61.6241 40.2258 61.4959 40.0674 61.4049 39.8151C61.2978 39.5182 61.24 39.0799 61.24 38.392H59.24ZM109.008 21.88V20.88H108.008V21.88H109.008ZM113.664 21.88H114.664V20.88H113.664V21.88ZM103.104 46.888L102.295 47.4762L102.816 48.192L103.59 47.7622L103.104 46.888ZM99.408 43.528L98.9412 42.6436L97.423 43.4449L98.8689 44.3703L99.408 43.528ZM126.816 46.888H125.816V47.888H126.816V46.888ZM126.816 21.832V20.832H125.816V21.832H126.816ZM131.52 21.832H132.52V20.832H131.52V21.832ZM131.52 46.888V47.888H132.52V46.888H131.52ZM119.856 2.296L120.433 1.47933L119.555 0.858587L119 1.77983L119.856 2.296ZM123.456 4.84L124.33 5.32564L124.766 4.54121L124.033 4.02333L123.456 4.84ZM122.64 6.04L121.84 5.44L121.385 6.04686L121.847 6.64872L122.64 6.04ZM142.896 18.76L143.586 19.4834L144.872 18.2567L143.156 17.7944L142.896 18.76ZM139.728 22.936L139.417 23.8865L140.212 24.1464L140.608 23.4101L139.728 22.936ZM120 9.448L120.769 8.80903L120.015 7.90046L119.243 8.7947L120 9.448ZM100.128 23.608L99.2142 24.0141L99.6049 24.8931L100.498 24.5369L100.128 23.608ZM97.392 19.336L97.088 18.3833L95.5626 18.8702L96.6694 20.0272L97.392 19.336ZM110.008 27.592V21.88H108.008V27.592H110.008ZM109.008 22.88H113.664V20.88H109.008V22.88ZM112.664 21.88V27.688H114.664V21.88H112.664ZM112.664 27.688C112.664 30.8103 112.401 34.1266 111.031 37.2861C109.672 40.4197 107.19 43.4739 102.618 46.0138L103.59 47.7622C108.522 45.0221 111.32 41.6443 112.865 38.0819C114.399 34.5454 114.664 30.9017 114.664 27.688H112.664ZM103.913 46.2998C103.055 45.1209 101.226 43.5044 99.9471 42.6857L98.8689 44.3703C99.9898 45.0876 101.617 46.5431 102.295 47.4762L103.913 46.2998ZM99.8748 44.4124C104.356 42.047 106.925 39.2243 108.35 36.2435C109.766 33.283 110.008 30.2614 110.008 27.592H108.008C108.008 30.1546 107.77 32.821 106.546 35.3805C105.331 37.9197 103.1 40.449 98.9412 42.6436L99.8748 44.4124ZM127.816 46.888V21.832H125.816V46.888H127.816ZM126.816 22.832H131.52V20.832H126.816V22.832ZM130.52 21.832V46.888H132.52V21.832H130.52ZM131.52 45.888H126.816V47.888H131.52V45.888ZM119.279 3.11266L122.879 5.65667L124.033 4.02333L120.433 1.47933L119.279 3.11266ZM122.582 4.35436C122.38 4.71713 122.134 5.04797 121.84 5.44L123.44 6.64C123.722 6.26403 124.052 5.82687 124.33 5.32564L122.582 4.35436ZM121.847 6.64872C126.276 12.4224 134.449 17.5196 142.636 19.7256L143.156 17.7944C135.311 15.6804 127.548 10.7936 123.433 5.43128L121.847 6.64872ZM142.206 18.0366C141.07 19.1209 139.567 21.1262 138.848 22.4619L140.608 23.4101C141.233 22.2498 142.61 20.4151 143.586 19.4834L142.206 18.0366ZM140.039 21.9855C132.595 19.5509 125.599 14.6233 120.769 8.80903L119.231 10.087C124.289 16.1767 131.597 21.3291 139.417 23.8865L140.039 21.9855ZM119.243 8.7947C114.212 14.6254 106.952 19.8107 99.7577 22.6791L100.498 24.5369C107.992 21.5493 115.516 16.1746 120.757 10.1013L119.243 8.7947ZM101.042 23.2019C100.438 21.8439 99.2776 19.8606 98.1146 18.6448L96.6694 20.0272C97.6184 21.0194 98.6657 22.7801 99.2142 24.0141L101.042 23.2019ZM97.696 20.2887C106.924 17.3434 116.206 10.2906 120.712 2.81216L119 1.77983C114.77 8.79744 105.908 15.5686 97.088 18.3833L97.696 20.2887ZM147.984 33.592L148.163 32.6081L147.097 32.4143L146.989 33.4925L147.984 33.592ZM151.68 34.264L152.675 34.3681L152.771 33.446L151.859 33.2801L151.68 34.264ZM149.376 45.832L148.929 46.7264L149.935 47.2295L150.317 46.1713L149.376 45.832ZM145.824 44.536L144.892 44.1728L144.499 45.1824L145.537 45.4938L145.824 44.536ZM153.456 34.12L153.265 33.1384L152.298 33.3264L152.472 34.2963L153.456 34.12ZM156.912 33.448L157.897 33.2767L157.722 32.2717L156.721 32.4664L156.912 33.448ZM158.256 43.672L158.465 44.65L159.314 44.4687L159.254 43.602L158.256 43.672ZM154.656 44.44L153.657 44.4751L153.698 45.6668L154.865 45.418L154.656 44.44ZM158.64 33.16L158.349 32.2033L157.356 32.5053L157.695 33.486L158.64 33.16ZM161.952 32.152L162.888 31.8009L162.559 30.922L161.661 31.1953L161.952 32.152ZM164.592 40.744L164.916 41.6901L165.751 41.4041L165.571 40.54L164.592 40.744ZM161.088 41.944L160.104 42.1212L160.31 43.2674L161.412 42.8901L161.088 41.944ZM158.16 21.784L157.885 20.8225L156.847 21.119L157.222 22.1313L158.16 21.784ZM161.52 20.824L162.446 20.4454L162.106 19.6164L161.245 19.8625L161.52 20.824ZM164.688 30.712L165.012 31.6582L165.85 31.3715L165.666 30.505L164.688 30.712ZM161.04 31.96L160.057 32.1443L160.27 33.2803L161.364 32.9062L161.04 31.96ZM160.464 29.368L161.434 29.1255L161.214 28.2465L160.318 28.3787L160.464 29.368ZM147.408 31.816L146.441 32.0705L146.773 33.3308L147.904 32.6842L147.408 31.816ZM146.016 27.688L145.804 26.7108L144.613 26.9696L145.099 28.0867L146.016 27.688ZM149.712 24.568L148.982 23.8841L148.968 23.8995L148.954 23.9155L149.712 24.568ZM153.456 19.864L154.26 20.4584L155.627 18.6087L153.342 18.8705L153.456 19.864ZM147.072 20.968L146.108 21.2356L146.425 22.3737L147.495 21.8742L147.072 20.968ZM145.728 17.032L145.499 16.0586L144.314 16.3374L144.818 17.4458L145.728 17.032ZM148.464 14.44L149.274 15.0265L149.279 15.02L149.283 15.0135L148.464 14.44ZM154.752 2.488L155.142 1.56718L154.178 1.15885L153.814 2.14068L154.752 2.488ZM158.832 4.216L159.732 4.65103L160.19 3.70495L159.222 3.29518L158.832 4.216ZM151.536 16.408L150.733 15.8115L149.408 17.5947L151.622 17.4043L151.536 16.408ZM156 16.024L156.086 17.0203L156.579 16.9779L156.845 16.5595L156 16.024ZM159.552 9.832L160.082 8.984L159.149 8.40113L158.658 9.38478L159.552 9.832ZM163.392 12.232L164.252 12.7418L164.75 11.9016L163.922 11.384L163.392 12.232ZM152.688 26.872L151.952 26.1948L150.084 28.2242L152.819 27.8634L152.688 26.872ZM159.6 25.96L159.731 26.9514L160.932 26.7929L160.549 25.6438L159.6 25.96ZM182.784 31.144H183.784V30.144H182.784V31.144ZM170.592 31.144V30.144H169.592V31.144H170.592ZM170.592 40.696H169.592V41.696H170.592V40.696ZM182.784 40.696V41.696H183.784V40.696H182.784ZM166.224 46.792H165.224V47.792H166.224V46.792ZM166.224 27.208V26.208H165.224V27.208H166.224ZM187.344 27.208H188.344V26.208H187.344V27.208ZM187.344 46.552V47.552H188.344V46.552H187.344ZM182.784 46.552H181.784V47.552H182.784V46.552ZM182.784 44.632H183.784V43.632H182.784V44.632ZM170.592 44.632V43.632H169.592V44.632H170.592ZM170.592 46.792V47.792H171.592V46.792H170.592ZM164.976 5.128V4.128H163.976V5.128H164.976ZM188.688 5.128H189.688V4.128H188.688V5.128ZM188.64 6.904L187.643 6.8273L187.642 6.83949L187.641 6.85169L188.64 6.904ZM186.384 22.456L185.627 21.8031L185.625 21.8052L186.384 22.456ZM183.264 23.992L183.161 22.9973L183.151 22.9984L183.14 22.9997L183.264 23.992ZM177.936 24.04L176.939 24.1197L177.01 24.9989L177.891 25.039L177.936 24.04ZM176.688 19.96L176.788 18.965L174.79 18.7652L175.834 20.4799L176.688 19.96ZM182.784 19.624L183.531 20.2884L183.537 20.2825L182.784 19.624ZM184.32 9.064L185.318 9.12553L185.384 8.064H184.32V9.064ZM177.12 9.064V8.064H176.237L176.128 8.93996L177.12 9.064ZM167.232 25.48L166.338 25.9272L166.792 26.8365L167.694 26.3669L167.232 25.48ZM164.496 22.12L164.058 21.2212L162.637 21.9137L163.871 22.9009L164.496 22.12ZM172.704 9.064L173.695 9.19445L173.844 8.064H172.704V9.064ZM164.976 9.064H163.976V10.064H164.976V9.064ZM147.805 34.5759L151.501 35.2479L151.859 33.2801L148.163 32.6081L147.805 34.5759ZM150.685 34.1599C150.257 38.2586 149.451 42.6772 148.435 45.4927L150.317 46.1713C151.413 43.1308 152.24 38.5254 152.675 34.3681L150.685 34.1599ZM149.823 44.9376C148.971 44.5114 147.073 43.8667 146.111 43.5782L145.537 45.4938C146.495 45.7813 148.245 46.3846 148.929 46.7264L149.823 44.9376ZM146.756 44.8992C147.913 41.9301 148.594 37.5396 148.979 33.6915L146.989 33.4925C146.606 37.3244 145.943 41.4779 144.892 44.1728L146.756 44.8992ZM153.647 35.1016L157.103 34.4296L156.721 32.4664L153.265 33.1384L153.647 35.1016ZM155.927 33.6193C156.5 36.9145 157.07 41.0535 157.258 43.742L159.254 43.602C159.058 40.8185 158.476 36.6055 157.897 33.2767L155.927 33.6193ZM158.047 42.694L154.447 43.462L154.865 45.418L158.465 44.65L158.047 42.694ZM155.655 44.4049C155.557 41.608 155.022 37.1908 154.44 33.9437L152.472 34.2963C153.042 37.4812 153.563 41.8 153.657 44.4751L155.655 44.4049ZM158.931 34.1167L162.243 33.1087L161.661 31.1953L158.349 32.2033L158.931 34.1167ZM161.016 32.5031C162.016 35.1707 163.148 38.7163 163.613 40.948L165.571 40.54C165.076 38.1637 163.904 34.5093 162.888 31.8009L161.016 32.5031ZM164.268 39.7979L160.764 40.9979L161.412 42.8901L164.916 41.6901L164.268 39.7979ZM162.072 41.7668C161.627 39.2928 160.552 35.6369 159.585 32.834L157.695 33.486C158.648 36.2511 159.685 39.7952 160.104 42.1212L162.072 41.7668ZM158.435 22.7455L161.795 21.7855L161.245 19.8625L157.885 20.8225L158.435 22.7455ZM160.594 21.2026C161.874 24.3297 163.197 28.4953 163.71 30.919L165.666 30.505C165.123 27.9367 163.758 23.6543 162.446 20.4454L160.594 21.2026ZM164.364 29.7658L160.716 31.0138L161.364 32.9062L165.012 31.6582L164.364 29.7658ZM162.023 31.7757C161.874 30.9838 161.678 30.0999 161.434 29.1255L159.494 29.6105C159.73 30.5561 159.918 31.4002 160.057 32.1443L162.023 31.7757ZM160.318 28.3787C155.115 29.1459 152.082 29.6169 150.222 29.9695C148.377 30.3192 147.572 30.5704 146.912 30.9478L147.904 32.6842C148.252 32.4856 148.767 32.2808 150.594 31.9345C152.406 31.5911 155.397 31.1261 160.61 30.3573L160.318 28.3787ZM148.375 31.5615C148.127 30.6204 147.44 28.4559 146.933 27.2893L145.099 28.0867C145.552 29.1281 146.209 31.1876 146.441 32.0705L148.375 31.5615ZM146.228 28.6652C147.029 28.4912 147.736 28.0103 148.385 27.433C149.04 26.85 149.726 26.0838 150.47 25.2205L148.954 23.9155C148.21 24.7802 147.6 25.454 147.055 25.939C146.504 26.4297 146.107 26.6448 145.804 26.7108L146.228 28.6652ZM150.442 25.2519C151.204 24.4388 152.625 22.6711 154.26 20.4584L152.652 19.2696C151.023 21.4729 149.66 23.1612 148.982 23.8841L150.442 25.2519ZM153.342 18.8705C148.795 19.3915 147.55 19.6415 146.649 20.0618L147.495 21.8742C148.034 21.6225 148.901 21.3925 153.57 20.8575L153.342 18.8705ZM148.036 20.7004C147.794 19.8315 147.153 17.7505 146.638 16.6182L144.818 17.4458C145.263 18.4254 145.87 20.3765 146.108 21.2356L148.036 20.7004ZM145.957 18.0054C146.637 17.8455 147.23 17.3872 147.726 16.8978C148.241 16.3901 148.759 15.7381 149.274 15.0265L147.654 13.8535C147.161 14.5339 146.719 15.0819 146.322 15.4742C145.906 15.8848 145.635 16.0265 145.499 16.0586L145.957 18.0054ZM149.283 15.0135C150.318 13.5356 153.729 8.12942 155.69 2.83531L153.814 2.14068C151.935 7.21458 148.626 12.4644 147.645 13.8665L149.283 15.0135ZM154.362 3.40882L158.442 5.13682L159.222 3.29518L155.142 1.56718L154.362 3.40882ZM157.932 3.78097C155.891 8.00406 153.331 12.3167 150.733 15.8115L152.339 17.0045C155.021 13.3953 157.645 8.97193 159.732 4.65103L157.932 3.78097ZM151.622 17.4043L156.086 17.0203L155.914 15.0277L151.45 15.4117L151.622 17.4043ZM156.845 16.5595C158.103 14.575 159.37 12.432 160.446 10.2792L158.658 9.38478C157.622 11.456 156.393 13.537 155.155 15.4885L156.845 16.5595ZM159.022 10.68L162.862 13.08L163.922 11.384L160.082 8.984L159.022 10.68ZM162.532 11.7222C159.487 16.8593 155.784 22.0322 151.952 26.1948L153.424 27.5492C157.368 23.2638 161.153 17.9727 164.252 12.7418L162.532 11.7222ZM152.819 27.8634L159.731 26.9514L159.469 24.9686L152.557 25.8806L152.819 27.8634ZM160.549 25.6438C160.07 24.2075 159.585 22.7511 159.098 21.4367L157.222 22.1313C157.695 23.4089 158.17 24.8325 158.651 26.2762L160.549 25.6438ZM182.784 30.144H170.592V32.144H182.784V30.144ZM169.592 31.144V40.696H171.592V31.144H169.592ZM170.592 41.696H182.784V39.696H170.592V41.696ZM183.784 40.696V31.144H181.784V40.696H183.784ZM167.224 46.792V27.208H165.224V46.792H167.224ZM166.224 28.208H187.344V26.208H166.224V28.208ZM186.344 27.208V46.552H188.344V27.208H186.344ZM187.344 45.552H182.784V47.552H187.344V45.552ZM183.784 46.552V44.632H181.784V46.552H183.784ZM182.784 43.632H170.592V45.632H182.784V43.632ZM169.592 44.632V46.792H171.592V44.632H169.592ZM170.592 45.792H166.224V47.792H170.592V45.792ZM164.976 6.128H188.688V4.128H164.976V6.128ZM188.688 5.128C187.688 5.128 187.688 5.12798 187.688 5.12797C187.688 5.12797 187.688 5.12797 187.688 5.12797C187.688 5.12798 187.688 5.128 187.688 5.12804C187.688 5.12813 187.688 5.12828 187.688 5.12851C187.688 5.12895 187.688 5.12967 187.688 5.13066C187.688 5.13263 187.688 5.13567 187.688 5.13972C187.688 5.14784 187.688 5.16002 187.688 5.17585C187.688 5.20753 187.688 5.25379 187.687 5.31138C187.687 5.42668 187.685 5.58673 187.682 5.76561C187.676 6.13088 187.664 6.54825 187.643 6.8273L189.637 6.98069C189.664 6.63575 189.676 6.16512 189.682 5.79839C189.685 5.61126 189.686 5.44432 189.687 5.32412C189.688 5.26395 189.688 5.21534 189.688 5.18158C189.688 5.1647 189.688 5.15152 189.688 5.14245C189.688 5.13792 189.688 5.13441 189.688 5.13199C189.688 5.13078 189.688 5.12983 189.688 5.12916C189.688 5.12883 189.688 5.12857 189.688 5.12837C189.688 5.12827 189.688 5.1282 189.688 5.12813C189.688 5.1281 189.688 5.12807 189.688 5.12805C189.688 5.12802 189.688 5.128 188.688 5.128ZM187.641 6.85169C187.377 11.8921 187.115 15.3922 186.774 17.7976C186.603 18.9998 186.417 19.8974 186.213 20.562C186.006 21.2342 185.799 21.6029 185.627 21.8031L187.141 23.1089C187.569 22.6131 187.878 21.9498 188.124 21.1505C188.373 20.3436 188.577 19.3302 188.754 18.0784C189.109 15.5758 189.375 11.9959 189.639 6.95631L187.641 6.85169ZM185.625 21.8052C185.263 22.2268 184.937 22.4788 184.588 22.6472C184.23 22.8194 183.791 22.9322 183.161 22.9973L183.367 24.9867C184.129 24.9078 184.818 24.7566 185.456 24.4488C186.103 24.1372 186.641 23.6932 187.143 23.1068L185.625 21.8052ZM183.14 22.9997C182.079 23.1323 180.089 23.1369 177.981 23.041L177.891 25.039C180.007 25.1351 182.145 25.1397 183.388 24.9843L183.14 22.9997ZM178.933 23.9603C178.827 22.6424 178.313 20.7068 177.542 19.4401L175.834 20.4799C176.407 21.4212 176.853 23.0376 176.939 24.1197L178.933 23.9603ZM176.589 20.955C178.563 21.1525 180.479 21.152 181.248 21.152V19.152C180.481 19.152 178.653 19.1515 176.788 18.965L176.589 20.955ZM181.248 21.152C181.637 21.152 182.049 21.1286 182.444 21.0032C182.872 20.8677 183.227 20.6312 183.531 20.2884L182.037 18.9596C181.957 19.0488 181.904 19.0763 181.84 19.0968C181.743 19.1274 181.579 19.152 181.248 19.152V21.152ZM183.537 20.2825C183.848 19.9267 184.051 19.442 184.206 18.9195C184.366 18.3766 184.505 17.6855 184.631 16.8299C184.884 15.1172 185.102 12.6335 185.318 9.12553L183.322 9.00247C183.106 12.5025 182.892 14.9148 182.653 16.5381C182.533 17.3505 182.411 17.9374 182.288 18.3515C182.159 18.786 182.056 18.9373 182.031 18.9655L183.537 20.2825ZM184.32 8.064H177.12V10.064H184.32V8.064ZM176.128 8.93996C175.281 15.7148 173.255 21.2154 166.77 24.5931L167.694 26.3669C175.033 22.5446 177.231 16.2372 178.112 9.18803L176.128 8.93996ZM168.126 25.0328C167.532 23.8435 166.19 22.1948 165.121 21.3391L163.871 22.9009C164.722 23.5812 165.876 25.0045 166.338 25.9272L168.126 25.0328ZM164.934 23.0188C168.019 21.5147 170.045 19.476 171.382 17.0674C172.707 14.6817 173.329 11.9822 173.695 9.19445L171.713 8.93354C171.359 11.6178 170.781 14.0303 169.634 16.0966C168.499 18.1399 166.781 19.8933 164.058 21.2212L164.934 23.0188ZM172.704 8.064H164.976V10.064H172.704V8.064ZM165.976 9.064V5.128H163.976V9.064H165.976Z" fill="#B38607" mask="url(#path-1-outside-1_6461_11945)"/>
</g>
<defs>
<filter id="filter0_d_6461_11945" x="0.117188" y="0.858398" width="191.57" height="49.3335" filterUnits="userSpaceOnUse" color-interpolation-filters="sRGB">
<feFlood flood-opacity="0" result="BackgroundImageFix"/>
<feColorMatrix in="SourceAlpha" type="matrix" values="0 0 0 0 0 0 0 0 0 0 0 0 0 0 0 0 0 0 127 0" result="hardAlpha"/>
<feOffset dx="2" dy="2"/>
<feComposite in2="hardAlpha" operator="out"/>
<feColorMatrix type="matrix" values="0 0 0 0 0.701961 0 0 0 0 0.52549 0 0 0 0 0.027451 0 0 0 1 0"/>
<feBlend mode="normal" in2="BackgroundImageFix" result="effect1_dropShadow_6461_11945"/>
<feBlend mode="normal" in="SourceGraphic" in2="effect1_dropShadow_6461_11945" result="shape"/>
</filter>
</defs>
</svg>
