<svg width="801" height="558" viewBox="0 0 801 558" fill="none" xmlns="http://www.w3.org/2000/svg">
<path d="M581.698 192.857C583.688 196.992 581.014 203.158 585.015 206.508C587.438 208.328 592.143 207.664 596.175 206.568C601.001 205.643 605.113 200.885 601.594 195.825C599.754 192.374 594.607 189.829 594.717 185.715C597.764 175.978 616.403 182.144 619.51 190.101C622.013 195.966 618.706 203.46 617.65 210.582C616.805 215.35 616.454 220.289 616.785 225.168C617.559 236.816 621.792 248.395 622.617 260.194C623.531 276.832 628.076 310.3 615.86 320.228C610.773 324.363 597.492 322.552 592.968 331.585C590.565 336.041 589.097 342.117 585.488 345.467C582.602 348.082 578.169 348.465 573.373 350.004C565.541 352.026 560.977 359.138 559.841 366.944C558.111 383.23 557.649 400.19 543.644 410.108C536.435 415.681 530.815 423.054 527.377 431.585C519.575 448.635 532.203 464.428 520.973 471.44C518.369 473.26 515.333 474.81 512.719 476.661C508.707 479.417 506.314 483.028 502.805 486.217C497.397 491.106 489.947 494.486 482.909 496.357C474.956 497.423 479.772 486.72 481.411 483.31C483.15 479.809 485.392 477.033 487.835 474.458C489.685 472.405 492.581 469.689 491.686 466.621C491.033 464.921 489.333 464.207 487.634 464.127C480.104 463.966 479.461 473.663 475.278 478.864C473.599 481.248 470.613 481.137 468.241 479.286C466.2 477.948 464.34 476.007 461.967 475.383C451.642 473.975 445.801 494.204 437.174 498.68C427.844 503.287 431.595 487.042 429.141 482.606C424.798 473.361 414.744 481.026 409.868 484.899C402.046 491.568 391.52 486.267 382.683 482.052C375.575 478.602 367.693 478.079 360.373 475.504C350.863 472.134 351.798 464.197 349.515 457.085C346.56 451.744 340.457 456.582 338.798 461.169C337.169 465.404 339.22 470.122 341.633 474.035C344.056 477.757 346.901 484.477 341.352 485.996C335.973 486.911 328.171 483.964 322.943 487.515C319.294 489.466 316.599 492.866 313.613 495.844C306.294 502.895 294.039 511.335 283.211 507.362C276.203 504.344 273.529 496.377 269.859 490.261C265.355 483.34 266.28 476.419 269.739 469.539C270.895 466.923 272.242 464.398 274.263 462.386C276.716 459.429 283.904 456.492 283.261 452.307C279.109 446.221 268.794 455.093 264.631 456.492C262.711 457.246 259.715 457.487 258.85 455.003C257.956 452.619 259.745 448.484 258.85 444.803C257.935 440.407 253.924 437.319 249.752 436.061C243.448 434.089 236.843 435.417 230.458 435.005C223.753 434.723 217.308 431.394 210.401 430.961C202.288 430.207 194.295 432.701 186.192 430.609C183.226 429.915 180.27 428.929 177.264 428.557C172.498 427.873 167.743 428.919 163.078 429.694C158.192 430.518 153.195 431.052 148.671 432.782C145.936 433.727 143.131 435.166 140.135 434.743C136.807 434.261 134.133 431.122 131.76 428.537C123.345 418.98 122.099 418.9 110.929 416.023C106.666 414.414 100.242 412.734 99.7592 407.473C99.7391 403.972 91.2034 389.326 106.596 383.914C111.934 382.043 129.77 377.818 135.4 376.601C148.902 373.935 162.153 376.248 173.634 369.951C180.923 365.747 198.256 359.721 207.526 360.083C216.222 359.63 228.508 371.008 234.882 375.816C250.717 385.976 271.015 370.505 288.851 377.003C293.506 378.472 294.843 382.425 297.326 386.62C300.996 392.645 308.767 393.983 315.031 393.933C332.213 393.651 333.892 375.404 344.147 366.36C357.016 355.295 369.13 370.887 374.358 352.368C377.002 341.323 383.085 334.764 395.029 333.758C398.125 333.617 401.886 333.376 403.957 335.971C406.923 342.811 397.13 349.581 398.769 359.087C401.353 365.867 411.849 365.002 416.956 364.62C438.904 362.96 449.872 353.052 474.011 338.576C483.361 333.315 491.405 333.174 499.427 325.278C504.454 320.48 508.446 314.706 512.638 309.284C521.495 297.896 538.446 280.776 541.643 265.807C545.162 254.038 532.535 247.037 539.311 240.619C542.649 237.611 546.429 234.473 547.716 229.865C550.943 216.647 547.173 211.688 561.51 205.321C567.13 202.635 569.492 195.935 573.333 191.791C575.504 189.427 580.039 188.984 581.597 192.716L581.667 192.867L581.698 192.857Z" fill="#073064"/>
<path d="M166.968 445.235C171.161 446.412 171.201 451.291 173.694 454.188C175.635 456.32 178.58 456.974 181.215 457.87C184.844 458.976 188.554 460.767 192.002 460.093C194.968 459.57 197.14 457.256 199.603 455.697C203.031 453.343 207.385 452.991 211.456 453.142C218.484 453.614 223.199 458.926 226.457 464.861C227.211 466.209 227.985 467.557 228.96 468.744C230.75 471.148 233.756 472.455 234.761 475.171C235.465 477.576 233.595 479.919 232.811 482.153C230.156 491.105 234.902 493.952 223.239 495.944C218.283 496.809 195.722 512.693 192.354 506.124C189.408 498.6 185.628 492.172 176.861 490.773C172.981 490.281 168.657 489.757 164.887 490.794C162.736 491.427 160.916 492.775 159.197 494.204C155.919 496.96 152.099 499.324 148.298 501.446C143.262 503.83 135.098 500.803 129.85 498.419C123.898 495.079 122.229 486.619 124.672 480.604C125.838 476.59 129.749 473.441 130.714 469.75C131.609 465.967 131.187 461.793 132.715 458.191C133.58 456.089 135.148 454.972 137.732 454.761C141.07 454.389 144.77 455.033 148.097 454.228C154.823 452.357 159.026 443.304 166.828 445.195L166.988 445.245L166.968 445.235Z" fill="#073064"/>
<path d="M36.2482 423.477C43.9494 422.994 50.3436 418.075 57.4416 415.57C62.74 414.132 69.285 415.721 72.3514 420.529C75.4882 425.318 76.4734 432.279 81.9427 435.387C86.7283 438.948 97.6869 438.133 99.5368 444.269C100.19 447.176 97.6266 451.411 97.3954 454.791C97.2546 456.3 97.5562 457.789 98.0589 459.197C99.3458 463.201 102.402 466.299 104.031 470.333C105.107 473.25 106.213 476.62 105.639 479.628C104.865 483.058 100.412 486.307 97.2345 488.55C93.9168 490.904 90.5789 493.369 87.5628 496.115C80.8167 502.462 74.8246 510.57 69.5866 518.527C65.5349 525.247 63.1723 532.51 58.9195 539.038C57.1802 541.714 55.4811 543.826 53.1084 545.245C45.4676 548.816 43.0446 543.112 36.0874 551.673C33.2019 555.284 27.3908 558.815 23.6508 557.829C23.1582 557.718 22.7058 557.467 22.4142 557.084C21.0972 555.274 23.6609 550.435 24.3244 547.83C25.4806 544.229 25.4806 540.959 26.2146 537.73C26.5463 535.497 27.0993 534.119 26.677 532.369C25.4203 529.864 21.5596 531.997 19.4886 534.21C16.5126 537.298 16.5629 543.947 14.8538 546.784C11.2746 551.632 1.96481 542.84 2.2061 538.354C2.03519 534.32 6.56945 529.713 7.75579 525.035C9.29402 519.654 7.99709 513.598 9.73639 508.196C11.8477 500.843 19.0361 497.191 25.0885 492.202C34.8306 484.426 36.5599 480.644 37.9373 468.17C38.5103 464.529 37.8066 460.887 36.2683 457.447C34.9211 454.55 31.5431 447.599 28.0745 449.782C25.37 451.914 25.8526 456.119 26.8077 459.187C27.7528 462.698 28.9592 466.42 26.7273 469.307C24.1033 472.677 20.6548 470.886 17.7694 468.935C14.2304 466.51 9.28397 467.577 5.40321 466.41C1.75368 465.052 3.83482 453.292 5.02116 450.818C6.15724 448.665 9.04268 449.711 11.3048 450.003C12.7425 450.204 13.6172 449.862 13.5468 448.243C13.5166 445.577 10.7317 440.718 8.25848 438.465C6.0366 435.89 -3.85633 430.9 3.91525 429.009C7.70553 428.396 12.1493 429.532 15.6983 428.557C19.3076 427.138 21.8613 424.563 26.4961 423.869C29.6228 423.306 32.9104 423.607 36.0673 423.467H36.2281L36.2482 423.477Z" fill="#073064"/>
<path d="M52.183 511.647C51.9719 507.573 54.3144 505.702 59.3514 505.239C60.2964 505.148 59.7535 507.14 59.6329 508.076C59.5122 509.001 58.3158 512.18 57.0993 512.512C55.8828 512.844 52.374 514.252 52.183 511.657V511.647Z" fill="#073064"/>
<path d="M457.512 320.781C457.723 319.122 457.14 317.975 456.618 317.311C456.014 316.536 455.944 313.549 456.477 312.996C457.955 311.477 459.795 306.527 458.518 304.143C458.116 303.399 457.452 302.856 456.648 302.604C454.707 302.021 452.948 303.329 450.917 304.848C450.475 305.179 450.073 305.481 449.741 305.693C448.605 306.417 443.256 310.199 441.668 311.959C440.672 313.066 438.842 315.36 437.877 318.226C437.556 319.182 437.616 320.168 438.048 321.013C438.46 321.808 439.013 323.638 438.31 324.041C437.505 324.503 436.6 325.016 435.686 325.801C434.228 327.048 434.348 328.517 434.469 329.09C434.66 330.006 435.304 331.223 437.304 331.817C439.305 332.41 442.422 332.43 444.322 331.907C446.996 331.163 452.274 327.793 453.943 326.525C455.522 325.318 457.241 323.075 457.532 320.771L457.512 320.781Z" fill="#073064"/>
<path d="M799.19 116.185C795.018 109.918 793.892 103.782 793.269 97.7162C792.756 92.8174 795.842 88.8842 797.451 84.3776C798.647 81.0178 800.276 77.3964 799.371 73.755C788.905 69.9324 769.059 94.6683 759.317 80.8971C747.242 63.8365 739.441 47.1883 726.672 41.8267C719.021 38.6077 713.441 34.8757 708.244 30.3792C700.703 23.8507 699.175 19.4146 695.294 10.6831C693.434 6.49842 689.785 -0.191026 684.326 0.00010107C672.553 0.412533 670.673 9.79787 669.597 19.2637C668.883 25.5507 668.873 29.8662 667.415 35.8213C666.48 39.6237 665.143 43.4664 663.987 47.5203C661.815 55.0949 659.784 61.9856 654.215 68.0513C651.741 70.7472 649.178 72.7189 647.458 76.4307C645.729 80.1426 646.081 84.2669 645.538 88.8138C644.844 94.5274 644.09 101.599 637.736 101.026C632.78 100.583 613.095 72.2863 601.875 84.6291C598.054 88.8339 597.491 104.154 593.098 108.268C587.528 113.871 580.42 115.481 573.915 119.867C569.481 122.854 556.361 127.25 558.925 134.171C561.478 141.092 572.487 147.168 573.261 154.028C573.955 160.255 571.723 164.782 572.598 169.168C573.814 175.253 572.497 180.987 580.088 180.555C584.371 180.313 587.387 172.326 593.62 171.894C599.864 171.461 603.694 165.858 609.164 164.389C616.644 162.388 616.322 159.118 609.857 156.523C603.393 153.928 595.169 141.957 600.276 136.726C608.932 127.854 624.154 146.544 628.768 146.655C629.874 146.685 634.308 144.995 634.911 143.486C648.001 110.532 687.714 165.345 717.272 175.455C722.309 173.563 723.043 167.266 724.973 162.8C736.535 138.557 748.972 121.295 775.906 129.463C782.591 130.51 794.475 128.186 799.633 124.092C802.438 121.869 800.216 117.694 799.19 116.155V116.185Z" fill="#073064"/>
<path d="M256.155 461.24C258.438 465.565 254.265 468.885 249.59 470.303C244.915 471.722 240.612 473.381 238.622 467.648C237.023 463.03 242.734 459.137 247.57 458.413C252.054 457.749 255.019 459.077 256.155 461.23V461.24Z" fill="#073064"/>
</svg>
