<svg width="375" height="378" viewBox="0 0 375 378" fill="none" xmlns="http://www.w3.org/2000/svg">
<path d="M260.218 110.743C261.848 112.427 261.543 115.846 264.021 116.827C265.488 117.32 267.662 116.241 269.44 115.062C271.631 113.837 272.859 110.87 270.34 108.983C268.893 107.606 265.989 107.2 265.381 105.188C265.292 99.9779 275.319 99.9701 278.104 103.328C280.26 105.768 279.862 109.932 280.495 113.555C280.852 116.002 281.476 118.452 282.421 120.764C284.669 126.286 288.583 131.218 290.879 136.805C293.998 144.723 301.581 160.215 297.256 166.992C295.455 169.814 288.726 171.072 287.985 176.178C287.537 178.724 287.802 181.905 286.591 184.109C285.613 185.841 283.526 186.739 281.448 188.256C277.977 190.496 276.908 194.677 277.612 198.643C279.392 206.816 281.895 215.111 276.701 222.171C274.103 226.031 272.564 230.509 272.269 235.197C271.228 244.716 279.888 250.341 275.572 255.546C274.603 256.847 273.38 258.086 272.41 259.403C270.909 261.384 270.33 263.52 269.142 265.629C267.306 268.869 264.238 271.705 261.127 273.743C257.444 275.539 258.057 269.576 258.303 267.66C258.584 265.683 259.224 263.977 259.994 262.336C260.561 261.044 261.528 259.262 260.601 257.918C260.011 257.199 259.072 257.126 258.236 257.361C254.56 258.493 255.807 263.297 254.616 266.491C254.185 267.916 252.72 268.343 251.272 267.827C250.068 267.507 248.854 266.865 247.604 266.944C242.372 267.921 242.793 278.666 239.332 282.223C235.55 285.956 234.756 277.478 232.853 275.722C229.262 271.939 225.621 277.271 223.88 279.933C221.16 284.423 215.205 283.546 210.244 282.924C206.244 282.394 202.339 283.408 198.377 283.336C193.225 283.232 192.402 279.234 190.152 276.154C187.861 274.04 185.681 277.366 185.614 279.856C185.505 282.171 187.258 284.128 189.057 285.637C190.83 287.052 193.289 289.852 190.843 291.48C188.383 292.789 184.128 292.614 182.164 295.176C180.709 296.709 179.95 298.79 178.981 300.714C176.567 305.308 171.983 311.37 166.095 311.185C162.213 310.848 159.636 307.417 156.874 305.042C153.578 302.411 152.914 298.908 153.484 295.016C153.624 293.563 153.871 292.122 154.527 290.822C155.241 288.994 158.253 286.415 157.268 284.49C154.277 282.207 150.703 288.166 148.911 289.513C148.101 290.188 146.688 290.786 145.869 289.721C145.052 288.709 145.255 286.417 144.229 284.777C143.079 282.793 140.638 281.941 138.413 282.002C135.04 282.06 132.052 283.766 128.891 284.592C125.595 285.534 121.936 284.956 118.518 285.857C114.464 286.795 110.991 289.29 106.727 289.578C105.177 289.719 103.586 289.716 102.069 290.019C99.6491 290.454 97.5121 291.725 95.3754 292.851C93.1395 294.036 90.8031 295.098 88.8883 296.664C87.7147 297.562 86.5863 298.71 85.0661 298.987C83.3753 299.288 81.5744 298.197 80.0086 297.325C74.3931 294.046 73.7759 294.207 67.8989 294.608C65.5738 294.514 62.1896 294.732 61.1098 292.26C60.5372 290.566 54.0449 284.839 60.636 279.74C62.923 277.975 70.8892 273.06 73.4227 271.565C79.5391 268.101 86.3343 267.093 90.8874 262.194C93.7446 258.984 101.178 253.277 105.729 251.962C109.872 250.344 117.656 253.884 121.519 255.19C130.828 257.569 138.18 246.806 147.871 247.088C150.363 247.052 151.647 248.753 153.525 250.387C156.273 252.718 160.255 252.117 163.283 251.086C171.567 248.187 169.447 239.071 172.964 233.039C177.423 225.606 185.802 231.217 185.359 221.399C184.865 215.62 186.758 211.463 192.386 209.055C193.865 208.489 195.649 207.767 197.07 208.692C199.607 211.531 195.949 216.387 198.272 220.732C200.614 223.603 205.563 221.496 207.977 220.489C218.349 216.156 222.073 209.59 231.447 198.692C235.133 194.638 239.009 193.277 241.629 188.159C243.294 185.025 244.301 181.585 245.461 178.282C247.924 171.339 253.388 160.314 252.531 152.544C252.344 146.274 245.098 144.91 247.351 140.71C248.485 138.715 249.813 136.586 249.696 134.146C249.135 127.22 246.51 125.422 252.436 120.03C254.729 117.825 254.797 114.197 255.992 111.571C256.665 110.076 258.791 109.132 260.147 110.691L260.205 110.753L260.218 110.743Z" fill="#073064"/>
<path d="M99.7607 299.759C101.982 299.655 102.786 302.014 104.46 303.017C105.744 303.739 107.277 303.582 108.698 303.593C110.635 303.546 112.721 303.817 114.284 302.936C115.638 302.205 116.319 300.735 117.262 299.583C118.545 297.891 120.599 297.02 122.597 296.439C126.079 295.538 129.219 297.355 131.752 299.708C132.334 300.24 132.926 300.769 133.59 301.187C134.844 302.065 136.511 302.216 137.435 303.371C138.163 304.423 137.633 305.86 137.612 307.068C137.765 311.835 140.523 312.452 135.19 315.292C132.927 316.508 124.544 327.835 121.856 325.192C119.218 322.019 116.352 319.511 111.878 320.242C109.917 320.627 107.738 321.069 106.077 322.177C105.136 322.83 104.47 323.776 103.867 324.745C102.721 326.608 101.249 328.368 99.7482 330.008C97.6899 331.974 93.2458 331.818 90.3186 331.507C86.8966 330.845 84.7274 327.012 84.9445 323.703C84.8645 321.57 86.2541 319.415 86.1284 317.471C85.954 315.493 85.0782 313.538 85.2399 311.546C85.321 310.388 85.9018 309.595 87.1203 309.077C88.6784 308.36 90.5754 308.077 92.0591 307.152C95.0186 305.164 95.6001 300.099 99.686 299.762L99.772 299.76L99.7607 299.759Z" fill="#073064"/>
<path d="M32.8953 310.229C36.5507 308.756 38.8594 305.344 41.8973 302.988C44.2344 301.439 47.6625 301.157 49.922 302.995C52.2123 304.812 53.8091 308.028 56.96 308.655C59.8523 309.612 65.0333 307.455 66.9166 310.132C67.7008 311.436 67.1389 313.901 67.5702 315.577C67.7446 316.331 68.1302 317.004 68.6003 317.606C69.8678 319.34 71.8474 320.35 73.2854 322.044C74.2759 323.285 75.3538 324.74 75.5596 326.291C75.7358 328.078 74.0993 330.369 72.9199 331.967C71.6901 333.641 70.4684 335.373 69.4479 337.189C67.1983 341.35 65.5973 346.244 64.3375 350.943C63.4539 354.852 63.4763 358.752 62.4645 362.6C62.0516 364.177 61.5676 365.474 60.6455 366.543C57.5158 369.503 55.4243 367.127 53.4282 372.396C52.6101 374.61 50.361 377.256 48.3895 377.379C48.133 377.405 47.8732 377.356 47.6704 377.217C46.7409 376.551 47.2057 373.794 47.1085 372.424C47.0899 370.493 46.5643 368.908 46.4009 367.225C46.2027 366.089 46.2492 365.332 45.7631 364.551C44.7512 363.539 43.2226 365.194 42.5745 366.599C41.6285 368.575 42.7219 371.79 42.3495 373.44C41.3941 376.365 35.4678 373.601 34.8634 371.387C34.132 369.459 35.5892 366.497 35.4122 364.039C35.2926 361.183 33.6903 358.456 33.6649 355.558C33.5061 351.654 36.4035 348.728 38.5352 345.336C42.0074 340.001 42.2375 337.889 40.8997 331.622C40.592 329.764 39.6654 328.112 38.3667 326.692C37.2479 325.504 34.4928 322.678 33.1624 324.294C32.1943 325.762 33.1043 327.723 34.0606 329.057C35.0831 330.606 36.2663 332.217 35.6486 333.975C34.9184 336.03 32.9589 335.717 31.2465 335.235C29.1413 334.629 26.915 335.941 24.8462 335.999C22.8588 335.927 21.977 329.893 22.1542 328.502C22.3588 327.276 23.9257 327.319 25.0691 327.097C25.7984 326.964 26.1674 326.657 25.8729 325.883C25.4297 324.596 23.2986 322.689 21.7374 321.994C20.2464 321.103 14.6487 320.275 18.1118 318.109C19.8505 317.202 22.1873 317.038 23.7507 315.995C25.2722 314.727 26.0961 313.068 28.2311 311.987C29.6562 311.211 31.2983 310.829 32.806 310.253L32.8839 310.227L32.8953 310.229Z" fill="#073064"/>
<path d="M54.7974 350.406C54.0401 348.465 54.8748 347.182 57.242 346.147C57.6855 345.952 57.7426 347.004 57.8345 347.477C57.9248 347.945 57.8559 349.678 57.3196 350.035C56.7833 350.391 55.3089 351.638 54.799 350.411L54.7974 350.406Z" fill="#073064"/>
<path d="M220.586 192.719C220.422 191.88 219.955 191.418 219.594 191.18C219.178 190.902 218.663 189.465 218.832 189.111C219.305 188.137 219.401 185.442 218.399 184.492C218.084 184.196 217.675 184.039 217.245 184.047C216.21 184.076 215.568 184.993 214.827 186.055C214.666 186.287 214.52 186.498 214.393 186.654C213.959 187.188 211.974 189.881 211.487 190.99C211.183 191.686 210.664 193.092 210.658 194.637C210.655 195.152 210.843 195.62 211.188 195.96C211.516 196.279 212.078 197.078 211.802 197.386C211.486 197.74 211.13 198.134 210.813 198.661C210.307 199.5 210.601 200.193 210.752 200.451C210.992 200.864 211.499 201.351 212.565 201.317C213.63 201.283 215.144 200.792 215.981 200.233C217.158 199.442 219.174 196.96 219.78 196.077C220.351 195.238 220.823 193.874 220.594 192.711L220.586 192.719Z" fill="#073064"/>
<path d="M353.32 38.6093C350.29 36.2423 348.757 33.4489 347.48 30.6088C346.444 28.3165 347.308 25.9137 347.363 23.4706C347.403 21.6496 347.61 19.6324 346.586 18.0127C340.898 17.8425 335.255 33.0236 328.318 27.9145C319.722 21.5859 313.264 14.7703 306.213 14.2242C301.986 13.8939 298.682 12.982 295.439 11.638C290.734 9.68575 289.28 7.78107 285.995 4.17253C284.421 2.44311 281.576 -0.212751 278.961 0.757608C273.32 2.85035 273.918 7.70203 274.918 12.4634C275.583 15.6258 276.272 17.7192 276.523 20.8403C276.681 22.8338 276.651 24.9114 276.742 27.0624C276.907 31.0833 277.031 34.7499 275.306 38.5857C274.54 40.2902 273.615 41.6581 273.378 43.7338C273.137 45.8111 273.97 47.7537 274.438 50.045C275.021 52.9262 275.792 56.4753 272.62 57.2189C270.146 57.8013 256.054 47.2497 252.6 55.0366C251.424 57.6891 253.614 65.2059 252.146 67.9066C250.347 71.5181 247.16 73.4411 244.712 76.6129C243.044 78.774 237.391 83.0142 239.746 85.9568C242.097 88.901 248.41 90.0762 249.888 93.2773C251.225 96.1841 250.871 98.7372 252 100.723C253.569 103.477 253.852 106.468 257.462 105.038C259.499 104.232 259.677 99.8759 262.629 98.664C265.586 97.4506 266.542 94.1187 268.957 92.5275C272.261 90.3545 271.579 88.8215 268.028 88.6028C264.478 88.3841 258.567 83.9038 260.201 80.547C262.971 74.8546 273.354 81.4672 275.609 80.7789C276.15 80.6157 278.027 79.0837 278.077 78.2552C279.124 60.1765 307.187 80.3617 323.14 80.5099C325.278 78.7834 324.621 75.6129 324.839 73.1376C326.545 59.5272 329.799 49.1603 344.168 48.7894C347.577 48.2216 352.964 45.1846 354.805 42.3708C355.808 40.8422 354.059 39.1758 353.315 38.5946L353.32 38.6093Z" fill="#073064"/>
<path d="M145.565 293.178C147.366 294.907 145.877 297.187 143.839 298.626C141.801 300.066 139.982 301.562 138.095 299.103C136.578 297.122 138.72 294.316 140.948 293.188C143.015 292.145 144.666 292.312 145.563 293.173L145.565 293.178Z" fill="#073064"/>
</svg>
