<svg width="122" height="38" viewBox="0 0 122 38" fill="none" xmlns="http://www.w3.org/2000/svg">
<g filter="url(#filter0_d_6461_11760)">
<rect width="36" height="36" rx="18" fill="white"/>
<path d="M11.54 13.28V14.46H15.46V13.28H11.54ZM15.46 10.84H11.54V12.08H15.46V10.84ZM15.98 19.14L16.92 18.86C17.28 19.56 17.7 20.5 17.9 21.02L17.12 21.32H17.38V23.16C17.38 24.68 17.02 26.1 14.52 26.98C14.36 26.66 13.94 26.14 13.68 25.92C14.86 25.56 15.46 25.06 15.76 24.52H13.28V21.64H14.48V23.42H16.06C16.06 23.32 16.06 23.22 16.06 23.12V21.32H16.88C16.82 21.14 16.74 20.96 16.68 20.76C13.74 21.06 13.24 21.16 12.96 21.28C12.9 21.04 12.74 20.46 12.6 20.14C12.9 20.12 13.26 19.92 13.66 19.62C13.86 19.48 14.24 19.16 14.72 18.7C13.56 18.8 13.24 18.86 13.04 18.94C12.98 18.68 12.82 18.08 12.66 17.78C12.86 17.74 13.08 17.62 13.3 17.42C13.5 17.24 14.18 16.52 14.64 15.76H11.54V27.1H9.78V9.52H17.2V15.76H15.12L15.86 16.14C15.4 16.74 14.9 17.34 14.38 17.82L15.68 17.76C15.96 17.44 16.24 17.12 16.5 16.78L17.48 17.46C16.6 18.4 15.64 19.28 14.66 20.02L16.32 19.88C16.2 19.62 16.08 19.36 15.98 19.14ZM22.7 25.1H21.44V24.52H19.84V26.8H18.5V21.32H19.84V23.42H21.44V21.64H22.7V25.1ZM20.52 14.46H24.56V13.28H20.52V14.46ZM24.56 10.84H20.52V12.08H24.56V10.84ZM26.34 9.52V24.86C26.34 25.82 26.18 26.36 25.6 26.66C25 26.98 24.14 27.02 22.86 27.02C22.8 26.52 22.56 25.68 22.32 25.2C23.12 25.22 23.96 25.22 24.2 25.22C24.48 25.2 24.56 25.12 24.56 24.84V15.76H20.44L21.2 16.16C20.76 16.76 20.24 17.34 19.76 17.82L21.02 17.76C21.32 17.44 21.62 17.12 21.88 16.76L22.86 17.44C21.98 18.38 21 19.3 20.04 20.04L21.68 19.9C21.56 19.64 21.44 19.38 21.32 19.18L22.24 18.86C22.64 19.54 23.08 20.48 23.28 21.04L22.32 21.42C22.26 21.24 22.16 21.02 22.06 20.76C19.12 21.08 18.62 21.18 18.32 21.32C18.28 21.08 18.12 20.48 17.98 20.2C18.28 20.14 18.62 19.96 19.04 19.62C19.22 19.48 19.62 19.16 20.08 18.7C18.9 18.8 18.58 18.86 18.4 18.96C18.32 18.7 18.16 18.12 18.02 17.8C18.24 17.76 18.44 17.64 18.66 17.44C18.86 17.28 19.56 16.54 20 15.76H18.76V9.52H26.34Z" fill="#B38607"/>
<rect x="28" width="36" height="36" rx="18" fill="white"/>
<path d="M40.86 18.04V19.66H44.98V18.04H40.86ZM40.86 15.1V16.7H44.98V15.1H40.86ZM51.28 15.1H46.92V16.7H51.28V15.1ZM51.28 19.66V18.04H46.92V19.66H51.28ZM53.16 21.08H48.38C50.14 22.82 52.8 24.4 55.26 25.22C54.8 25.6 54.22 26.34 53.92 26.82C51.46 25.82 48.8 24 46.92 21.94V27.06H44.98V22.02C43.12 24.04 40.54 25.8 38.1 26.8C37.8 26.32 37.24 25.62 36.82 25.24C39.22 24.38 41.82 22.82 43.54 21.08H39.04V13.68H44.98V12.22H37.34V10.5H44.98V8.72H46.92V10.5H54.74V12.22H46.92V13.68H53.16V21.08Z" fill="#B38607"/>
<rect x="56" width="36" height="36" rx="18" fill="white"/>
<path d="M69.1 20.22L71.08 19.38L71.52 21.02C69.42 22.02 67.18 23.06 65.44 23.84L64.7 21.98C65.42 21.72 66.34 21.36 67.36 20.94V15.18H65.08V13.42H67.36V8.98H69.1V13.42H71.12V15.18H69.1V20.22ZM75.8 25H80.18C81.28 25 81.48 24.5 81.64 22.32C82.06 22.6 82.78 22.9 83.28 23C83.02 25.76 82.46 26.66 80.3 26.66H75.7C73.24 26.66 72.54 26.04 72.54 23.64V17.86L71.16 18.46L70.46 16.8L72.54 15.92V10.62H74.3V15.18L76.54 14.24V8.74H78.28V13.5L80.96 12.36L82.34 12.82L82.26 13.12C82.1 15.9 81.8 19.56 81.3 21.84L79.78 21.42C80.08 19.7 80.3 16.92 80.4 14.48L78.28 15.4V22.58H76.54V16.14L74.3 17.1V23.66C74.3 24.78 74.52 25 75.8 25Z" fill="#B38607"/>
<rect x="84" width="36" height="36" rx="18" fill="white"/>
<path d="M98.66 24.52H107.28C108.44 24.52 109.98 24.44 110.74 24.28C110.8 24.76 110.92 25.62 111.02 26.04C110.4 26.2 108.78 26.24 107.22 26.24H98.84C95.58 26.24 94.06 25.22 94.06 22V11.2H93.26V9.56H110.04V11.2H95.88V22.14C95.88 23.84 96.56 24.52 98.66 24.52ZM105 15.6V13.6H101V15.6H105ZM106.84 12.34V16.88H99.28V12.34H106.84ZM98.68 19.34V21.92H100.86V19.34H98.68ZM97.16 23.24V18.02H102.46V23.24H97.16ZM107.48 21.92V19.34H105.18V21.92H107.48ZM109.1 18.02V23.24H103.64V18.02H109.1Z" fill="#B38607"/>
</g>
<defs>
<filter id="filter0_d_6461_11760" x="0" y="0" width="122" height="37.5" filterUnits="userSpaceOnUse" color-interpolation-filters="sRGB">
<feFlood flood-opacity="0" result="BackgroundImageFix"/>
<feColorMatrix in="SourceAlpha" type="matrix" values="0 0 0 0 0 0 0 0 0 0 0 0 0 0 0 0 0 0 127 0" result="hardAlpha"/>
<feOffset dx="2" dy="1.5"/>
<feComposite in2="hardAlpha" operator="out"/>
<feColorMatrix type="matrix" values="0 0 0 0 0 0 0 0 0 0 0 0 0 0 0 0 0 0 0.3 0"/>
<feBlend mode="normal" in2="BackgroundImageFix" result="effect1_dropShadow_6461_11760"/>
<feBlend mode="normal" in="SourceGraphic" in2="effect1_dropShadow_6461_11760" result="shape"/>
</filter>
</defs>
</svg>
