<svg width="150" height="38" viewBox="0 0 150 38" fill="none" xmlns="http://www.w3.org/2000/svg">
<g filter="url(#filter0_d_9353_59417)">
<rect width="36" height="36" rx="18" fill="white"/>
<path d="M16.08 22.3L17.42 21.8L17.74 23.46C14.9 24.66 11.82 25.92 9.52 26.84L8.68 24.96C10.08 24.5 12.06 23.8 14.16 23.02V15.46H9.32V13.6H14.16V9.08H16.08V22.3ZM21.88 24.54H24C24.82 24.54 24.94 23.6 25.06 19.9C25.52 20.28 26.34 20.66 26.84 20.78C26.66 24.9 26.22 26.36 24.16 26.36H21.62C19.68 26.36 19.12 25.68 19.12 23.32V9.08H21.06V13.58H26.44V15.42H21.06V23.34C21.06 24.36 21.18 24.54 21.88 24.54Z" fill="#B38607"/>
<rect x="28" width="36" height="36" rx="18" fill="white"/>
<path d="M54.74 12.52H45.14C44.52 13.76 43.82 14.9 43.1 15.76C42.74 15.46 41.92 14.96 41.5 14.72C42.84 13.28 44.06 10.98 44.76 8.7L46.56 9.16C46.36 9.72 46.14 10.3 45.9 10.86H54.74V12.52ZM42.5 11.02L41.4 12.44C40.66 11.78 39.14 10.86 37.96 10.28L39 9C40.18 9.52 41.72 10.38 42.5 11.02ZM41.18 16.68L40.12 18.1C39.44 17.46 38 16.54 36.9 15.98L37.92 14.72C39.02 15.24 40.48 16.06 41.18 16.68ZM39.06 26.74L37.46 25.76C38.24 24.18 39.38 21.6 40.18 19.32L41.64 20.34C40.88 22.44 39.92 24.86 39.06 26.74ZM49.24 22.54H51.7C51.78 21.84 51.86 20.96 51.92 19.9H47.88C48.68 20.52 49.58 21.38 50.02 22L49.24 22.54ZM47.56 19.9H45.32C45.18 20.84 45.06 21.74 44.92 22.54H48.76C48.28 21.9 47.42 21.04 46.7 20.44L47.56 19.9ZM47.96 15.8H45.82C45.76 16.58 45.64 17.4 45.54 18.2H49.1C48.64 17.6 47.86 16.84 47.2 16.3L47.96 15.8ZM52.14 15.8H48.4C49.12 16.38 49.92 17.16 50.3 17.7L49.6 18.2H52.02C52.06 17.48 52.1 16.66 52.14 15.8ZM55.26 19.9H53.62C53.56 20.94 53.5 21.8 53.42 22.54H54.72V24.14H53.2C53.04 25.18 52.84 25.78 52.58 26.08C52.18 26.64 51.72 26.8 51.1 26.88C50.54 26.96 49.56 26.94 48.6 26.88C48.56 26.44 48.4 25.76 48.12 25.32C49.08 25.42 49.94 25.42 50.32 25.42C50.68 25.42 50.86 25.38 51.06 25.12C51.2 24.96 51.34 24.64 51.44 24.14H42.88C43.1 22.98 43.36 21.48 43.58 19.9H41.78V18.2H43.82C44 16.8 44.14 15.4 44.26 14.2H53.92C53.92 14.2 53.9 14.78 53.88 15.02C53.84 16.2 53.78 17.26 53.74 18.2H55.26V19.9Z" fill="#B38607"/>
<rect x="56" width="36" height="36" rx="18" fill="white"/>
<path d="M79.46 16.84V15.46H73.6V16.84H79.46ZM79.46 19.48V18.08H73.6V19.48H79.46ZM79.46 22.16V20.74H73.6V22.16H79.46ZM71.86 14.08H74.94C75.08 13.66 75.2 13.2 75.32 12.76H70.28V11.24H73.3C73.04 10.68 72.58 9.92 72.18 9.38L73.64 8.78C74.16 9.42 74.74 10.32 74.98 10.88L74.18 11.24H77.56C78.06 10.5 78.64 9.48 78.94 8.74L80.76 9.24C80.3 9.92 79.84 10.64 79.4 11.24H82.9V12.76H77.34C77.14 13.22 76.92 13.66 76.72 14.08H81.28V23.52H71.86V14.08ZM69.58 11.74L68.16 12.76C67.62 11.94 66.5 10.58 65.62 9.6L67.02 8.74C67.94 9.7 69.02 10.94 69.58 11.74ZM69.42 18.16L70.36 18.5C70.08 20.18 69.66 21.64 69.12 22.9C70.38 24.86 72.72 25.16 76.12 25.16C78.22 25.16 81.28 25.06 83.4 24.86C83.12 25.26 82.9 26.1 82.8 26.6C80.86 26.72 78.34 26.78 76.1 26.78C72.32 26.78 69.94 26.38 68.4 24.32C67.66 25.54 66.78 26.44 65.78 27.12C65.54 26.76 64.94 26.12 64.56 25.86C66.46 24.7 67.8 22.6 68.46 19.66H66.5C66.02 19.66 65.48 19.8 65.32 19.96C65.22 19.54 64.86 18.72 64.68 18.38C64.98 18.3 65.32 18.16 65.66 17.76C66.08 17.36 67.12 15.98 67.92 14.82H65V13.32H69.1L69.34 13.22L70.5 13.76C69.72 14.88 68.34 16.84 67.24 18.2H69.14L69.42 18.16Z" fill="#B38607"/>
<rect x="84" width="36" height="36" rx="18" fill="white"/>
<path d="M97.1 20.22L99.08 19.38L99.52 21.02C97.42 22.02 95.18 23.06 93.44 23.84L92.7 21.98C93.42 21.72 94.34 21.36 95.36 20.94V15.18H93.08V13.42H95.36V8.98H97.1V13.42H99.12V15.18H97.1V20.22ZM103.8 25H108.18C109.28 25 109.48 24.5 109.64 22.32C110.06 22.6 110.78 22.9 111.28 23C111.02 25.76 110.46 26.66 108.3 26.66H103.7C101.24 26.66 100.54 26.04 100.54 23.64V17.86L99.16 18.46L98.46 16.8L100.54 15.92V10.62H102.3V15.18L104.54 14.24V8.74H106.28V13.5L108.96 12.36L110.34 12.82L110.26 13.12C110.1 15.9 109.8 19.56 109.3 21.84L107.78 21.42C108.08 19.7 108.3 16.92 108.4 14.48L106.28 15.4V22.58H104.54V16.14L102.3 17.1V23.66C102.3 24.78 102.52 25 103.8 25Z" fill="#B38607"/>
<rect x="112" width="36" height="36" rx="18" fill="white"/>
<path d="M126.66 24.52H135.28C136.44 24.52 137.98 24.44 138.74 24.28C138.8 24.76 138.92 25.62 139.02 26.04C138.4 26.2 136.78 26.24 135.22 26.24H126.84C123.58 26.24 122.06 25.22 122.06 22V11.2H121.26V9.56H138.04V11.2H123.88V22.14C123.88 23.84 124.56 24.52 126.66 24.52ZM133 15.6V13.6H129V15.6H133ZM134.84 12.34V16.88H127.28V12.34H134.84ZM126.68 19.34V21.92H128.86V19.34H126.68ZM125.16 23.24V18.02H130.46V23.24H125.16ZM135.48 21.92V19.34H133.18V21.92H135.48ZM137.1 18.02V23.24H131.64V18.02H137.1Z" fill="#B38607"/>
</g>
<defs>
<filter id="filter0_d_9353_59417" x="0" y="0" width="150" height="37.5" filterUnits="userSpaceOnUse" color-interpolation-filters="sRGB">
<feFlood flood-opacity="0" result="BackgroundImageFix"/>
<feColorMatrix in="SourceAlpha" type="matrix" values="0 0 0 0 0 0 0 0 0 0 0 0 0 0 0 0 0 0 127 0" result="hardAlpha"/>
<feOffset dx="2" dy="1.5"/>
<feComposite in2="hardAlpha" operator="out"/>
<feColorMatrix type="matrix" values="0 0 0 0 0 0 0 0 0 0 0 0 0 0 0 0 0 0 0.3 0"/>
<feBlend mode="normal" in2="BackgroundImageFix" result="effect1_dropShadow_9353_59417"/>
<feBlend mode="normal" in="SourceGraphic" in2="effect1_dropShadow_9353_59417" result="shape"/>
</filter>
</defs>
</svg>
