<svg width="122" height="38" viewBox="0 0 122 38" fill="none" xmlns="http://www.w3.org/2000/svg">
<g filter="url(#filter0_d_9353_54212)">
<rect width="36" height="36" rx="18" fill="white"/>
<path d="M12.86 18.04V19.66H16.98V18.04H12.86ZM12.86 15.1V16.7H16.98V15.1H12.86ZM23.28 15.1H18.92V16.7H23.28V15.1ZM23.28 19.66V18.04H18.92V19.66H23.28ZM25.16 21.08H20.38C22.14 22.82 24.8 24.4 27.26 25.22C26.8 25.6 26.22 26.34 25.92 26.82C23.46 25.82 20.8 24 18.92 21.94V27.06H16.98V22.02C15.12 24.04 12.54 25.8 10.1 26.8C9.8 26.32 9.24 25.62 8.82 25.24C11.22 24.38 13.82 22.82 15.54 21.08H11.04V13.68H16.98V12.22H9.34V10.5H16.98V8.72H18.92V10.5H26.74V12.22H18.92V13.68H25.16V21.08Z" fill="#B38607"/>
<rect x="28" width="36" height="36" rx="18" fill="white"/>
<path d="M44.08 22.3L45.42 21.8L45.74 23.46C42.9 24.66 39.82 25.92 37.52 26.84L36.68 24.96C38.08 24.5 40.06 23.8 42.16 23.02V15.46H37.32V13.6H42.16V9.08H44.08V22.3ZM49.88 24.54H52C52.82 24.54 52.94 23.6 53.06 19.9C53.52 20.28 54.34 20.66 54.84 20.78C54.66 24.9 54.22 26.36 52.16 26.36H49.62C47.68 26.36 47.12 25.68 47.12 23.32V9.08H49.06V13.58H54.44V15.42H49.06V23.34C49.06 24.36 49.18 24.54 49.88 24.54Z" fill="#B38607"/>
<rect x="56" width="36" height="36" rx="18" fill="white"/>
<path d="M69.1 20.22L71.08 19.38L71.52 21.02C69.42 22.02 67.18 23.06 65.44 23.84L64.7 21.98C65.42 21.72 66.34 21.36 67.36 20.94V15.18H65.08V13.42H67.36V8.98H69.1V13.42H71.12V15.18H69.1V20.22ZM75.8 25H80.18C81.28 25 81.48 24.5 81.64 22.32C82.06 22.6 82.78 22.9 83.28 23C83.02 25.76 82.46 26.66 80.3 26.66H75.7C73.24 26.66 72.54 26.04 72.54 23.64V17.86L71.16 18.46L70.46 16.8L72.54 15.92V10.62H74.3V15.18L76.54 14.24V8.74H78.28V13.5L80.96 12.36L82.34 12.82L82.26 13.12C82.1 15.9 81.8 19.56 81.3 21.84L79.78 21.42C80.08 19.7 80.3 16.92 80.4 14.48L78.28 15.4V22.58H76.54V16.14L74.3 17.1V23.66C74.3 24.78 74.52 25 75.8 25Z" fill="#B38607"/>
<rect x="84" width="36" height="36" rx="18" fill="white"/>
<path d="M98.66 24.52H107.28C108.44 24.52 109.98 24.44 110.74 24.28C110.8 24.76 110.92 25.62 111.02 26.04C110.4 26.2 108.78 26.24 107.22 26.24H98.84C95.58 26.24 94.06 25.22 94.06 22V11.2H93.26V9.56H110.04V11.2H95.88V22.14C95.88 23.84 96.56 24.52 98.66 24.52ZM105 15.6V13.6H101V15.6H105ZM106.84 12.34V16.88H99.28V12.34H106.84ZM98.68 19.34V21.92H100.86V19.34H98.68ZM97.16 23.24V18.02H102.46V23.24H97.16ZM107.48 21.92V19.34H105.18V21.92H107.48ZM109.1 18.02V23.24H103.64V18.02H109.1Z" fill="#B38607"/>
</g>
<defs>
<filter id="filter0_d_9353_54212" x="0" y="0" width="122" height="37.5" filterUnits="userSpaceOnUse" color-interpolation-filters="sRGB">
<feFlood flood-opacity="0" result="BackgroundImageFix"/>
<feColorMatrix in="SourceAlpha" type="matrix" values="0 0 0 0 0 0 0 0 0 0 0 0 0 0 0 0 0 0 127 0" result="hardAlpha"/>
<feOffset dx="2" dy="1.5"/>
<feComposite in2="hardAlpha" operator="out"/>
<feColorMatrix type="matrix" values="0 0 0 0 0 0 0 0 0 0 0 0 0 0 0 0 0 0 0.3 0"/>
<feBlend mode="normal" in2="BackgroundImageFix" result="effect1_dropShadow_9353_54212"/>
<feBlend mode="normal" in="SourceGraphic" in2="effect1_dropShadow_9353_54212" result="shape"/>
</filter>
</defs>
</svg>
