<svg width="34" height="42" viewBox="0 0 34 42" fill="none" xmlns="http://www.w3.org/2000/svg">
<g filter="url(#filter0_d_9353_59429)">
<path d="M21.3336 0H10.667C8.77364 0 7.0203 1.02 6.07364 2.68L0.740304 12.0133C-0.206363 13.6733 -0.286363 15.76 0.740304 17.3667C3.2203 21.26 9.69364 29.86 13.3603 34.6867C14.6936 36.44 17.307 36.44 18.6403 34.6867C22.307 29.86 28.7803 21.26 31.2603 17.3667C32.287 15.76 32.207 13.6667 31.2603 12.0133L25.927 2.68C24.9803 1.02 23.227 0 21.3336 0Z" fill="#C49E33"/>
<mask id="mask0_9353_59429" style="mask-type:luminance" maskUnits="userSpaceOnUse" x="8" y="6" width="16" height="16">
<path d="M24 6H8V22H24V6Z" fill="white"/>
</mask>
<g mask="url(#mask0_9353_59429)">
<path d="M22.6248 16.9014C22.5022 16.832 22.3635 16.7947 22.2195 16.7947C22.0755 16.7947 21.9475 16.832 21.8302 16.896L21.2275 16.5494L22.4755 15.9414C22.6782 15.8454 22.7582 15.6 22.6622 15.3974C22.5662 15.1947 22.3208 15.1147 22.1182 15.2107L20.3742 16.0587L19.7715 15.712L21.0195 15.104C21.2222 15.008 21.3022 14.7627 21.2062 14.56C21.1102 14.3574 20.8648 14.272 20.6622 14.3734L18.9182 15.2214L17.6382 14.48V13.5147L18.8862 12.7947L20.6142 13.6747C20.6728 13.7067 20.7368 13.7174 20.8008 13.7174C20.9502 13.7174 21.0888 13.6374 21.1635 13.4987C21.2648 13.3014 21.1848 13.056 20.9875 12.9547L19.7288 12.3094L20.3422 11.952L22.0702 12.832C22.1288 12.864 22.1928 12.8747 22.2568 12.8747C22.4062 12.8747 22.5448 12.7947 22.6195 12.6507C22.7208 12.4534 22.6408 12.208 22.4435 12.1067L21.1848 11.4614L21.8035 11.104C21.9315 11.1787 22.0755 11.2214 22.2248 11.2214C22.3688 11.2214 22.5075 11.184 22.6302 11.1147C23.0195 10.8907 23.1528 10.3947 22.9288 10.0054C22.7848 9.7547 22.5128 9.60004 22.2248 9.60004C22.0808 9.60004 21.9422 9.63737 21.8195 9.7067C21.6328 9.81337 21.4995 9.98937 21.4408 10.1974C21.4248 10.2614 21.4142 10.3254 21.4142 10.384L20.8115 10.7307L20.9075 9.34404C20.9235 9.12004 20.7528 8.92804 20.5288 8.91204C20.3048 8.89604 20.1128 9.0667 20.0968 9.2907L19.9635 11.2267L19.3608 11.5734L19.4568 10.1867C19.4728 9.9627 19.3022 9.7707 19.0782 9.7547C18.8542 9.7387 18.6622 9.90937 18.6462 10.1334L18.5128 12.0694L17.2488 12.8L16.4115 12.2827V10.8747L18.0222 9.82937C18.2088 9.7067 18.2622 9.45604 18.1395 9.26937C18.0168 9.0827 17.7662 9.02937 17.5795 9.15204L16.4115 9.90937V9.20004L18.0222 8.1547C18.2088 8.03204 18.2622 7.78137 18.1395 7.5947C18.0168 7.40804 17.7662 7.3547 17.5795 7.47737L16.4115 8.2347V7.52004C16.6302 7.38137 16.8168 7.12004 16.8168 6.81604C16.8168 6.36804 16.4542 6.00537 16.0062 6.00537C15.5582 6.00537 15.1955 6.36804 15.1955 6.81604C15.1955 7.1147 15.3288 7.37604 15.6008 7.52004V8.2187L14.4275 7.42937C14.2408 7.3067 13.9902 7.3547 13.8622 7.54137C13.7342 7.72804 13.7875 7.9787 13.9742 8.1067L15.6008 9.20537V9.90404L14.4275 9.1147C14.2408 8.99204 13.9902 9.04004 13.8622 9.2267C13.7342 9.41337 13.7875 9.66404 13.9742 9.79204L15.6008 10.8907V12.2987L14.7315 12.8107L13.4995 12.1014L13.3982 10.1867C13.3875 9.9627 13.1955 9.79204 12.9715 9.8027C12.7475 9.81337 12.5768 10.0054 12.5875 10.2294L12.6568 11.6214L12.0435 11.264L11.9422 9.34937C11.9315 9.12537 11.7395 8.9547 11.5155 8.96537C11.2915 8.97604 11.1208 9.16804 11.1315 9.39204L11.2008 10.784L10.5822 10.4267C10.5822 10.144 10.4382 9.87204 10.1768 9.7227C10.0542 9.65337 9.9155 9.61604 9.7715 9.61604C9.4835 9.61604 9.2115 9.7707 9.0675 10.0214C8.8435 10.4107 8.97683 10.9067 9.36616 11.1307C9.48883 11.2 9.6275 11.2374 9.7715 11.2374C9.9155 11.2374 10.0542 11.2 10.1768 11.1307L10.7795 11.4774L9.51016 12.096C9.3075 12.192 9.2275 12.4374 9.3235 12.64C9.39283 12.784 9.53683 12.8694 9.68616 12.8694C9.74483 12.8694 9.80883 12.8587 9.86216 12.8267L11.6222 11.968L12.2248 12.3147L10.9555 12.9334C10.7528 13.0294 10.6728 13.2747 10.7688 13.4774C10.8382 13.6214 10.9822 13.7067 11.1315 13.7067C11.1902 13.7067 11.2542 13.696 11.3075 13.664L13.0675 12.8054L14.2995 13.52V14.5174L13.0622 15.232L11.3555 14.3574C11.1582 14.256 10.9128 14.336 10.8115 14.5334C10.7102 14.7307 10.7902 14.976 10.9875 15.0774L12.2248 15.712L11.6115 16.0694L9.90483 15.1947C9.7075 15.0934 9.46216 15.1734 9.36083 15.3707C9.2595 15.568 9.3395 15.8134 9.53683 15.9147L10.7742 16.5494L10.1555 16.9067C10.0328 16.8374 9.89416 16.8 9.75016 16.8C9.60616 16.8 9.4675 16.8374 9.34483 16.9067C8.9555 17.1307 8.82216 17.6267 9.04616 18.016C9.19016 18.2667 9.46216 18.4214 9.75016 18.4214C9.89416 18.4214 10.0328 18.384 10.1555 18.3147C10.3422 18.208 10.4755 18.032 10.5342 17.824C10.5502 17.7547 10.5608 17.6854 10.5608 17.616L11.1635 17.264L11.0622 18.672C11.0462 18.896 11.2168 19.088 11.4408 19.104C11.4515 19.104 11.4622 19.104 11.4675 19.104C11.6808 19.104 11.8568 18.9387 11.8728 18.7254L12.0115 16.768L12.6142 16.4214L12.5128 17.8294C12.4968 18.0534 12.6675 18.2454 12.8915 18.2614C12.9022 18.2614 12.9128 18.2614 12.9182 18.2614C13.1315 18.2614 13.3075 18.096 13.3235 17.8827L13.4622 15.9254L14.7048 15.2107L15.5795 15.7014V17.1307L13.9528 18.1867C13.7662 18.3094 13.7128 18.56 13.8355 18.7467C13.9582 18.9334 14.2088 18.9867 14.3955 18.864L15.5795 18.096V18.8054L13.9528 19.8614C13.7662 19.984 13.7128 20.2347 13.8355 20.4214C13.9582 20.608 14.2088 20.6614 14.3955 20.5387L15.5795 19.7707V20.4854C15.3075 20.624 15.1582 20.8907 15.1528 21.2C15.1528 21.648 15.5155 22.0107 15.9635 22.0107C16.4115 22.0107 16.7742 21.648 16.7742 21.2C16.7742 20.9814 16.6888 20.7787 16.5342 20.624C16.4862 20.576 16.4382 20.5387 16.3848 20.5067V19.808L17.5368 20.5867C17.6062 20.6347 17.6862 20.656 17.7662 20.656C17.8942 20.656 18.0222 20.592 18.1022 20.4747C18.2302 20.288 18.1768 20.0374 17.9955 19.9094L16.3902 18.8267V18.128L17.5422 18.9067C17.6115 18.9547 17.6915 18.976 17.7715 18.976C17.8995 18.976 18.0275 18.912 18.1075 18.7947C18.2355 18.608 18.1822 18.3574 18.0008 18.2294L16.3955 17.1467V15.68L17.2328 15.1894L18.4808 15.9094L18.5822 17.8454C18.5928 18.064 18.7742 18.2294 18.9875 18.2294C18.9928 18.2294 19.0035 18.2294 19.0088 18.2294C19.2328 18.2187 19.4035 18.0267 19.3928 17.8027L19.3182 16.3894L19.9315 16.7467L20.0328 18.6827C20.0435 18.9014 20.2248 19.0667 20.4382 19.0667C20.4435 19.0667 20.4542 19.0667 20.4595 19.0667C20.6835 19.056 20.8542 18.864 20.8435 18.64L20.7688 17.2267L21.3875 17.584C21.3822 17.872 21.5262 18.1547 21.7928 18.3094C21.9155 18.3787 22.0542 18.416 22.1982 18.416C22.4862 18.416 22.7582 18.2614 22.9022 18.0107C23.0088 17.824 23.0408 17.6054 22.9822 17.392C22.9288 17.184 22.7902 17.008 22.6035 16.9014H22.6248Z" fill="white"/>
</g>
</g>
<defs>
<filter id="filter0_d_9353_59429" x="0" y="0" width="34" height="37.5015" filterUnits="userSpaceOnUse" color-interpolation-filters="sRGB">
<feFlood flood-opacity="0" result="BackgroundImageFix"/>
<feColorMatrix in="SourceAlpha" type="matrix" values="0 0 0 0 0 0 0 0 0 0 0 0 0 0 0 0 0 0 127 0" result="hardAlpha"/>
<feOffset dx="2" dy="1.5"/>
<feComposite in2="hardAlpha" operator="out"/>
<feColorMatrix type="matrix" values="0 0 0 0 0 0 0 0 0 0 0 0 0 0 0 0 0 0 0.3 0"/>
<feBlend mode="normal" in2="BackgroundImageFix" result="effect1_dropShadow_9353_59429"/>
<feBlend mode="normal" in="SourceGraphic" in2="effect1_dropShadow_9353_59429" result="shape"/>
</filter>
</defs>
</svg>
