<svg width="122" height="38" viewBox="0 0 122 38" fill="none" xmlns="http://www.w3.org/2000/svg">
<g filter="url(#filter0_d_9353_58386)">
<rect width="36" height="36" rx="18" fill="white"/>
<path d="M18.92 18.88H24.12V14.04H18.92V18.88ZM11.8 18.88H16.98V14.04H11.8V18.88ZM18.92 12.22H26.06V21.78H24.12V20.7H18.92V27.06H16.98V20.7H11.8V21.88H9.94V12.22H16.98V8.74H18.92V12.22Z" fill="#B38607"/>
<rect x="28" width="36" height="36" rx="18" fill="white"/>
<path d="M44.78 21.34H39.84V24.44H44.78V21.34ZM38.08 26.98V19.66H46.62V26.84H44.78V26.06H39.84V26.98H38.08ZM47.02 11V12.66H37.58V11H41.54C41.34 10.38 41.06 9.66 40.8 9.08L42.48 8.6C42.86 9.36 43.26 10.3 43.48 11H47.02ZM44.38 12.66L46.22 13.08C45.78 14.18 45.28 15.38 44.84 16.34H47.48V18.02H37.04V16.34H39.86C39.68 15.46 39.2 14.14 38.72 13.14L40.32 12.72C40.88 13.72 41.36 15.04 41.56 15.92L40.1 16.34H43.06C43.56 15.28 44.1 13.76 44.38 12.66ZM53.74 9.64L55.04 10.46C54.34 12.32 53.46 14.6 52.66 16.4C54.36 18.22 54.74 19.78 54.74 21.1C54.74 22.38 54.46 23.34 53.78 23.82C53.44 24.06 53 24.2 52.54 24.26C52.06 24.32 51.46 24.32 50.88 24.3C50.86 23.82 50.7 23.04 50.42 22.54C50.94 22.6 51.42 22.6 51.76 22.6C52.06 22.58 52.34 22.52 52.54 22.4C52.92 22.16 53.04 21.6 53.04 20.92C53.04 19.74 52.56 18.32 50.9 16.62C51.56 15.02 52.3 12.94 52.78 11.4H50.02V27H48.38V9.72H53.46L53.74 9.64Z" fill="#B38607"/>
<rect x="56" width="36" height="36" rx="18" fill="white"/>
<path d="M69.1 20.22L71.08 19.38L71.52 21.02C69.42 22.02 67.18 23.06 65.44 23.84L64.7 21.98C65.42 21.72 66.34 21.36 67.36 20.94V15.18H65.08V13.42H67.36V8.98H69.1V13.42H71.12V15.18H69.1V20.22ZM75.8 25H80.18C81.28 25 81.48 24.5 81.64 22.32C82.06 22.6 82.78 22.9 83.28 23C83.02 25.76 82.46 26.66 80.3 26.66H75.7C73.24 26.66 72.54 26.04 72.54 23.64V17.86L71.16 18.46L70.46 16.8L72.54 15.92V10.62H74.3V15.18L76.54 14.24V8.74H78.28V13.5L80.96 12.36L82.34 12.82L82.26 13.12C82.1 15.9 81.8 19.56 81.3 21.84L79.78 21.42C80.08 19.7 80.3 16.92 80.4 14.48L78.28 15.4V22.58H76.54V16.14L74.3 17.1V23.66C74.3 24.78 74.52 25 75.8 25Z" fill="#B38607"/>
<rect x="84" width="36" height="36" rx="18" fill="white"/>
<path d="M98.66 24.52H107.28C108.44 24.52 109.98 24.44 110.74 24.28C110.8 24.76 110.92 25.62 111.02 26.04C110.4 26.2 108.78 26.24 107.22 26.24H98.84C95.58 26.24 94.06 25.22 94.06 22V11.2H93.26V9.56H110.04V11.2H95.88V22.14C95.88 23.84 96.56 24.52 98.66 24.52ZM105 15.6V13.6H101V15.6H105ZM106.84 12.34V16.88H99.28V12.34H106.84ZM98.68 19.34V21.92H100.86V19.34H98.68ZM97.16 23.24V18.02H102.46V23.24H97.16ZM107.48 21.92V19.34H105.18V21.92H107.48ZM109.1 18.02V23.24H103.64V18.02H109.1Z" fill="#B38607"/>
</g>
<defs>
<filter id="filter0_d_9353_58386" x="0" y="0" width="122" height="37.5" filterUnits="userSpaceOnUse" color-interpolation-filters="sRGB">
<feFlood flood-opacity="0" result="BackgroundImageFix"/>
<feColorMatrix in="SourceAlpha" type="matrix" values="0 0 0 0 0 0 0 0 0 0 0 0 0 0 0 0 0 0 127 0" result="hardAlpha"/>
<feOffset dx="2" dy="1.5"/>
<feComposite in2="hardAlpha" operator="out"/>
<feColorMatrix type="matrix" values="0 0 0 0 0 0 0 0 0 0 0 0 0 0 0 0 0 0 0.3 0"/>
<feBlend mode="normal" in2="BackgroundImageFix" result="effect1_dropShadow_9353_58386"/>
<feBlend mode="normal" in="SourceGraphic" in2="effect1_dropShadow_9353_58386" result="shape"/>
</filter>
</defs>
</svg>
