<svg width="603" height="178" viewBox="0 0 603 178" fill="none" xmlns="http://www.w3.org/2000/svg">
<g filter="url(#filter0_d_9356_70482)">
<path d="M144.854 129.835L136.121 124.292C141.331 115.708 146.127 106.524 150.508 96.7401L158.212 102.372C154.149 111.637 149.701 120.792 144.854 129.835ZM150.693 90.4274C149.427 89.0657 147.511 87.5264 144.957 85.8243C142.508 84.2332 140.051 82.8714 137.572 81.7318L143.64 74.2276C149.879 76.84 154.415 79.519 157.235 82.2424L150.693 90.4274ZM156.184 68.0851C154.859 66.6642 152.928 65.0879 150.375 63.3488C147.821 61.6171 145.335 60.1813 142.915 59.0417L149.242 51.6263C155.311 54.2979 159.862 57.0879 162.896 59.9815L156.184 68.0851ZM185.579 130.516C185.675 127.504 185.046 124.744 183.684 122.242C186.911 122.472 189.805 122.583 192.358 122.583C193.779 122.583 194.859 122.131 195.607 121.221C196.11 120.54 196.539 119.689 196.894 118.661H171.222L170.245 122.842L160.573 122.072C162.363 115.197 164.021 108.226 165.538 101.173H158.204L158.848 92.0481H167.374C168.247 87.7262 169.076 83.1527 169.875 78.3201C169.128 79.2304 168.017 80.4811 166.545 82.0722C165.753 81.2211 164.487 80.1924 162.756 79.001C161.076 77.8095 159.633 76.8992 158.426 76.2702C161.586 73.3691 164.547 69.6171 167.322 65.0139C169.905 60.6328 172.051 55.9704 173.76 51.0269L183.596 53.0768C182.611 55.7484 181.583 58.2794 180.502 60.6698H217.601L216.965 69.7133H175.773C174.611 71.6448 173.375 73.5245 172.051 75.3451H212.561C212.465 76.7068 212.339 78.0759 212.191 79.4376C211.577 84.951 211.081 89.1619 210.711 92.0629H217.194L216.55 101.188H209.557C209.261 103.808 208.824 106.79 208.247 110.142H214.981L214.382 118.668H206.537C205.649 122.42 204.613 125.01 203.437 126.431C201.69 128.651 199.322 129.924 196.347 130.272C194.156 130.672 190.567 130.753 185.579 130.531V130.516ZM173.109 110.135H181.124C181.561 107.974 182.108 104.992 182.774 101.18H174.93C174.848 101.469 174.767 101.891 174.671 102.461C173.916 105.932 173.398 108.492 173.109 110.135ZM176.676 92.0481H184.351C184.476 91.0787 184.691 89.6578 184.994 87.7854C185.224 86.0833 185.401 84.803 185.52 83.9445H178.186L176.676 92.0481ZM189.827 110.135H198.87C199.329 107.634 199.795 104.651 200.269 101.18H191.485C190.819 104.992 190.271 107.974 189.834 110.135H189.827ZM192.972 92.0481H201.416C201.468 91.3081 201.601 90.1684 201.823 88.6365C202.023 86.5865 202.193 85.025 202.326 83.9445H194.223C193.986 85.7059 193.572 88.4071 192.972 92.0481Z" fill="white"/>
<path d="M144.272 130.752C144.527 130.914 144.837 130.962 145.129 130.885C145.421 130.809 145.668 130.614 145.811 130.348C150.671 121.28 155.132 112.099 159.206 102.808C159.284 102.63 159.311 102.441 159.291 102.259H164.193C162.757 108.848 161.198 115.366 159.522 121.799C159.441 122.109 159.502 122.44 159.688 122.701C159.874 122.963 160.166 123.129 160.486 123.154L170.159 123.924C170.694 123.967 171.18 123.612 171.302 123.089L172.083 119.746H195.252C195.093 120.046 194.925 120.314 194.751 120.553C194.253 121.146 193.516 121.497 192.358 121.497C189.835 121.497 186.968 121.388 183.761 121.16C183.366 121.131 182.986 121.321 182.771 121.655C182.557 121.989 182.541 122.413 182.731 122.761C183.994 125.082 184.584 127.65 184.494 130.482C184.494 130.493 184.493 130.505 184.493 130.516V130.531C184.493 131.112 184.951 131.59 185.531 131.616C190.499 131.837 194.184 131.764 196.507 131.346C199.726 130.962 202.35 129.562 204.281 127.113C205.523 125.607 206.538 123.101 207.389 119.754H214.382C214.952 119.754 215.425 119.313 215.465 118.744L216.064 110.219C216.085 109.918 215.981 109.623 215.776 109.402C215.57 109.182 215.283 109.057 214.981 109.057H209.532C209.941 106.591 210.272 104.33 210.522 102.273H216.55C217.12 102.273 217.593 101.833 217.633 101.264L218.277 92.1393C218.298 91.8389 218.194 91.5432 217.988 91.3228C217.783 91.1025 217.495 90.9773 217.194 90.9773H211.942C212.293 88.1527 212.737 84.3441 213.27 79.5578L213.271 79.5549C213.42 78.1813 213.547 76.7985 213.644 75.4216C213.666 75.1211 213.561 74.8254 213.356 74.605C213.15 74.3846 212.863 74.2595 212.561 74.2595H174.146C174.922 73.1255 175.668 71.9714 176.385 70.7988H216.965C217.535 70.7988 218.008 70.358 218.048 69.7895L218.684 60.746C218.705 60.4456 218.601 60.1499 218.395 59.9296C218.19 59.7093 217.902 59.5842 217.601 59.5842H182.169C183.016 57.6266 183.829 55.5825 184.614 53.4521C184.723 53.1558 184.698 52.8267 184.545 52.5505C184.392 52.2743 184.126 52.0785 183.817 52.0141L173.982 49.9641C173.447 49.8527 172.913 50.1558 172.734 50.6721C171.048 55.5475 168.933 60.1422 166.389 64.4579C163.655 68.9925 160.758 72.656 157.692 75.4704C157.432 75.7098 157.304 76.0611 157.35 76.412C157.396 76.7628 157.611 77.0691 157.924 77.2327C159.071 77.8306 160.47 78.7106 162.128 79.8864L162.14 79.8953C163.849 81.0706 165.038 82.0467 165.75 82.8117C165.956 83.0328 166.244 83.1582 166.546 83.1578C166.848 83.1574 167.136 83.0312 167.341 82.8096C167.629 82.4987 167.904 82.2002 168.165 81.9142C167.621 85.0454 167.062 88.0608 166.484 90.9625H158.848C158.278 90.9625 157.805 91.4032 157.765 91.9717L157.18 100.273L151.148 95.8637C150.884 95.6703 150.546 95.6068 150.229 95.6908C149.913 95.7748 149.651 95.9974 149.517 96.2964C145.153 106.042 140.378 115.185 135.193 123.729C134.886 124.234 135.04 124.892 135.539 125.209L144.272 130.752ZM149.898 91.1664C150.113 91.3978 150.418 91.524 150.733 91.5123C151.049 91.5005 151.344 91.3519 151.541 91.1052L158.083 82.9202C158.433 82.4826 158.392 81.8507 157.989 81.4616C155.027 78.6006 150.346 75.8589 144.059 73.2263C143.614 73.0398 143.099 73.1697 142.796 73.545L136.727 81.0491C136.517 81.3097 136.438 81.6529 136.515 81.9792C136.591 82.3055 136.814 82.5782 137.118 82.7181C139.544 83.8335 141.954 85.1681 144.361 86.7311C146.879 88.4107 148.716 89.8946 149.898 91.1664ZM155.39 68.8254C155.603 69.0538 155.904 69.1794 156.216 69.1703C156.528 69.1611 156.821 69.0181 157.02 68.7776L163.732 60.674C164.096 60.235 164.058 59.5894 163.646 59.1959C160.483 56.1804 155.805 53.3295 149.68 50.6327C149.241 50.4396 148.728 50.557 148.416 50.9216L142.089 58.337C141.869 58.5944 141.782 58.9395 141.854 59.2702C141.925 59.601 142.146 59.8796 142.452 60.0238C144.814 61.136 147.251 62.5421 149.764 64.2466C152.284 65.963 154.142 67.4873 155.39 68.8254ZM175.731 102.691C175.735 102.675 175.738 102.658 175.741 102.641C175.764 102.505 175.786 102.38 175.806 102.266H181.481C180.998 105.004 180.583 107.264 180.233 109.05H174.413C174.714 107.475 175.152 105.356 175.731 102.691ZM197.963 109.05H191.155C191.508 107.229 191.921 104.969 192.396 102.266H199.023C198.664 104.812 198.311 107.072 197.963 109.05ZM183.92 87.6261C183.704 88.964 183.531 90.0769 183.404 90.9625H177.983L179.088 85.0301H184.274C184.176 85.7448 184.057 86.6102 183.92 87.6261ZM200.745 88.5059C200.605 89.4728 200.499 90.2935 200.426 90.9625H194.25C194.65 88.5038 194.955 86.5256 195.168 85.0301H201.106C201 85.9723 200.879 87.1303 200.745 88.5059Z" stroke="#B38607" stroke-width="2.17118" stroke-linejoin="round"/>
</g>
<g filter="url(#filter1_d_9356_70482)">
<path d="M281.103 130.516L283.626 94.6087C280.215 90.5754 277.07 85.9945 274.183 80.8733C270.224 92.6994 265.051 102.823 258.664 111.238C252.47 119.312 245.351 125.536 237.314 129.917C236.544 128.777 235.367 127.43 233.806 125.869C232.237 124.307 230.883 123.123 229.75 122.331C239.586 117.439 247.808 110.076 254.416 100.241C251.39 97.2285 247.349 93.9871 242.309 90.5162C240.999 92.1665 239.43 93.8391 237.61 95.5486C235.012 92.877 232.348 90.716 229.617 89.0657C234.457 84.914 238.883 79.4302 242.886 72.6069C246.698 66.124 249.843 58.9306 252.337 51.0269L262.261 52.988C261.033 56.6883 259.737 60.1517 258.376 63.3932H270.231L272.045 63.0528L278.535 65.3543C277.958 67.9149 277.358 70.3867 276.737 72.7771L279.978 71.5856C281.31 74.4866 282.879 77.2174 284.692 79.7706L286.668 51.1971H297.243L294.453 90.9454C299.626 95.778 305.303 99.5893 311.475 102.372C308.759 104.592 306.08 107.545 303.43 111.245C300.144 109.425 296.836 107.182 293.499 104.511L291.671 130.524H281.095L281.103 130.516ZM259.641 91.1971C262.291 85.8539 264.533 79.8002 266.376 73.0287H253.839C252.189 76.3294 250.25 79.6226 248.03 82.9232C252.337 85.543 256.207 88.2961 259.649 91.1971H259.641Z" fill="white"/>
<path d="M292.754 130.6L294.439 106.622C297.273 108.78 300.093 110.637 302.904 112.195C303.386 112.462 303.992 112.325 304.313 111.877C306.922 108.233 309.538 105.357 312.162 103.212C312.453 102.975 312.6 102.603 312.551 102.23C312.502 101.858 312.264 101.537 311.921 101.382C306.012 98.7182 300.561 95.0918 295.573 90.5028L298.326 51.2731C298.347 50.9727 298.243 50.6771 298.038 50.4568C297.832 50.2365 297.545 50.1115 297.243 50.1115H286.668C286.098 50.1115 285.624 50.553 285.585 51.1222L283.83 76.501C282.775 74.7857 281.82 72.9957 280.965 71.1326C280.728 70.6176 280.135 70.3712 279.603 70.5667L278.298 71.0464C278.742 69.2731 279.174 67.4563 279.594 65.5931C279.715 65.0568 279.416 64.5149 278.898 64.3312L272.407 62.0296C272.227 61.9656 272.033 61.9505 271.844 61.9858L270.13 62.3076H259.998C261.145 59.4781 262.243 56.4884 263.291 53.3301C263.39 53.0343 263.356 52.7107 263.199 52.4415C263.042 52.1723 262.777 51.9834 262.471 51.923L252.547 49.9619C252.005 49.8546 251.468 50.1726 251.302 50.7002C248.83 58.5344 245.716 65.6516 241.951 72.0567L241.95 72.0575C237.993 78.8006 233.641 84.1841 228.91 88.2417C228.646 88.4685 228.507 88.8083 228.535 89.1554C228.564 89.5025 228.758 89.8147 229.056 89.9948C231.695 91.59 234.288 93.6894 236.831 96.3054C237.244 96.73 237.921 96.7454 238.353 96.34C239.917 94.8711 241.307 93.421 242.515 91.9805C246.793 94.9709 250.29 97.7714 253.007 100.381C246.584 109.699 238.671 116.682 229.267 121.359C228.924 121.53 228.696 121.869 228.668 122.251C228.639 122.633 228.814 123.001 229.128 123.221C230.187 123.961 231.491 125.096 233.039 126.637C234.58 128.178 235.701 129.469 236.414 130.524C236.727 130.988 237.342 131.138 237.833 130.87C246.017 126.409 253.249 120.08 259.526 111.899L259.529 111.894C265.587 103.913 270.552 94.4335 274.435 83.4755C276.937 87.686 279.628 91.5201 282.513 94.971L280.028 130.326C279.991 130.528 280.01 130.741 280.092 130.939C280.26 131.344 280.656 131.609 281.095 131.609H291.671C292.241 131.609 292.714 131.168 292.754 130.6ZM259.27 89.4742C256.324 87.0768 253.087 84.7844 249.556 82.5878C251.41 79.766 253.062 76.9445 254.507 74.1143H264.947C263.341 79.7626 261.449 84.8797 259.27 89.4742Z" stroke="#B38607" stroke-width="2.17118" stroke-linejoin="round"/>
</g>
<g filter="url(#filter2_d_9356_70482)">
<path d="M362.857 131.027C362.487 129.836 361.754 128.267 360.674 126.335C359.586 124.404 358.594 122.894 357.706 121.813C365.736 118.343 372.196 113.488 377.066 107.227C375.134 102.335 373.602 96.5627 372.485 89.9096C370.953 92.2408 369.51 94.2019 368.148 95.793C366.949 94.2611 365.195 92.522 362.886 90.5904C358.764 95.0826 354.509 98.9753 350.128 102.276L350.009 103.985C352.355 103.815 355.871 103.534 360.563 103.134C362.79 102.964 364.448 102.824 365.536 102.705L364.921 111.401C361.71 111.741 356.907 112.17 350.505 112.681C349.987 112.74 349.617 112.763 349.388 112.763L348.803 121.118C348.648 123.39 348.27 125.099 347.678 126.232C347.02 127.541 345.924 128.533 344.4 129.214C342.172 130.183 338.043 130.664 332.019 130.664C331.76 127.874 330.997 125.003 329.724 122.05C333.75 122.161 336.422 122.161 337.739 122.05C338.709 122.05 339.219 121.651 339.271 120.859L339.782 113.606C336.925 113.836 332.884 114.206 327.682 114.716C325.847 114.886 324.507 115.005 323.649 115.057L323.256 106.013C329.939 105.562 335.652 105.133 340.403 104.733L340.87 98.0798H344.2C345.946 96.6589 347.523 95.238 348.936 93.8171H342.883C338.309 97.399 333.684 100.47 329.014 103.031C327.275 100.248 325.18 97.658 322.738 95.2676C325.676 93.9059 328.785 92.1668 332.056 90.065L332.344 85.9725H337.806C338.945 85.0622 340.611 83.6413 342.794 81.7098H325.654L326.268 73.0067H338.723L339.123 67.2935H329.488L330.087 58.7681H339.723L340.27 51.0049H349.736L349.188 58.7681H357.462L357.055 64.5701C359.23 61.1584 361.288 57.3176 363.234 53.0548L372.433 55.6968C369.628 61.6691 366.261 67.4415 362.346 73.0141H367.719L367.312 78.8162C371.367 71.312 374.631 62.0465 377.11 51.0123L387.323 52.5442C386.124 57.436 384.777 62.0983 383.275 66.5312H405.965L405.306 75.9151H400.274C397.551 88.7625 393.739 99.3453 388.833 107.641C392.474 114.065 397.173 118.816 402.931 121.887C401.717 122.909 400.37 124.285 398.89 126.024C397.402 127.756 396.211 129.332 395.316 130.761C389.861 127.408 385.384 122.827 381.869 117.033C376.755 122.664 370.427 127.327 362.894 131.02L362.857 131.027ZM348.167 73.0289H350.979C352.6 70.979 354.013 69.077 355.219 67.3157H348.566L348.167 73.0289ZM361.11 87.8744C362.716 86.0539 364.226 84.0114 365.639 81.732H355.493C353.769 83.6635 352.444 85.0844 351.526 85.9947H356.47L358.298 85.4841L361.118 87.8744H361.11ZM383.837 95.8078C386.272 90.2352 388.248 83.6117 389.75 75.9373H380.026C380.766 83.2195 382.039 89.843 383.837 95.8078Z" fill="white"/>
<path d="M361.82 131.349C361.985 131.88 362.524 132.201 363.07 132.092L363.107 132.084C363.198 132.066 363.287 132.036 363.372 131.994C370.547 128.477 376.663 124.083 381.7 118.807C385.179 124.172 389.524 128.475 394.747 131.686C395.255 131.997 395.919 131.842 396.235 131.337C397.094 129.968 398.249 128.436 399.714 126.732L399.717 126.728C401.173 125.017 402.477 123.688 403.63 122.718C403.905 122.486 404.048 122.132 404.01 121.774C403.973 121.415 403.76 121.099 403.442 120.93C398.05 118.053 393.595 113.639 390.088 107.646C394.807 99.4941 398.485 89.2629 401.151 77.0007H405.306C405.876 77.0007 406.349 76.5598 406.389 75.9912L407.048 66.6073C407.069 66.3069 406.964 66.0112 406.759 65.791C406.554 65.5707 406.266 65.4457 405.965 65.4457H384.781C386.103 61.4127 387.3 57.1982 388.377 52.8026C388.45 52.5062 388.395 52.193 388.225 51.9395C388.055 51.6861 387.786 51.5159 387.484 51.4706L377.271 49.9387C376.708 49.8543 376.176 50.2189 376.051 50.7743C374.106 59.4307 371.681 66.9648 368.781 73.391L368.802 73.0901C368.823 72.7897 368.718 72.4941 368.513 72.2739C368.308 72.0536 368.02 71.9285 367.719 71.9285H364.414C367.865 66.8374 370.869 61.5806 373.416 56.1583C373.551 55.8705 373.553 55.5378 373.422 55.2482C373.29 54.9586 373.038 54.7412 372.733 54.6534L363.534 52.0114C363.017 51.8631 362.47 52.115 362.247 52.6039C361.026 55.2782 359.762 57.7805 358.456 60.1098L358.545 58.844C358.566 58.5437 358.461 58.248 358.256 58.0278C358.05 57.8075 357.763 57.6825 357.462 57.6825H350.353L350.818 51.0813C350.84 50.7808 350.735 50.4851 350.53 50.2648C350.324 50.0444 350.037 49.9193 349.736 49.9193H340.27C339.7 49.9193 339.227 50.36 339.187 50.9285L338.711 57.6825H330.087C329.517 57.6825 329.044 58.1233 329.004 58.6919L328.405 67.2174C328.384 67.5178 328.488 67.8134 328.694 68.0337C328.899 68.254 329.186 68.3791 329.488 68.3791H337.959L337.711 71.9211H326.268C325.698 71.9211 325.226 72.3618 325.185 72.9303L324.571 81.6334C324.55 81.9338 324.655 82.2295 324.86 82.4499C325.065 82.6702 325.353 82.7954 325.654 82.7954H339.905C338.917 83.6499 338.089 84.3466 337.423 84.8869H332.344C331.774 84.8869 331.301 85.3276 331.261 85.8961L331.011 89.444C327.942 91.3933 325.03 93.009 322.282 94.2827C321.958 94.4326 321.729 94.732 321.668 95.0836C321.608 95.4351 321.724 95.7939 321.979 96.0434C324.362 98.3762 326.402 100.9 328.093 103.606C328.398 104.094 329.031 104.259 329.536 103.983C334.161 101.447 338.736 98.4193 343.256 94.9027H346.23C345.466 95.5989 344.661 96.2961 343.812 96.9942H340.87C340.3 96.9942 339.827 97.4352 339.787 98.0039L339.386 103.728C334.831 104.105 329.432 104.508 323.183 104.93C322.595 104.97 322.146 105.471 322.172 106.06L322.564 115.104C322.577 115.395 322.705 115.668 322.922 115.863C323.138 116.058 323.423 116.158 323.714 116.14C324.593 116.087 325.951 115.967 327.782 115.797L327.788 115.797C332.264 115.357 335.875 115.023 338.61 114.792L338.188 120.782L338.188 120.788C338.184 120.848 338.175 120.884 338.17 120.902C338.133 120.919 338.013 120.965 337.739 120.965C337.709 120.965 337.678 120.966 337.648 120.968C336.402 121.074 333.791 121.076 329.754 120.965C329.384 120.955 329.034 121.134 328.826 121.441C328.618 121.748 328.581 122.14 328.727 122.48C329.961 125.342 330.691 128.103 330.938 130.765C330.989 131.323 331.458 131.75 332.019 131.75C338.033 131.75 342.374 131.279 344.833 130.209L344.842 130.205C346.556 129.44 347.856 128.289 348.644 126.727C349.338 125.396 349.727 123.512 349.886 121.193C349.886 121.193 349.886 121.192 349.886 121.192L350.404 113.784C350.471 113.777 350.539 113.77 350.61 113.762C357.005 113.252 361.813 112.822 365.036 112.48C365.559 112.425 365.967 112.002 366.004 111.477L366.619 102.782C366.641 102.461 366.52 102.146 366.289 101.923C366.057 101.7 365.738 101.591 365.418 101.626C364.349 101.742 362.707 101.882 360.48 102.052L360.48 102.052L360.47 102.053C356.577 102.384 353.497 102.634 351.224 102.807C355.255 99.7278 359.174 96.1571 362.975 92.0917C364.86 93.7243 366.293 95.1843 367.293 96.4621C367.494 96.7184 367.799 96.8712 368.124 96.8784C368.45 96.8855 368.761 96.7462 368.973 96.4989C369.911 95.4023 370.882 94.1416 371.886 92.7195C372.912 98.0866 374.228 102.863 375.829 107.042C371.129 112.912 364.948 117.5 357.275 120.817C356.962 120.952 356.731 121.227 356.651 121.558C356.571 121.889 356.651 122.239 356.867 122.503C357.699 123.514 358.655 124.963 359.726 126.866C360.794 128.775 361.484 130.266 361.82 131.349ZM363.643 82.8176C362.791 84.0754 361.907 85.2501 360.992 86.3451L359 84.656C358.725 84.4231 358.353 84.3416 358.006 84.4385L356.321 84.9091H354.073C354.64 84.2995 355.275 83.6021 355.979 82.8176H363.643ZM353.127 68.4013C352.315 69.5255 351.423 70.7055 350.452 71.9433H349.331L349.579 68.4013H353.127ZM381.233 77.0229H388.425C387.232 82.8132 385.763 87.9636 384.028 92.4797C382.783 87.7306 381.849 82.579 381.233 77.0229Z" stroke="#B38607" stroke-width="2.17118" stroke-linejoin="round"/>
</g>
<g filter="url(#filter3_d_9356_70482)">
<path d="M441.35 130.686C441.024 128.074 440.143 125.225 438.708 122.161C441.483 122.272 445.006 122.331 449.268 122.331C450.467 122.272 451.096 121.791 451.163 120.881L451.577 114.997H419.422L419.977 107.064H452.132L452.406 103.142H457.527C459.363 102.12 461.205 100.951 463.063 99.6411H435.6L436.095 92.5662H472.343L474.512 92.0555L479.781 97.1767C475.34 100.529 470.19 103.83 464.328 107.071H494.264L493.709 115.005H461.472L461.035 121.229C460.865 123.619 460.428 125.41 459.718 126.601C459.007 127.793 457.779 128.703 456.032 129.332C454.397 129.954 452.295 130.353 449.72 130.524C448.121 130.635 445.331 130.694 441.35 130.694V130.686ZM420.547 99.0416L421.775 81.5541H428.34L428.599 54.7715L434.068 55.8816C437.494 54.8011 441.468 53.2914 445.982 51.3599L450.282 56.9029C446.937 58.4348 442.83 59.8335 437.96 61.0842L437.908 63.0453H449.165L448.721 69.358H437.805L437.775 72.259H448.78L448.484 76.4403C450.6 75.4191 452.643 74.309 454.604 73.1175C453.842 72.6069 452.695 71.8964 451.17 70.9861C450.734 70.7049 450.408 70.5051 450.186 70.3867L455.144 66.5458C456.676 67.3451 458.267 68.2479 459.903 69.2766C461.294 68.0851 462.426 66.9158 463.307 65.7761L469.738 67.7373C468.295 69.617 466.734 71.26 465.039 72.6809C466.822 74.0426 468.266 75.2711 469.39 76.3515L463.973 80.6143C463.13 79.6448 461.768 78.3941 459.888 76.8622C457.616 78.4533 455.122 79.9926 452.399 81.4653C451.074 80.0444 449.742 78.8233 448.388 77.7946L448.336 78.5643H437.672L437.635 81.5467H480.195L480.661 78.5643H470.515L470.959 72.2516H481.705L482.075 69.3506H471.411L471.855 63.0379H482.941L483.318 60.1369H471.722L472.173 53.7428H493.664C492.354 65.1175 491.052 74.383 489.749 81.5467H496.232L495.004 99.0342H484.939L485.649 88.8881H430.893L430.182 99.0342H420.547V99.0416ZM453.442 66.5532C451.97 64.8437 450.29 63.3118 448.395 61.9501C450.904 60.9806 453.205 59.8483 455.285 58.5384C453.982 57.6873 452.532 56.8363 450.941 55.9778L455.907 52.0555C457.446 52.8548 459.03 53.7576 460.665 54.7863C461.871 53.765 462.945 52.6846 463.877 51.5449L470.308 53.506C468.939 55.2082 467.407 56.7771 465.712 58.198C467.488 59.6189 468.776 60.6994 469.575 61.4394L464.41 65.7909C463.618 64.9399 462.33 63.7706 460.562 62.2905C458.06 63.9408 455.685 65.3617 453.442 66.5532Z" fill="white"/>
<path d="M438.751 121.076C438.372 121.061 438.013 121.245 437.803 121.56C437.594 121.876 437.564 122.278 437.725 122.622C439.118 125.594 439.956 128.32 440.268 130.783C440.313 131.341 440.78 131.779 441.35 131.779C445.33 131.779 448.153 131.72 449.793 131.607C452.427 131.433 454.641 131.021 456.409 130.35C458.308 129.665 459.775 128.626 460.65 127.157C461.49 125.749 461.944 123.757 462.118 121.306L462.118 121.304L462.484 116.09H493.709C494.279 116.09 494.752 115.649 494.792 115.08L495.347 107.147C495.368 106.847 495.263 106.551 495.058 106.331C494.852 106.111 494.565 105.986 494.264 105.986H468.429C472.874 103.378 476.877 100.73 480.435 98.0431C480.688 97.8522 480.845 97.5604 480.864 97.2442C480.884 96.928 480.765 96.619 480.537 96.3982L475.268 91.277C475.003 91.0188 474.623 90.9139 474.263 90.9988L472.217 91.4806H436.095C435.525 91.4806 435.052 91.9216 435.012 92.4903L434.517 99.5652C434.496 99.8656 434.6 100.161 434.805 100.381C435.011 100.602 435.298 100.727 435.6 100.727H459.477C458.73 101.195 457.986 101.638 457.244 102.056H452.406C451.836 102.056 451.363 102.497 451.323 103.066L451.12 105.978H419.977C419.407 105.978 418.934 106.419 418.894 106.988L418.339 114.921C418.318 115.222 418.423 115.517 418.628 115.738C418.833 115.958 419.121 116.083 419.422 116.083H450.413L450.08 120.801C450.08 120.802 450.08 120.802 450.08 120.802C450.066 120.998 450.012 121.039 449.981 121.063L449.98 121.063C449.91 121.117 449.708 121.219 449.24 121.246C444.999 121.245 441.501 121.186 438.751 121.076ZM419.461 99.0416C419.461 99.6264 419.924 100.106 420.509 100.127C420.565 100.129 420.62 100.126 420.674 100.12H430.182C430.752 100.12 431.225 99.6788 431.265 99.1101L431.905 89.9737H484.485L483.856 98.9584C483.835 99.2588 483.94 99.5544 484.145 99.7746C484.35 99.9948 484.638 100.12 484.939 100.12H495.004C495.574 100.12 496.047 99.679 496.087 99.1103L497.315 81.6228C497.336 81.3224 497.232 81.0268 497.026 80.8065C496.821 80.5862 496.533 80.4611 496.232 80.4611H491.046C492.278 73.4543 493.508 64.5895 494.743 53.867C494.778 53.5595 494.681 53.2515 494.475 53.0205C494.269 52.7894 493.974 52.6573 493.664 52.6573H472.173C471.822 52.6573 471.508 52.8244 471.309 53.0855C471.185 52.7899 470.935 52.5623 470.625 52.4676L464.194 50.5065C463.773 50.3781 463.316 50.5167 463.037 50.8574C462.304 51.7531 461.477 52.6144 460.557 53.4409C459.138 52.5708 457.756 51.7926 456.407 51.0921C456.028 50.8953 455.569 50.939 455.234 51.2036L450.274 55.1211L446.84 50.6945C446.538 50.3042 446.01 50.1675 445.555 50.3618C441.18 52.2339 437.33 53.7012 434.008 54.7617L428.815 53.7076C428.497 53.6432 428.167 53.7239 427.916 53.9277C427.664 54.1315 427.516 54.4371 427.513 54.761L427.264 80.4685H421.775C421.205 80.4685 420.732 80.9094 420.692 81.4781L419.467 98.9221C419.463 98.959 419.461 98.9964 419.461 99.0342V99.0416ZM471.722 61.2225H482.082L481.987 61.9523H471.855C471.285 61.9523 470.812 62.3932 470.772 62.9618L470.491 66.9551C470.37 66.8382 470.221 66.7495 470.055 66.6989L466.356 65.5709L470.275 62.2697C470.513 62.0691 470.653 61.7761 470.661 61.4649C470.668 61.1537 470.541 60.8543 470.313 60.6429C469.649 60.0283 468.676 59.2009 467.402 58.1655C468.719 56.9735 469.933 55.6901 471.044 54.3227L470.639 60.0605C470.618 60.3609 470.722 60.6567 470.927 60.877C471.133 61.0974 471.42 61.2225 471.722 61.2225ZM466.742 72.6306C468.029 71.4505 469.235 70.1404 470.369 68.6958L470.328 69.2744C470.307 69.5748 470.411 69.8705 470.617 70.0908C470.822 70.3111 471.11 70.4362 471.411 70.4362H480.842L480.749 71.166H470.959C470.389 71.166 469.916 71.6069 469.876 72.1755L469.669 75.1225C468.837 74.3521 467.863 73.52 466.742 72.6306ZM470.515 79.6499H479.393L479.266 80.4611H465.923L469.491 77.6537L469.432 78.4881C469.411 78.7885 469.516 79.0842 469.721 79.3045C469.927 79.5248 470.214 79.6499 470.515 79.6499ZM451.254 57.3868C451.933 57.7642 452.583 58.1395 453.202 58.5133C451.595 59.4133 449.861 60.2197 448.004 60.9374C447.632 61.0811 447.369 61.417 447.318 61.8123C447.312 61.8616 447.309 61.9109 447.309 61.9598H439.023L439.024 61.9288C443.593 60.7196 447.5 59.3709 450.734 57.8899C450.962 57.7856 451.144 57.6069 451.254 57.3868ZM448.336 79.6499C448.51 79.6499 448.675 79.6087 448.822 79.5352C449.17 79.8296 449.517 80.1382 449.864 80.4611H438.734L438.744 79.6499H448.336ZM459.791 67.9296C458.688 67.254 457.607 66.6342 456.551 66.0635C457.825 65.322 459.135 64.5146 460.48 63.6415C461.193 64.2477 461.808 64.7896 462.327 65.2675C461.646 66.1266 460.804 67.0157 459.791 67.9296ZM450.614 71.9182C451.343 72.3539 451.982 72.7413 452.531 73.081C451.605 73.6124 450.661 74.1258 449.701 74.6204L449.863 72.3357C449.884 72.0352 449.78 71.7394 449.574 71.519C449.369 71.2986 449.081 71.1734 448.78 71.1734H438.872L438.879 70.4436H448.721C448.854 70.4436 448.982 70.4195 449.1 70.3752C449.1 70.4095 449.101 70.4439 449.104 70.4784C449.135 70.8452 449.35 71.1713 449.675 71.3446C449.854 71.4399 450.146 71.6178 450.582 71.8988C450.593 71.9055 450.603 71.9119 450.614 71.9182ZM449.813 69.3025L450.134 64.7328C450.997 65.5032 451.802 66.3192 452.551 67.1818L449.813 69.3025ZM462.335 80.4611H456.343C457.556 79.7284 458.718 78.9814 459.831 78.2216C460.858 79.0777 461.69 79.8235 462.335 80.4611Z" stroke="#B38607" stroke-width="2.17118" stroke-linejoin="round"/>
</g>
<path d="M1 144.852C10.9991 127.712 34.2194 114.022 46.7727 109.365C59.326 104.708 85.2285 94.6895 127.729 96.6895" stroke="#366197" stroke-width="2.21146" stroke-dasharray="6.63 6.63"/>
<path d="M534.227 87.6895L534.57 88.4444L534.227 87.6895ZM569.118 59.8674C569.572 59.8071 569.988 60.1264 570.049 60.5804L571.03 67.9793C571.09 68.4334 570.771 68.8502 570.317 68.9104C569.863 68.9707 569.446 68.6514 569.386 68.1974L568.513 61.6206L561.937 62.4928C561.483 62.553 561.066 62.2337 561.006 61.7797C560.945 61.3257 561.265 60.9088 561.719 60.8486L569.118 59.8674ZM508.185 92.3612C508.915 92.3247 509.648 92.2774 510.382 92.2201L510.511 93.8736C509.763 93.9321 509.014 93.9804 508.268 94.0177L508.185 92.3612ZM514.767 91.7637C516.242 91.5731 517.701 91.3478 519.126 91.0946L519.416 92.7277C517.966 92.9853 516.481 93.2145 514.979 93.4086L514.767 91.7637ZM523.449 90.2202C524.948 89.8785 526.379 89.5107 527.715 89.1264L528.173 90.7203C526.805 91.1138 525.345 91.4892 523.817 91.8373L523.449 90.2202ZM531.88 87.7604C532.609 87.4854 533.279 87.2091 533.883 86.9345L534.57 88.4444C533.927 88.7364 533.223 89.0266 532.465 89.3123L531.88 87.7604ZM533.883 86.9345C534.533 86.6393 535.205 86.3297 535.899 86.0034L536.605 87.5043C535.903 87.8344 535.224 88.1471 534.57 88.4444L533.883 86.9345ZM539.882 84.0444C541.136 83.3967 542.436 82.6929 543.773 81.9232L544.601 83.3606C543.24 84.1442 541.917 84.86 540.643 85.518L539.882 84.0444ZM547.554 79.6197C548.755 78.8455 549.976 78.0157 551.211 77.1242L552.182 78.4689C550.922 79.3784 549.677 80.2246 548.453 81.0138L547.554 79.6197ZM554.727 74.4391C555.844 73.537 556.967 72.5813 558.092 71.5675L559.202 72.7994C558.055 73.8338 556.909 74.809 555.769 75.7295L554.727 74.4391ZM561.295 68.5191C562.31 67.4986 563.324 66.4272 564.332 65.3014L565.568 66.4078C564.54 67.5556 563.506 68.6484 562.47 69.6893L561.295 68.5191ZM567.198 61.928C567.657 61.3595 568.114 60.7786 568.568 60.1852L569.885 61.1937C569.422 61.7981 568.957 62.3899 568.49 62.9693L567.198 61.928Z" fill="#366197"/>
<g clip-path="url(#clip0_9356_70482)">
<path d="M138.156 8.11707L139.155 7.56494L152.664 32.1406L151.666 32.6928L138.156 8.11707Z" fill="#366197"/>
<path d="M164.717 15.5884C165.563 16.5987 167.83 19.6177 168.335 20.3343L167.431 21.8145C166.961 20.9217 165.81 19.1126 164.882 17.7382L165.939 31.3417L164.2 31.4827L163.131 17.7969C162.485 21.0744 161.545 24.258 160.453 26.2668C160.194 25.8087 159.689 25.1391 159.372 24.7631C160.817 22.2139 162.109 17.4562 162.567 13.4268L159.078 13.697L158.938 11.9584L162.65 11.6647L162.156 5.39157H164.447C164.435 5.55604 164.306 5.70875 163.942 5.79099L164.388 11.5237L167.454 11.2888L167.595 13.0274L164.529 13.2624L164.706 15.5649L164.717 15.5884ZM172.753 12.8395L171.014 12.722C171.413 11.2771 171.813 9.2095 172.13 7.40039L166.961 7.7998L166.832 6.14341L183.971 4.8042L184.101 6.46059L173.904 7.25942C173.704 8.35193 173.481 9.46794 173.281 10.537L176.03 10.3255L176.935 10.2785C176.946 10.443 176.97 10.6779 176.958 10.9011C177.616 21.5913 177.757 24.8689 177.158 25.9026C176.664 26.7602 176.018 26.8659 174.468 26.9834C173.986 27.0187 173.481 27.0656 172.976 27.0774C172.917 26.631 172.717 25.9614 172.4 25.562C173.504 25.562 174.515 25.4797 174.996 25.4445C175.278 25.421 175.466 25.327 175.619 25.0333C176.018 24.3285 175.96 21.1097 175.36 11.8997L172.917 12.0876L172.753 12.8395ZM168.253 30.214L168.124 28.5811L186.086 27.1831L186.215 28.816L168.253 30.214ZM173.681 13.7675L174.385 22.7896L170.368 23.1067L170.509 24.9276L169.099 25.0333L168.253 14.1787L173.681 13.7558V13.7675ZM172.858 21.4621L172.377 15.3064L169.769 15.5061L170.25 21.6618L172.87 21.4621H172.858ZM182.515 11.0421C182.938 11.0069 182.996 11.0069 183.302 10.9481L184.277 11.1008C184.265 11.2418 184.218 11.3593 184.159 11.4533C184.054 15.2242 183.49 18.4313 182.468 21.004C183.513 22.5076 184.735 23.6824 186.18 24.3872C185.839 24.7279 185.346 25.3505 185.158 25.7969C183.854 25.0451 182.703 23.9761 181.716 22.6486C180.976 24.0583 180.083 25.233 179.026 26.1728C178.767 25.7734 178.25 25.2448 177.851 24.9394C178.967 24.0348 179.907 22.7191 180.659 21.0157C179.507 18.9834 178.615 16.5399 177.957 13.8732L179.261 13.4856C179.789 15.5414 180.482 17.4915 181.375 19.1713C181.963 17.2918 182.362 15.0832 182.503 12.6398L177.921 12.9922L177.804 11.418L182.526 11.0538L182.515 11.0421Z" fill="#366197"/>
<path d="M206.691 25.3626L219.473 24.6578L219.578 26.5726L193.992 27.9941L193.887 26.0792L204.718 25.4801L203.473 3.0542L206.045 3.07769C206.034 3.2774 205.869 3.43012 205.481 3.5006L205.94 11.8296L216.747 11.2304L216.853 13.1453L206.045 13.7444L206.691 25.3626Z" fill="#366197"/>
<path d="M241.381 6.0029C241.275 6.26135 241.063 6.46105 240.688 6.48455C239.983 15.2834 237.316 23.025 232.641 23.1894C230.268 23.2717 228.047 20.9809 227.895 16.5286C227.66 9.76209 232.735 3.9236 240.135 3.65341C248.276 3.37147 251.977 8.39939 252.177 13.8972C252.412 20.605 248.641 23.9765 241.874 25.7974C241.604 25.351 241.099 24.6109 240.629 24.1175C247.066 22.6491 250.285 19.3833 250.097 14.0499C249.933 9.39792 246.796 5.27456 240.206 5.50951C239.924 5.50951 239.619 5.5565 239.36 5.59174L241.381 6.0029ZM238.655 5.73271C232.993 6.63727 229.633 11.4655 229.798 16.3994C229.903 19.4185 231.266 21.2511 232.617 21.2041C236.024 21.0866 238.209 13.4743 238.643 5.73271H238.655Z" fill="#366197"/>
<path d="M281.097 2.84286L282.518 3.60644C282.436 3.74741 282.295 3.84139 282.189 3.86489C280.686 6.82525 278.418 9.39794 275.716 11.5595C279.194 13.674 283.282 15.2482 287.581 16.0822C287.17 16.5169 286.642 17.304 286.371 17.8209C281.931 16.8811 277.725 15.1425 274.131 12.7695C270.336 15.4244 265.907 17.351 261.702 18.4905C261.525 17.9618 261.056 17.1983 260.691 16.7636C264.686 15.8238 268.915 14.0617 272.545 11.6417C270.63 10.2085 268.973 8.59911 267.587 6.79C265.978 8.4464 264.192 9.91483 262.465 11.0778C262.125 10.7137 261.432 10.138 261.009 9.8091C264.615 7.63582 268.363 3.91188 270.501 0.0117188C272.227 0.634334 272.486 0.740061 272.709 0.845789C272.662 1.0455 272.404 1.12773 272.063 1.08074C271.652 1.76209 271.182 2.44344 270.712 3.13654L280.78 2.97208L281.12 2.8546L281.097 2.84286ZM281.273 26.4788C277.502 25.1865 270.712 23.6241 265.249 22.8958L266.377 21.2394C271.687 21.9207 278.454 23.4479 282.342 24.6579L281.273 26.4788ZM269.302 4.86342L268.832 5.43905C270.183 7.30689 271.992 9.02202 274.072 10.4905C276.269 8.82232 278.16 6.87224 279.511 4.7107L269.302 4.87517V4.86342ZM278.101 20.4406C276.139 19.3715 272.533 17.8796 269.666 17.022L270.771 15.6476C273.602 16.4817 277.185 17.9149 279.17 18.9016L278.089 20.4406H278.101Z" fill="#366197"/>
<path d="M297.793 1.64453L316.096 1.67977L316.049 25.4214H314.075V23.7298L299.696 23.7063V25.5624H297.746L297.793 1.65628V1.64453ZM299.696 21.7797L314.075 21.8032V13.5447L299.708 13.5212V21.7797H299.696ZM314.11 3.59461L299.731 3.57112V11.6651L314.099 11.6886V3.59461H314.11Z" fill="#366197"/>
<path d="M327.549 7.89375C329.37 8.63384 331.626 9.92606 332.765 10.9011L331.661 12.4635C330.557 11.4885 328.325 10.1375 326.504 9.31519L327.549 7.89375ZM327.021 24.4929C328.536 22.2961 330.698 18.5017 332.307 15.2947L333.717 16.5046C332.248 19.4885 330.322 23.0127 328.889 25.2095C328.994 25.3505 329.03 25.4914 329.018 25.6089C329.006 25.7264 328.983 25.8321 328.924 25.9144L327.009 24.4929H327.021ZM333.165 4.95688C332.119 3.88786 329.946 2.46642 328.125 1.58536L329.229 0.222656C331.015 1.04498 333.223 2.38419 334.304 3.42971L333.176 4.95688H333.165ZM349.329 9.16248L352.031 9.20947L351.937 13.9789L350.105 13.9437L350.163 10.7249L336.09 10.4429L336.031 13.6618L334.281 13.6265L334.375 8.85704L337.03 8.90403L337.182 1.15071L349.47 1.3974L349.317 9.15073L349.329 9.16248ZM349.341 12.8629L349.106 24.5634C349.083 25.5502 348.883 26.0318 348.143 26.2903C347.403 26.5252 346.134 26.537 344.102 26.49C344.031 26.0083 343.808 25.3622 343.573 24.9041C345.088 24.9863 346.416 25.0215 346.792 25.0215C347.215 24.9981 347.332 24.8923 347.332 24.5517L347.391 21.7088L338.451 21.5326L338.357 26.349L336.583 26.3138L336.853 12.6045L349.341 12.8512V12.8629ZM338.475 20.0406L347.414 20.2168L347.461 18.0436L338.522 17.8673L338.475 20.0406ZM347.532 14.3783L338.592 14.2021L338.545 16.3402L347.485 16.5164L347.532 14.3783ZM338.897 2.7836L338.78 8.96277L341.999 9.02151L342.081 4.90989L347.614 5.01562L347.649 2.95982L338.909 2.7836H338.897ZM347.52 9.12723L347.579 6.36658L343.573 6.28435L343.514 9.045L347.52 9.12723Z" fill="#366197"/>
<path d="M374.669 6.06132L385.888 6.49598L385.653 12.6634L383.843 12.5929L384.02 7.97616L374.61 7.61198L374.316 15.2478L372.46 15.1774L372.754 7.5415L363.485 7.17733L363.309 11.7941L361.594 11.7236L361.829 5.55618L372.813 5.97909L372.895 3.92328L363.509 3.55911L363.567 1.94971L384.36 2.76028L384.302 4.36968L374.751 3.99377L374.669 6.04957V6.06132ZM364.072 17.75L364.131 16.1994L382.528 16.916L382.105 27.7119L380.249 27.6414L380.296 26.4902L363.168 25.8206L363.227 24.2699L380.354 24.9395L380.448 22.3785L364.554 21.7677L364.613 20.2405L380.507 20.8631L380.601 18.4079L364.061 17.7618L364.072 17.75ZM364.084 13.8616L364.143 12.4519L371.015 12.7221L370.956 14.1318L364.084 13.8616ZM364.895 9.1744L371.121 9.42109L371.062 10.8308L364.836 10.5841L364.895 9.1744ZM375.89 14.3198L375.949 12.9101L383.08 13.192L383.021 14.6017L375.89 14.3198ZM376.078 9.60905L382.481 9.85575L382.422 11.2654L376.031 11.0187L376.09 9.60905H376.078Z" fill="#366197"/>
<path d="M406.141 15.7415L404.59 15.6475L404.743 13.063L396.613 12.5696L396.461 15.1541L394.969 15.0601L395.215 11.0307L396.848 11.1247L397.318 3.21866L405.201 3.68856L404.731 11.5946L406.387 11.6886L406.141 15.718V15.7415ZM404.484 15.0719L403.768 26.972C403.662 28.6637 402.863 28.7811 399.832 28.6049C399.773 28.1468 399.585 27.5124 399.386 27.0778C399.95 27.113 400.42 27.1717 400.819 27.1952C401.947 27.2657 402.052 27.2657 402.088 26.8428L402.276 23.6592L397.741 23.3891L397.436 28.4522L395.803 28.3582L396.625 14.602L404.472 15.0719H404.484ZM397.835 21.9676L402.37 22.2378L402.511 19.9588L397.976 19.6886L397.835 21.9676ZM402.71 16.3758L398.176 16.1056L398.047 18.3024L402.581 18.5726L402.71 16.3758ZM398.716 4.81632L398.329 11.2304L399.938 11.3244L400.208 6.87212L403.439 7.07183L403.556 5.09826L398.716 4.80457V4.81632ZM403.168 11.5241L403.356 8.34056L401.359 8.22308L401.171 11.4066L403.168 11.5241ZM417.183 24.7635C417.113 24.928 416.913 24.9985 416.608 24.9867C416.255 25.7033 415.691 26.6783 415.186 27.4772L419.885 27.7591L419.791 29.251L405.013 28.37L405.107 26.8781L409.583 27.1482C409.465 26.2319 409.113 25.0337 408.69 24.1291L410.099 23.765C410.663 24.787 411.086 26.1732 411.168 27.1013L410.769 27.2187L414.058 27.4184L413.753 27.2892C414.258 26.3847 414.939 24.9632 415.304 24.0234L417.183 24.787V24.7635ZM420.39 16.0586L420.308 17.4918L406.211 16.646L406.293 15.2128L420.39 16.0586ZM419.92 6.39048L419.439 14.4962L407.304 13.7679L407.785 5.66214L411.215 5.87359L411.38 3.0542L413.342 3.31264C413.307 3.47711 413.154 3.58284 412.813 3.61808L412.672 5.95582L414.869 6.08504L415.033 3.26565L416.995 3.5241C416.96 3.68856 416.831 3.82953 416.467 3.82953L416.326 6.16728L419.897 6.37873L419.92 6.39048ZM418.323 24.1174L407.315 23.4595L407.633 18.1967L418.64 18.8545L418.323 24.1174ZM409.03 10.4316L408.913 12.4874L411.051 12.6166L411.168 10.5608L409.03 10.4316ZM409.16 19.5946L409.007 22.2378L416.713 22.696L416.866 20.0528L409.16 19.5946ZM409.23 7.14232L409.113 9.11589L411.251 9.24511L411.368 7.27154L409.23 7.14232ZM414.599 10.7605L412.402 10.6313L412.285 12.6871L414.481 12.8163L414.599 10.7605ZM412.484 9.3156L414.681 9.44482L414.798 7.47125L412.602 7.34202L412.484 9.3156ZM417.97 13.0278L418.088 10.972L415.832 10.831L415.703 12.8868L417.959 13.0278H417.97ZM418.17 9.65627L418.287 7.6827L416.032 7.54173L415.914 9.5153L418.17 9.65627Z" fill="#366197"/>
<path d="M430.125 22.1555C429.784 24.646 429.302 27.3244 428.104 28.7811L427.059 28.0762C428.128 26.7253 428.645 24.223 428.962 21.8383L430.125 22.1555ZM438.266 19.1364L439.135 19.2891C439.123 19.4536 439.076 19.6768 439.053 19.9C438.148 27.1482 437.667 29.6034 436.891 30.367C436.398 30.9191 435.928 31.0248 434.33 30.8956C433.884 30.8604 433.402 30.8251 432.932 30.7546C432.932 30.3082 432.827 29.6151 432.639 29.204C433.614 29.3684 434.483 29.4389 434.847 29.4742C435.211 29.5094 435.411 29.4977 435.634 29.2275C435.94 28.9103 436.257 27.8883 436.668 25.6092L435.681 25.9264C435.458 24.8574 434.882 23.2598 434.272 22.0145L435.2 21.7561C435.81 22.9426 436.386 24.458 436.645 25.4683H436.668C436.879 24.27 437.091 22.6724 437.349 20.6636L430.888 20.1349L430.818 21.0395L429.22 20.9103L430.489 5.48584L439.957 6.26117L439.828 7.85883L436.175 7.55339L435.951 10.3375L439.041 10.596L438.912 12.1114L435.822 11.853L435.599 14.6019L438.724 14.8603L438.595 16.3757L435.47 16.1173L435.235 18.9249L437.902 19.1481H438.266V19.1364ZM430.689 27.6885C430.83 26.2906 430.865 24.1643 430.724 22.4844L431.781 22.4257C431.957 24.1056 431.946 26.2554 431.805 27.6298L430.7 27.6768L430.689 27.6885ZM431.241 15.7649L431.006 18.5725L433.672 18.7957L433.907 15.9881L431.241 15.7649ZM434.037 14.4609L434.26 11.712L431.593 11.4888L431.37 14.2377L434.037 14.4609ZM434.624 7.41242L431.957 7.18922L431.734 9.97337L434.401 10.1966L434.636 7.41242H434.624ZM433.461 22.1672C433.931 23.6474 434.307 25.6092 434.354 26.8545L433.297 26.9954C433.261 25.7502 432.932 23.8001 432.498 22.2847L433.473 22.1672H433.461ZM444.269 30.0498C443.81 29.3567 443.023 28.3347 442.225 27.4184C441.32 29.0982 440.11 30.4375 438.63 31.2833C438.43 30.9543 437.972 30.4022 437.596 30.1203C439.875 28.8633 441.39 26.2788 442.142 22.9661L444.198 23.4477C444.128 23.6357 443.975 23.7414 443.67 23.7414C443.458 24.5402 443.2 25.2921 442.918 25.9969C443.904 27.0072 444.997 28.2877 445.549 29.1335L444.28 30.0498H444.269ZM449.003 5.96749C448.956 6.13195 448.78 6.26117 448.58 6.27292C449.99 9.08056 452.715 12.0997 455.264 13.7795C454.865 14.2025 454.383 14.8368 454.09 15.3185C451.529 13.4154 448.838 10.3023 447.429 7.49466C445.784 9.96162 442.812 12.687 439.746 14.2729C439.581 13.803 439.217 13.1217 438.912 12.6753C442.001 11.2069 445.126 8.35222 446.653 5.63856L449.003 5.94399V5.96749ZM439.981 21.9675L440.521 15.4477L446.195 15.9176L445.655 22.4374L439.981 21.9675ZM441.813 16.9161L441.496 20.734L444.304 20.969L444.621 17.1511L441.813 16.9161ZM451.141 12.8985L451.012 14.4139L443.082 13.7678L443.211 12.2524L451.141 12.8985ZM452.233 32.3758C451.623 31.248 450.401 29.5916 449.238 28.1349C448.322 29.6974 447.159 30.9896 445.714 31.8002C445.49 31.4712 444.997 30.8956 444.656 30.6137C446.935 29.3567 448.474 26.7957 449.261 23.5182L451.341 24.0233C451.294 24.1878 451.117 24.2935 450.777 24.2935C450.565 25.1276 450.272 25.9499 449.954 26.69C451.305 28.2172 452.833 30.2143 453.584 31.4595L452.233 32.364V32.3758ZM453.537 16.5167L452.997 23.0366L447.147 22.5549L447.687 16.0351L453.537 16.5167ZM451.646 21.5681L451.963 17.7502L448.979 17.5035L448.662 21.3214L451.646 21.5681Z" fill="#366197"/>
<path d="M468.367 30.0148C468.132 32.1763 466.182 33.7505 464.02 33.5156C461.859 33.2806 460.284 31.3305 460.519 29.169C460.754 27.0075 462.704 25.4333 464.866 25.6683C467.086 25.9032 468.59 27.912 468.367 30.0148ZM467.356 29.9091C467.533 28.2879 466.381 26.8547 464.76 26.6785C463.162 26.5023 461.729 27.6536 461.565 29.2865C461.389 30.8841 462.54 32.3173 464.138 32.4818C465.817 32.658 467.192 31.448 467.368 29.9091H467.356Z" fill="#366197"/>
<path d="M494.316 10.5371L495.302 11.1127L481.252 35.3947L480.266 34.8191L494.316 10.5371Z" fill="#366197"/>
</g>
<g clip-path="url(#clip1_9356_70482)">
<path d="M586.324 55.7639L588.548 53.6449C588.84 53.3683 589.027 52.9976 589.076 52.5979L590.224 43.4497L585.04 48.0054L585.586 55.4786C585.611 55.847 586.055 56.0187 586.324 55.7639Z" fill="#366197"/>
<path d="M591.062 34.0804C589.833 35.1978 586.258 38.6652 586.258 38.6652C586.073 38.8416 585.822 38.9268 585.567 38.9015L573.836 37.7369C573.536 37.7071 573.237 37.7535 572.963 37.8761L569.977 39.1823C569.619 39.3385 569.63 39.8534 569.998 39.99L580.679 43.9899L575.04 49.3744C574.873 49.5336 574.65 49.6211 574.417 49.6159L569.985 49.5213C569.561 49.5132 569.146 49.6582 568.821 49.9333L566.841 51.6039C566.571 51.8333 566.672 52.272 567.015 52.3608L572.288 53.7346C573.059 53.9354 573.868 53.9203 574.631 53.6944L577.546 52.8284C578.04 52.6826 578.491 52.4299 578.875 52.0861L597.958 35.0832C598.168 34.8941 598.288 34.6131 598.244 34.3351C597.881 32.0501 592.374 32.8882 591.063 34.0834L591.062 34.0804Z" fill="#366197"/>
</g>
<path d="M216.427 170.569H225.801V165.513H216.427V170.569ZM225.801 158.826H216.427V163.682H225.801V158.826ZM214.536 156.955H227.772V173.654H225.801V172.44H216.427V173.733H214.536V156.955ZM245.924 168.539H250.183C248.511 166.628 247.118 164.16 246.142 161.572H245.924V168.539ZM239.634 168.539H243.973V161.572H243.714C242.739 164.18 241.326 166.628 239.634 168.539ZM253.646 161.572H247.993C249.367 164.717 251.636 167.663 254.183 169.215C253.726 169.593 253.049 170.31 252.73 170.847C251.875 170.25 251.059 169.514 250.322 168.678V170.409H245.924V173.932H243.973V170.409H239.574V168.638C238.778 169.514 237.962 170.27 237.106 170.907C236.788 170.429 236.191 169.773 235.733 169.394C238.241 167.802 240.49 164.777 241.843 161.572H236.35V159.702H243.973V155.681H245.924V159.702H253.646V161.572ZM265.468 158.328L264.274 159.721C263.538 159.025 261.965 157.93 260.811 157.174L261.965 155.94C263.08 156.617 264.672 157.652 265.468 158.328ZM264.234 163.463L263.12 164.896C262.383 164.299 260.871 163.344 259.776 162.687L260.851 161.393C261.926 161.971 263.458 162.866 264.234 163.463ZM262.125 173.554L260.433 172.459C261.309 170.987 262.503 168.519 263.398 166.349L264.891 167.464C264.095 169.434 263.06 171.743 262.125 173.554ZM268.713 167.703L269.29 166.568C270.723 166.707 272.594 167.145 273.609 167.563L273.032 168.837C272.036 168.399 270.185 167.902 268.713 167.703ZM268.295 165.812V167.205C268.295 168.021 268.255 168.976 268.096 169.952C269.648 169.653 271.857 169.215 274.086 168.738V165.812H268.295ZM275.838 164.359V172.201C275.838 173.037 275.659 173.475 275.062 173.713C274.465 173.952 273.529 173.972 272.176 173.972C272.096 173.534 271.877 172.897 271.658 172.499C272.554 172.539 273.489 172.539 273.748 172.519C274.007 172.519 274.086 172.44 274.086 172.201V170.111C272.156 170.549 270.185 171.026 268.653 171.345L268.096 169.932C267.857 171.405 267.419 172.917 266.523 174.092C266.205 173.793 265.448 173.295 265.05 173.096C266.404 171.325 266.563 168.917 266.563 167.165V164.359H275.838ZM268.354 157.831V161.692H270.345V158.985H274.007V157.831H268.354ZM274.007 161.692V160.179H271.857V161.692H274.007ZM275.738 161.692H277.788V165.195H276.017V163.145H266.404V165.195H264.712V161.692H266.682V156.378H275.738V161.692ZM285.949 160.239V163.423H284.297V158.866H291.741V157.671H285.352V156.219H300.04V157.671H293.552V158.866H301.195V163.423H299.463V160.239H293.552V165.215H291.741V160.239H285.949ZM299.443 164.379L299.005 165.513C297.891 165.036 295.801 164.339 294.189 163.981L294.646 162.966C296.219 163.264 298.328 163.901 299.443 164.379ZM298.03 160.717L298.786 161.732C297.711 162.17 296.159 162.548 295.064 162.767L294.447 161.871C295.522 161.612 297.114 161.055 298.03 160.717ZM286.705 165.493L286.168 164.18C287.382 163.941 289.173 163.483 290.925 163.025L291.064 164.12C289.531 164.618 287.999 165.115 286.705 165.493ZM286.705 161.732L287.223 160.776C288.397 160.995 290.009 161.373 290.865 161.732L290.347 162.806C289.511 162.428 287.939 161.971 286.705 161.732ZM301.413 168.996V170.429H299.105V173.455H286.645V171.962H297.274V170.429H284.337V168.996H297.274V167.504H286.586V166.011H299.105V168.996H301.413ZM316.619 162.508C317.893 162.508 318.928 163.543 318.928 164.817C318.928 166.09 317.893 167.125 316.619 167.125C315.346 167.125 314.311 166.09 314.311 164.817C314.311 163.543 315.346 162.508 316.619 162.508ZM339.03 166.568L337.956 168.021C337.657 167.464 337 166.528 336.403 165.712V173.912H334.612V165.872C333.875 167.683 332.96 169.394 332.064 170.509C331.885 169.992 331.447 169.235 331.169 168.797C332.343 167.444 333.617 165.075 334.373 162.966H331.547V161.214H334.612V158.507C333.696 158.706 332.781 158.846 331.925 158.965C331.845 158.547 331.607 157.93 331.388 157.532C333.597 157.174 336.105 156.597 337.597 155.94L338.871 157.353C338.155 157.632 337.299 157.89 336.403 158.129V161.214H338.732V162.966H336.403V163.881C336.98 164.379 338.672 166.11 339.03 166.568ZM347.27 166.548H343.668C343.369 166.827 343.071 167.106 342.752 167.384C343.628 167.902 344.603 168.598 345.26 169.215C346.076 168.459 346.753 167.563 347.27 166.548ZM346.275 158.925H342.673C342.494 159.104 342.275 159.304 342.076 159.483C342.852 159.98 343.747 160.637 344.345 161.214C345.121 160.538 345.778 159.781 346.275 158.925ZM348.484 164.936L349.659 165.434C348.027 170.469 343.966 172.877 339.09 173.972C338.931 173.514 338.513 172.778 338.175 172.4C340.284 172.022 342.255 171.325 343.887 170.27C343.23 169.633 342.295 168.917 341.419 168.379C340.881 168.758 340.324 169.096 339.707 169.414C339.468 168.976 338.931 168.379 338.553 168.101C341.14 166.926 342.912 165.215 343.907 163.603C342.573 164.439 341.08 165.056 339.528 165.513C339.329 165.056 338.911 164.379 338.573 164.021C340.165 163.642 341.717 163.025 343.051 162.17C342.474 161.592 341.618 160.916 340.881 160.418C340.384 160.756 339.866 161.075 339.289 161.393C339.05 160.995 338.513 160.378 338.135 160.1C340.623 158.925 342.255 157.214 343.13 155.681L344.942 156.02C344.683 156.477 344.384 156.955 344.046 157.393H347.211L347.529 157.313L348.703 157.87C347.828 160.199 346.315 161.951 344.424 163.264L345.957 163.523C345.678 164.021 345.36 164.518 345.001 164.996H348.146L348.484 164.936ZM359.511 167.125L361.481 166.29L361.919 167.922C359.829 168.917 357.6 169.952 355.868 170.728L355.132 168.877C355.849 168.618 356.764 168.26 357.779 167.842V162.11H355.51V160.358H357.779V155.94H359.511V160.358H361.521V162.11H359.511V167.125ZM366.178 171.882H370.537C371.632 171.882 371.831 171.385 371.99 169.215C372.408 169.494 373.124 169.792 373.622 169.892C373.363 172.639 372.806 173.534 370.656 173.534H366.079C363.631 173.534 362.934 172.917 362.934 170.529V164.777L361.561 165.374L360.864 163.722L362.934 162.846V157.572H364.686V162.11L366.915 161.174V155.701H368.646V160.438L371.313 159.304L372.687 159.761L372.607 160.06C372.448 162.826 372.149 166.469 371.652 168.738L370.139 168.32C370.438 166.608 370.656 163.841 370.756 161.413L368.646 162.329V169.474H366.915V163.065L364.686 164.021V170.549C364.686 171.663 364.904 171.882 366.178 171.882ZM386.38 159.005V160.478H379.175V159.005H382.718C382.399 158.269 381.822 157.134 381.305 156.318L382.678 155.582C383.235 156.418 383.812 157.472 384.131 158.189L382.758 159.005H386.38ZM385.723 161.652V163.105H379.971V161.652H385.723ZM379.971 165.712V164.279H385.723V165.712H379.971ZM384.27 168.459H381.484V171.305H384.27V168.459ZM385.823 172.798H381.484V173.693H379.951V166.966H385.823V172.798ZM388.072 163.284V156.378H389.823V163.304C389.823 167.106 389.564 171.007 387.315 174.092C386.917 173.793 386.141 173.335 385.624 173.156C387.833 170.31 388.072 166.807 388.072 163.284ZM391.535 172.002V157.273H393.207V172.002H391.535ZM395.018 156.219H396.809V173.952H395.018V156.219ZM410.264 167.424L408.851 167.862C408.811 167.563 408.731 167.185 408.652 166.787C404.651 167.364 404.014 167.543 403.596 167.742C403.517 167.384 403.238 166.568 403.039 166.11C403.477 166.011 403.915 165.513 404.532 164.797C404.81 164.478 405.368 163.742 405.985 162.806C404.193 163.006 403.736 163.125 403.457 163.244C403.357 162.906 403.119 162.09 402.919 161.672C403.258 161.572 403.596 161.174 403.994 160.577C404.412 159.98 405.726 157.771 406.462 155.641L408.094 156.298C407.318 158.07 406.303 159.901 405.248 161.393L406.98 161.234C407.477 160.398 407.995 159.463 408.393 158.567L409.925 159.483C408.711 161.672 407.219 163.901 405.706 165.712L408.353 165.374C408.194 164.777 408.035 164.18 407.855 163.623L409.169 163.304C409.627 164.638 410.124 166.389 410.264 167.424ZM403.835 168.479L405.288 168.738C405.089 170.529 404.731 172.499 404.313 173.753C403.994 173.594 403.318 173.375 402.919 173.256C403.377 172.022 403.656 170.171 403.835 168.479ZM405.965 168.658L407.258 168.439C407.517 169.872 407.716 171.723 407.796 172.957L406.422 173.216C406.383 171.982 406.184 170.091 405.965 168.658ZM417.708 165.513L416.792 165.215C417.13 164.478 417.548 163.304 417.747 162.508L418.862 162.846C418.484 163.782 418.066 164.817 417.708 165.513ZM412.592 162.866L413.548 162.607C413.966 163.404 414.344 164.458 414.463 165.175L413.448 165.454C413.349 164.757 412.99 163.662 412.592 162.866ZM412.075 162.15V165.832H414.802V162.15H412.075ZM418.981 165.832V162.15H416.314V165.832H418.981ZM420.534 167.305H417.369C418.424 168.917 419.996 170.609 421.33 171.524C420.932 171.823 420.394 172.4 420.096 172.818C418.902 171.763 417.489 169.972 416.454 168.22V173.932H414.702V168.797C413.687 170.469 412.294 172.042 410.94 172.997C410.741 172.659 410.383 172.121 410.065 171.763L408.831 172.141C408.691 171.086 408.273 169.514 407.915 168.28L409.129 167.941C409.488 169.036 409.866 170.449 410.065 171.464C411.458 170.569 412.891 168.957 413.807 167.305H410.622V160.677H414.682V159.284H410.144V157.691H414.682V155.681H416.434V157.691H420.992V159.284H416.434V160.677H420.534V167.305Z" fill="#366197"/>
<defs>
<filter id="filter0_d_9356_70482" x="133.949" y="48.8555" width="87.4242" height="85.9678" filterUnits="userSpaceOnUse" color-interpolation-filters="sRGB">
<feFlood flood-opacity="0" result="BackgroundImageFix"/>
<feColorMatrix in="SourceAlpha" type="matrix" values="0 0 0 0 0 0 0 0 0 0 0 0 0 0 0 0 0 0 127 0" result="hardAlpha"/>
<feOffset dx="1.6" dy="2"/>
<feComposite in2="hardAlpha" operator="out"/>
<feColorMatrix type="matrix" values="0 0 0 0 0.727881 0 0 0 0 0.564196 0 0 0 0 0.103294 0 0 0 1 0"/>
<feBlend mode="normal" in2="BackgroundImageFix" result="effect1_dropShadow_9356_70482"/>
<feBlend mode="normal" in="SourceGraphic" in2="effect1_dropShadow_9356_70482" result="shape"/>
</filter>
<filter id="filter1_d_9356_70482" x="227.445" y="48.8555" width="87.7992" height="85.8394" filterUnits="userSpaceOnUse" color-interpolation-filters="sRGB">
<feFlood flood-opacity="0" result="BackgroundImageFix"/>
<feColorMatrix in="SourceAlpha" type="matrix" values="0 0 0 0 0 0 0 0 0 0 0 0 0 0 0 0 0 0 127 0" result="hardAlpha"/>
<feOffset dx="1.6" dy="2"/>
<feComposite in2="hardAlpha" operator="out"/>
<feColorMatrix type="matrix" values="0 0 0 0 0.727881 0 0 0 0 0.564196 0 0 0 0 0.103294 0 0 0 1 0"/>
<feBlend mode="normal" in2="BackgroundImageFix" result="effect1_dropShadow_9356_70482"/>
<feBlend mode="normal" in="SourceGraphic" in2="effect1_dropShadow_9356_70482" result="shape"/>
</filter>
<filter id="filter2_d_9356_70482" x="320.566" y="48.8335" width="89.1703" height="86.3652" filterUnits="userSpaceOnUse" color-interpolation-filters="sRGB">
<feFlood flood-opacity="0" result="BackgroundImageFix"/>
<feColorMatrix in="SourceAlpha" type="matrix" values="0 0 0 0 0 0 0 0 0 0 0 0 0 0 0 0 0 0 127 0" result="hardAlpha"/>
<feOffset dx="1.6" dy="2"/>
<feComposite in2="hardAlpha" operator="out"/>
<feColorMatrix type="matrix" values="0 0 0 0 0.727881 0 0 0 0 0.564196 0 0 0 0 0.103294 0 0 0 1 0"/>
<feBlend mode="normal" in2="BackgroundImageFix" result="effect1_dropShadow_9356_70482"/>
<feBlend mode="normal" in="SourceGraphic" in2="effect1_dropShadow_9356_70482" result="shape"/>
</filter>
<filter id="filter3_d_9356_70482" x="417.25" y="49.1885" width="82.7523" height="85.6768" filterUnits="userSpaceOnUse" color-interpolation-filters="sRGB">
<feFlood flood-opacity="0" result="BackgroundImageFix"/>
<feColorMatrix in="SourceAlpha" type="matrix" values="0 0 0 0 0 0 0 0 0 0 0 0 0 0 0 0 0 0 127 0" result="hardAlpha"/>
<feOffset dx="1.6" dy="2"/>
<feComposite in2="hardAlpha" operator="out"/>
<feColorMatrix type="matrix" values="0 0 0 0 0.727881 0 0 0 0 0.564196 0 0 0 0 0.103294 0 0 0 1 0"/>
<feBlend mode="normal" in2="BackgroundImageFix" result="effect1_dropShadow_9356_70482"/>
<feBlend mode="normal" in="SourceGraphic" in2="effect1_dropShadow_9356_70482" result="shape"/>
</filter>
<clipPath id="clip0_9356_70482">
<rect width="357.135" height="35.3834" fill="white" transform="translate(138.156)"/>
</clipPath>
<clipPath id="clip1_9356_70482">
<rect width="34.9048" height="20.6798" fill="white" transform="translate(563.727 40.1626) rotate(-14.0493)"/>
</clipPath>
</defs>
</svg>
