<svg width="235" height="50" viewBox="0 0 235 50" fill="none" xmlns="http://www.w3.org/2000/svg">
<g filter="url(#filter0_d_6490_45872)">
<mask id="path-1-outside-1_6490_45872" maskUnits="userSpaceOnUse" x="0" y="0" width="233" height="48" fill="black">
<rect fill="white" width="233" height="48"/>
<path d="M0.968 4.608H33.32V45.36H28.472V9.168H5.624V45.504H0.968V4.608ZM4.136 21.024H30.488V25.488H4.136V21.024ZM4.088 37.824H30.536V42.384H4.088V37.824ZM43.976 11.28H86.072V15.888H43.976V11.28ZM51.8 32.832H78.008V37.44H51.8V32.832ZM62.552 1.536H67.352V46.032H62.552V1.536ZM58.472 12.864L62.6 14.112C59.096 24.192 53 33.408 45.848 38.64C45.032 37.488 43.544 35.856 42.488 34.944C49.304 30.576 55.4 21.744 58.472 12.864ZM71.288 13.008C74.36 21.744 80.456 30.24 87.464 34.512C86.264 35.424 84.68 37.2 83.864 38.496C76.664 33.408 70.664 24.192 67.208 14.208L71.288 13.008ZM125.72 22.608H130.04V41.808C130.04 43.872 129.56 44.88 128.12 45.504C126.632 46.08 124.424 46.128 121.064 46.128C120.872 45.072 120.344 43.536 119.816 42.48C121.976 42.576 124.232 42.576 124.856 42.576C125.528 42.576 125.72 42.384 125.72 41.76V22.608ZM102.872 16.128H134.744V24.672H130.376V19.728H107.048V24.672H102.872V16.128ZM107.72 3.216H129.752V17.952H125.48V6.768H111.8V17.952H107.72V3.216ZM93.368 5.184L96.2 2.16C98.936 3.792 102.824 6.288 104.744 7.92L101.816 11.328C99.992 9.648 96.152 6.96 93.368 5.184ZM90.824 18.624L93.464 15.456C96.104 16.848 99.848 19.008 101.72 20.448L98.984 23.952C97.208 22.464 93.512 20.208 90.824 18.624ZM92.504 42.384C94.568 38.784 97.496 32.832 99.704 27.504L103.304 30.192C101.384 35.088 98.84 40.704 96.584 45.072L92.504 42.384ZM109.496 22.608H127.256V26.16H109.496V22.608ZM107.384 22.608H111.656V29.52C111.656 34.56 110.984 41.664 107.336 46.416C106.568 45.696 104.696 44.448 103.688 43.968C107 39.648 107.384 33.744 107.384 29.472V22.608ZM111.176 36.192C115.208 35.472 121.16 34.224 126.968 32.976L127.4 36.24C122.216 37.488 116.744 38.784 112.52 39.696L111.176 36.192ZM112.616 30.816L114.056 28.032C117.56 28.368 122.12 29.424 124.568 30.48L123.128 33.552C120.728 32.496 116.168 31.296 112.616 30.816ZM116.6 9.552H127.736V12.432H120.296V18.144H116.6V9.552ZM140.504 33.984H182.168V37.488H140.504V33.984ZM146.12 41.184H174.632V44.88H146.12V41.184ZM145.976 26.688H176.552V44.88H171.992V30.336H145.976V26.688ZM142.952 2.784H178.856V6.384H142.952V2.784ZM158.552 4.896H163.016V24.72H158.552V4.896ZM140.36 9.264H181.64V20.4H177.368V12.624H144.44V20.4H140.36V9.264ZM144.92 22.224C147.944 21.6 152.264 20.544 156.536 19.44L156.92 22.128C153.128 23.328 149.432 24.48 146.264 25.44L144.92 22.224ZM146.264 16.272L147.512 13.92C150.44 14.448 154.328 15.408 156.392 16.272L155.144 18.864C153.128 18 149.24 16.848 146.264 16.272ZM173.912 13.776L175.784 16.272C173.096 17.376 169.352 18.288 166.712 18.816L165.176 16.56C167.816 15.984 171.656 14.64 173.912 13.776ZM164.504 21.696L165.656 19.248C169.496 20.016 174.632 21.552 177.32 22.704L176.264 25.488C173.576 24.288 168.44 22.656 164.504 21.696ZM200.984 21.072H231.32V24.96H200.984V21.072ZM206.312 27.84H226.712V31.488H206.312V27.84ZM208.424 22.512L212.36 23.52C209.912 28.944 205.544 33.696 201.08 36.672C200.408 35.904 198.92 34.512 198.008 33.888C202.424 31.296 206.36 27.216 208.424 22.512ZM225.944 27.84H230.216C230.216 27.84 230.168 28.944 230.072 29.52C229.352 39.216 228.584 43.056 227.288 44.448C226.472 45.408 225.512 45.696 224.312 45.84C223.256 45.936 221.432 45.984 219.512 45.888C219.464 44.784 219.08 43.2 218.504 42.24C220.184 42.384 221.624 42.432 222.296 42.432C222.968 42.432 223.352 42.336 223.736 41.904C224.6 40.992 225.32 37.488 225.944 28.512V27.84ZM209.576 12.336V15.504H223.688V12.336H209.576ZM209.576 6.096V9.216H223.688V6.096H209.576ZM205.496 2.832H227.912V18.768H205.496V2.832ZM187.352 11.76H201.752V16.08H187.352V11.76ZM192.632 1.968H196.904V31.632H192.632V1.968ZM186.344 33.12C190.04 31.68 195.8 29.184 201.32 26.688L202.28 30.624C197.432 33.12 192.2 35.712 188.072 37.68L186.344 33.12ZM220.088 28.56L223.208 30.24C221.432 36.192 217.4 42.912 213.08 46.224C212.312 45.36 210.92 44.304 209.768 43.68C214.376 40.704 218.36 34.32 220.088 28.56ZM212.696 28.656L215.72 30.432C213.32 35.568 208.28 41.184 203.624 44.16C202.904 43.2 201.704 42.096 200.648 41.424C205.352 38.928 210.344 33.552 212.696 28.656Z"/>
</mask>
<path d="M0.968 4.608H33.32V45.36H28.472V9.168H5.624V45.504H0.968V4.608ZM4.136 21.024H30.488V25.488H4.136V21.024ZM4.088 37.824H30.536V42.384H4.088V37.824ZM43.976 11.28H86.072V15.888H43.976V11.28ZM51.8 32.832H78.008V37.44H51.8V32.832ZM62.552 1.536H67.352V46.032H62.552V1.536ZM58.472 12.864L62.6 14.112C59.096 24.192 53 33.408 45.848 38.64C45.032 37.488 43.544 35.856 42.488 34.944C49.304 30.576 55.4 21.744 58.472 12.864ZM71.288 13.008C74.36 21.744 80.456 30.24 87.464 34.512C86.264 35.424 84.68 37.2 83.864 38.496C76.664 33.408 70.664 24.192 67.208 14.208L71.288 13.008ZM125.72 22.608H130.04V41.808C130.04 43.872 129.56 44.88 128.12 45.504C126.632 46.08 124.424 46.128 121.064 46.128C120.872 45.072 120.344 43.536 119.816 42.48C121.976 42.576 124.232 42.576 124.856 42.576C125.528 42.576 125.72 42.384 125.72 41.76V22.608ZM102.872 16.128H134.744V24.672H130.376V19.728H107.048V24.672H102.872V16.128ZM107.72 3.216H129.752V17.952H125.48V6.768H111.8V17.952H107.72V3.216ZM93.368 5.184L96.2 2.16C98.936 3.792 102.824 6.288 104.744 7.92L101.816 11.328C99.992 9.648 96.152 6.96 93.368 5.184ZM90.824 18.624L93.464 15.456C96.104 16.848 99.848 19.008 101.72 20.448L98.984 23.952C97.208 22.464 93.512 20.208 90.824 18.624ZM92.504 42.384C94.568 38.784 97.496 32.832 99.704 27.504L103.304 30.192C101.384 35.088 98.84 40.704 96.584 45.072L92.504 42.384ZM109.496 22.608H127.256V26.16H109.496V22.608ZM107.384 22.608H111.656V29.52C111.656 34.56 110.984 41.664 107.336 46.416C106.568 45.696 104.696 44.448 103.688 43.968C107 39.648 107.384 33.744 107.384 29.472V22.608ZM111.176 36.192C115.208 35.472 121.16 34.224 126.968 32.976L127.4 36.24C122.216 37.488 116.744 38.784 112.52 39.696L111.176 36.192ZM112.616 30.816L114.056 28.032C117.56 28.368 122.12 29.424 124.568 30.48L123.128 33.552C120.728 32.496 116.168 31.296 112.616 30.816ZM116.6 9.552H127.736V12.432H120.296V18.144H116.6V9.552ZM140.504 33.984H182.168V37.488H140.504V33.984ZM146.12 41.184H174.632V44.88H146.12V41.184ZM145.976 26.688H176.552V44.88H171.992V30.336H145.976V26.688ZM142.952 2.784H178.856V6.384H142.952V2.784ZM158.552 4.896H163.016V24.72H158.552V4.896ZM140.36 9.264H181.64V20.4H177.368V12.624H144.44V20.4H140.36V9.264ZM144.92 22.224C147.944 21.6 152.264 20.544 156.536 19.44L156.92 22.128C153.128 23.328 149.432 24.48 146.264 25.44L144.92 22.224ZM146.264 16.272L147.512 13.92C150.44 14.448 154.328 15.408 156.392 16.272L155.144 18.864C153.128 18 149.24 16.848 146.264 16.272ZM173.912 13.776L175.784 16.272C173.096 17.376 169.352 18.288 166.712 18.816L165.176 16.56C167.816 15.984 171.656 14.64 173.912 13.776ZM164.504 21.696L165.656 19.248C169.496 20.016 174.632 21.552 177.32 22.704L176.264 25.488C173.576 24.288 168.44 22.656 164.504 21.696ZM200.984 21.072H231.32V24.96H200.984V21.072ZM206.312 27.84H226.712V31.488H206.312V27.84ZM208.424 22.512L212.36 23.52C209.912 28.944 205.544 33.696 201.08 36.672C200.408 35.904 198.92 34.512 198.008 33.888C202.424 31.296 206.36 27.216 208.424 22.512ZM225.944 27.84H230.216C230.216 27.84 230.168 28.944 230.072 29.52C229.352 39.216 228.584 43.056 227.288 44.448C226.472 45.408 225.512 45.696 224.312 45.84C223.256 45.936 221.432 45.984 219.512 45.888C219.464 44.784 219.08 43.2 218.504 42.24C220.184 42.384 221.624 42.432 222.296 42.432C222.968 42.432 223.352 42.336 223.736 41.904C224.6 40.992 225.32 37.488 225.944 28.512V27.84ZM209.576 12.336V15.504H223.688V12.336H209.576ZM209.576 6.096V9.216H223.688V6.096H209.576ZM205.496 2.832H227.912V18.768H205.496V2.832ZM187.352 11.76H201.752V16.08H187.352V11.76ZM192.632 1.968H196.904V31.632H192.632V1.968ZM186.344 33.12C190.04 31.68 195.8 29.184 201.32 26.688L202.28 30.624C197.432 33.12 192.2 35.712 188.072 37.68L186.344 33.12ZM220.088 28.56L223.208 30.24C221.432 36.192 217.4 42.912 213.08 46.224C212.312 45.36 210.92 44.304 209.768 43.68C214.376 40.704 218.36 34.32 220.088 28.56ZM212.696 28.656L215.72 30.432C213.32 35.568 208.28 41.184 203.624 44.16C202.904 43.2 201.704 42.096 200.648 41.424C205.352 38.928 210.344 33.552 212.696 28.656Z" fill="white"/>
<path d="M5.768 37.632H4.768V38.632H5.768V37.632ZM28.376 37.632V38.632H29.376V37.632H28.376ZM28.376 25.44H29.376V24.44H28.376V25.44ZM5.768 25.44V24.44H4.768V25.44H5.768ZM28.376 9.312H29.376V8.312H28.376V9.312ZM5.768 9.312V8.312H4.768V9.312H5.768ZM5.768 21.024H4.768V22.024H5.768V21.024ZM28.376 21.024V22.024H29.376V21.024H28.376ZM1.208 4.8V3.8H0.208V4.8H1.208ZM33.128 4.8H34.128V3.8H33.128V4.8ZM33.128 45.072V46.072H34.128V45.072H33.128ZM28.376 45.072H27.376V46.072H28.376V45.072ZM28.376 42.144H29.376V41.144H28.376V42.144ZM5.768 42.144V41.144H4.768V42.144H5.768ZM5.768 45.264V46.264H6.768V45.264H5.768ZM1.208 45.264H0.208V46.264H1.208V45.264ZM5.768 38.632H28.376V36.632H5.768V38.632ZM29.376 37.632V25.44H27.376V37.632H29.376ZM28.376 24.44H5.768V26.44H28.376V24.44ZM4.768 25.44V37.632H6.768V25.44H4.768ZM28.376 8.312H5.768V10.312H28.376V8.312ZM4.768 9.312V21.024H6.768V9.312H4.768ZM5.768 22.024H28.376V20.024H5.768V22.024ZM29.376 21.024V9.312H27.376V21.024H29.376ZM1.208 5.8H33.128V3.8H1.208V5.8ZM32.128 4.8V45.072H34.128V4.8H32.128ZM33.128 44.072H28.376V46.072H33.128V44.072ZM29.376 45.072V42.144H27.376V45.072H29.376ZM28.376 41.144H5.768V43.144H28.376V41.144ZM4.768 42.144V45.264H6.768V42.144H4.768ZM5.768 44.264H1.208V46.264H5.768V44.264ZM2.208 45.264V4.8H0.208V45.264H2.208ZM67.304 32.736H66.304V33.736H67.304V32.736ZM77.576 32.736V33.736H79.7798L78.3286 32.0775L77.576 32.736ZM67.832 15.936L68.7677 15.5833L68.5238 14.936H67.832V15.936ZM67.304 15.936V14.936H66.304V15.936H67.304ZM52.136 32.736L51.3873 32.0731L49.9149 33.736H52.136V32.736ZM62.6 32.736V33.736H63.6V32.736H62.6ZM62.6 15.936H63.6V14.936H62.6V15.936ZM61.976 15.936V14.936H61.2824L61.0394 15.5857L61.976 15.936ZM85.928 15.936V16.936H86.928V15.936H85.928ZM72.296 15.936V14.936H70.7681L71.3796 16.3362L72.296 15.936ZM87.224 34.368L87.8609 35.139L88.9434 34.2447L87.7444 33.5141L87.224 34.368ZM83.72 38.304L83.1478 39.1241L84.0312 39.7404L84.5803 38.8138L83.72 38.304ZM77.912 33.072L78.6624 32.411L76.912 30.4241V33.072H77.912ZM77.912 37.248V38.248H78.912V37.248H77.912ZM67.304 37.248V36.248H66.304V37.248H67.304ZM67.304 45.744V46.744H68.304V45.744H67.304ZM62.6 45.744H61.6V46.744H62.6V45.744ZM62.6 37.248H63.6V36.248H62.6V37.248ZM51.992 37.248H50.992V38.248H51.992V37.248ZM51.992 32.976H52.992V30.3894L51.2521 32.3033L51.992 32.976ZM46.04 38.448L45.208 39.0027L45.7921 39.879L46.637 39.2502L46.04 38.448ZM42.728 34.8L42.192 33.9558L41.0294 34.6939L42.0911 35.571L42.728 34.8ZM57.464 15.936L58.3852 16.3251L58.9719 14.936H57.464V15.936ZM44.216 15.936H43.216V16.936H44.216V15.936ZM44.216 11.424V10.424H43.216V11.424H44.216ZM62.6 11.424V12.424H63.6V11.424H62.6ZM62.6 1.728V0.727998H61.6V1.728H62.6ZM67.304 1.728H68.304V0.727998H67.304V1.728ZM67.304 11.424H66.304V12.424H67.304V11.424ZM85.928 11.424H86.928V10.424H85.928V11.424ZM67.304 33.736H77.576V31.736H67.304V33.736ZM78.3286 32.0775C74.39 27.5762 71.086 21.7339 68.7677 15.5833L66.8963 16.2887C69.282 22.6181 72.698 28.6798 76.8234 33.3945L78.3286 32.0775ZM67.832 14.936H67.304V16.936H67.832V14.936ZM66.304 15.936V32.736H68.304V15.936H66.304ZM52.136 33.736H62.6V31.736H52.136V33.736ZM63.6 32.736V15.936H61.6V32.736H63.6ZM62.6 14.936H61.976V16.936H62.6V14.936ZM61.0394 15.5857C58.7239 21.7761 55.3747 27.5697 51.3873 32.0731L52.8847 33.3989C57.0573 28.6863 60.5241 22.6719 62.9126 16.2863L61.0394 15.5857ZM85.928 14.936H72.296V16.936H85.928V14.936ZM71.3796 16.3362C74.7478 24.0489 80.3357 31.3415 86.7036 35.2219L87.7444 33.5141C81.8243 29.9065 76.4682 22.9911 73.2124 15.5358L71.3796 16.3362ZM86.5871 33.597C85.4268 34.5556 83.7048 36.368 82.8597 37.7942L84.5803 38.8138C85.2712 37.648 86.8132 36.0044 87.8609 35.139L86.5871 33.597ZM84.2922 37.4839C82.2987 36.0931 80.3897 34.3717 78.6624 32.411L77.1616 33.733C78.9863 35.8043 81.0133 37.6349 83.1478 39.1241L84.2922 37.4839ZM76.912 33.072V37.248H78.912V33.072H76.912ZM77.912 36.248H67.304V38.248H77.912V36.248ZM66.304 37.248V45.744H68.304V37.248H66.304ZM67.304 44.744H62.6V46.744H67.304V44.744ZM63.6 45.744V37.248H61.6V45.744H63.6ZM62.6 36.248H51.992V38.248H62.6V36.248ZM52.992 37.248V32.976H50.992V37.248H52.992ZM51.2521 32.3033C49.3679 34.3759 47.447 36.1544 45.443 37.6458L46.637 39.2502C48.761 37.6696 50.7761 35.8001 52.7319 33.6487L51.2521 32.3033ZM46.8721 37.8933C46.0475 36.6565 44.5408 35.0005 43.3649 34.029L42.0911 35.571C43.1232 36.4235 44.4965 37.9355 45.208 39.0027L46.8721 37.8933ZM43.264 35.6442C49.5337 31.6634 55.0688 24.1772 58.3852 16.3251L56.5428 15.5469C53.3312 23.1508 48.0183 30.2566 42.192 33.9558L43.264 35.6442ZM57.464 14.936H44.216V16.936H57.464V14.936ZM45.216 15.936V11.424H43.216V15.936H45.216ZM44.216 12.424H62.6V10.424H44.216V12.424ZM63.6 11.424V1.728H61.6V11.424H63.6ZM62.6 2.728H67.304V0.727998H62.6V2.728ZM66.304 1.728V11.424H68.304V1.728H66.304ZM67.304 12.424H85.928V10.424H67.304V12.424ZM84.928 11.424V15.936H86.928V11.424H84.928ZM104.84 8.112L105.599 8.76279L106.253 8.00039L105.488 7.35006L104.84 8.112ZM101.96 11.472L101.273 12.1985L102.036 12.9202L102.719 12.1228L101.96 11.472ZM93.608 5.328L92.8777 4.64484L92.0656 5.51297L93.06 6.16446L93.608 5.328ZM96.392 2.352L96.911 1.49721L96.2166 1.07565L95.6617 1.66884L96.392 2.352ZM101.864 20.496L102.653 21.1099L103.271 20.3164L102.474 19.7034L101.864 20.496ZM99.176 23.952L98.5462 24.7288L99.3389 25.3714L99.9654 24.5659L99.176 23.952ZM91.112 18.624L90.3428 17.985L89.5978 18.8817L90.5975 19.4815L91.112 18.624ZM93.704 15.504L94.1771 14.623L93.4571 14.2363L92.9348 14.865L93.704 15.504ZM96.776 44.832L96.2327 45.6716L97.1585 46.2706L97.6645 45.2909L96.776 44.832ZM92.696 42.192L91.8365 41.6809L91.3444 42.5085L92.1527 43.0316L92.696 42.192ZM99.848 27.456L100.446 26.6547L99.4149 25.8846L98.9237 27.0744L99.848 27.456ZM103.448 30.144L104.375 30.5186L104.664 29.8039L104.046 29.3427L103.448 30.144ZM112.664 30.72L111.773 30.2665L111.134 31.5223L112.53 31.711L112.664 30.72ZM114.056 27.984L114.153 26.9887L113.474 26.9227L113.165 27.5305L114.056 27.984ZM124.472 30.384L125.383 30.7967L125.81 29.8536L124.853 29.4593L124.472 30.384ZM123.08 33.456L122.677 34.3713L123.583 34.7697L123.991 33.8687L123.08 33.456ZM111.656 26.16V25.16H110.656V26.16H111.656ZM111.176 36.144L110.189 35.9829L109.958 37.3965L111.365 37.126L111.176 36.144ZM125.624 33.216L125.834 34.1938L126.624 34.0244V33.216H125.624ZM125.624 26.16H126.624V25.16H125.624V26.16ZM129.848 22.656H130.848V21.656H129.848V22.656ZM127.976 45.216L127.605 44.2875V44.2875L127.976 45.216ZM121.016 45.84L120.032 46.0189L120.181 46.84H121.016V45.84ZM119.768 42.288L119.812 41.289L118.034 41.2099L118.892 42.7699L119.768 42.288ZM124.808 42.336V41.336H124.77L124.731 41.3389L124.808 42.336ZM125.624 36.528H126.624V35.2758L125.403 35.5528L125.624 36.528ZM112.52 39.504L111.59 39.8709L111.899 40.6545L112.723 40.4831L112.52 39.504ZM111.176 36.096L112.106 35.7291L110.771 32.3441L110.189 35.9359L111.176 36.096ZM107.384 46.128L106.7 46.8575L107.508 47.6147L108.179 46.7345L107.384 46.128ZM103.832 43.728L103.037 43.1209L102.303 44.0817L103.385 44.6224L103.832 43.728ZM107.48 22.656V21.656H106.48V22.656H107.48ZM111.8 6.912V5.912H110.8V6.912H111.8ZM111.8 16.224H110.8V17.224H111.8V16.224ZM116.6 16.224V17.224H117.6V16.224H116.6ZM116.6 9.696V8.696H115.6V9.696H116.6ZM125.432 9.696V10.696H126.432V9.696H125.432ZM125.432 6.912H126.432V5.912H125.432V6.912ZM125.432 16.224V17.224H126.432V16.224H125.432ZM125.432 12.576H126.432V11.576H125.432V12.576ZM120.248 12.576V11.576H119.248V12.576H120.248ZM120.248 16.224H119.248V17.224H120.248V16.224ZM129.608 16.224H128.608V17.224H129.608V16.224ZM134.552 16.224H135.552V15.224H134.552V16.224ZM134.552 24.672V25.672H135.552V24.672H134.552ZM130.28 24.672H129.28V25.672H130.28V24.672ZM130.28 19.728H131.28V18.728H130.28V19.728ZM107.096 19.728V18.728H106.096V19.728H107.096ZM107.096 24.672V25.672H108.096V24.672H107.096ZM103.016 24.672H102.016V25.672H103.016V24.672ZM103.016 16.224V15.224H102.016V16.224H103.016ZM107.768 16.224V17.224H108.768V16.224H107.768ZM107.768 3.408V2.408H106.768V3.408H107.768ZM129.608 3.408H130.608V2.408H129.608V3.408ZM104.081 7.46121L101.201 10.8212L102.719 12.1228L105.599 8.76279L104.081 7.46121ZM102.647 10.7455C100.797 8.99501 96.9305 6.30928 94.156 4.49154L93.06 6.16446C95.8535 7.99472 99.5714 10.589 101.273 12.1985L102.647 10.7455ZM94.3383 6.01115L97.1223 3.03516L95.6617 1.66884L92.8777 4.64484L94.3383 6.01115ZM95.873 3.20679C98.5621 4.83941 102.34 7.29914 104.192 8.87394L105.488 7.35006C103.5 5.66086 99.5979 3.12858 96.911 1.49721L95.873 3.20679ZM101.075 19.8821L98.3867 23.3381L99.9654 24.5659L102.653 21.1099L101.075 19.8821ZM99.8058 23.1752C97.9669 21.6842 94.2596 19.3463 91.6265 17.7665L90.5975 19.4815C93.2444 21.0697 96.8331 23.3398 98.5462 24.7288L99.8058 23.1752ZM91.8812 19.263L94.4732 16.143L92.9348 14.865L90.3428 17.985L91.8812 19.263ZM93.2309 16.385C95.8193 17.775 99.4523 19.9025 101.254 21.2886L102.474 19.7034C100.532 18.2095 96.7728 16.017 94.1771 14.623L93.2309 16.385ZM97.3193 43.9924L93.2393 41.3524L92.1527 43.0316L96.2327 45.6716L97.3193 43.9924ZM93.5555 42.7031C95.7 39.0964 98.6008 33.0975 100.772 27.8376L98.9237 27.0744C96.7752 32.2785 93.916 38.1836 91.8365 41.6809L93.5555 42.7031ZM99.2497 28.2573L102.85 30.9453L104.046 29.3427L100.446 26.6547L99.2497 28.2573ZM102.521 29.7694C100.61 34.4997 98.1262 40.0386 95.8875 44.3731L97.6645 45.2909C99.9378 40.8894 102.446 35.2923 104.375 30.5186L102.521 29.7694ZM113.555 31.1735L114.947 28.4375L113.165 27.5305L111.773 30.2665L113.555 31.1735ZM113.959 28.9793C117.341 29.3081 121.753 30.3459 124.091 31.3087L124.853 29.4593C122.295 28.4061 117.683 27.3319 114.153 26.9887L113.959 28.9793ZM123.561 29.9713L122.169 33.0433L123.991 33.8687L125.383 30.7967L123.561 29.9713ZM123.483 32.5407C120.979 31.4389 116.42 30.2185 112.798 29.729L112.53 31.711C116.012 32.1815 120.381 33.3611 122.677 34.3713L123.483 32.5407ZM110.656 26.16V29.52H112.656V26.16H110.656ZM110.656 29.52C110.656 31.4583 110.561 33.7037 110.189 35.9829L112.163 36.3051C112.559 33.8803 112.656 31.5177 112.656 29.52H110.656ZM111.365 37.126C115.113 36.4052 120.449 35.3477 125.834 34.1938L125.414 32.2382C120.047 33.3883 114.727 34.4428 110.987 35.162L111.365 37.126ZM126.624 33.216V26.16H124.624V33.216H126.624ZM125.624 25.16H111.656V27.16H125.624V25.16ZM128.848 22.656V41.568H130.848V22.656H128.848ZM128.848 41.568C128.848 42.5305 128.74 43.1125 128.554 43.4921C128.394 43.8186 128.138 44.074 127.605 44.2875L128.347 46.1445C129.254 45.782 129.934 45.2214 130.35 44.3719C130.74 43.5755 130.848 42.6215 130.848 41.568H128.848ZM127.605 44.2875C127.028 44.5182 126.226 44.6651 125.107 44.7466C123.997 44.8276 122.652 44.84 121.016 44.84V46.84C122.644 46.84 124.059 46.8284 125.253 46.7414C126.438 46.6549 127.484 46.4898 128.347 46.1445L127.605 44.2875ZM122 45.6611C121.79 44.5064 121.228 42.867 120.644 41.8061L118.892 42.7699C119.364 43.629 119.858 45.0616 120.032 46.0189L122 45.6611ZM119.724 43.287C121.888 43.3832 124.196 43.386 124.885 43.3331L124.731 41.3389C124.172 41.382 121.968 41.3848 119.812 41.289L119.724 43.287ZM124.808 43.336C125.159 43.336 125.714 43.2971 126.14 42.8921C126.58 42.4723 126.624 41.91 126.624 41.568H124.624C124.624 41.6654 124.615 41.6845 124.621 41.6611C124.631 41.6257 124.667 41.5331 124.76 41.4439C124.851 41.3572 124.937 41.3319 124.951 41.3281C124.958 41.3264 124.921 41.336 124.808 41.336V43.336ZM126.624 41.568V36.528H124.624V41.568H126.624ZM125.403 35.5528C120.723 36.6142 116.002 37.7591 112.317 38.5249L112.723 40.4831C116.43 39.7129 121.213 38.5538 125.845 37.5032L125.403 35.5528ZM113.45 39.1371L112.106 35.7291L110.246 36.4629L111.59 39.8709L113.45 39.1371ZM110.189 35.9359C109.623 39.4262 108.602 42.8826 106.589 45.5215L108.179 46.7345C110.486 43.7094 111.577 39.8698 112.163 36.2561L110.189 35.9359ZM108.068 45.3985C107.213 44.5965 105.302 43.3451 104.279 42.8336L103.385 44.6224C104.282 45.0709 106.019 46.2195 106.7 46.8575L108.068 45.3985ZM104.627 44.3351C108.112 39.7728 108.48 33.653 108.48 29.424H106.48C106.48 33.643 106.08 39.1392 103.037 43.1209L104.627 44.3351ZM108.48 29.424V22.656H106.48V29.424H108.48ZM107.48 23.656H129.848V21.656H107.48V23.656ZM110.8 6.912V16.224H112.8V6.912H110.8ZM111.8 17.224H116.6V15.224H111.8V17.224ZM117.6 16.224V9.696H115.6V16.224H117.6ZM116.6 10.696H125.432V8.696H116.6V10.696ZM126.432 9.696V6.912H124.432V9.696H126.432ZM125.432 5.912H111.8V7.912H125.432V5.912ZM126.432 16.224V12.576H124.432V16.224H126.432ZM125.432 11.576H120.248V13.576H125.432V11.576ZM119.248 12.576V16.224H121.248V12.576H119.248ZM120.248 17.224H125.432V15.224H120.248V17.224ZM129.608 17.224H134.552V15.224H129.608V17.224ZM133.552 16.224V24.672H135.552V16.224H133.552ZM134.552 23.672H130.28V25.672H134.552V23.672ZM131.28 24.672V19.728H129.28V24.672H131.28ZM130.28 18.728H107.096V20.728H130.28V18.728ZM106.096 19.728V24.672H108.096V19.728H106.096ZM107.096 23.672H103.016V25.672H107.096V23.672ZM104.016 24.672V16.224H102.016V24.672H104.016ZM103.016 17.224H107.768V15.224H103.016V17.224ZM108.768 16.224V3.408H106.768V16.224H108.768ZM107.768 4.408H129.608V2.408H107.768V4.408ZM128.608 3.408V16.224H130.608V3.408H128.608ZM144.632 12.72V11.72H143.632V12.72H144.632ZM144.632 20.4V21.4H145.632V20.4H144.632ZM140.648 20.4H139.648V21.4H140.648V20.4ZM140.648 9.408V8.408H139.648V9.408H140.648ZM158.6 9.408V10.408H159.6V9.408H158.6ZM158.6 6.528H159.6V5.528H158.6V6.528ZM143.192 6.528H142.192V7.528H143.192V6.528ZM143.192 3.024V2.024H142.192V3.024H143.192ZM178.616 3.024H179.616V2.024H178.616V3.024ZM178.616 6.528V7.528H179.616V6.528H178.616ZM162.968 6.528V5.528H161.968V6.528H162.968ZM162.968 9.408H161.968V10.408H162.968V9.408ZM181.4 9.408H182.4V8.408H181.4V9.408ZM181.4 20.4V21.4H182.4V20.4H181.4ZM177.224 20.4H176.224V21.4H177.224V20.4ZM177.224 12.72H178.224V11.72H177.224V12.72ZM162.968 12.72V11.72H161.968V12.72H162.968ZM162.968 24.72V25.72H163.968V24.72H162.968ZM158.6 24.72H157.6V25.72H158.6V24.72ZM158.6 12.72H159.6V11.72H158.6V12.72ZM177.176 22.704L178.109 23.0641L178.456 22.1646L177.57 21.7849L177.176 22.704ZM176.12 25.44L175.726 26.3591L176.679 26.7677L177.053 25.8001L176.12 25.44ZM164.504 21.744L163.592 21.3329L163.087 22.4535L164.287 22.7202L164.504 21.744ZM165.608 19.296L165.795 18.3136L165.02 18.1666L164.696 18.8849L165.608 19.296ZM173.768 13.872L174.57 13.2745L174.123 12.6747L173.421 12.934L173.768 13.872ZM175.592 16.32L175.969 17.2461L177.166 16.7586L176.394 15.7225L175.592 16.32ZM166.616 18.816L165.792 19.3833L166.166 19.9258L166.812 19.7966L166.616 18.816ZM165.128 16.656L164.894 15.6838L163.479 16.0245L164.304 17.2233L165.128 16.656ZM146.456 25.392L145.53 25.7706L145.872 26.6047L146.737 26.3518L146.456 25.392ZM145.16 22.224L144.967 21.2428L143.774 21.4775L144.234 22.6026L145.16 22.224ZM156.632 19.44L157.624 19.3137L157.48 18.1847L156.379 18.4725L156.632 19.44ZM156.968 22.08L157.277 23.0311L158.065 22.7754L157.96 21.9537L156.968 22.08ZM146.456 16.32L145.577 15.8437L144.927 17.0427L146.266 17.3018L146.456 16.32ZM147.704 14.016L147.887 13.0329L147.171 12.8995L146.825 13.5397L147.704 14.016ZM156.488 16.32L157.389 16.7538L157.846 15.8044L156.874 15.3976L156.488 16.32ZM155.24 18.912L154.828 19.8231L155.717 20.2255L156.141 19.3458L155.24 18.912ZM181.928 33.84H182.928V32.84H181.928V33.84ZM181.928 37.296V38.296H182.928V37.296H181.928ZM176.36 37.296V36.296H175.36V37.296H176.36ZM176.36 44.592V45.592H177.36V44.592H176.36ZM146.312 44.592H145.312V45.592H146.312V44.592ZM146.312 40.992V39.992H145.312V40.992H146.312ZM171.944 40.992V41.992H172.944V40.992H171.944ZM171.944 37.296H172.944V36.296H171.944V37.296ZM140.744 37.296H139.744V38.296H140.744V37.296ZM140.744 33.84V32.84H139.744V33.84H140.744ZM171.944 33.84V34.84H172.944V33.84H171.944ZM171.944 30.24H172.944V29.24H171.944V30.24ZM146.168 30.24H145.168V31.24H146.168V30.24ZM146.168 26.64V25.64H145.168V26.64H146.168ZM176.36 26.64H177.36V25.64H176.36V26.64ZM176.36 33.84H175.36V34.84H176.36V33.84ZM143.632 12.72V20.4H145.632V12.72H143.632ZM144.632 19.4H140.648V21.4H144.632V19.4ZM141.648 20.4V9.408H139.648V20.4H141.648ZM140.648 10.408H158.6V8.408H140.648V10.408ZM159.6 9.408V6.528H157.6V9.408H159.6ZM158.6 5.528H143.192V7.528H158.6V5.528ZM144.192 6.528V3.024H142.192V6.528H144.192ZM143.192 4.024H178.616V2.024H143.192V4.024ZM177.616 3.024V6.528H179.616V3.024H177.616ZM178.616 5.528H162.968V7.528H178.616V5.528ZM161.968 6.528V9.408H163.968V6.528H161.968ZM162.968 10.408H181.4V8.408H162.968V10.408ZM180.4 9.408V20.4H182.4V9.408H180.4ZM181.4 19.4H177.224V21.4H181.4V19.4ZM178.224 20.4V12.72H176.224V20.4H178.224ZM177.224 11.72H162.968V13.72H177.224V11.72ZM161.968 12.72V24.72H163.968V12.72H161.968ZM162.968 23.72H158.6V25.72H162.968V23.72ZM159.6 24.72V12.72H157.6V24.72H159.6ZM158.6 11.72H144.632V13.72H158.6V11.72ZM176.243 22.3439L175.187 25.0799L177.053 25.8001L178.109 23.0641L176.243 22.3439ZM176.514 24.5209C173.769 23.3446 168.67 21.6454 164.721 20.7678L164.287 22.7202C168.114 23.5706 173.095 25.2314 175.726 26.3591L176.514 24.5209ZM165.416 22.1551L166.52 19.7071L164.696 18.8849L163.592 21.3329L165.416 22.1551ZM165.421 20.2784C169.153 20.9869 174.17 22.5036 176.782 23.6231L177.57 21.7849C174.806 20.6004 169.647 19.0451 165.795 18.3136L165.421 20.2784ZM172.966 14.4695L174.79 16.9175L176.394 15.7225L174.57 13.2745L172.966 14.4695ZM175.215 15.3939C172.713 16.4132 169.044 17.3106 166.42 17.8354L166.812 19.7966C169.468 19.2654 173.287 18.3388 175.969 17.2461L175.215 15.3939ZM167.44 18.2487L165.952 16.0887L164.304 17.2233L165.792 19.3833L167.44 18.2487ZM165.362 17.6282C168.017 16.989 171.907 15.626 174.115 14.81L173.421 12.934C171.213 13.75 167.423 15.075 164.894 15.6838L165.362 17.6282ZM147.382 25.0134L146.086 21.8454L144.234 22.6026L145.53 25.7706L147.382 25.0134ZM145.353 23.2052C148.317 22.6221 152.668 21.5096 156.885 20.4075L156.379 18.4725C152.148 19.5784 147.859 20.6739 144.967 21.2428L145.353 23.2052ZM155.64 19.5663L155.976 22.2063L157.96 21.9537L157.624 19.3137L155.64 19.5663ZM156.659 21.1289C152.959 22.3302 149.278 23.5252 146.175 24.4322L146.737 26.3518C149.874 25.4348 153.585 24.2298 157.277 23.0311L156.659 21.1289ZM147.335 16.7963L148.583 14.4923L146.825 13.5397L145.577 15.8437L147.335 16.7963ZM147.521 14.9991C150.349 15.5264 154.145 16.4232 156.102 17.2424L156.874 15.3976C154.703 14.4888 150.723 13.5616 147.887 13.0329L147.521 14.9991ZM155.587 15.8862L154.339 18.4782L156.141 19.3458L157.389 16.7538L155.587 15.8862ZM155.652 18.0009C153.541 17.0457 149.667 15.9228 146.646 15.3382L146.266 17.3018C149.197 17.8692 152.907 18.9543 154.828 19.8231L155.652 18.0009ZM180.928 33.84V37.296H182.928V33.84H180.928ZM181.928 36.296H176.36V38.296H181.928V36.296ZM175.36 37.296V44.592H177.36V37.296H175.36ZM176.36 43.592H146.312V45.592H176.36V43.592ZM147.312 44.592V40.992H145.312V44.592H147.312ZM146.312 41.992H171.944V39.992H146.312V41.992ZM172.944 40.992V37.296H170.944V40.992H172.944ZM171.944 36.296H140.744V38.296H171.944V36.296ZM141.744 37.296V33.84H139.744V37.296H141.744ZM140.744 34.84H171.944V32.84H140.744V34.84ZM172.944 33.84V30.24H170.944V33.84H172.944ZM171.944 29.24H146.168V31.24H171.944V29.24ZM147.168 30.24V26.64H145.168V30.24H147.168ZM146.168 27.64H176.36V25.64H146.168V27.64ZM175.36 26.64V33.84H177.36V26.64H175.36ZM176.36 34.84H181.928V32.84H176.36V34.84ZM223.592 9.36V10.36H224.592V9.36H223.592ZM223.592 6.24H224.592V5.24H223.592V6.24ZM209.576 6.24V5.24H208.576V6.24H209.576ZM209.576 9.36H208.576V10.36H209.576V9.36ZM223.592 15.552V16.552H224.592V15.552H223.592ZM223.592 12.384H224.592V11.384H223.592V12.384ZM209.576 12.384V11.384H208.576V12.384H209.576ZM209.576 15.552H208.576V16.552H209.576V15.552ZM227.72 3.024H228.72V2.024H227.72V3.024ZM227.72 18.768V19.768H228.72V18.768H227.72ZM205.544 18.768H204.544V19.768H205.544V18.768ZM205.544 3.024V2.024H204.544V3.024H205.544ZM201.416 26.592L202.388 26.355L202.102 25.1849L201.004 25.6806L201.416 26.592ZM202.376 30.528L202.83 31.4188L203.535 31.0595L203.348 30.291L202.376 30.528ZM188.36 37.488L187.427 37.849L187.817 38.8544L188.79 38.3909L188.36 37.488ZM186.632 33.024L186.27 32.092L185.339 32.4539L185.699 33.385L186.632 33.024ZM192.872 30.432L193.266 31.3511L193.872 31.0914V30.432H192.872ZM192.872 16.128H193.872V15.128H192.872V16.128ZM187.592 16.128H186.592V17.128H187.592V16.128ZM187.592 11.904V10.904H186.592V11.904H187.592ZM192.872 11.904V12.904H193.872V11.904H192.872ZM192.872 2.208V1.208H191.872V2.208H192.872ZM197 2.208H198V1.208H197V2.208ZM197 11.904H196V12.904H197V11.904ZM201.848 11.904H202.848V10.904H201.848V11.904ZM201.848 16.128V17.128H202.848V16.128H201.848ZM197 16.128V15.128H196V16.128H197ZM197 28.608H196V30.1782L197.423 29.5142L197 28.608ZM231.08 24.864V25.864H232.08V24.864H231.08ZM211.688 24.864V23.864H211.083L210.802 24.4L211.688 24.864ZM209.912 27.744L209.107 27.1508L207.933 28.744H209.912V27.744ZM229.976 27.744L230.975 27.7874L231.02 26.744H229.976V27.744ZM229.88 29.424L228.883 29.341L228.883 29.3443L229.88 29.424ZM227.096 44.208L226.353 43.539L226.351 43.5412L227.096 44.208ZM224.216 45.552L224.303 46.5482L224.321 46.5466L224.34 46.5443L224.216 45.552ZM219.416 45.6L218.417 45.6454L218.458 46.5534L219.366 46.5988L219.416 45.6ZM218.408 42L218.525 41.0069L216.503 40.769L217.551 42.5145L218.408 42ZM223.64 41.664L222.89 41.0024L222.874 41.0205L222.859 41.0393L223.64 41.664ZM225.56 31.344L226.556 31.4288L226.649 30.344H225.56V31.344ZM222.68 31.344V30.344H221.967L221.735 31.018L222.68 31.344ZM213.032 45.936L212.282 46.5976L212.897 47.2941L213.637 46.7325L213.032 45.936ZM209.816 43.44L209.261 42.6079L207.908 43.5102L209.324 44.3106L209.816 43.44ZM218.936 31.344L219.859 31.728L220.435 30.344H218.936V31.344ZM215.144 31.344V30.344H214.55L214.266 30.8651L215.144 31.344ZM203.72 43.872L202.915 44.4652L203.466 45.2132L204.253 44.7184L203.72 43.872ZM200.744 41.184L200.275 40.301L198.76 41.1065L200.207 42.0277L200.744 41.184ZM211.112 31.344L211.946 31.8964L212.974 30.344H211.112V31.344ZM207.08 31.344V30.344H206.636L206.338 30.6731L207.08 31.344ZM201.176 36.48L200.42 37.1349L201.001 37.8045L201.735 37.3091L201.176 36.48ZM198.152 33.696L197.655 32.8285L196.31 33.5993L197.567 34.5067L198.152 33.696ZM207.224 24.864L208.079 25.3818L208.998 23.864H207.224V24.864ZM201.08 24.864H200.08V25.864H201.08V24.864ZM201.08 21.072V20.072H200.08V21.072H201.08ZM231.08 21.072H232.08V20.072H231.08V21.072ZM224.592 9.36V6.24H222.592V9.36H224.592ZM223.592 5.24H209.576V7.24H223.592V5.24ZM208.576 6.24V9.36H210.576V6.24H208.576ZM209.576 10.36H223.592V8.36H209.576V10.36ZM224.592 15.552V12.384H222.592V15.552H224.592ZM223.592 11.384H209.576V13.384H223.592V11.384ZM208.576 12.384V15.552H210.576V12.384H208.576ZM209.576 16.552H223.592V14.552H209.576V16.552ZM226.72 3.024V18.768H228.72V3.024H226.72ZM227.72 17.768H205.544V19.768H227.72V17.768ZM206.544 18.768V3.024H204.544V18.768H206.544ZM205.544 4.024H227.72V2.024H205.544V4.024ZM200.444 26.829L201.404 30.765L203.348 30.291L202.388 26.355L200.444 26.829ZM201.922 29.6372C197.125 32.0835 191.95 34.6708 187.93 36.5851L188.79 38.3909C192.834 36.4652 198.027 33.8685 202.83 31.4188L201.922 29.6372ZM189.293 37.127L187.565 32.663L185.699 33.385L187.427 37.849L189.293 37.127ZM186.994 33.956C188.74 33.2771 190.914 32.3589 193.266 31.3511L192.478 29.5129C190.126 30.5211 187.98 31.4269 186.27 32.092L186.994 33.956ZM193.872 30.432V16.128H191.872V30.432H193.872ZM192.872 15.128H187.592V17.128H192.872V15.128ZM188.592 16.128V11.904H186.592V16.128H188.592ZM187.592 12.904H192.872V10.904H187.592V12.904ZM193.872 11.904V2.208H191.872V11.904H193.872ZM192.872 3.208H197V1.208H192.872V3.208ZM196 2.208V11.904H198V2.208H196ZM197 12.904H201.848V10.904H197V12.904ZM200.848 11.904V16.128H202.848V11.904H200.848ZM201.848 15.128H197V17.128H201.848V15.128ZM196 16.128V28.608H198V16.128H196ZM197.423 29.5142C198.856 28.8453 200.339 28.1758 201.828 27.5034L201.004 25.6806C199.517 26.3521 198.024 27.0267 196.577 27.7018L197.423 29.5142ZM231.08 23.864H211.688V25.864H231.08V23.864ZM210.802 24.4C210.292 25.3745 209.742 26.2891 209.107 27.1508L210.717 28.3372C211.426 27.3749 212.028 26.3695 212.574 25.328L210.802 24.4ZM209.912 28.744H229.976V26.744H209.912V28.744ZM229.976 27.744C228.977 27.7006 228.977 27.7006 228.977 27.7006C228.977 27.7006 228.977 27.7006 228.977 27.7006C228.977 27.7006 228.977 27.7006 228.977 27.7007C228.977 27.7008 228.977 27.701 228.977 27.7012C228.977 27.7017 228.977 27.7024 228.977 27.7034C228.977 27.7054 228.977 27.7084 228.976 27.7124C228.976 27.7204 228.976 27.7323 228.975 27.7477C228.973 27.7785 228.971 27.8233 228.969 27.8789C228.964 27.9902 228.956 28.1444 228.947 28.3163C228.929 28.6643 228.906 29.0703 228.883 29.341L230.877 29.507C230.902 29.2017 230.927 28.7677 230.945 28.4197C230.954 28.2436 230.961 28.0858 230.967 27.9721C230.969 27.9152 230.971 27.8693 230.973 27.8374C230.974 27.8215 230.974 27.8091 230.974 27.8007C230.975 27.7964 230.975 27.7932 230.975 27.791C230.975 27.7898 230.975 27.789 230.975 27.7884C230.975 27.7881 230.975 27.7879 230.975 27.7877C230.975 27.7876 230.975 27.7876 230.975 27.7875C230.975 27.7875 230.975 27.7875 230.975 27.7875C230.975 27.7875 230.975 27.7874 229.976 27.744ZM228.883 29.3443C228.499 34.1408 228.131 37.4308 227.703 39.6902C227.268 41.9931 226.8 43.0419 226.353 43.539L227.839 44.877C228.688 43.9341 229.228 42.3909 229.669 40.0618C230.117 37.6892 230.493 34.3072 230.877 29.5037L228.883 29.3443ZM226.351 43.5412C225.761 44.2007 225.123 44.4309 224.092 44.5597L224.34 46.5443C225.613 46.3851 226.799 46.0393 227.841 44.8748L226.351 43.5412ZM224.129 44.5558C223.076 44.6474 221.346 44.6952 219.466 44.6012L219.366 46.5988C221.326 46.6968 223.148 46.6486 224.303 46.5482L224.129 44.5558ZM220.415 45.5546C220.361 44.3775 219.947 42.6216 219.266 41.4855L217.551 42.5145C218.021 43.2984 218.375 44.7105 218.417 45.6454L220.415 45.5546ZM218.291 42.9931C219.986 43.1925 221.524 43.192 222.152 43.192V41.192C221.532 41.192 220.094 41.1915 218.525 41.0069L218.291 42.9931ZM222.152 43.192C222.504 43.192 222.921 43.1854 223.316 43.0638C223.769 42.9245 224.122 42.6619 224.421 42.2887L222.859 41.0393C222.809 41.1019 222.779 41.1259 222.767 41.134C222.759 41.1402 222.75 41.1455 222.728 41.1522C222.655 41.1746 222.52 41.192 222.152 41.192V43.192ZM224.39 42.3256C224.693 41.9823 224.919 41.5202 225.105 40.9925C225.297 40.4519 225.471 39.7696 225.636 38.9273C225.964 37.2424 226.267 34.8244 226.556 31.4288L224.564 31.2592C224.277 34.6316 223.98 36.9656 223.672 38.5447C223.519 39.3344 223.366 39.9121 223.22 40.3255C223.069 40.7518 222.947 40.9377 222.89 41.0024L224.39 42.3256ZM225.56 30.344H222.68V32.344H225.56V30.344ZM221.735 31.018C219.854 36.4704 216.203 42.2739 212.427 45.1395L213.637 46.7325C217.829 43.5501 221.666 37.3536 223.625 31.67L221.735 31.018ZM213.782 45.2744C212.968 44.3519 211.478 43.2308 210.308 42.5694L209.324 44.3106C210.362 44.8972 211.656 45.8881 212.282 46.5976L213.782 45.2744ZM210.371 44.272C214.333 41.6304 217.797 36.6875 219.859 31.728L218.013 30.96C216.043 35.6965 212.787 40.2576 209.261 42.6079L210.371 44.272ZM218.936 30.344H215.144V32.344H218.936V30.344ZM214.266 30.8651C211.744 35.4889 207.295 40.4409 203.187 43.0256L204.253 44.7184C208.689 41.9271 213.36 36.7031 216.022 31.8229L214.266 30.8651ZM204.525 43.2788C203.765 42.2471 202.417 41.0635 201.281 40.3403L200.207 42.0277C201.183 42.6485 202.331 43.6729 202.915 44.4652L204.525 43.2788ZM201.213 42.067C205.182 39.9569 209.234 35.9878 211.946 31.8964L210.278 30.7916C207.71 34.6682 203.89 38.3791 200.275 40.301L201.213 42.067ZM211.112 30.344H207.08V32.344H211.112V30.344ZM206.338 30.6731C204.569 32.6289 202.614 34.3039 200.617 35.6509L201.735 37.3091C203.866 35.8721 205.943 34.0911 207.822 32.0149L206.338 30.6731ZM201.932 35.8251C201.263 35.0531 199.67 33.5591 198.737 32.8853L197.567 34.5067C198.362 35.0809 199.841 36.4669 200.42 37.1349L201.932 35.8251ZM198.649 34.5635C202.392 32.4179 205.781 29.1795 208.079 25.3818L206.368 24.3462C204.251 27.8445 201.112 30.8461 197.655 32.8285L198.649 34.5635ZM207.224 23.864H201.08V25.864H207.224V23.864ZM202.08 24.864V21.072H200.08V24.864H202.08ZM201.08 22.072H231.08V20.072H201.08V22.072ZM230.08 21.072V24.864H232.08V21.072H230.08Z" fill="#B38607" mask="url(#path-1-outside-1_6490_45872)"/>
</g>
<defs>
<filter id="filter0_d_6490_45872" x="0.207031" y="0.728027" width="233.871" height="48.8867" filterUnits="userSpaceOnUse" color-interpolation-filters="sRGB">
<feFlood flood-opacity="0" result="BackgroundImageFix"/>
<feColorMatrix in="SourceAlpha" type="matrix" values="0 0 0 0 0 0 0 0 0 0 0 0 0 0 0 0 0 0 127 0" result="hardAlpha"/>
<feOffset dx="2" dy="2"/>
<feComposite in2="hardAlpha" operator="out"/>
<feColorMatrix type="matrix" values="0 0 0 0 0.701961 0 0 0 0 0.52549 0 0 0 0 0.027451 0 0 0 1 0"/>
<feBlend mode="normal" in2="BackgroundImageFix" result="effect1_dropShadow_6490_45872"/>
<feBlend mode="normal" in="SourceGraphic" in2="effect1_dropShadow_6490_45872" result="shape"/>
</filter>
</defs>
</svg>
