<svg width="375" height="43" viewBox="0 0 375 43" fill="none" xmlns="http://www.w3.org/2000/svg">
<g clip-path="url(#clip0_7651_83846)">
<path d="M-127.434 18.8902C-82.7549 1.20406 -34.6102 -1.01911 11.034 11.6827C17.5538 13.5093 24.0465 15.4281 30.5717 17.2122C82.649 32.9585 135.871 38.6509 189.25 36.8455C215.882 36.5977 242.574 35.7764 268.974 31.1601C295.389 26.643 321.344 18.5292 347.26 10.472C386.141 -1.76252 427.294 -3.19271 466.168 9.76394C479.1 14.0262 491.738 19.7469 503.942 26.7279C479.485 12.9288 453.264 4.4326 426.675 2.14572C413.397 0.949172 400.043 1.21114 386.792 2.86081C373.535 4.46092 360.392 7.4629 347.456 11.5269C321.555 19.7469 295.563 27.8466 269.104 32.4275C229.372 39.189 189.228 38.4881 149.257 38.0208C122.581 37.5322 95.9327 34.24 69.6527 28.2714C56.5046 25.3402 43.4215 21.9772 30.3927 18.2813C17.3694 14.628 4.4382 10.387 -8.77502 8.04347C-48.317 0.665967 -89.0795 4.07151 -127.434 18.8902Z" fill="white"/>
<path d="M-133.789 26.6581C-84.8741 -2.30672 -28.7071 -6.49108 23.1477 10.4942C60.8672 22.4242 102.015 38.2908 140.776 40.7051C194.041 44.316 247.696 40.429 300.126 27.4015C313.242 24.2296 326.325 20.8241 339.365 17.1283C352.42 13.4891 365.411 9.2339 378.668 6.96826C405.149 2.16792 432.145 2.23873 458.587 7.32226C471.719 9.96316 485.187 13.5811 497.603 18.9549C459.195 4.30612 418.383 0.773137 378.814 8.29932C365.59 10.6924 352.643 14.8768 339.603 18.5514C300.495 29.6743 260.877 38.8643 220.825 41.406C194.155 43.0345 167.408 43.3602 140.749 41.2644C122.469 39.7776 104.174 36.1172 86.2685 31.1257C61.5344 24.5412 28.2464 12.1651 3.35501 6.42309C-43.7862 -4.12632 -89.8698 2.55025 -133.789 26.6581Z" fill="white"/>
</g>
<defs>
<clipPath id="clip0_7651_83846">
<rect width="375" height="43" fill="white"/>
</clipPath>
</defs>
</svg>
