<svg width="1200" height="60" viewBox="0 0 1200 60" fill="none" xmlns="http://www.w3.org/2000/svg">
<g clip-path="url(#clip0_6109_8229)">
<path d="M11.9531 26.1279C96.0235 1.00552 186.616 -2.15238 272.503 15.8899C284.771 18.4846 296.988 21.21 309.266 23.7444C407.258 46.1111 507.404 54.1969 607.845 51.6324C657.959 51.2804 708.184 50.1138 757.859 43.5566C807.564 37.1403 856.402 25.615 905.168 14.1701C978.328 -3.20836 1055.76 -5.23987 1128.91 13.1644C1153.25 19.2187 1177.03 27.3448 1199.99 37.261C1153.97 17.6599 1104.63 5.5915 1054.6 2.3431C1029.62 0.643466 1004.49 1.01557 979.553 3.35885C954.608 5.63173 929.878 9.8959 905.536 15.6686C856.8 27.3448 807.891 38.85 758.104 45.3568C683.342 54.9613 607.804 53.9656 532.593 53.3019C482.398 52.6079 432.254 47.9314 382.804 39.4534C358.063 35.2898 333.445 30.5127 308.929 25.263C284.424 20.0736 260.092 14.0494 235.229 10.7206C160.824 0.241187 84.1228 5.0786 11.9531 26.1279Z" fill="white"/>
<path d="M0 37.1608C92.0415 -3.98232 197.729 -9.926 295.302 14.2007C366.278 31.1467 443.704 53.6845 516.639 57.1139C616.866 62.243 717.828 56.7217 816.483 38.2168C841.162 33.7113 865.78 28.8739 890.317 23.6241C914.884 18.4548 939.328 12.4106 964.272 9.19234C1014.1 2.3737 1064.9 2.47427 1114.65 9.69519C1139.36 13.4464 1164.71 18.5856 1188.07 26.2188C1115.8 5.41091 1039 0.392473 964.548 11.0831C939.665 14.4823 915.302 20.426 890.766 25.6456C817.177 41.4451 742.63 54.4991 667.266 58.1095C617.081 60.4226 566.753 60.8853 516.588 57.9084C482.192 55.7964 447.766 50.597 414.075 43.5068C367.533 34.1538 304.897 16.5742 258.059 8.41795C169.355 -6.56696 82.6414 2.91678 0 37.1608Z" fill="white"/>
</g>
<defs>
<clipPath id="clip0_6109_8229">
<rect width="1200" height="60" fill="white"/>
</clipPath>
</defs>
</svg>
